<svg xmlns="http://www.w3.org/2000/svg" xmlns:xlink="http://www.w3.org/1999/xlink" width="500" zoomAndPan="magnify" viewBox="0 0 375 374.999991" height="500" preserveAspectRatio="xMidYMid meet" version="1.0"><defs><clipPath id="f2f710af0d"><path d="M 19 227 L 366.625 227 L 366.625 340.28125 L 19 340.28125 Z M 19 227 " clip-rule="nonzero"/></clipPath><clipPath id="c94ec9a99f"><path d="M 8.125 35.03125 L 231 35.03125 L 231 325 L 8.125 325 Z M 8.125 35.03125 " clip-rule="nonzero"/></clipPath></defs><g clip-path="url(#f2f710af0d)"><path fill="#231f20" d="M 355.027344 234.550781 C 350.820312 232.207031 346.269531 230.351562 341.496094 229.101562 C 339.113281 228.484375 336.671875 228.011719 334.199219 227.683594 L 333.964844 227.648438 L 333.851562 227.636719 L 333.734375 227.621094 L 333.265625 227.570312 C 332.957031 227.535156 332.648438 227.5 332.339844 227.46875 C 332.023438 227.4375 331.714844 227.410156 331.402344 227.382812 L 330.9375 227.34375 C 330.855469 227.335938 330.78125 227.328125 330.699219 227.324219 L 330.46875 227.308594 C 330.152344 227.289062 329.839844 227.269531 329.527344 227.25 C 329.371094 227.242188 329.214844 227.226562 329.058594 227.222656 L 328.585938 227.203125 C 328.269531 227.191406 327.957031 227.179688 327.640625 227.167969 C 327.328125 227.160156 327.011719 227.15625 326.699219 227.152344 C 325.4375 227.128906 324.171875 227.160156 322.90625 227.203125 C 322.589844 227.21875 322.273438 227.234375 321.957031 227.253906 L 321.242188 227.289062 L 321.003906 227.308594 C 320.6875 227.332031 320.375 227.355469 320.054688 227.378906 C 319.898438 227.390625 319.738281 227.402344 319.578125 227.417969 L 319.105469 227.460938 C 318.785156 227.492188 318.46875 227.523438 318.152344 227.550781 C 317.835938 227.585938 317.519531 227.625 317.203125 227.664062 L 316.488281 227.746094 L 316.25 227.777344 C 315.933594 227.820312 315.617188 227.863281 315.300781 227.910156 C 315.140625 227.929688 314.984375 227.949219 314.824219 227.976562 L 314.351562 228.050781 C 314.035156 228.097656 313.714844 228.148438 313.398438 228.199219 C 313.082031 228.25 312.769531 228.308594 312.453125 228.363281 L 311.976562 228.449219 C 311.820312 228.476562 311.660156 228.503906 311.503906 228.535156 C 308.980469 229.015625 306.457031 229.601562 303.957031 230.289062 L 303.71875 230.351562 L 303.488281 230.414062 L 303.015625 230.546875 C 302.707031 230.640625 302.390625 230.726562 302.082031 230.816406 C 301.769531 230.910156 301.457031 231.007812 301.144531 231.101562 C 300.835938 231.195312 300.523438 231.289062 300.210938 231.390625 C 299.589844 231.589844 298.96875 231.78125 298.351562 231.992188 C 298.042969 232.097656 297.730469 232.199219 297.421875 232.304688 C 297.113281 232.414062 296.804688 232.523438 296.496094 232.628906 C 295.257812 233.058594 294.027344 233.523438 292.800781 233.992188 C 292.496094 234.113281 292.191406 234.234375 291.886719 234.355469 C 291.578125 234.480469 291.273438 234.597656 290.96875 234.722656 C 290.664062 234.847656 290.359375 234.976562 290.054688 235.101562 L 289.597656 235.289062 L 289.140625 235.484375 C 286.707031 236.511719 284.296875 237.613281 281.902344 238.777344 C 279.511719 239.949219 277.136719 241.183594 274.78125 242.46875 L 274.339844 242.710938 L 273.902344 242.957031 C 273.605469 243.117188 273.316406 243.285156 273.019531 243.449219 C 272.726562 243.609375 272.4375 243.777344 272.140625 243.945312 C 271.847656 244.113281 271.558594 244.277344 271.261719 244.445312 C 270.972656 244.613281 270.679688 244.785156 270.390625 244.953125 C 270.097656 245.121094 269.804688 245.292969 269.519531 245.464844 C 268.9375 245.808594 268.355469 246.152344 267.777344 246.496094 C 267.484375 246.667969 267.199219 246.84375 266.90625 247.019531 C 266.621094 247.191406 266.332031 247.367188 266.039062 247.542969 C 265.75 247.71875 265.460938 247.894531 265.171875 248.070312 C 264.882812 248.246094 264.59375 248.421875 264.308594 248.597656 C 263.730469 248.957031 263.148438 249.308594 262.574219 249.667969 C 261.996094 250.027344 261.421875 250.386719 260.847656 250.75 L 260.414062 251.019531 L 259.980469 251.292969 C 259.695312 251.476562 259.40625 251.660156 259.121094 251.84375 C 258.832031 252.027344 258.542969 252.207031 258.257812 252.390625 C 257.96875 252.574219 257.683594 252.761719 257.394531 252.945312 C 256.820312 253.3125 256.246094 253.6875 255.671875 254.054688 C 255.101562 254.429688 254.53125 254.804688 253.953125 255.179688 C 244.789062 261.199219 235.707031 267.613281 226.558594 274.167969 C 217.414062 280.722656 208.199219 287.417969 198.742188 293.976562 C 196.378906 295.613281 194 297.246094 191.605469 298.863281 C 189.207031 300.480469 186.792969 302.085938 184.355469 303.667969 C 183.75 304.066406 183.136719 304.457031 182.527344 304.851562 C 181.914062 305.246094 181.304688 305.640625 180.6875 306.027344 C 180.074219 306.417969 179.460938 306.808594 178.84375 307.199219 C 178.226562 307.585938 177.605469 307.972656 176.988281 308.359375 C 174.507812 309.894531 172.007812 311.414062 169.480469 312.898438 C 166.949219 314.378906 164.398438 315.832031 161.816406 317.246094 C 159.238281 318.660156 156.628906 320.03125 153.988281 321.367188 C 151.355469 322.703125 148.683594 323.980469 145.988281 325.210938 C 144.640625 325.835938 143.277344 326.425781 141.917969 327.023438 C 141.234375 327.3125 140.550781 327.601562 139.867188 327.894531 C 139.523438 328.039062 139.179688 328.175781 138.835938 328.320312 C 138.492188 328.460938 138.144531 328.597656 137.800781 328.738281 C 137.503906 328.863281 137.203125 328.980469 136.90625 329.101562 C 136.605469 329.222656 136.304688 329.339844 136.003906 329.457031 C 135.703125 329.574219 135.402344 329.691406 135.101562 329.808594 L 134.652344 329.984375 C 134.503906 330.042969 134.351562 330.101562 134.203125 330.15625 C 132.992188 330.609375 131.792969 331.070312 130.578125 331.492188 C 130.273438 331.597656 129.972656 331.707031 129.667969 331.816406 L 129.214844 331.976562 L 128.761719 332.132812 C 128.152344 332.339844 127.542969 332.542969 126.9375 332.75 C 126.785156 332.800781 126.632812 332.855469 126.480469 332.90625 L 126.023438 333.050781 C 125.71875 333.148438 125.414062 333.246094 125.109375 333.34375 C 124.804688 333.441406 124.5 333.542969 124.191406 333.640625 L 123.964844 333.710938 L 123.734375 333.785156 L 123.277344 333.921875 C 122.664062 334.109375 122.050781 334.292969 121.4375 334.480469 C 121.285156 334.527344 121.132812 334.570312 120.980469 334.613281 L 120.519531 334.746094 C 120.210938 334.832031 119.902344 334.921875 119.597656 335.007812 C 119.289062 335.097656 118.984375 335.183594 118.675781 335.269531 C 118.367188 335.351562 118.058594 335.4375 117.75 335.519531 C 117.132812 335.683594 116.519531 335.847656 115.902344 336.007812 C 113.445312 336.640625 110.992188 337.183594 108.539062 337.472656 C 107.3125 337.617188 106.089844 337.691406 104.878906 337.679688 C 103.664062 337.667969 102.460938 337.570312 101.285156 337.359375 C 101.140625 337.332031 100.992188 337.3125 100.847656 337.277344 L 100.628906 337.234375 L 100.519531 337.210938 L 100.414062 337.1875 C 100.132812 337.125 99.859375 337.050781 99.582031 336.964844 C 99.308594 336.882812 99.039062 336.785156 98.773438 336.683594 C 98.507812 336.578125 98.246094 336.46875 97.988281 336.34375 C 97.734375 336.21875 97.484375 336.09375 97.242188 335.949219 L 97.0625 335.839844 L 96.886719 335.730469 C 96.773438 335.652344 96.652344 335.578125 96.542969 335.496094 C 96.488281 335.453125 96.429688 335.414062 96.378906 335.375 L 96.214844 335.25 C 96.164062 335.207031 96.113281 335.164062 96.0625 335.117188 L 95.984375 335.054688 C 95.957031 335.035156 95.933594 335.011719 95.910156 334.988281 C 95.707031 334.808594 95.523438 334.621094 95.351562 334.425781 C 95.007812 334.035156 94.730469 333.613281 94.535156 333.167969 C 94.4375 332.949219 94.367188 332.71875 94.308594 332.488281 C 94.25 332.257812 94.222656 332.019531 94.207031 331.78125 C 94.183594 331.300781 94.242188 330.8125 94.382812 330.3125 C 94.519531 329.820312 94.730469 329.316406 94.996094 328.820312 C 95.261719 328.324219 95.574219 327.832031 95.914062 327.34375 C 96.085938 327.101562 96.261719 326.855469 96.445312 326.609375 C 96.535156 326.488281 96.628906 326.363281 96.722656 326.242188 L 97 325.882812 C 97.378906 325.40625 97.765625 324.933594 98.167969 324.46875 C 98.566406 324.003906 98.976562 323.542969 99.394531 323.085938 C 100.230469 322.179688 101.09375 321.289062 101.96875 320.40625 C 102.847656 319.527344 103.738281 318.65625 104.636719 317.789062 C 106.429688 316.058594 108.246094 314.335938 110.035156 312.582031 C 111.824219 310.828125 113.585938 309.046875 115.277344 307.179688 C 116.117188 306.246094 116.945312 305.296875 117.738281 304.316406 C 117.933594 304.070312 118.136719 303.828125 118.328125 303.574219 L 118.621094 303.203125 L 118.90625 302.824219 C 119.097656 302.574219 119.285156 302.316406 119.472656 302.0625 C 119.566406 301.933594 119.65625 301.804688 119.746094 301.675781 C 119.839844 301.546875 119.933594 301.417969 120.019531 301.285156 L 120.289062 300.894531 C 120.378906 300.761719 120.464844 300.628906 120.554688 300.496094 C 120.730469 300.234375 120.898438 299.960938 121.066406 299.695312 C 121.402344 299.152344 121.726562 298.601562 122.03125 298.039062 C 122.1875 297.761719 122.328125 297.472656 122.476562 297.1875 C 122.546875 297.046875 122.617188 296.898438 122.6875 296.757812 L 122.792969 296.539062 L 122.890625 296.320312 L 123.089844 295.882812 L 123.277344 295.4375 C 123.339844 295.289062 123.398438 295.136719 123.457031 294.984375 L 123.542969 294.757812 C 123.570312 294.683594 123.601562 294.609375 123.625 294.53125 L 123.789062 294.074219 C 123.816406 294 123.839844 293.921875 123.863281 293.84375 L 123.9375 293.613281 L 124.007812 293.378906 C 124.03125 293.300781 124.054688 293.222656 124.078125 293.144531 C 124.121094 292.988281 124.164062 292.832031 124.207031 292.675781 C 124.367188 292.042969 124.5 291.40625 124.601562 290.757812 C 124.695312 290.113281 124.757812 289.457031 124.777344 288.796875 C 124.789062 288.132812 124.761719 287.46875 124.683594 286.804688 C 124.527344 285.476562 124.140625 284.160156 123.539062 282.957031 C 123.238281 282.355469 122.886719 281.777344 122.488281 281.242188 C 122.089844 280.703125 121.644531 280.207031 121.171875 279.746094 C 120.222656 278.824219 119.148438 278.066406 118.023438 277.4375 C 116.894531 276.816406 115.710938 276.328125 114.507812 275.945312 C 113.90625 275.753906 113.296875 275.589844 112.6875 275.449219 C 112.382812 275.375 112.074219 275.316406 111.765625 275.253906 L 111.304688 275.167969 C 111.152344 275.140625 110.996094 275.121094 110.839844 275.097656 C 110.222656 275 109.605469 274.925781 108.984375 274.875 C 108.363281 274.828125 107.746094 274.796875 107.125 274.785156 C 106.503906 274.773438 105.882812 274.785156 105.265625 274.816406 C 104.644531 274.847656 104.027344 274.902344 103.414062 274.976562 C 102.183594 275.125 100.960938 275.355469 99.761719 275.699219 L 99.3125 275.832031 C 99.160156 275.875 99.015625 275.925781 98.867188 275.972656 C 98.789062 276 98.71875 276.023438 98.648438 276.050781 L 98.433594 276.121094 L 98.007812 276.273438 L 97.792969 276.347656 L 97.582031 276.425781 L 97.15625 276.585938 C 97.015625 276.636719 96.875 276.6875 96.734375 276.742188 L 96.3125 276.90625 C 95.191406 277.347656 94.085938 277.816406 92.996094 278.3125 C 91.90625 278.8125 90.832031 279.335938 89.773438 279.875 C 89.507812 280.015625 89.242188 280.148438 88.980469 280.285156 C 88.71875 280.425781 88.457031 280.566406 88.195312 280.703125 C 87.933594 280.847656 87.671875 280.988281 87.410156 281.128906 C 87.152344 281.269531 86.894531 281.417969 86.632812 281.5625 C 85.601562 282.140625 84.582031 282.734375 83.570312 283.335938 C 82.558594 283.9375 81.554688 284.550781 80.5625 285.171875 C 78.574219 286.410156 76.617188 287.671875 74.667969 288.925781 C 73.691406 289.550781 72.71875 290.175781 71.746094 290.789062 C 71.261719 291.097656 70.773438 291.40625 70.289062 291.714844 C 69.800781 292.019531 69.3125 292.324219 68.824219 292.628906 C 67.847656 293.238281 66.875 293.851562 65.902344 294.460938 C 64.933594 295.078125 63.96875 295.695312 63.003906 296.308594 C 59.15625 298.785156 55.371094 301.292969 51.648438 303.835938 C 50.71875 304.472656 49.789062 305.101562 48.871094 305.746094 C 48.410156 306.066406 47.949219 306.386719 47.488281 306.707031 C 47.03125 307.027344 46.570312 307.34375 46.117188 307.667969 C 45.203125 308.316406 44.292969 308.960938 43.382812 309.601562 C 42.480469 310.253906 41.582031 310.90625 40.683594 311.554688 C 33.507812 316.769531 26.59375 322.09375 19.980469 327.539062 C 34.816406 315.917969 51.082031 304.726562 68.601562 294.167969 C 69.148438 293.839844 69.695312 293.507812 70.246094 293.175781 C 70.796875 292.847656 71.347656 292.511719 71.898438 292.175781 C 72.996094 291.507812 74.09375 290.828125 75.191406 290.148438 C 77.386719 288.785156 79.585938 287.414062 81.816406 286.082031 C 84.046875 284.746094 86.308594 283.445312 88.621094 282.234375 C 90.933594 281.027344 93.300781 279.90625 95.734375 278.933594 C 96.34375 278.6875 96.953125 278.457031 97.570312 278.230469 L 98.035156 278.066406 C 98.1875 278.011719 98.34375 277.953125 98.5 277.902344 L 98.964844 277.746094 L 99.199219 277.667969 C 99.277344 277.640625 99.351562 277.617188 99.429688 277.59375 C 100.644531 277.207031 101.914062 276.945312 103.195312 276.785156 C 104.480469 276.625 105.78125 276.566406 107.082031 276.601562 C 108.382812 276.640625 109.679688 276.773438 110.960938 277.003906 C 112.242188 277.238281 113.5 277.578125 114.710938 278.035156 C 115.917969 278.496094 117.074219 279.074219 118.125 279.796875 C 119.171875 280.519531 120.105469 281.386719 120.84375 282.390625 C 121.210938 282.894531 121.53125 283.429688 121.792969 283.996094 C 122.054688 284.558594 122.261719 285.148438 122.410156 285.753906 C 122.554688 286.359375 122.648438 286.984375 122.683594 287.617188 C 122.71875 288.246094 122.703125 288.882812 122.640625 289.523438 C 122.582031 290.160156 122.480469 290.804688 122.332031 291.4375 C 122.1875 292.070312 122.007812 292.695312 121.796875 293.316406 C 121.578125 293.9375 121.332031 294.546875 121.058594 295.152344 L 120.851562 295.601562 L 120.628906 296.046875 C 120.558594 296.199219 120.476562 296.34375 120.398438 296.492188 L 120.28125 296.710938 C 120.242188 296.789062 120.203125 296.859375 120.160156 296.929688 C 119.839844 297.515625 119.492188 298.089844 119.128906 298.65625 C 118.769531 299.222656 118.386719 299.78125 117.992188 300.332031 C 116.410156 302.53125 114.601562 304.601562 112.703125 306.605469 C 110.800781 308.613281 108.800781 310.550781 106.765625 312.484375 C 104.734375 314.417969 102.664062 316.339844 100.628906 318.34375 C 100.121094 318.84375 99.613281 319.347656 99.113281 319.859375 C 98.609375 320.371094 98.109375 320.890625 97.621094 321.417969 C 97.128906 321.949219 96.640625 322.484375 96.164062 323.035156 C 95.691406 323.589844 95.222656 324.15625 94.773438 324.738281 C 94.328125 325.3125 93.886719 325.910156 93.464844 326.550781 C 93.050781 327.1875 92.65625 327.867188 92.34375 328.621094 C 92.183594 328.992188 92.046875 329.386719 91.941406 329.792969 C 91.886719 329.996094 91.84375 330.207031 91.804688 330.417969 C 91.769531 330.628906 91.738281 330.839844 91.722656 331.0625 C 91.703125 331.277344 91.699219 331.496094 91.699219 331.714844 C 91.703125 331.824219 91.707031 331.933594 91.714844 332.042969 L 91.746094 332.375 C 91.800781 332.8125 91.898438 333.246094 92.039062 333.664062 L 92.09375 333.820312 C 92.113281 333.871094 92.128906 333.921875 92.152344 333.972656 L 92.277344 334.277344 L 92.417969 334.570312 C 92.46875 334.667969 92.523438 334.761719 92.574219 334.859375 C 92.789062 335.230469 93.035156 335.585938 93.300781 335.910156 C 93.566406 336.238281 93.859375 336.539062 94.164062 336.816406 C 94.464844 337.097656 94.78125 337.351562 95.113281 337.585938 C 95.441406 337.824219 95.78125 338.039062 96.125 338.238281 C 96.472656 338.433594 96.828125 338.613281 97.1875 338.78125 C 97.90625 339.105469 98.652344 339.371094 99.414062 339.570312 C 99.601562 339.625 99.796875 339.671875 99.984375 339.714844 C 100.171875 339.753906 100.359375 339.792969 100.546875 339.832031 C 100.734375 339.863281 100.921875 339.902344 101.113281 339.933594 L 101.535156 340 L 101.675781 340.019531 C 102.429688 340.128906 103.191406 340.195312 103.949219 340.230469 C 105.464844 340.300781 106.976562 340.242188 108.46875 340.089844 C 109.957031 339.933594 111.433594 339.691406 112.886719 339.394531 C 113.613281 339.246094 114.335938 339.085938 115.054688 338.917969 C 115.773438 338.746094 116.488281 338.570312 117.195312 338.378906 C 117.90625 338.195312 118.617188 338.007812 119.324219 337.820312 C 120.03125 337.621094 120.742188 337.421875 121.449219 337.21875 L 121.980469 337.070312 C 122.15625 337.019531 122.332031 336.964844 122.507812 336.914062 C 122.863281 336.808594 123.214844 336.703125 123.566406 336.597656 C 123.917969 336.488281 124.273438 336.382812 124.625 336.277344 C 124.976562 336.167969 125.328125 336.050781 125.679688 335.941406 C 126.03125 335.832031 126.382812 335.71875 126.734375 335.605469 C 127.085938 335.496094 127.4375 335.382812 127.785156 335.261719 C 128.484375 335.027344 129.1875 334.792969 129.886719 334.554688 C 130.0625 334.496094 130.234375 334.433594 130.410156 334.375 L 130.933594 334.1875 C 131.28125 334.066406 131.628906 333.941406 131.980469 333.820312 C 132.679688 333.574219 133.371094 333.3125 134.066406 333.054688 C 134.410156 332.925781 134.757812 332.796875 135.105469 332.664062 C 135.28125 332.601562 135.453125 332.535156 135.625 332.46875 L 136.144531 332.265625 C 136.488281 332.132812 136.835938 331.996094 137.179688 331.863281 L 137.699219 331.660156 L 137.960938 331.558594 L 138.21875 331.457031 C 138.90625 331.175781 139.59375 330.894531 140.28125 330.617188 L 140.539062 330.511719 L 141.3125 330.183594 C 141.652344 330.042969 141.996094 329.894531 142.339844 329.75 L 143.109375 329.425781 L 143.367188 329.3125 C 143.707031 329.164062 144.046875 329.011719 144.386719 328.863281 C 144.730469 328.710938 145.070312 328.5625 145.410156 328.414062 L 145.667969 328.304688 L 145.921875 328.1875 L 146.429688 327.957031 C 146.769531 327.800781 147.109375 327.644531 147.449219 327.488281 L 147.957031 327.257812 L 148.210938 327.144531 L 148.464844 327.023438 C 149.140625 326.707031 149.816406 326.386719 150.492188 326.070312 C 153.1875 324.78125 155.867188 323.441406 158.527344 322.050781 C 159.1875 321.699219 159.851562 321.347656 160.515625 320.996094 C 160.847656 320.824219 161.175781 320.640625 161.507812 320.460938 C 161.835938 320.285156 162.167969 320.101562 162.496094 319.925781 C 162.824219 319.742188 163.15625 319.566406 163.484375 319.382812 C 163.816406 319.203125 164.140625 319.019531 164.472656 318.835938 C 165.128906 318.46875 165.785156 318.105469 166.4375 317.730469 C 167.007812 317.40625 167.574219 317.082031 168.140625 316.761719 C 168.707031 316.433594 169.269531 316.105469 169.832031 315.777344 L 170.679688 315.285156 L 171.519531 314.785156 C 172.078125 314.453125 172.636719 314.121094 173.195312 313.789062 C 174.308594 313.109375 175.421875 312.445312 176.523438 311.757812 C 177.074219 311.417969 177.628906 311.078125 178.179688 310.734375 C 178.726562 310.386719 179.277344 310.046875 179.824219 309.703125 C 180.375 309.359375 180.917969 309.007812 181.464844 308.660156 L 182.28125 308.140625 L 182.691406 307.878906 L 183.097656 307.613281 C 183.640625 307.265625 184.179688 306.910156 184.722656 306.5625 C 184.996094 306.386719 185.265625 306.210938 185.535156 306.035156 C 185.804688 305.855469 186.074219 305.679688 186.34375 305.5 C 187.421875 304.796875 188.492188 304.078125 189.5625 303.367188 C 190.101562 303.011719 190.628906 302.648438 191.164062 302.292969 C 191.695312 301.933594 192.230469 301.574219 192.757812 301.210938 C 193.289062 300.851562 193.820312 300.492188 194.351562 300.128906 C 194.878906 299.765625 195.40625 299.402344 195.933594 299.039062 C 196.988281 298.316406 198.039062 297.585938 199.085938 296.855469 C 201.179688 295.390625 203.265625 293.925781 205.335938 292.449219 C 209.476562 289.503906 213.574219 286.535156 217.644531 283.574219 C 225.78125 277.652344 233.808594 271.753906 241.835938 266.058594 C 249.867188 260.359375 257.90625 254.867188 266.050781 249.765625 C 266.558594 249.449219 267.070312 249.128906 267.578125 248.8125 C 267.835938 248.65625 268.085938 248.496094 268.34375 248.339844 C 268.597656 248.183594 268.855469 248.027344 269.109375 247.871094 C 269.617188 247.5625 270.132812 247.246094 270.640625 246.9375 C 271.152344 246.625 271.664062 246.324219 272.175781 246.015625 C 274.226562 244.800781 276.289062 243.628906 278.371094 242.503906 C 282.535156 240.25 286.761719 238.179688 291.050781 236.34375 C 295.34375 234.507812 299.699219 232.90625 304.113281 231.609375 C 308.523438 230.3125 312.992188 229.324219 317.480469 228.722656 C 319.726562 228.425781 321.972656 228.222656 324.21875 228.128906 L 324.429688 228.117188 L 324.636719 228.109375 L 325.058594 228.101562 C 325.339844 228.09375 325.621094 228.085938 325.902344 228.078125 C 326.179688 228.074219 326.460938 228.074219 326.742188 228.074219 C 327.019531 228.070312 327.300781 228.070312 327.578125 228.070312 C 327.859375 228.074219 328.140625 228.082031 328.417969 228.085938 L 328.839844 228.09375 C 328.976562 228.097656 329.117188 228.097656 329.257812 228.105469 C 329.539062 228.117188 329.8125 228.128906 330.09375 228.140625 C 330.371094 228.15625 330.652344 228.164062 330.929688 228.183594 C 335.378906 228.449219 339.769531 229.191406 343.988281 230.421875 C 346.097656 231.035156 348.167969 231.765625 350.175781 232.613281 C 352.1875 233.457031 354.140625 234.417969 356.03125 235.472656 C 359.820312 237.585938 363.335938 240.101562 366.578125 242.875 C 363.085938 239.734375 359.234375 236.898438 355.027344 234.550781 " fill-opacity="1" fill-rule="nonzero"/></g><g clip-path="url(#c94ec9a99f)"><path fill="#231f20" d="M 165.25 136.042969 C 165.25 136.042969 141.324219 152.222656 118.570312 136.324219 C 118.570312 136.324219 146.578125 137.96875 165.25 136.042969 Z M 141.632812 171.621094 C 141.078125 171.890625 140.273438 172.277344 139.25 172.726562 C 138.226562 173.175781 136.992188 173.6875 135.578125 174.222656 C 135.226562 174.351562 134.863281 174.488281 134.492188 174.625 C 134.121094 174.765625 133.742188 174.902344 133.355469 175.042969 C 132.574219 175.320312 131.757812 175.601562 130.910156 175.871094 C 129.210938 176.40625 127.378906 176.914062 125.457031 177.347656 C 125.21875 177.398438 124.976562 177.449219 124.734375 177.5 C 124.492188 177.554688 124.25 177.605469 124.007812 177.65625 C 123.519531 177.757812 123.03125 177.851562 122.535156 177.941406 C 121.542969 178.117188 120.535156 178.265625 119.515625 178.378906 C 117.476562 178.609375 115.390625 178.703125 113.300781 178.597656 C 111.210938 178.5 109.113281 178.199219 107.078125 177.652344 C 107.449219 177.566406 107.816406 177.480469 108.1875 177.398438 L 109.308594 177.148438 L 111.539062 176.664062 C 113.027344 176.34375 114.507812 176.03125 115.988281 175.722656 C 117.46875 175.414062 118.941406 175.109375 120.417969 174.816406 C 121.902344 174.53125 123.382812 174.257812 124.863281 173.988281 C 126.339844 173.71875 127.8125 173.457031 129.28125 173.199219 L 131.484375 172.820312 C 131.847656 172.753906 132.21875 172.699219 132.585938 172.640625 L 133.695312 172.46875 C 136.644531 172.011719 139.570312 171.585938 142.480469 171.183594 C 142.480469 171.183594 142.183594 171.34375 141.632812 171.621094 Z M 20.449219 311.019531 C 19.953125 311.78125 18.929688 312.195312 17.949219 312.023438 C 16.324219 311.738281 15.496094 310.164062 16.3125 308.898438 C 16.808594 308.132812 17.832031 307.722656 18.816406 307.894531 C 20.441406 308.175781 21.265625 309.753906 20.449219 311.019531 Z M 230.128906 42.988281 C 230.085938 42.769531 229.984375 42.550781 229.816406 42.347656 C 229.648438 42.144531 229.417969 41.957031 229.132812 41.808594 C 227.417969 40.925781 225.632812 40.152344 223.789062 39.46875 L 223.441406 39.339844 C 223.328125 39.296875 223.199219 39.257812 223.082031 39.214844 L 222.351562 38.972656 L 221.617188 38.734375 C 221.492188 38.691406 221.375 38.65625 221.253906 38.621094 L 220.894531 38.507812 C 220.414062 38.363281 219.929688 38.21875 219.441406 38.078125 C 218.964844 37.945312 218.488281 37.816406 218.007812 37.6875 C 214.167969 36.683594 210.355469 36 206.550781 35.589844 C 202.753906 35.179688 198.96875 35.042969 195.207031 35.125 C 194.277344 35.152344 193.332031 35.183594 192.390625 35.226562 C 191.46875 35.285156 190.539062 35.351562 189.601562 35.425781 C 188.660156 35.488281 187.753906 35.59375 186.832031 35.699219 L 185.445312 35.859375 L 184.75 35.941406 L 184.070312 36.042969 C 184.070312 36.042969 183.675781 36.082031 182.933594 36.210938 C 182.5625 36.277344 182.101562 36.363281 181.558594 36.476562 C 181.289062 36.535156 180.996094 36.597656 180.683594 36.667969 C 180.378906 36.746094 180.054688 36.832031 179.710938 36.925781 C 178.339844 37.304688 176.640625 37.804688 174.777344 38.5625 C 174.304688 38.746094 173.820312 38.945312 173.320312 39.15625 C 173.070312 39.261719 172.816406 39.371094 172.558594 39.480469 C 172.308594 39.597656 172.054688 39.71875 171.796875 39.839844 C 170.769531 40.332031 169.6875 40.875 168.5625 41.484375 C 167.46875 42.109375 166.332031 42.792969 165.160156 43.542969 C 164.570312 43.910156 164.003906 44.320312 163.417969 44.734375 C 162.835938 45.152344 162.242188 45.585938 161.648438 46.035156 C 161.351562 46.265625 161.050781 46.492188 160.75 46.726562 C 160.457031 46.964844 160.167969 47.210938 159.875 47.460938 C 159.285156 47.953125 158.695312 48.46875 158.101562 49 C 157.804688 49.265625 157.507812 49.535156 157.210938 49.808594 C 157.136719 49.878906 157.0625 49.945312 156.988281 50.015625 C 156.914062 50.089844 156.84375 50.160156 156.769531 50.230469 C 156.628906 50.371094 156.480469 50.511719 156.335938 50.660156 C 155.757812 51.238281 155.179688 51.832031 154.601562 52.445312 C 153.425781 53.664062 152.328125 55 151.222656 56.394531 C 150.945312 56.742188 150.671875 57.097656 150.398438 57.457031 C 150.261719 57.636719 150.121094 57.816406 149.988281 57.996094 C 149.859375 58.183594 149.726562 58.367188 149.597656 58.554688 C 149.074219 59.300781 148.554688 60.066406 148.042969 60.851562 C 147.789062 61.242188 147.535156 61.640625 147.28125 62.039062 C 147.15625 62.242188 147.027344 62.441406 146.90625 62.648438 C 146.785156 62.851562 146.667969 63.058594 146.546875 63.265625 C 146.070312 64.097656 145.601562 64.949219 145.140625 65.820312 C 144.910156 66.253906 144.683594 66.691406 144.457031 67.136719 C 144.347656 67.359375 144.230469 67.578125 144.125 67.804688 C 144.019531 68.03125 143.914062 68.261719 143.808594 68.492188 C 143.390625 69.40625 142.980469 70.34375 142.585938 71.296875 C 142.585938 71.296875 142.460938 70.949219 142.449219 70.105469 C 142.445312 69.679688 142.472656 69.125 142.558594 68.429688 C 142.601562 68.078125 142.664062 67.691406 142.742188 67.265625 C 142.78125 67.050781 142.828125 66.828125 142.878906 66.59375 C 142.90625 66.476562 142.929688 66.355469 142.957031 66.234375 C 142.988281 66.113281 143.019531 65.988281 143.054688 65.863281 C 143.320312 64.855469 143.691406 63.675781 144.207031 62.300781 C 144.460938 61.613281 144.753906 60.878906 145.085938 60.089844 C 145.4375 59.3125 145.832031 58.484375 146.277344 57.601562 C 146.71875 56.71875 147.210938 55.78125 147.757812 54.785156 C 148.328125 53.800781 148.957031 52.761719 149.648438 51.664062 C 149.996094 51.113281 150.359375 50.546875 150.738281 49.96875 C 151.128906 49.394531 151.546875 48.808594 151.976562 48.207031 C 152.410156 47.601562 152.859375 46.984375 153.332031 46.351562 C 153.566406 46.035156 153.808594 45.714844 154.054688 45.390625 C 154.308594 45.070312 154.570312 44.746094 154.835938 44.417969 L 153.886719 44.820312 C 153.726562 44.890625 153.574219 44.960938 153.421875 45.03125 L 152.960938 45.242188 L 151.117188 46.097656 L 149.269531 46.96875 C 148.960938 47.113281 148.664062 47.265625 148.363281 47.417969 L 147.46875 47.875 L 145.675781 48.800781 L 144.78125 49.269531 L 144.332031 49.507812 C 144.183594 49.585938 144.03125 49.664062 143.890625 49.746094 C 142.730469 50.394531 141.570312 51.050781 140.414062 51.714844 L 139.542969 52.214844 L 139.113281 52.464844 L 138.691406 52.722656 L 137.007812 53.757812 L 135.328125 54.8125 C 134.769531 55.164062 134.203125 55.515625 133.667969 55.878906 C 132.582031 56.601562 131.5 57.335938 130.421875 58.074219 L 129.613281 58.628906 L 129.207031 58.910156 L 128.816406 59.191406 L 127.25 60.332031 C 118.894531 66.449219 111.339844 73.191406 104.53125 80.265625 C 104.386719 80.410156 104.25 80.558594 104.113281 80.703125 L 103.710938 81.148438 C 103.441406 81.445312 103.175781 81.746094 102.914062 82.046875 C 102.386719 82.652344 101.875 83.265625 101.378906 83.890625 C 100.878906 84.511719 100.394531 85.140625 99.921875 85.78125 C 99.804688 85.9375 99.691406 86.101562 99.578125 86.265625 L 99.246094 86.75 C 99.027344 87.074219 98.808594 87.402344 98.597656 87.730469 C 97.746094 89.046875 96.949219 90.390625 96.210938 91.757812 L 95.941406 92.273438 C 95.851562 92.445312 95.765625 92.621094 95.683594 92.792969 C 95.515625 93.136719 95.347656 93.488281 95.1875 93.835938 C 94.867188 94.535156 94.558594 95.234375 94.269531 95.945312 C 93.980469 96.648438 93.703125 97.363281 93.445312 98.078125 C 93.3125 98.433594 93.1875 98.792969 93.066406 99.152344 C 93.007812 99.332031 92.945312 99.511719 92.886719 99.691406 L 92.726562 100.234375 C 92.300781 101.683594 91.9375 103.144531 91.644531 104.609375 C 91.496094 105.34375 91.363281 106.078125 91.25 106.8125 C 91.195312 107.179688 91.140625 107.546875 91.09375 107.914062 C 91.046875 108.285156 91.011719 108.65625 90.976562 109.023438 C 90.84375 110.503906 90.777344 111.984375 90.777344 113.460938 C 90.78125 114.355469 90.792969 115.238281 90.820312 116.09375 C 90.835938 116.523438 90.851562 116.949219 90.871094 117.367188 C 90.878906 117.472656 90.882812 117.578125 90.890625 117.679688 C 90.894531 117.785156 90.902344 117.886719 90.910156 117.992188 C 90.925781 118.199219 90.941406 118.40625 90.957031 118.609375 C 91.09375 120.238281 91.285156 121.765625 91.539062 123.144531 C 92.046875 125.90625 92.804688 128.089844 93.867188 129.382812 C 93.867188 129.382812 93.550781 129.226562 92.988281 128.675781 C 92.425781 128.125 91.617188 127.179688 90.636719 125.585938 C 89.65625 123.988281 88.503906 121.742188 87.277344 118.570312 C 86.972656 117.777344 86.660156 116.925781 86.347656 116.007812 C 86.035156 115.097656 85.710938 114.113281 85.414062 113.074219 C 84.804688 110.988281 84.199219 108.628906 83.617188 105.953125 C 75.746094 117.328125 69.207031 128.925781 63.742188 140.335938 C 58.277344 151.746094 53.886719 162.964844 50.289062 173.675781 C 49.984375 174.578125 49.707031 175.484375 49.449219 176.394531 C 49.195312 177.308594 48.953125 178.222656 48.761719 179.140625 C 48.371094 180.988281 48.078125 182.847656 47.878906 184.707031 C 47.777344 185.636719 47.703125 186.574219 47.652344 187.507812 C 47.625 187.972656 47.605469 188.441406 47.59375 188.90625 C 47.585938 189.136719 47.578125 189.371094 47.578125 189.605469 L 47.582031 190.304688 C 47.601562 192.175781 47.71875 194.039062 47.9375 195.894531 C 48.105469 197.351562 48.300781 198.765625 48.523438 200.113281 C 48.632812 200.789062 48.75 201.441406 48.875 202.078125 C 49.003906 202.710938 49.144531 203.320312 49.289062 203.90625 C 49.867188 206.253906 50.558594 208.175781 51.375 209.410156 C 51.375 209.410156 50.472656 208.238281 49.039062 206.035156 C 48.320312 204.933594 47.46875 203.574219 46.53125 201.96875 C 46.296875 201.570312 46.054688 201.152344 45.8125 200.722656 C 45.574219 200.292969 45.328125 199.847656 45.078125 199.386719 C 44.582031 198.46875 44.070312 197.488281 43.550781 196.453125 C 42.800781 199.261719 42.164062 202.019531 41.542969 204.710938 C 41.230469 206.058594 40.929688 207.386719 40.636719 208.695312 C 40.492188 209.351562 40.347656 210.003906 40.203125 210.652344 C 40.074219 211.300781 39.941406 211.945312 39.8125 212.585938 C 39.292969 215.144531 38.808594 217.632812 38.355469 220.046875 C 38.242188 220.648438 38.128906 221.246094 38.019531 221.839844 C 37.992188 221.988281 37.964844 222.136719 37.9375 222.28125 C 37.910156 222.429688 37.886719 222.578125 37.859375 222.726562 C 37.8125 223.023438 37.761719 223.316406 37.710938 223.609375 C 37.515625 224.777344 37.324219 225.929688 37.140625 227.058594 C 36.773438 229.316406 36.433594 231.492188 36.121094 233.582031 C 36.082031 233.84375 36.042969 234.101562 36.003906 234.359375 C 35.96875 234.621094 35.933594 234.878906 35.898438 235.136719 C 35.832031 235.644531 35.761719 236.152344 35.699219 236.65625 C 35.566406 237.660156 35.441406 238.640625 35.320312 239.59375 C 35.078125 241.511719 34.859375 243.335938 34.660156 245.058594 C 34.609375 245.492188 34.5625 245.917969 34.515625 246.332031 C 34.46875 246.753906 34.421875 247.167969 34.382812 247.574219 C 34.304688 248.390625 34.230469 249.179688 34.15625 249.945312 C 34.144531 250.074219 34.113281 250.203125 34.066406 250.324219 L 30.890625 258.527344 L 30.625 259.214844 L 30.367188 259.898438 L 29.855469 261.273438 L 27.808594 266.757812 L 26.785156 269.503906 L 26.273438 270.875 L 26.019531 271.558594 L 25.773438 272.25 L 23.566406 278.394531 L 23.671875 278.4375 C 23.382812 279.222656 23.097656 280.011719 22.808594 280.808594 C 21.863281 283.417969 20.960938 286.011719 20.089844 288.566406 C 19.875 289.207031 19.664062 289.84375 19.449219 290.476562 C 19.242188 291.113281 19.039062 291.75 18.835938 292.382812 C 18.433594 293.644531 18.039062 294.902344 17.65625 296.148438 C 17.34375 297.160156 17.039062 298.160156 16.742188 299.15625 L 8.371094 323.605469 C 8.1875 324.148438 8.988281 324.527344 9.394531 324.089844 C 14.011719 319.0625 23.402344 312.929688 26.054688 311.242188 C 26.367188 311.042969 26.320312 310.628906 25.972656 310.472656 C 23.636719 309.417969 21.839844 307.765625 20.480469 306.027344 C 23.535156 297.324219 26.5625 288.941406 29.5625 280.875 L 29.625 280.898438 L 31.722656 275.191406 C 32.242188 273.75 32.800781 272.320312 33.34375 270.886719 L 36.625 262.292969 C 36.890625 261.574219 37.183594 260.863281 37.460938 260.148438 L 40.003906 253.726562 L 40.855469 251.585938 L 41.488281 249.980469 L 41.707031 249.449219 L 45.214844 240.917969 L 46.089844 238.789062 L 46.996094 236.667969 L 48.808594 232.417969 L 50.621094 228.179688 C 50.773438 227.824219 50.929688 227.472656 51.085938 227.117188 L 51.554688 226.0625 L 52.492188 223.949219 L 54.367188 219.726562 L 55.304688 217.617188 C 55.621094 216.910156 55.949219 216.210938 56.269531 215.511719 L 60.152344 207.109375 L 64.160156 198.746094 C 69.582031 187.632812 75.3125 176.625 81.445312 165.785156 C 82.945312 163.0625 84.550781 160.382812 86.121094 157.6875 L 87.300781 155.667969 L 87.449219 155.417969 L 87.90625 154.667969 L 88.515625 153.664062 L 90.960938 149.660156 L 91.570312 148.660156 C 91.773438 148.324219 91.976562 147.992188 92.1875 147.660156 L 93.449219 145.679688 L 95.972656 141.710938 L 96.289062 141.214844 L 96.445312 140.964844 L 96.609375 140.722656 L 97.261719 139.738281 L 98.5625 137.773438 L 99.867188 135.808594 L 100.519531 134.828125 L 100.84375 134.339844 C 100.953125 134.175781 101.070312 134.015625 101.179688 133.851562 L 103.871094 129.964844 L 105.21875 128.019531 C 105.675781 127.375 106.144531 126.738281 106.605469 126.097656 L 109.386719 122.257812 L 109.734375 121.777344 L 110.09375 121.304688 L 110.808594 120.355469 L 113.683594 116.558594 L 114.042969 116.085938 C 114.164062 115.929688 114.289062 115.773438 114.410156 115.617188 L 115.152344 114.683594 L 118.117188 110.9375 C 118.242188 110.785156 118.363281 110.628906 118.492188 110.472656 L 118.875 110.011719 L 119.636719 109.089844 L 122.699219 105.402344 L 124.277344 103.585938 L 125.859375 101.773438 L 126.648438 100.863281 C 126.78125 100.714844 126.910156 100.5625 127.046875 100.414062 L 127.453125 99.964844 L 130.710938 96.402344 L 131.121094 95.953125 C 131.257812 95.804688 131.398438 95.660156 131.539062 95.515625 L 132.378906 94.640625 L 134.902344 92.011719 L 135.324219 91.578125 C 135.464844 91.433594 135.609375 91.289062 135.753906 91.148438 L 137.488281 89.433594 C 142.113281 84.859375 146.96875 80.445312 152.117188 76.269531 L 151.777344 76.550781 C 151.667969 76.640625 151.550781 76.734375 151.445312 76.832031 L 150.785156 77.40625 L 149.46875 78.550781 L 148.152344 79.703125 L 147.820312 79.988281 L 147.65625 80.132812 L 147.496094 80.28125 L 146.859375 80.871094 L 144.304688 83.226562 L 143.667969 83.816406 L 143.046875 84.417969 L 141.808594 85.621094 L 140.574219 86.828125 L 139.953125 87.429688 C 139.851562 87.53125 139.746094 87.628906 139.644531 87.734375 L 139.347656 88.039062 L 135.75 91.730469 C 135.355469 92.148438 134.972656 92.566406 134.585938 92.984375 L 132.261719 95.492188 C 126.128906 102.222656 120.441406 109.214844 115.097656 116.382812 C 109.753906 123.554688 104.753906 130.894531 100.003906 138.351562 L 98.226562 141.148438 L 97.78125 141.847656 L 97.351562 142.554688 L 96.492188 143.960938 L 94.769531 146.785156 L 93.910156 148.199219 L 93.480469 148.902344 L 93.066406 149.613281 L 89.742188 155.308594 L 89.324219 156.019531 L 89.117188 156.375 L 88.917969 156.734375 L 88.113281 158.167969 L 86.507812 161.039062 L 84.902344 163.90625 C 84.765625 164.148438 84.636719 164.386719 84.507812 164.628906 L 84.121094 165.351562 L 83.34375 166.796875 C 82.3125 168.726562 81.273438 170.648438 80.246094 172.582031 L 77.246094 178.402344 L 76.5 179.859375 C 76.25 180.34375 75.996094 180.828125 75.757812 181.320312 L 74.308594 184.246094 L 72.859375 187.179688 L 72.136719 188.644531 L 71.773438 189.375 L 71.59375 189.738281 L 71.417969 190.109375 L 68.621094 196.003906 L 67.222656 198.953125 L 65.871094 201.914062 L 63.171875 207.84375 L 62.832031 208.582031 C 62.722656 208.832031 62.613281 209.082031 62.503906 209.328125 L 61.851562 210.816406 L 59.246094 216.773438 C 58.8125 217.769531 58.367188 218.761719 57.957031 219.757812 L 55.4375 225.746094 L 54.179688 228.742188 C 53.964844 229.238281 53.765625 229.742188 53.5625 230.242188 L 52.957031 231.746094 L 50.523438 237.757812 L 49.917969 239.261719 L 49.613281 240.011719 L 49.320312 240.769531 L 48.144531 243.789062 L 45.796875 249.824219 L 45.210938 251.335938 L 43.511719 255.882812 C 43.03125 257.175781 44.53125 258.351562 45.710938 257.613281 C 47.515625 256.480469 49.292969 255.351562 51.042969 254.226562 C 51.921875 253.664062 52.796875 253.109375 53.671875 252.554688 C 54.539062 251.996094 55.402344 251.4375 56.261719 250.886719 C 57.976562 249.777344 59.664062 248.675781 61.320312 247.574219 C 62.148438 247.019531 62.972656 246.46875 63.792969 245.925781 C 64.617188 245.378906 65.433594 244.835938 66.25 244.292969 C 67.875 243.210938 69.476562 242.128906 71.046875 241.050781 C 71.832031 240.507812 72.609375 239.972656 73.386719 239.4375 C 74.160156 238.902344 74.917969 238.359375 75.695312 237.832031 C 78.773438 235.710938 81.746094 233.601562 84.621094 231.503906 C 96.1875 223.160156 106.386719 215.148438 115.410156 207.4375 C 112.695312 207.695312 110.21875 207.886719 107.96875 208.019531 C 105.730469 208.164062 103.714844 208.25 101.90625 208.285156 C 98.289062 208.363281 95.496094 208.242188 93.386719 208.035156 C 91.273438 207.832031 89.84375 207.542969 88.941406 207.304688 C 88.039062 207.070312 87.664062 206.875 87.664062 206.875 C 91.757812 208.199219 96.429688 207.921875 101.125 206.8125 C 101.714844 206.671875 102.300781 206.519531 102.886719 206.355469 C 103.183594 206.269531 103.476562 206.1875 103.769531 206.097656 C 104.0625 206.011719 104.359375 205.921875 104.65625 205.832031 C 105.835938 205.46875 107.011719 205.058594 108.175781 204.625 C 110.5 203.753906 112.769531 202.757812 114.917969 201.722656 C 115.457031 201.464844 115.992188 201.207031 116.519531 200.953125 C 117.046875 200.699219 117.566406 200.4375 118.074219 200.183594 C 119.09375 199.664062 120.074219 199.148438 121.011719 198.640625 C 121.945312 198.136719 122.832031 197.640625 123.667969 197.164062 C 124.503906 196.683594 125.292969 196.234375 126.023438 195.8125 C 128.941406 194.132812 130.867188 192.894531 131.296875 192.695312 C 131.339844 192.671875 131.398438 192.6875 131.4375 192.722656 C 131.484375 192.773438 131.5625 192.773438 131.605469 192.730469 C 139.320312 185.269531 145.933594 178.09375 151.65625 171.167969 C 157.378906 164.242188 162.207031 157.5625 166.355469 151.078125 C 166.613281 150.671875 166.871094 150.261719 167.121094 149.851562 C 167.378906 149.457031 167.632812 149.058594 167.882812 148.65625 C 168.382812 147.859375 168.871094 147.058594 169.34375 146.253906 C 169.460938 146.050781 169.582031 145.847656 169.699219 145.644531 L 169.875 145.34375 L 170.050781 145.050781 C 170.289062 144.65625 170.523438 144.265625 170.753906 143.871094 C 171.210938 143.085938 171.660156 142.292969 172.097656 141.496094 C 172.207031 141.296875 172.316406 141.09375 172.425781 140.894531 C 172.535156 140.703125 172.644531 140.511719 172.753906 140.316406 C 172.972656 139.929688 173.1875 139.542969 173.398438 139.152344 C 173.824219 138.371094 174.238281 137.589844 174.640625 136.800781 C 174.742188 136.601562 174.84375 136.410156 174.945312 136.21875 C 175.046875 136.03125 175.148438 135.839844 175.25 135.648438 C 175.453125 135.265625 175.652344 134.882812 175.847656 134.496094 C 176.042969 134.109375 176.238281 133.722656 176.429688 133.335938 C 176.523438 133.140625 176.617188 132.949219 176.714844 132.75 C 176.808594 132.558594 176.902344 132.359375 176.996094 132.171875 C 180.023438 126.054688 182.605469 120.082031 184.992188 114.222656 C 184.101562 114.265625 183.226562 114.308594 182.375 114.347656 C 181.511719 114.417969 180.671875 114.480469 179.847656 114.542969 C 179.429688 114.578125 179.015625 114.609375 178.609375 114.640625 C 178.40625 114.65625 178.199219 114.671875 178 114.683594 C 177.894531 114.691406 177.796875 114.699219 177.695312 114.707031 C 177.59375 114.714844 177.492188 114.730469 177.394531 114.738281 C 176.589844 114.820312 175.804688 114.898438 175.039062 114.976562 C 174.261719 115.054688 173.503906 115.125 172.761719 115.199219 C 172.671875 115.210938 172.578125 115.214844 172.484375 115.226562 C 172.394531 115.238281 172.300781 115.25 172.210938 115.257812 C 172.027344 115.28125 171.84375 115.304688 171.664062 115.324219 C 171.304688 115.371094 170.945312 115.410156 170.589844 115.453125 C 169.878906 115.535156 169.183594 115.617188 168.507812 115.695312 C 168.164062 115.730469 167.828125 115.769531 167.496094 115.808594 C 167.328125 115.824219 167.164062 115.84375 167 115.863281 C 166.835938 115.882812 166.671875 115.902344 166.511719 115.925781 C 165.222656 116.09375 163.992188 116.25 162.820312 116.386719 C 162.230469 116.453125 161.660156 116.519531 161.105469 116.585938 C 160.824219 116.613281 160.554688 116.652344 160.289062 116.683594 C 160.019531 116.722656 159.753906 116.753906 159.496094 116.785156 C 158.453125 116.917969 157.46875 117.03125 156.542969 117.132812 C 156.078125 117.179688 155.628906 117.222656 155.199219 117.269531 C 154.980469 117.289062 154.765625 117.308594 154.558594 117.332031 C 154.347656 117.351562 154.140625 117.367188 153.941406 117.390625 C 150.738281 117.730469 148.445312 117.832031 146.964844 117.839844 C 146.78125 117.839844 146.609375 117.839844 146.449219 117.839844 C 146.292969 117.835938 146.144531 117.835938 146.011719 117.832031 C 145.742188 117.828125 145.523438 117.820312 145.351562 117.8125 C 145.003906 117.796875 144.835938 117.773438 144.835938 117.773438 C 145.128906 117.75 145.425781 117.722656 145.726562 117.6875 C 145.878906 117.667969 146.03125 117.648438 146.183594 117.628906 C 146.335938 117.605469 146.488281 117.585938 146.648438 117.566406 C 147.273438 117.480469 147.910156 117.367188 148.566406 117.230469 C 149.871094 116.953125 151.226562 116.59375 152.617188 116.15625 C 152.792969 116.097656 152.96875 116.046875 153.148438 115.992188 C 153.324219 115.9375 153.503906 115.882812 153.679688 115.828125 C 154.039062 115.71875 154.398438 115.601562 154.757812 115.480469 C 155.480469 115.242188 156.210938 114.984375 156.941406 114.714844 C 158.398438 114.160156 159.917969 113.617188 161.425781 113.007812 C 161.800781 112.859375 162.179688 112.707031 162.558594 112.550781 C 162.746094 112.472656 162.933594 112.394531 163.125 112.316406 L 163.40625 112.195312 L 163.691406 112.085938 C 164.457031 111.785156 165.222656 111.476562 165.984375 111.164062 C 166.363281 111.003906 166.742188 110.84375 167.121094 110.683594 L 167.6875 110.445312 L 167.972656 110.324219 C 168.066406 110.28125 168.160156 110.246094 168.257812 110.207031 C 169.019531 109.898438 169.777344 109.589844 170.527344 109.277344 C 170.902344 109.121094 171.273438 108.960938 171.648438 108.804688 C 171.832031 108.726562 172.015625 108.648438 172.203125 108.566406 C 172.386719 108.488281 172.574219 108.417969 172.761719 108.34375 C 173.503906 108.046875 174.238281 107.75 174.960938 107.449219 C 175.324219 107.300781 175.683594 107.148438 176.039062 107 L 176.304688 106.886719 L 176.574219 106.785156 C 176.753906 106.71875 176.929688 106.648438 177.109375 106.578125 C 177.816406 106.300781 178.511719 106.027344 179.195312 105.753906 C 180.09375 105.375 180.976562 105.011719 181.816406 104.574219 C 182.238281 104.359375 182.648438 104.128906 183.046875 103.890625 L 183.347656 103.707031 L 183.644531 103.53125 C 183.84375 103.414062 184.039062 103.292969 184.234375 103.167969 C 184.617188 102.917969 184.996094 102.660156 185.363281 102.382812 C 185.550781 102.246094 185.730469 102.109375 185.910156 101.964844 L 186.179688 101.75 L 186.445312 101.539062 C 187.152344 100.976562 187.824219 100.363281 188.460938 99.703125 C 191.019531 97.125 193.066406 93.980469 194.671875 90.25 C 194.988281 89.511719 195.304688 88.78125 195.621094 88.054688 C 195.949219 87.332031 196.273438 86.613281 196.59375 85.898438 C 196.761719 85.539062 196.921875 85.175781 197.085938 84.820312 C 197.25 84.464844 197.421875 84.113281 197.585938 83.765625 C 197.917969 83.0625 198.253906 82.347656 198.59375 81.648438 C 198.941406 80.949219 199.289062 80.261719 199.628906 79.578125 C 199.714844 79.40625 199.804688 79.230469 199.890625 79.058594 C 199.976562 78.886719 200.066406 78.710938 200.152344 78.542969 C 200.332031 78.207031 200.511719 77.871094 200.6875 77.535156 C 200.867188 77.195312 201.046875 76.859375 201.222656 76.523438 C 201.3125 76.355469 201.402344 76.1875 201.492188 76.019531 L 201.628906 75.765625 L 201.765625 75.519531 C 202.140625 74.859375 202.507812 74.203125 202.875 73.554688 C 203.242188 72.894531 203.621094 72.265625 204 71.632812 C 204.195312 71.3125 204.386719 70.996094 204.574219 70.679688 C 204.671875 70.523438 204.765625 70.363281 204.863281 70.207031 C 204.957031 70.046875 205.054688 69.898438 205.152344 69.742188 C 205.542969 69.128906 205.933594 68.519531 206.328125 67.910156 C 206.425781 67.757812 206.523438 67.605469 206.625 67.453125 C 206.722656 67.304688 206.824219 67.15625 206.921875 67.011719 C 207.125 66.714844 207.324219 66.421875 207.523438 66.128906 C 207.726562 65.832031 207.929688 65.542969 208.128906 65.253906 C 208.226562 65.105469 208.328125 64.957031 208.429688 64.816406 C 208.535156 64.675781 208.632812 64.535156 208.738281 64.394531 C 209.144531 63.832031 209.558594 63.269531 209.96875 62.714844 C 210.171875 62.433594 210.378906 62.171875 210.589844 61.902344 C 210.796875 61.632812 211.007812 61.367188 211.210938 61.101562 C 211.421875 60.835938 211.632812 60.570312 211.835938 60.3125 C 212.046875 60.046875 212.257812 59.796875 212.46875 59.542969 C 212.886719 59.039062 213.308594 58.535156 213.730469 58.042969 C 214.152344 57.5625 214.574219 57.089844 214.996094 56.621094 C 215.207031 56.386719 215.417969 56.15625 215.628906 55.929688 C 215.839844 55.703125 216.054688 55.480469 216.261719 55.261719 C 216.683594 54.824219 217.105469 54.386719 217.523438 53.96875 C 218.371094 53.144531 219.191406 52.335938 220.019531 51.605469 C 220.230469 51.421875 220.433594 51.238281 220.636719 51.058594 C 220.835938 50.878906 221.039062 50.699219 221.242188 50.53125 C 221.652344 50.1875 222.054688 49.855469 222.449219 49.535156 C 225.535156 46.976562 228.070312 45.203125 229.601562 44.15625 C 230.039062 43.859375 230.207031 43.429688 230.128906 42.988281 " fill-opacity="1" fill-rule="nonzero"/></g></svg>