<svg xmlns="http://www.w3.org/2000/svg" xmlns:xlink="http://www.w3.org/1999/xlink" width="500" zoomAndPan="magnify" viewBox="0 0 375 374.999991" height="500" preserveAspectRatio="xMidYMid meet" version="1.0"><defs><clipPath id="f862450d0b"><path d="M 5.425781 5.425781 L 369.925781 5.425781 L 369.925781 369.925781 L 5.425781 369.925781 Z M 5.425781 5.425781 " clip-rule="nonzero"/></clipPath></defs><path fill="#100f0d" d="M 145.542969 139.074219 L 157.101562 139.074219 L 157.101562 126.925781 L 145.542969 126.925781 L 145.542969 139.074219 " fill-opacity="1" fill-rule="nonzero"/><path fill="#100f0d" d="M 145.152344 175.523438 L 133 175.523438 L 133 193.75 L 145.152344 193.75 L 145.152344 175.523438 " fill-opacity="1" fill-rule="nonzero"/><path fill="#100f0d" d="M 169.449219 175.523438 L 157.296875 175.523438 L 157.296875 193.75 L 169.449219 193.75 L 169.449219 175.523438 " fill-opacity="1" fill-rule="nonzero"/><path fill="#100f0d" d="M 193.75 175.523438 L 181.597656 175.523438 L 181.597656 193.75 L 193.75 193.75 L 193.75 175.523438 " fill-opacity="1" fill-rule="nonzero"/><path fill="#100f0d" d="M 218.050781 175.523438 L 205.898438 175.523438 L 205.898438 193.75 L 218.050781 193.75 L 218.050781 175.523438 " fill-opacity="1" fill-rule="nonzero"/><path fill="#100f0d" d="M 205.898438 84.398438 L 218.050781 84.398438 L 218.050781 66.175781 L 205.898438 66.175781 L 205.898438 84.398438 " fill-opacity="1" fill-rule="nonzero"/><path fill="#100f0d" d="M 230.199219 84.398438 L 242.347656 84.398438 L 242.347656 66.175781 L 230.199219 66.175781 L 230.199219 84.398438 " fill-opacity="1" fill-rule="nonzero"/><path fill="#100f0d" d="M 266.648438 66.175781 L 254.5 66.175781 L 254.5 84.398438 L 266.648438 84.398438 L 266.648438 66.175781 " fill-opacity="1" fill-rule="nonzero"/><path fill="#100f0d" d="M 290.949219 66.175781 L 278.800781 66.175781 L 278.800781 84.398438 L 290.949219 84.398438 L 290.949219 66.175781 " fill-opacity="1" fill-rule="nonzero"/><path fill="#100f0d" d="M 205.898438 114.773438 L 218.050781 114.773438 L 218.050781 96.550781 L 205.898438 96.550781 L 205.898438 114.773438 " fill-opacity="1" fill-rule="nonzero"/><path fill="#100f0d" d="M 230.199219 114.773438 L 242.347656 114.773438 L 242.347656 96.550781 L 230.199219 96.550781 L 230.199219 114.773438 " fill-opacity="1" fill-rule="nonzero"/><path fill="#100f0d" d="M 266.648438 96.550781 L 254.5 96.550781 L 254.5 114.773438 L 266.648438 114.773438 L 266.648438 96.550781 " fill-opacity="1" fill-rule="nonzero"/><path fill="#100f0d" d="M 290.949219 96.550781 L 278.800781 96.550781 L 278.800781 114.773438 L 290.949219 114.773438 L 290.949219 96.550781 " fill-opacity="1" fill-rule="nonzero"/><path fill="#100f0d" d="M 290.949219 126.925781 L 278.800781 126.925781 L 278.800781 145.152344 L 290.949219 145.152344 L 290.949219 126.925781 " fill-opacity="1" fill-rule="nonzero"/><path fill="#100f0d" d="M 290.949219 157.296875 L 278.800781 157.296875 L 278.800781 175.523438 L 290.949219 175.523438 L 290.949219 157.296875 " fill-opacity="1" fill-rule="nonzero"/><path fill="#100f0d" d="M 242.347656 175.523438 L 230.199219 175.523438 L 230.199219 193.75 L 242.347656 193.75 L 242.347656 175.523438 " fill-opacity="1" fill-rule="nonzero"/><path fill="#100f0d" d="M 145.152344 205.898438 L 133 205.898438 L 133 224.125 L 145.152344 224.125 L 145.152344 205.898438 " fill-opacity="1" fill-rule="nonzero"/><path fill="#100f0d" d="M 169.449219 205.898438 L 157.296875 205.898438 L 157.296875 224.125 L 169.449219 224.125 L 169.449219 205.898438 " fill-opacity="1" fill-rule="nonzero"/><path fill="#100f0d" d="M 181.597656 224.125 L 193.75 224.125 L 193.75 205.898438 L 181.597656 205.898438 L 181.597656 224.125 " fill-opacity="1" fill-rule="nonzero"/><path fill="#100f0d" d="M 205.898438 224.125 L 218.050781 224.125 L 218.050781 205.898438 L 205.898438 205.898438 L 205.898438 224.125 " fill-opacity="1" fill-rule="nonzero"/><path fill="#100f0d" d="M 230.199219 224.125 L 242.347656 224.125 L 242.347656 205.898438 L 230.199219 205.898438 L 230.199219 224.125 " fill-opacity="1" fill-rule="nonzero"/><path fill="#100f0d" d="M 145.152344 236.277344 L 133 236.277344 L 133 254.5 L 145.152344 254.5 L 145.152344 236.277344 " fill-opacity="1" fill-rule="nonzero"/><path fill="#100f0d" d="M 169.449219 236.277344 L 157.296875 236.277344 L 157.296875 254.5 L 169.449219 254.5 L 169.449219 236.277344 " fill-opacity="1" fill-rule="nonzero"/><path fill="#100f0d" d="M 181.597656 254.5 L 193.75 254.5 L 193.75 236.277344 L 181.597656 236.277344 L 181.597656 254.5 " fill-opacity="1" fill-rule="nonzero"/><path fill="#100f0d" d="M 205.898438 254.5 L 218.050781 254.5 L 218.050781 236.277344 L 205.898438 236.277344 L 205.898438 254.5 " fill-opacity="1" fill-rule="nonzero"/><path fill="#100f0d" d="M 230.199219 254.5 L 242.347656 254.5 L 242.347656 236.277344 L 230.199219 236.277344 L 230.199219 254.5 " fill-opacity="1" fill-rule="nonzero"/><path fill="#100f0d" d="M 133 284.875 L 145.152344 284.875 L 145.152344 266.648438 L 133 266.648438 L 133 284.875 " fill-opacity="1" fill-rule="nonzero"/><path fill="#100f0d" d="M 157.296875 284.875 L 169.449219 284.875 L 169.449219 266.648438 L 157.296875 266.648438 L 157.296875 284.875 " fill-opacity="1" fill-rule="nonzero"/><path fill="#100f0d" d="M 60.097656 163.375 L 72.25 163.375 L 72.25 145.152344 L 60.097656 145.152344 L 60.097656 163.375 " fill-opacity="1" fill-rule="nonzero"/><path fill="#100f0d" d="M 96.550781 145.152344 L 84.398438 145.152344 L 84.398438 163.375 L 96.550781 163.375 L 96.550781 145.152344 " fill-opacity="1" fill-rule="nonzero"/><path fill="#100f0d" d="M 60.097656 133 L 72.25 133 L 72.25 114.773438 L 60.097656 114.773438 L 60.097656 133 " fill-opacity="1" fill-rule="nonzero"/><path fill="#100f0d" d="M 96.550781 114.773438 L 84.398438 114.773438 L 84.398438 133 L 96.550781 133 L 96.550781 114.773438 " fill-opacity="1" fill-rule="nonzero"/><path fill="#100f0d" d="M 60.097656 315.25 L 72.25 315.25 L 72.25 297.023438 L 60.097656 297.023438 L 60.097656 315.25 " fill-opacity="1" fill-rule="nonzero"/><path fill="#100f0d" d="M 96.550781 297.023438 L 84.398438 297.023438 L 84.398438 315.25 L 96.550781 315.25 L 96.550781 297.023438 " fill-opacity="1" fill-rule="nonzero"/><path fill="#100f0d" d="M 60.097656 193.75 L 72.25 193.75 L 72.25 175.523438 L 60.097656 175.523438 L 60.097656 193.75 " fill-opacity="1" fill-rule="nonzero"/><path fill="#100f0d" d="M 96.550781 175.523438 L 84.398438 175.523438 L 84.398438 193.75 L 96.550781 193.75 L 96.550781 175.523438 " fill-opacity="1" fill-rule="nonzero"/><path fill="#100f0d" d="M 60.097656 224.125 L 72.25 224.125 L 72.25 205.898438 L 60.097656 205.898438 L 60.097656 224.125 " fill-opacity="1" fill-rule="nonzero"/><path fill="#100f0d" d="M 96.550781 205.898438 L 84.398438 205.898438 L 84.398438 224.125 L 96.550781 224.125 L 96.550781 205.898438 " fill-opacity="1" fill-rule="nonzero"/><path fill="#100f0d" d="M 60.097656 254.5 L 72.25 254.5 L 72.25 236.277344 L 60.097656 236.277344 L 60.097656 254.5 " fill-opacity="1" fill-rule="nonzero"/><path fill="#100f0d" d="M 96.550781 236.277344 L 84.398438 236.277344 L 84.398438 254.5 L 96.550781 254.5 L 96.550781 236.277344 " fill-opacity="1" fill-rule="nonzero"/><path fill="#100f0d" d="M 60.097656 284.875 L 72.25 284.875 L 72.25 266.648438 L 60.097656 266.648438 L 60.097656 284.875 " fill-opacity="1" fill-rule="nonzero"/><path fill="#100f0d" d="M 96.550781 266.648438 L 84.398438 266.648438 L 84.398438 284.875 L 96.550781 284.875 L 96.550781 266.648438 " fill-opacity="1" fill-rule="nonzero"/><path fill="#100f0d" d="M 181.597656 284.875 L 193.75 284.875 L 193.75 266.648438 L 181.597656 266.648438 L 181.597656 284.875 " fill-opacity="1" fill-rule="nonzero"/><path fill="#100f0d" d="M 205.898438 284.875 L 218.050781 284.875 L 218.050781 266.648438 L 205.898438 266.648438 L 205.898438 284.875 " fill-opacity="1" fill-rule="nonzero"/><path fill="#100f0d" d="M 230.199219 284.875 L 242.347656 284.875 L 242.347656 266.648438 L 230.199219 266.648438 L 230.199219 284.875 " fill-opacity="1" fill-rule="nonzero"/><path fill="#100f0d" d="M 278.800781 254.5 L 290.949219 254.5 L 290.949219 236.277344 L 278.800781 236.277344 L 278.800781 254.5 " fill-opacity="1" fill-rule="nonzero"/><path fill="#100f0d" d="M 303.101562 254.5 L 315.25 254.5 L 315.25 236.277344 L 303.101562 236.277344 L 303.101562 254.5 " fill-opacity="1" fill-rule="nonzero"/><path fill="#100f0d" d="M 278.800781 284.875 L 290.949219 284.875 L 290.949219 266.648438 L 278.800781 266.648438 L 278.800781 284.875 " fill-opacity="1" fill-rule="nonzero"/><path fill="#100f0d" d="M 303.101562 284.875 L 315.25 284.875 L 315.25 266.648438 L 303.101562 266.648438 L 303.101562 284.875 " fill-opacity="1" fill-rule="nonzero"/><path fill="#100f0d" d="M 278.800781 315.25 L 290.949219 315.25 L 290.949219 297.023438 L 278.800781 297.023438 L 278.800781 315.25 " fill-opacity="1" fill-rule="nonzero"/><path fill="#100f0d" d="M 303.101562 315.25 L 315.25 315.25 L 315.25 297.023438 L 303.101562 297.023438 L 303.101562 315.25 " fill-opacity="1" fill-rule="nonzero"/><g clip-path="url(#f862450d0b)"><path fill="#100f0d" d="M 303.101562 357.773438 L 303.101562 339.546875 L 290.949219 339.546875 L 290.949219 357.773438 L 266.648438 357.773438 L 266.648438 211.976562 L 327.402344 211.976562 L 327.402344 357.773438 Z M 181.597656 357.773438 L 181.597656 333.472656 L 193.75 333.472656 L 193.75 357.773438 Z M 193.75 126.925781 L 193.75 41.875 L 303.101562 41.875 L 303.101562 199.824219 L 290.949219 199.824219 L 290.949219 187.675781 L 278.800781 187.675781 L 278.800781 199.824219 L 266.648438 199.824219 L 266.648438 133 C 266.648438 129.644531 263.933594 126.925781 260.574219 126.925781 Z M 72.25 339.546875 L 72.25 357.773438 L 47.949219 357.773438 L 47.949219 102.625 L 108.699219 102.625 L 108.699219 357.773438 L 84.398438 357.773438 L 84.398438 339.546875 Z M 339.546875 205.898438 C 339.546875 202.542969 336.832031 199.824219 333.472656 199.824219 L 315.25 199.824219 L 315.25 35.796875 C 315.25 32.445312 312.53125 29.726562 309.175781 29.726562 L 278.800781 29.726562 L 278.800781 17.574219 L 266.648438 17.574219 L 266.648438 29.726562 L 254.5 29.726562 L 254.5 5.425781 L 242.347656 5.425781 L 242.347656 29.726562 L 187.675781 29.726562 C 184.316406 29.726562 181.597656 32.445312 181.597656 35.796875 L 181.597656 126.925781 L 169.253906 126.925781 L 169.253906 139.074219 L 254.5 139.074219 L 254.5 357.773438 L 205.898438 357.773438 L 205.898438 327.402344 C 205.898438 324.042969 203.179688 321.324219 199.824219 321.324219 L 175.523438 321.324219 C 172.167969 321.324219 169.449219 324.042969 169.449219 327.402344 L 169.449219 357.773438 L 120.851562 357.773438 L 120.851562 139.074219 L 133.390625 139.074219 L 133.390625 126.925781 L 120.851562 126.925781 L 120.851562 96.550781 C 120.851562 93.191406 118.128906 90.472656 114.773438 90.472656 L 96.550781 90.472656 L 96.550781 66.175781 L 84.398438 66.175781 L 84.398438 90.472656 L 72.25 90.472656 L 72.25 78.324219 L 60.097656 78.324219 L 60.097656 90.472656 L 41.875 90.472656 C 38.515625 90.472656 35.800781 93.191406 35.800781 96.550781 L 35.800781 357.773438 L 5.425781 357.773438 L 5.425781 369.925781 L 369.925781 369.925781 L 369.925781 357.773438 L 339.546875 357.773438 L 339.546875 205.898438 " fill-opacity="1" fill-rule="nonzero"/></g></svg>