<svg xmlns="http://www.w3.org/2000/svg" xmlns:xlink="http://www.w3.org/1999/xlink" width="500" zoomAndPan="magnify" viewBox="0 0 375 374.999991" height="500" preserveAspectRatio="xMidYMid meet" version="1.0"><defs><clipPath id="69cb20272b"><path d="M 75.09375 75.09375 L 300 75.09375 L 300 300 L 75.09375 300 Z M 75.09375 75.09375 " clip-rule="nonzero"/></clipPath></defs><rect x="-37.5" width="450" fill="#ffffff" y="-37.499999" height="449.999989" fill-opacity="1"/><rect x="-37.5" width="450" fill="#e8f7ee" y="-37.499999" height="449.999989" fill-opacity="1"/><path fill="#41b06e" d="M 161.515625 157.523438 L 168.644531 157.523438 L 168.644531 150.03125 L 161.515625 150.03125 L 161.515625 157.523438 " fill-opacity="1" fill-rule="nonzero"/><path fill="#41b06e" d="M 161.273438 180.003906 L 153.777344 180.003906 L 153.777344 191.246094 L 161.273438 191.246094 L 161.273438 180.003906 " fill-opacity="1" fill-rule="nonzero"/><path fill="#41b06e" d="M 176.257812 180.003906 L 168.765625 180.003906 L 168.765625 191.246094 L 176.257812 191.246094 L 176.257812 180.003906 " fill-opacity="1" fill-rule="nonzero"/><path fill="#41b06e" d="M 191.246094 180.003906 L 183.753906 180.003906 L 183.753906 191.246094 L 191.246094 191.246094 L 191.246094 180.003906 " fill-opacity="1" fill-rule="nonzero"/><path fill="#41b06e" d="M 206.234375 180.003906 L 198.742188 180.003906 L 198.742188 191.246094 L 206.234375 191.246094 L 206.234375 180.003906 " fill-opacity="1" fill-rule="nonzero"/><path fill="#41b06e" d="M 198.742188 123.800781 L 206.234375 123.800781 L 206.234375 112.5625 L 198.742188 112.5625 L 198.742188 123.800781 " fill-opacity="1" fill-rule="nonzero"/><path fill="#41b06e" d="M 213.726562 123.800781 L 221.222656 123.800781 L 221.222656 112.5625 L 213.726562 112.5625 L 213.726562 123.800781 " fill-opacity="1" fill-rule="nonzero"/><path fill="#41b06e" d="M 236.207031 112.5625 L 228.714844 112.5625 L 228.714844 123.800781 L 236.207031 123.800781 L 236.207031 112.5625 " fill-opacity="1" fill-rule="nonzero"/><path fill="#41b06e" d="M 251.195312 112.5625 L 243.703125 112.5625 L 243.703125 123.800781 L 251.195312 123.800781 L 251.195312 112.5625 " fill-opacity="1" fill-rule="nonzero"/><path fill="#41b06e" d="M 198.742188 142.539062 L 206.234375 142.539062 L 206.234375 131.296875 L 198.742188 131.296875 L 198.742188 142.539062 " fill-opacity="1" fill-rule="nonzero"/><path fill="#41b06e" d="M 213.726562 142.539062 L 221.222656 142.539062 L 221.222656 131.296875 L 213.726562 131.296875 L 213.726562 142.539062 " fill-opacity="1" fill-rule="nonzero"/><path fill="#41b06e" d="M 236.207031 131.296875 L 228.714844 131.296875 L 228.714844 142.539062 L 236.207031 142.539062 L 236.207031 131.296875 " fill-opacity="1" fill-rule="nonzero"/><path fill="#41b06e" d="M 251.195312 131.296875 L 243.703125 131.296875 L 243.703125 142.539062 L 251.195312 142.539062 L 251.195312 131.296875 " fill-opacity="1" fill-rule="nonzero"/><path fill="#41b06e" d="M 251.195312 150.03125 L 243.703125 150.03125 L 243.703125 161.273438 L 251.195312 161.273438 L 251.195312 150.03125 " fill-opacity="1" fill-rule="nonzero"/><path fill="#41b06e" d="M 251.195312 168.765625 L 243.703125 168.765625 L 243.703125 180.003906 L 251.195312 180.003906 L 251.195312 168.765625 " fill-opacity="1" fill-rule="nonzero"/><path fill="#41b06e" d="M 221.222656 180.003906 L 213.726562 180.003906 L 213.726562 191.246094 L 221.222656 191.246094 L 221.222656 180.003906 " fill-opacity="1" fill-rule="nonzero"/><path fill="#41b06e" d="M 161.273438 198.742188 L 153.777344 198.742188 L 153.777344 209.980469 L 161.273438 209.980469 L 161.273438 198.742188 " fill-opacity="1" fill-rule="nonzero"/><path fill="#41b06e" d="M 176.257812 198.742188 L 168.765625 198.742188 L 168.765625 209.980469 L 176.257812 209.980469 L 176.257812 198.742188 " fill-opacity="1" fill-rule="nonzero"/><path fill="#41b06e" d="M 183.753906 209.980469 L 191.246094 209.980469 L 191.246094 198.742188 L 183.753906 198.742188 L 183.753906 209.980469 " fill-opacity="1" fill-rule="nonzero"/><path fill="#41b06e" d="M 198.742188 209.980469 L 206.234375 209.980469 L 206.234375 198.742188 L 198.742188 198.742188 L 198.742188 209.980469 " fill-opacity="1" fill-rule="nonzero"/><path fill="#41b06e" d="M 213.726562 209.980469 L 221.222656 209.980469 L 221.222656 198.742188 L 213.726562 198.742188 L 213.726562 209.980469 " fill-opacity="1" fill-rule="nonzero"/><path fill="#41b06e" d="M 161.273438 217.476562 L 153.777344 217.476562 L 153.777344 228.714844 L 161.273438 228.714844 L 161.273438 217.476562 " fill-opacity="1" fill-rule="nonzero"/><path fill="#41b06e" d="M 176.257812 217.476562 L 168.765625 217.476562 L 168.765625 228.714844 L 176.257812 228.714844 L 176.257812 217.476562 " fill-opacity="1" fill-rule="nonzero"/><path fill="#41b06e" d="M 183.753906 228.714844 L 191.246094 228.714844 L 191.246094 217.476562 L 183.753906 217.476562 L 183.753906 228.714844 " fill-opacity="1" fill-rule="nonzero"/><path fill="#41b06e" d="M 198.742188 228.714844 L 206.234375 228.714844 L 206.234375 217.476562 L 198.742188 217.476562 L 198.742188 228.714844 " fill-opacity="1" fill-rule="nonzero"/><path fill="#41b06e" d="M 213.726562 228.714844 L 221.222656 228.714844 L 221.222656 217.476562 L 213.726562 217.476562 L 213.726562 228.714844 " fill-opacity="1" fill-rule="nonzero"/><path fill="#41b06e" d="M 153.777344 247.449219 L 161.273438 247.449219 L 161.273438 236.207031 L 153.777344 236.207031 L 153.777344 247.449219 " fill-opacity="1" fill-rule="nonzero"/><path fill="#41b06e" d="M 168.765625 247.449219 L 176.257812 247.449219 L 176.257812 236.207031 L 168.765625 236.207031 L 168.765625 247.449219 " fill-opacity="1" fill-rule="nonzero"/><path fill="#41b06e" d="M 108.816406 172.511719 L 116.308594 172.511719 L 116.308594 161.273438 L 108.816406 161.273438 L 108.816406 172.511719 " fill-opacity="1" fill-rule="nonzero"/><path fill="#41b06e" d="M 131.296875 161.273438 L 123.800781 161.273438 L 123.800781 172.511719 L 131.296875 172.511719 L 131.296875 161.273438 " fill-opacity="1" fill-rule="nonzero"/><path fill="#41b06e" d="M 108.816406 153.777344 L 116.308594 153.777344 L 116.308594 142.539062 L 108.816406 142.539062 L 108.816406 153.777344 " fill-opacity="1" fill-rule="nonzero"/><path fill="#41b06e" d="M 131.296875 142.539062 L 123.800781 142.539062 L 123.800781 153.777344 L 131.296875 153.777344 L 131.296875 142.539062 " fill-opacity="1" fill-rule="nonzero"/><path fill="#41b06e" d="M 108.816406 266.183594 L 116.308594 266.183594 L 116.308594 254.945312 L 108.816406 254.945312 L 108.816406 266.183594 " fill-opacity="1" fill-rule="nonzero"/><path fill="#41b06e" d="M 131.296875 254.945312 L 123.800781 254.945312 L 123.800781 266.183594 L 131.296875 266.183594 L 131.296875 254.945312 " fill-opacity="1" fill-rule="nonzero"/><path fill="#41b06e" d="M 108.816406 191.246094 L 116.308594 191.246094 L 116.308594 180.003906 L 108.816406 180.003906 L 108.816406 191.246094 " fill-opacity="1" fill-rule="nonzero"/><path fill="#41b06e" d="M 131.296875 180.003906 L 123.800781 180.003906 L 123.800781 191.246094 L 131.296875 191.246094 L 131.296875 180.003906 " fill-opacity="1" fill-rule="nonzero"/><path fill="#41b06e" d="M 108.816406 209.980469 L 116.308594 209.980469 L 116.308594 198.742188 L 108.816406 198.742188 L 108.816406 209.980469 " fill-opacity="1" fill-rule="nonzero"/><path fill="#41b06e" d="M 131.296875 198.742188 L 123.800781 198.742188 L 123.800781 209.980469 L 131.296875 209.980469 L 131.296875 198.742188 " fill-opacity="1" fill-rule="nonzero"/><path fill="#41b06e" d="M 108.816406 228.714844 L 116.308594 228.714844 L 116.308594 217.476562 L 108.816406 217.476562 L 108.816406 228.714844 " fill-opacity="1" fill-rule="nonzero"/><path fill="#41b06e" d="M 131.296875 217.476562 L 123.800781 217.476562 L 123.800781 228.714844 L 131.296875 228.714844 L 131.296875 217.476562 " fill-opacity="1" fill-rule="nonzero"/><path fill="#41b06e" d="M 108.816406 247.449219 L 116.308594 247.449219 L 116.308594 236.207031 L 108.816406 236.207031 L 108.816406 247.449219 " fill-opacity="1" fill-rule="nonzero"/><path fill="#41b06e" d="M 131.296875 236.207031 L 123.800781 236.207031 L 123.800781 247.449219 L 131.296875 247.449219 L 131.296875 236.207031 " fill-opacity="1" fill-rule="nonzero"/><path fill="#41b06e" d="M 183.753906 247.449219 L 191.246094 247.449219 L 191.246094 236.207031 L 183.753906 236.207031 L 183.753906 247.449219 " fill-opacity="1" fill-rule="nonzero"/><path fill="#41b06e" d="M 198.742188 247.449219 L 206.234375 247.449219 L 206.234375 236.207031 L 198.742188 236.207031 L 198.742188 247.449219 " fill-opacity="1" fill-rule="nonzero"/><path fill="#41b06e" d="M 213.726562 247.449219 L 221.222656 247.449219 L 221.222656 236.207031 L 213.726562 236.207031 L 213.726562 247.449219 " fill-opacity="1" fill-rule="nonzero"/><path fill="#41b06e" d="M 243.703125 228.714844 L 251.195312 228.714844 L 251.195312 217.476562 L 243.703125 217.476562 L 243.703125 228.714844 " fill-opacity="1" fill-rule="nonzero"/><path fill="#41b06e" d="M 258.691406 228.714844 L 266.183594 228.714844 L 266.183594 217.476562 L 258.691406 217.476562 L 258.691406 228.714844 " fill-opacity="1" fill-rule="nonzero"/><path fill="#41b06e" d="M 243.703125 247.449219 L 251.195312 247.449219 L 251.195312 236.207031 L 243.703125 236.207031 L 243.703125 247.449219 " fill-opacity="1" fill-rule="nonzero"/><path fill="#41b06e" d="M 258.691406 247.449219 L 266.183594 247.449219 L 266.183594 236.207031 L 258.691406 236.207031 L 258.691406 247.449219 " fill-opacity="1" fill-rule="nonzero"/><path fill="#41b06e" d="M 243.703125 266.183594 L 251.195312 266.183594 L 251.195312 254.945312 L 243.703125 254.945312 L 243.703125 266.183594 " fill-opacity="1" fill-rule="nonzero"/><path fill="#41b06e" d="M 258.691406 266.183594 L 266.183594 266.183594 L 266.183594 254.945312 L 258.691406 254.945312 L 258.691406 266.183594 " fill-opacity="1" fill-rule="nonzero"/><g clip-path="url(#69cb20272b)"><path fill="#41b06e" d="M 258.691406 292.410156 L 258.691406 281.171875 L 251.195312 281.171875 L 251.195312 292.410156 L 236.207031 292.410156 L 236.207031 202.488281 L 273.679688 202.488281 L 273.679688 292.410156 Z M 183.753906 292.410156 L 183.753906 277.425781 L 191.246094 277.425781 L 191.246094 292.410156 Z M 191.246094 150.03125 L 191.246094 97.574219 L 258.691406 97.574219 L 258.691406 194.992188 L 251.195312 194.992188 L 251.195312 187.5 L 243.703125 187.5 L 243.703125 194.992188 L 236.207031 194.992188 L 236.207031 153.777344 C 236.207031 151.707031 234.535156 150.03125 232.460938 150.03125 Z M 116.308594 281.171875 L 116.308594 292.410156 L 101.320312 292.410156 L 101.320312 135.042969 L 138.789062 135.042969 L 138.789062 292.410156 L 123.800781 292.410156 L 123.800781 281.171875 Z M 281.171875 198.742188 C 281.171875 196.671875 279.496094 194.992188 277.425781 194.992188 L 266.183594 194.992188 L 266.183594 93.828125 C 266.183594 91.757812 264.507812 90.082031 262.4375 90.082031 L 243.703125 90.082031 L 243.703125 82.585938 L 236.207031 82.585938 L 236.207031 90.082031 L 228.714844 90.082031 L 228.714844 75.09375 L 221.222656 75.09375 L 221.222656 90.082031 L 187.5 90.082031 C 185.429688 90.082031 183.753906 91.757812 183.753906 93.828125 L 183.753906 150.03125 L 176.140625 150.03125 L 176.140625 157.523438 L 228.714844 157.523438 L 228.714844 292.410156 L 198.742188 292.410156 L 198.742188 273.679688 C 198.742188 271.609375 197.0625 269.929688 194.992188 269.929688 L 180.003906 269.929688 C 177.9375 269.929688 176.257812 271.609375 176.257812 273.679688 L 176.257812 292.410156 L 146.285156 292.410156 L 146.285156 157.523438 L 154.019531 157.523438 L 154.019531 150.03125 L 146.285156 150.03125 L 146.285156 131.296875 C 146.285156 129.226562 144.609375 127.550781 142.539062 127.550781 L 131.296875 127.550781 L 131.296875 112.5625 L 123.800781 112.5625 L 123.800781 127.550781 L 116.308594 127.550781 L 116.308594 120.054688 L 108.816406 120.054688 L 108.816406 127.550781 L 97.574219 127.550781 C 95.503906 127.550781 93.828125 129.226562 93.828125 131.296875 L 93.828125 292.410156 L 75.09375 292.410156 L 75.09375 299.90625 L 299.90625 299.90625 L 299.90625 292.410156 L 281.171875 292.410156 L 281.171875 198.742188 " fill-opacity="1" fill-rule="nonzero"/></g></svg>