<svg xmlns="http://www.w3.org/2000/svg" xmlns:xlink="http://www.w3.org/1999/xlink" width="500" zoomAndPan="magnify" viewBox="0 0 375 374.999991" height="500" preserveAspectRatio="xMidYMid meet" version="1.0"><defs><clipPath id="11da75287f"><path d="M 120 75 L 299.859375 75 L 299.859375 257 L 120 257 Z M 120 75 " clip-rule="nonzero"/></clipPath><clipPath id="d6ab454acf"><path d="M 74.859375 118 L 253 118 L 253 299.859375 L 74.859375 299.859375 Z M 74.859375 118 " clip-rule="nonzero"/></clipPath></defs><rect x="-37.5" width="450" fill="#ffffff" y="-37.499999" height="449.999989" fill-opacity="1"/><rect x="-37.5" width="450" fill="#e8f7ee" y="-37.499999" height="449.999989" fill-opacity="1"/><path fill="#41b06e" d="M 138.214844 122.378906 L 134.695312 122.378906 C 132.761719 122.378906 131.175781 123.960938 131.175781 125.898438 C 131.175781 127.832031 132.761719 129.417969 134.695312 129.417969 L 138.214844 129.417969 C 140.152344 129.417969 141.738281 127.832031 141.738281 125.898438 C 141.738281 123.960938 140.152344 122.378906 138.214844 122.378906 Z M 138.214844 122.378906 " fill-opacity="1" fill-rule="nonzero"/><path fill="#41b06e" d="M 155.816406 122.378906 L 152.296875 122.378906 C 150.359375 122.378906 148.777344 123.960938 148.777344 125.898438 C 148.777344 127.832031 150.359375 129.417969 152.296875 129.417969 L 155.816406 129.417969 C 157.75 129.417969 159.335938 127.832031 159.335938 125.898438 C 159.335938 123.960938 157.75 122.378906 155.816406 122.378906 Z M 155.816406 122.378906 " fill-opacity="1" fill-rule="nonzero"/><path fill="#41b06e" d="M 138.214844 136.457031 L 134.695312 136.457031 C 132.761719 136.457031 131.175781 138.039062 131.175781 139.976562 C 131.175781 141.914062 132.761719 143.496094 134.695312 143.496094 L 138.214844 143.496094 C 140.152344 143.496094 141.738281 141.914062 141.738281 139.976562 C 141.738281 138.039062 140.152344 136.457031 138.214844 136.457031 Z M 138.214844 136.457031 " fill-opacity="1" fill-rule="nonzero"/><path fill="#41b06e" d="M 138.214844 150.535156 L 134.695312 150.535156 C 132.761719 150.535156 131.175781 152.121094 131.175781 154.054688 C 131.175781 155.992188 132.761719 157.574219 134.695312 157.574219 L 138.214844 157.574219 C 140.152344 157.574219 141.738281 155.992188 141.738281 154.054688 C 141.738281 152.121094 140.152344 150.535156 138.214844 150.535156 Z M 138.214844 150.535156 " fill-opacity="1" fill-rule="nonzero"/><path fill="#41b06e" d="M 138.214844 164.617188 L 134.695312 164.617188 C 132.761719 164.617188 131.175781 166.199219 131.175781 168.136719 C 131.175781 170.070312 132.761719 171.65625 134.695312 171.65625 L 138.214844 171.65625 C 140.152344 171.65625 141.738281 170.070312 141.738281 168.136719 C 141.738281 166.199219 140.152344 164.617188 138.214844 164.617188 Z M 138.214844 164.617188 " fill-opacity="1" fill-rule="nonzero"/><path fill="#41b06e" d="M 138.214844 178.695312 L 134.695312 178.695312 C 132.761719 178.695312 131.175781 180.277344 131.175781 182.214844 C 131.175781 184.152344 132.761719 185.734375 134.695312 185.734375 L 138.214844 185.734375 C 140.152344 185.734375 141.738281 184.152344 141.738281 182.214844 C 141.738281 180.277344 140.152344 178.695312 138.214844 178.695312 Z M 138.214844 178.695312 " fill-opacity="1" fill-rule="nonzero"/><path fill="#41b06e" d="M 158.808594 138.214844 C 158.28125 137.160156 157.046875 136.457031 155.816406 136.457031 L 152.296875 136.457031 C 150.359375 136.457031 148.777344 138.039062 148.777344 139.976562 C 148.777344 141.914062 150.359375 143.496094 152.296875 143.496094 L 154.585938 143.496094 C 155.464844 141.382812 156.871094 139.449219 158.808594 138.214844 Z M 158.808594 138.214844 " fill-opacity="1" fill-rule="nonzero"/><path fill="#41b06e" d="M 154.054688 150.535156 L 152.296875 150.535156 C 150.359375 150.535156 148.777344 152.121094 148.777344 154.054688 C 148.777344 155.992188 150.359375 157.574219 152.296875 157.574219 L 154.054688 157.574219 Z M 154.054688 150.535156 " fill-opacity="1" fill-rule="nonzero"/><path fill="#41b06e" d="M 154.054688 164.617188 L 152.296875 164.617188 C 150.359375 164.617188 148.777344 166.199219 148.777344 168.136719 C 148.777344 170.070312 150.359375 171.65625 152.296875 171.65625 L 154.054688 171.65625 Z M 154.054688 164.617188 " fill-opacity="1" fill-rule="nonzero"/><path fill="#41b06e" d="M 148.777344 182.214844 C 148.777344 184.152344 150.359375 185.734375 152.296875 185.734375 L 154.054688 185.734375 L 154.054688 178.695312 L 152.296875 178.695312 C 150.359375 178.695312 148.777344 180.277344 148.777344 182.214844 Z M 148.777344 182.214844 " fill-opacity="1" fill-rule="nonzero"/><path fill="#41b06e" d="M 182.214844 270.210938 C 220.054688 270.210938 251.554688 241.875 255.78125 204.390625 C 256.132812 201.75 256.132812 198.933594 256.132812 196.292969 C 256.132812 194.359375 254.546875 192.773438 252.613281 192.773438 L 196.292969 192.773438 L 196.292969 147.015625 C 196.292969 145.082031 194.710938 143.496094 192.773438 143.496094 L 164.617188 143.496094 C 162.679688 143.496094 161.097656 145.082031 161.097656 147.015625 L 161.097656 192.773438 L 127.65625 192.773438 L 127.65625 111.816406 L 162.855469 111.816406 L 162.855469 136.632812 C 163.382812 136.457031 164.085938 136.457031 164.617188 136.457031 L 169.894531 136.457031 L 169.894531 111.816406 C 169.894531 107.945312 166.726562 104.777344 162.855469 104.777344 L 127.65625 104.777344 C 123.785156 104.777344 120.617188 107.945312 120.617188 111.816406 L 120.617188 192.773438 L 111.816406 192.773438 C 109.882812 192.773438 108.296875 194.359375 108.296875 196.292969 C 108.296875 237.125 141.382812 270.210938 182.214844 270.210938 Z M 185.734375 262.644531 L 185.734375 233.957031 C 192.421875 234.308594 199.285156 235.890625 205.621094 238.355469 C 200.695312 251.378906 193.652344 260.53125 185.734375 262.644531 Z M 211.957031 241.347656 C 215.828125 243.460938 219.699219 246.101562 223.042969 249.089844 C 216.53125 254.195312 208.964844 258.066406 200.871094 260.355469 C 205.269531 255.601562 208.964844 249.089844 211.957031 241.347656 Z M 178.695312 262.644531 C 170.773438 260.53125 163.734375 251.378906 158.808594 238.179688 C 165.144531 235.714844 172.007812 234.308594 178.695312 233.957031 Z M 163.382812 260.53125 C 155.113281 258.066406 147.542969 254.195312 141.03125 248.914062 C 144.550781 245.921875 148.425781 243.285156 152.296875 241.171875 C 155.289062 248.914062 159.160156 255.601562 163.382812 260.53125 Z M 228.5 244.515625 C 224.101562 240.46875 219.347656 237.300781 214.246094 234.660156 C 217.414062 224.453125 219.171875 212.660156 219.523438 199.8125 L 248.914062 199.8125 C 248.914062 201.046875 248.738281 202.277344 248.5625 203.6875 C 246.980469 219.699219 239.589844 234.132812 228.5 244.515625 Z M 212.484375 199.8125 C 212.132812 211.429688 210.550781 222.339844 207.734375 231.667969 C 200.695312 228.851562 193.125 227.269531 185.734375 226.917969 L 185.734375 199.8125 Z M 168.136719 150.535156 L 189.253906 150.535156 L 189.253906 192.773438 L 168.136719 192.773438 Z M 164.617188 199.8125 L 178.695312 199.8125 L 178.695312 226.742188 C 171.128906 227.09375 163.734375 228.675781 156.519531 231.316406 C 153.878906 221.988281 152.121094 211.078125 151.945312 199.636719 L 164.617188 199.636719 Z M 144.90625 199.8125 C 145.257812 212.484375 147.015625 224.277344 150.007812 234.308594 C 144.90625 236.949219 140.152344 240.292969 135.578125 244.164062 C 123.785156 232.722656 116.21875 217.0625 115.335938 199.636719 L 144.90625 199.636719 Z M 144.90625 199.8125 " fill-opacity="1" fill-rule="nonzero"/><path fill="#41b06e" d="M 213.894531 189.253906 L 259.652344 189.253906 C 263.523438 189.253906 266.691406 186.085938 266.691406 182.214844 L 266.691406 150.535156 C 266.691406 146.664062 263.523438 143.496094 259.652344 143.496094 L 249.089844 143.496094 L 249.089844 139.976562 C 249.089844 136.105469 245.921875 132.9375 242.050781 132.9375 L 231.492188 132.9375 C 227.621094 132.9375 224.453125 136.105469 224.453125 139.976562 L 224.453125 143.496094 L 213.894531 143.496094 C 210.019531 143.496094 206.855469 146.664062 206.855469 150.535156 L 206.855469 182.214844 C 206.855469 186.085938 210.019531 189.253906 213.894531 189.253906 Z M 213.894531 182.214844 L 213.894531 154.40625 L 233.253906 168.136719 L 233.253906 169.894531 C 233.253906 171.832031 234.835938 173.414062 236.773438 173.414062 C 238.707031 173.414062 240.292969 171.832031 240.292969 169.894531 L 240.292969 168.136719 L 259.652344 154.230469 L 259.652344 182.039062 L 213.894531 182.039062 Z M 227.972656 150.535156 L 252.964844 150.535156 L 236.773438 161.976562 L 220.582031 150.535156 Z M 231.492188 139.976562 L 242.050781 139.976562 L 242.050781 143.496094 L 231.492188 143.496094 Z M 231.492188 139.976562 " fill-opacity="1" fill-rule="nonzero"/><g clip-path="url(#11da75287f)"><path fill="#41b06e" d="M 126.25 101.433594 C 144.199219 88.761719 165.320312 81.898438 187.496094 81.898438 C 245.746094 81.898438 293.089844 129.242188 293.089844 187.496094 C 293.089844 206.855469 287.984375 225.507812 278.128906 241.875 L 277.425781 234.484375 C 277.25 232.546875 275.492188 231.140625 273.554688 231.316406 C 271.617188 231.492188 270.210938 233.253906 270.386719 235.1875 L 272.148438 252.789062 C 272.148438 253.140625 272.324219 253.492188 272.5 253.84375 C 272.5 253.84375 272.5 253.84375 272.5 254.019531 C 273.027344 255.425781 274.433594 256.132812 275.667969 256.132812 C 276.195312 256.132812 276.546875 255.957031 277.074219 255.777344 L 294.496094 248.386719 C 296.257812 247.683594 297.136719 245.570312 296.257812 243.8125 C 295.554688 242.050781 293.441406 241.171875 291.683594 242.050781 L 284.289062 245.21875 C 294.671875 227.796875 300.128906 208.085938 300.128906 187.671875 C 300.128906 125.546875 249.621094 75.035156 187.496094 75.035156 C 163.910156 74.859375 141.207031 82.074219 122.027344 95.804688 C 120.441406 96.859375 120.089844 99.148438 121.144531 100.730469 C 122.378906 102.3125 124.664062 102.667969 126.25 101.433594 Z M 126.25 101.433594 " fill-opacity="1" fill-rule="nonzero"/></g><g clip-path="url(#d6ab454acf)"><path fill="#41b06e" d="M 187.496094 300.128906 C 210.019531 300.128906 231.84375 293.441406 250.5 280.945312 C 252.082031 279.890625 252.613281 277.601562 251.378906 276.019531 C 250.324219 274.433594 248.035156 273.90625 246.453125 275.136719 C 229.027344 286.929688 208.613281 293.089844 187.496094 293.089844 C 129.242188 293.089844 81.898438 245.746094 81.898438 187.496094 C 81.898438 168.136719 87.179688 149.480469 97.035156 133.113281 L 97.738281 140.328125 C 97.914062 142.089844 99.5 143.496094 101.257812 143.496094 C 101.433594 143.496094 101.433594 143.496094 101.609375 143.496094 C 103.546875 143.320312 104.953125 141.5625 104.777344 139.625 L 103.195312 123.609375 C 103.546875 122.378906 103.195312 121.144531 102.3125 120.089844 C 101.257812 118.859375 99.5 118.328125 98.089844 118.859375 L 80.667969 126.25 C 78.90625 126.953125 78.027344 129.066406 78.90625 130.824219 C 79.433594 132.234375 80.84375 132.9375 82.074219 132.9375 C 82.601562 132.9375 82.957031 132.761719 83.484375 132.585938 L 90.875 129.417969 C 80.316406 147.015625 74.859375 166.902344 74.859375 187.496094 C 74.859375 249.621094 125.371094 300.128906 187.496094 300.128906 Z M 187.496094 300.128906 " fill-opacity="1" fill-rule="nonzero"/></g><path fill="#41b06e" d="M 217.941406 136.457031 C 218.46875 134.34375 219.523438 132.410156 220.933594 130.648438 L 220.933594 118.859375 C 220.933594 116.921875 219.347656 115.335938 217.414062 115.335938 L 189.253906 115.335938 C 187.320312 115.335938 185.734375 116.921875 185.734375 118.859375 L 185.734375 136.457031 L 192.773438 136.457031 L 192.773438 122.378906 L 213.894531 122.378906 L 213.894531 136.457031 Z M 217.941406 136.457031 " fill-opacity="1" fill-rule="nonzero"/></svg>