<svg xmlns="http://www.w3.org/2000/svg" xmlns:xlink="http://www.w3.org/1999/xlink" width="500" zoomAndPan="magnify" viewBox="0 0 375 374.999991" height="500" preserveAspectRatio="xMidYMid meet" version="1.0"><defs><clipPath id="64ecd8c5b9"><path d="M 75.046875 75.046875 L 300 75.046875 L 300 300 L 75.046875 300 Z M 75.046875 75.046875 " clip-rule="nonzero"/></clipPath></defs><rect x="-37.5" width="450" fill="#ffffff" y="-37.499999" height="449.999989" fill-opacity="1"/><rect x="-37.5" width="450" fill="#ffeedf" y="-37.499999" height="449.999989" fill-opacity="1"/><g clip-path="url(#64ecd8c5b9)"><path fill="#f86f03" d="M 288.707031 161.261719 L 254.972656 161.261719 L 254.972656 153.765625 L 281.210938 153.765625 C 281.824219 153.761719 282.4375 153.734375 283.046875 153.671875 C 283.65625 153.613281 284.265625 153.523438 284.867188 153.402344 C 285.46875 153.28125 286.0625 153.132812 286.648438 152.953125 C 287.238281 152.777344 287.8125 152.570312 288.378906 152.335938 C 288.945312 152.101562 289.5 151.835938 290.042969 151.546875 C 290.582031 151.257812 291.109375 150.941406 291.617188 150.601562 C 292.128906 150.261719 292.621094 149.894531 293.09375 149.507812 C 293.570312 149.117188 294.023438 148.707031 294.457031 148.269531 C 294.890625 147.835938 295.304688 147.382812 295.691406 146.910156 C 296.082031 146.433594 296.445312 145.941406 296.789062 145.429688 C 297.128906 144.921875 297.441406 144.394531 297.730469 143.855469 C 298.019531 143.3125 298.285156 142.757812 298.519531 142.191406 C 298.753906 141.625 298.960938 141.046875 299.136719 140.460938 C 299.316406 139.875 299.464844 139.277344 299.582031 138.675781 C 299.703125 138.074219 299.792969 137.46875 299.855469 136.859375 C 299.914062 136.246094 299.945312 135.636719 299.945312 135.023438 C 299.945312 134.40625 299.914062 133.796875 299.855469 133.183594 C 299.792969 132.574219 299.703125 131.96875 299.582031 131.367188 C 299.464844 130.765625 299.316406 130.171875 299.136719 129.582031 C 298.960938 128.996094 298.753906 128.417969 298.519531 127.851562 C 298.285156 127.285156 298.019531 126.730469 297.730469 126.1875 C 297.441406 125.648438 297.128906 125.121094 296.789062 124.613281 C 296.445312 124.101562 296.082031 123.609375 295.691406 123.136719 C 295.304688 122.660156 294.890625 122.207031 294.457031 121.773438 C 294.023438 121.339844 293.570312 120.925781 293.09375 120.539062 C 292.621094 120.148438 292.128906 119.78125 291.617188 119.441406 C 291.109375 119.101562 290.582031 118.785156 290.042969 118.496094 C 289.5 118.207031 288.945312 117.945312 288.378906 117.707031 C 287.8125 117.472656 287.238281 117.265625 286.648438 117.089844 C 286.0625 116.910156 285.46875 116.761719 284.867188 116.640625 C 284.265625 116.519531 283.65625 116.429688 283.046875 116.371094 C 282.4375 116.308594 281.824219 116.28125 281.210938 116.28125 L 254.972656 116.28125 L 254.972656 78.796875 C 254.972656 78.296875 254.875 77.820312 254.6875 77.359375 C 254.496094 76.902344 254.226562 76.496094 253.875 76.144531 C 253.523438 75.792969 253.117188 75.523438 252.65625 75.332031 C 252.199219 75.140625 251.71875 75.046875 251.222656 75.046875 L 78.796875 75.046875 C 78.296875 75.046875 77.820312 75.140625 77.359375 75.332031 C 76.902344 75.523438 76.496094 75.792969 76.144531 76.144531 C 75.792969 76.496094 75.523438 76.902344 75.332031 77.359375 C 75.140625 77.820312 75.046875 78.296875 75.046875 78.796875 L 75.046875 247.476562 C 75.046875 248.003906 75.15625 248.507812 75.371094 248.992188 C 75.585938 249.476562 75.890625 249.894531 76.285156 250.25 L 113.769531 283.984375 C 114.476562 284.644531 115.3125 284.96875 116.28125 284.960938 L 187.5 284.960938 L 187.5 288.707031 C 187.503906 289.445312 187.574219 290.175781 187.722656 290.898438 C 187.867188 291.621094 188.082031 292.324219 188.363281 293.007812 C 188.648438 293.6875 188.996094 294.335938 189.40625 294.949219 C 189.816406 295.558594 190.28125 296.128906 190.804688 296.648438 C 191.324219 297.171875 191.890625 297.636719 192.503906 298.046875 C 193.117188 298.457031 193.765625 298.804688 194.445312 299.089844 C 195.128906 299.371094 195.832031 299.585938 196.554688 299.730469 C 197.277344 299.875 198.007812 299.949219 198.746094 299.953125 L 288.707031 299.953125 C 289.445312 299.949219 290.175781 299.875 290.898438 299.730469 C 291.621094 299.585938 292.324219 299.371094 293.003906 299.089844 C 293.6875 298.804688 294.335938 298.457031 294.949219 298.046875 C 295.558594 297.636719 296.128906 297.171875 296.648438 296.648438 C 297.171875 296.128906 297.636719 295.558594 298.046875 294.949219 C 298.457031 294.335938 298.804688 293.6875 299.089844 293.007812 C 299.371094 292.324219 299.585938 291.621094 299.730469 290.898438 C 299.875 290.175781 299.949219 289.445312 299.953125 288.707031 L 299.953125 172.507812 C 299.949219 171.769531 299.875 171.039062 299.730469 170.316406 C 299.585938 169.589844 299.371094 168.890625 299.089844 168.207031 C 298.804688 167.527344 298.457031 166.878906 298.046875 166.265625 C 297.636719 165.652344 297.171875 165.085938 296.648438 164.5625 C 296.128906 164.042969 295.558594 163.578125 294.949219 163.167969 C 294.335938 162.757812 293.6875 162.410156 293.003906 162.125 C 292.324219 161.84375 291.621094 161.628906 290.898438 161.484375 C 290.175781 161.335938 289.445312 161.261719 288.707031 161.261719 Z M 277.460938 123.777344 L 281.210938 123.777344 C 281.949219 123.777344 282.679688 123.847656 283.40625 123.992188 C 284.128906 124.136719 284.832031 124.351562 285.515625 124.632812 C 286.195312 124.914062 286.84375 125.261719 287.457031 125.671875 C 288.074219 126.082031 288.640625 126.546875 289.164062 127.070312 C 289.683594 127.59375 290.152344 128.160156 290.5625 128.773438 C 290.972656 129.386719 291.316406 130.035156 291.601562 130.71875 C 291.882812 131.402344 292.097656 132.105469 292.238281 132.828125 C 292.382812 133.550781 292.457031 134.285156 292.457031 135.023438 C 292.457031 135.761719 292.382812 136.492188 292.238281 137.214844 C 292.097656 137.941406 291.882812 138.644531 291.601562 139.324219 C 291.316406 140.007812 290.972656 140.65625 290.5625 141.269531 C 290.152344 141.882812 289.683594 142.453125 289.164062 142.972656 C 288.640625 143.496094 288.074219 143.960938 287.457031 144.371094 C 286.84375 144.78125 286.195312 145.128906 285.515625 145.410156 C 284.832031 145.695312 284.128906 145.90625 283.40625 146.050781 C 282.679688 146.195312 281.949219 146.265625 281.210938 146.265625 L 277.460938 146.265625 Z M 269.964844 146.265625 L 142.519531 146.265625 L 142.519531 138.769531 L 269.964844 138.769531 Z M 269.964844 123.777344 L 269.964844 131.273438 L 142.519531 131.273438 L 142.519531 123.777344 Z M 112.53125 272.777344 L 88.578125 251.222656 L 112.53125 251.222656 Z M 187.5 172.507812 L 187.5 277.460938 L 120.027344 277.460938 L 120.027344 247.476562 C 120.027344 246.976562 119.933594 246.5 119.742188 246.039062 C 119.550781 245.582031 119.28125 245.175781 118.929688 244.824219 C 118.578125 244.472656 118.171875 244.203125 117.714844 244.011719 C 117.253906 243.820312 116.777344 243.726562 116.28125 243.726562 L 82.542969 243.726562 L 82.542969 82.542969 L 247.476562 82.542969 L 247.476562 116.28125 L 138.769531 116.28125 C 138.332031 116.277344 137.90625 116.351562 137.496094 116.503906 L 96.261719 131.5 C 95.902344 131.628906 95.566406 131.8125 95.261719 132.046875 C 94.957031 132.28125 94.691406 132.554688 94.472656 132.871094 C 94.25 133.1875 94.082031 133.527344 93.96875 133.894531 C 93.851562 134.261719 93.792969 134.636719 93.792969 135.023438 C 93.792969 135.40625 93.851562 135.78125 93.96875 136.148438 C 94.082031 136.515625 94.25 136.859375 94.472656 137.171875 C 94.691406 137.488281 94.957031 137.761719 95.261719 137.996094 C 95.566406 138.230469 95.902344 138.414062 96.261719 138.546875 L 137.496094 153.539062 C 137.90625 153.691406 138.332031 153.765625 138.769531 153.765625 L 247.476562 153.765625 L 247.476562 161.261719 L 198.746094 161.261719 C 198.007812 161.261719 197.277344 161.335938 196.554688 161.484375 C 195.832031 161.628906 195.128906 161.84375 194.445312 162.125 C 193.765625 162.410156 193.117188 162.757812 192.503906 163.167969 C 191.890625 163.578125 191.324219 164.042969 190.804688 164.5625 C 190.28125 165.085938 189.816406 165.652344 189.40625 166.265625 C 188.996094 166.878906 188.648438 167.527344 188.363281 168.207031 C 188.082031 168.890625 187.867188 169.589844 187.722656 170.316406 C 187.574219 171.039062 187.503906 171.769531 187.5 172.507812 Z M 135.023438 125.386719 L 135.023438 144.65625 L 108.519531 135.023438 Z M 292.457031 288.707031 C 292.457031 289.203125 292.359375 289.683594 292.171875 290.140625 C 291.980469 290.601562 291.710938 291.007812 291.359375 291.359375 C 291.007812 291.710938 290.601562 291.980469 290.140625 292.171875 C 289.683594 292.359375 289.203125 292.457031 288.707031 292.457031 L 198.746094 292.457031 C 198.25 292.457031 197.769531 292.359375 197.3125 292.171875 C 196.851562 291.980469 196.445312 291.710938 196.09375 291.359375 C 195.742188 291.007812 195.472656 290.601562 195.28125 290.140625 C 195.09375 289.683594 194.996094 289.203125 194.996094 288.707031 L 194.996094 172.507812 C 194.996094 172.007812 195.09375 171.53125 195.28125 171.070312 C 195.472656 170.613281 195.742188 170.207031 196.09375 169.855469 C 196.445312 169.503906 196.851562 169.234375 197.3125 169.042969 C 197.769531 168.851562 198.25 168.757812 198.746094 168.757812 L 288.707031 168.757812 C 289.203125 168.757812 289.683594 168.851562 290.140625 169.042969 C 290.601562 169.234375 291.007812 169.503906 291.359375 169.855469 C 291.710938 170.207031 291.980469 170.613281 292.171875 171.070312 C 292.359375 171.53125 292.457031 172.007812 292.457031 172.507812 Z M 292.457031 288.707031 " fill-opacity="1" fill-rule="nonzero"/></g><path fill="#f86f03" d="M 281.210938 176.253906 L 206.242188 176.253906 C 205.746094 176.253906 205.265625 176.351562 204.808594 176.539062 C 204.347656 176.730469 203.941406 177 203.589844 177.351562 C 203.238281 177.703125 202.96875 178.109375 202.777344 178.570312 C 202.589844 179.027344 202.492188 179.507812 202.492188 180.003906 L 202.492188 198.746094 C 202.492188 199.242188 202.589844 199.71875 202.777344 200.179688 C 202.96875 200.640625 203.238281 201.042969 203.589844 201.394531 C 203.941406 201.746094 204.347656 202.019531 204.808594 202.207031 C 205.265625 202.398438 205.746094 202.492188 206.242188 202.492188 L 281.210938 202.492188 C 281.707031 202.492188 282.1875 202.398438 282.644531 202.207031 C 283.105469 202.019531 283.511719 201.746094 283.863281 201.394531 C 284.210938 201.042969 284.484375 200.640625 284.675781 200.179688 C 284.863281 199.71875 284.960938 199.242188 284.960938 198.746094 L 284.960938 180.003906 C 284.960938 179.507812 284.863281 179.027344 284.675781 178.570312 C 284.484375 178.109375 284.210938 177.703125 283.863281 177.351562 C 283.511719 177 283.105469 176.730469 282.644531 176.539062 C 282.1875 176.351562 281.707031 176.253906 281.210938 176.253906 Z M 277.460938 194.996094 L 209.992188 194.996094 L 209.992188 183.75 L 277.460938 183.75 Z M 277.460938 194.996094 " fill-opacity="1" fill-rule="nonzero"/><path fill="#f86f03" d="M 221.234375 209.992188 L 206.242188 209.992188 C 205.746094 209.992188 205.265625 210.085938 204.808594 210.277344 C 204.347656 210.464844 203.941406 210.738281 203.589844 211.089844 C 203.238281 211.441406 202.96875 211.84375 202.777344 212.304688 C 202.589844 212.765625 202.492188 213.242188 202.492188 213.738281 L 202.492188 228.734375 C 202.492188 229.230469 202.589844 229.707031 202.777344 230.167969 C 202.96875 230.625 203.238281 231.03125 203.589844 231.382812 C 203.941406 231.734375 204.347656 232.003906 204.808594 232.195312 C 205.265625 232.386719 205.746094 232.480469 206.242188 232.480469 L 221.234375 232.480469 C 221.734375 232.480469 222.210938 232.386719 222.671875 232.195312 C 223.128906 232.003906 223.535156 231.734375 223.886719 231.382812 C 224.238281 231.03125 224.507812 230.625 224.699219 230.167969 C 224.890625 229.707031 224.984375 229.230469 224.984375 228.734375 L 224.984375 213.738281 C 224.984375 213.242188 224.890625 212.765625 224.699219 212.304688 C 224.507812 211.84375 224.238281 211.441406 223.886719 211.089844 C 223.535156 210.738281 223.128906 210.464844 222.671875 210.277344 C 222.210938 210.085938 221.734375 209.992188 221.234375 209.992188 Z M 217.488281 224.984375 L 209.992188 224.984375 L 209.992188 217.488281 L 217.488281 217.488281 Z M 217.488281 224.984375 " fill-opacity="1" fill-rule="nonzero"/><path fill="#f86f03" d="M 221.234375 236.230469 L 206.242188 236.230469 C 205.746094 236.230469 205.265625 236.324219 204.808594 236.515625 C 204.347656 236.707031 203.941406 236.976562 203.589844 237.328125 C 203.238281 237.679688 202.96875 238.085938 202.777344 238.542969 C 202.589844 239.003906 202.492188 239.480469 202.492188 239.976562 L 202.492188 254.972656 C 202.492188 255.46875 202.589844 255.945312 202.777344 256.40625 C 202.96875 256.867188 203.238281 257.269531 203.589844 257.621094 C 203.941406 257.972656 204.347656 258.246094 204.808594 258.433594 C 205.265625 258.625 205.746094 258.71875 206.242188 258.71875 L 221.234375 258.71875 C 221.734375 258.71875 222.210938 258.625 222.671875 258.433594 C 223.128906 258.246094 223.535156 257.972656 223.886719 257.621094 C 224.238281 257.269531 224.507812 256.867188 224.699219 256.40625 C 224.890625 255.945312 224.984375 255.46875 224.984375 254.972656 L 224.984375 239.976562 C 224.984375 239.480469 224.890625 239.003906 224.699219 238.542969 C 224.507812 238.085938 224.238281 237.679688 223.886719 237.328125 C 223.535156 236.976562 223.128906 236.707031 222.671875 236.515625 C 222.210938 236.324219 221.734375 236.230469 221.234375 236.230469 Z M 217.488281 251.222656 L 209.992188 251.222656 L 209.992188 243.726562 L 217.488281 243.726562 Z M 217.488281 251.222656 " fill-opacity="1" fill-rule="nonzero"/><path fill="#f86f03" d="M 221.234375 262.46875 L 206.242188 262.46875 C 205.746094 262.46875 205.265625 262.5625 204.808594 262.753906 C 204.347656 262.945312 203.941406 263.214844 203.589844 263.566406 C 203.238281 263.917969 202.96875 264.324219 202.777344 264.78125 C 202.589844 265.242188 202.492188 265.71875 202.492188 266.21875 L 202.492188 281.210938 C 202.492188 281.707031 202.589844 282.1875 202.777344 282.644531 C 202.96875 283.105469 203.238281 283.511719 203.589844 283.863281 C 203.941406 284.210938 204.347656 284.484375 204.808594 284.675781 C 205.265625 284.863281 205.746094 284.960938 206.242188 284.960938 L 221.234375 284.960938 C 221.734375 284.960938 222.210938 284.863281 222.671875 284.675781 C 223.128906 284.484375 223.535156 284.210938 223.886719 283.863281 C 224.238281 283.511719 224.507812 283.105469 224.699219 282.644531 C 224.890625 282.1875 224.984375 281.707031 224.984375 281.210938 L 224.984375 266.21875 C 224.984375 265.71875 224.890625 265.242188 224.699219 264.78125 C 224.507812 264.324219 224.238281 263.917969 223.886719 263.566406 C 223.535156 263.214844 223.128906 262.945312 222.671875 262.753906 C 222.210938 262.5625 221.734375 262.46875 221.234375 262.46875 Z M 217.488281 277.460938 L 209.992188 277.460938 L 209.992188 269.964844 L 217.488281 269.964844 Z M 217.488281 277.460938 " fill-opacity="1" fill-rule="nonzero"/><path fill="#f86f03" d="M 251.222656 209.992188 L 236.230469 209.992188 C 235.734375 209.992188 235.253906 210.085938 234.796875 210.277344 C 234.335938 210.464844 233.929688 210.738281 233.578125 211.089844 C 233.226562 211.441406 232.957031 211.84375 232.765625 212.304688 C 232.578125 212.765625 232.480469 213.242188 232.480469 213.738281 L 232.480469 228.734375 C 232.480469 229.230469 232.578125 229.707031 232.765625 230.167969 C 232.957031 230.625 233.226562 231.03125 233.578125 231.382812 C 233.929688 231.734375 234.335938 232.003906 234.796875 232.195312 C 235.253906 232.386719 235.734375 232.480469 236.230469 232.480469 L 251.222656 232.480469 C 251.71875 232.480469 252.199219 232.386719 252.65625 232.195312 C 253.117188 232.003906 253.523438 231.734375 253.875 231.382812 C 254.226562 231.03125 254.496094 230.625 254.6875 230.167969 C 254.875 229.707031 254.972656 229.230469 254.972656 228.734375 L 254.972656 213.738281 C 254.972656 213.242188 254.875 212.765625 254.6875 212.304688 C 254.496094 211.84375 254.226562 211.441406 253.875 211.089844 C 253.523438 210.738281 253.117188 210.464844 252.65625 210.277344 C 252.199219 210.085938 251.71875 209.992188 251.222656 209.992188 Z M 247.476562 224.984375 L 239.976562 224.984375 L 239.976562 217.488281 L 247.476562 217.488281 Z M 247.476562 224.984375 " fill-opacity="1" fill-rule="nonzero"/><path fill="#f86f03" d="M 251.222656 236.230469 L 236.230469 236.230469 C 235.734375 236.230469 235.253906 236.324219 234.796875 236.515625 C 234.335938 236.707031 233.929688 236.976562 233.578125 237.328125 C 233.226562 237.679688 232.957031 238.085938 232.765625 238.542969 C 232.578125 239.003906 232.480469 239.480469 232.480469 239.976562 L 232.480469 254.972656 C 232.480469 255.46875 232.578125 255.945312 232.765625 256.40625 C 232.957031 256.867188 233.226562 257.269531 233.578125 257.621094 C 233.929688 257.972656 234.335938 258.246094 234.796875 258.433594 C 235.253906 258.625 235.734375 258.71875 236.230469 258.71875 L 251.222656 258.71875 C 251.71875 258.71875 252.199219 258.625 252.65625 258.433594 C 253.117188 258.246094 253.523438 257.972656 253.875 257.621094 C 254.226562 257.269531 254.496094 256.867188 254.6875 256.40625 C 254.875 255.945312 254.972656 255.46875 254.972656 254.972656 L 254.972656 239.976562 C 254.972656 239.480469 254.875 239.003906 254.6875 238.542969 C 254.496094 238.085938 254.226562 237.679688 253.875 237.328125 C 253.523438 236.976562 253.117188 236.707031 252.65625 236.515625 C 252.199219 236.324219 251.71875 236.230469 251.222656 236.230469 Z M 247.476562 251.222656 L 239.976562 251.222656 L 239.976562 243.726562 L 247.476562 243.726562 Z M 247.476562 251.222656 " fill-opacity="1" fill-rule="nonzero"/><path fill="#f86f03" d="M 251.222656 262.46875 L 236.230469 262.46875 C 235.734375 262.46875 235.253906 262.5625 234.796875 262.753906 C 234.335938 262.945312 233.929688 263.214844 233.578125 263.566406 C 233.226562 263.917969 232.957031 264.324219 232.765625 264.78125 C 232.578125 265.242188 232.480469 265.71875 232.480469 266.21875 L 232.480469 281.210938 C 232.480469 281.707031 232.578125 282.1875 232.765625 282.644531 C 232.957031 283.105469 233.226562 283.511719 233.578125 283.863281 C 233.929688 284.210938 234.335938 284.484375 234.796875 284.675781 C 235.253906 284.863281 235.734375 284.960938 236.230469 284.960938 L 251.222656 284.960938 C 251.71875 284.960938 252.199219 284.863281 252.65625 284.675781 C 253.117188 284.484375 253.523438 284.210938 253.875 283.863281 C 254.226562 283.511719 254.496094 283.105469 254.6875 282.644531 C 254.875 282.1875 254.972656 281.707031 254.972656 281.210938 L 254.972656 266.21875 C 254.972656 265.71875 254.875 265.242188 254.6875 264.78125 C 254.496094 264.324219 254.226562 263.917969 253.875 263.566406 C 253.523438 263.214844 253.117188 262.945312 252.65625 262.753906 C 252.199219 262.5625 251.71875 262.46875 251.222656 262.46875 Z M 247.476562 277.460938 L 239.976562 277.460938 L 239.976562 269.964844 L 247.476562 269.964844 Z M 247.476562 277.460938 " fill-opacity="1" fill-rule="nonzero"/><path fill="#f86f03" d="M 281.210938 209.992188 L 266.21875 209.992188 C 265.71875 209.992188 265.242188 210.085938 264.78125 210.277344 C 264.324219 210.464844 263.917969 210.738281 263.566406 211.089844 C 263.214844 211.441406 262.945312 211.84375 262.753906 212.304688 C 262.5625 212.765625 262.46875 213.242188 262.46875 213.738281 L 262.46875 228.734375 C 262.46875 229.230469 262.5625 229.707031 262.753906 230.167969 C 262.945312 230.625 263.214844 231.03125 263.566406 231.382812 C 263.917969 231.734375 264.324219 232.003906 264.78125 232.195312 C 265.242188 232.386719 265.71875 232.480469 266.21875 232.480469 L 281.210938 232.480469 C 281.707031 232.480469 282.1875 232.386719 282.644531 232.195312 C 283.105469 232.003906 283.511719 231.734375 283.863281 231.382812 C 284.210938 231.03125 284.484375 230.625 284.675781 230.167969 C 284.863281 229.707031 284.960938 229.230469 284.960938 228.734375 L 284.960938 213.738281 C 284.960938 213.242188 284.863281 212.765625 284.675781 212.304688 C 284.484375 211.84375 284.210938 211.441406 283.863281 211.089844 C 283.511719 210.738281 283.105469 210.464844 282.644531 210.277344 C 282.1875 210.085938 281.707031 209.992188 281.210938 209.992188 Z M 277.460938 224.984375 L 269.964844 224.984375 L 269.964844 217.488281 L 277.460938 217.488281 Z M 277.460938 224.984375 " fill-opacity="1" fill-rule="nonzero"/><path fill="#f86f03" d="M 281.210938 236.230469 L 266.21875 236.230469 C 265.71875 236.230469 265.242188 236.324219 264.78125 236.515625 C 264.324219 236.707031 263.917969 236.976562 263.566406 237.328125 C 263.214844 237.679688 262.945312 238.085938 262.753906 238.542969 C 262.5625 239.003906 262.46875 239.480469 262.46875 239.976562 L 262.46875 281.210938 C 262.46875 281.707031 262.5625 282.1875 262.753906 282.644531 C 262.945312 283.105469 263.214844 283.511719 263.566406 283.863281 C 263.917969 284.210938 264.324219 284.484375 264.78125 284.675781 C 265.242188 284.863281 265.71875 284.960938 266.21875 284.960938 L 281.210938 284.960938 C 281.707031 284.960938 282.1875 284.863281 282.644531 284.675781 C 283.105469 284.484375 283.511719 284.210938 283.863281 283.863281 C 284.210938 283.511719 284.484375 283.105469 284.675781 282.644531 C 284.863281 282.1875 284.960938 281.707031 284.960938 281.210938 L 284.960938 239.976562 C 284.960938 239.480469 284.863281 239.003906 284.675781 238.542969 C 284.484375 238.085938 284.210938 237.679688 283.863281 237.328125 C 283.511719 236.976562 283.105469 236.707031 282.644531 236.515625 C 282.1875 236.324219 281.707031 236.230469 281.210938 236.230469 Z M 277.460938 277.460938 L 269.964844 277.460938 L 269.964844 243.726562 L 277.460938 243.726562 Z M 277.460938 277.460938 " fill-opacity="1" fill-rule="nonzero"/></svg>