<svg xmlns="http://www.w3.org/2000/svg" xmlns:xlink="http://www.w3.org/1999/xlink" width="500" zoomAndPan="magnify" viewBox="0 0 375 374.999991" height="500" preserveAspectRatio="xMidYMid meet" version="1.0"><defs><clipPath id="fb7abe0369"><path d="M 0 187.472656 C 0 181.332031 0.300781 175.207031 0.902344 169.097656 C 1.503906 162.988281 2.40625 156.921875 3.601562 150.898438 C 4.800781 144.875 6.289062 138.929688 8.074219 133.050781 C 9.855469 127.175781 11.921875 121.402344 14.269531 115.730469 C 16.621094 110.058594 19.242188 104.515625 22.136719 99.097656 C 25.03125 93.683594 28.183594 88.421875 31.59375 83.320312 C 35.007812 78.214844 38.660156 73.289062 42.554688 68.542969 C 46.449219 63.796875 50.566406 59.25 54.910156 54.910156 C 59.25 50.566406 63.796875 46.449219 68.542969 42.554688 C 73.289062 38.660156 78.214844 35.007812 83.320312 31.59375 C 88.421875 28.183594 93.683594 25.03125 99.097656 22.136719 C 104.515625 19.242188 110.058594 16.621094 115.730469 14.269531 C 121.402344 11.921875 127.175781 9.855469 133.050781 8.074219 C 138.929688 6.289062 144.875 4.800781 150.898438 3.601562 C 156.921875 2.40625 162.988281 1.503906 169.097656 0.902344 C 175.207031 0.300781 181.332031 0 187.472656 0 C 193.613281 0 199.738281 0.300781 205.847656 0.902344 C 211.957031 1.503906 218.023438 2.40625 224.046875 3.601562 C 230.070312 4.800781 236.019531 6.289062 241.894531 8.074219 C 247.769531 9.855469 253.542969 11.921875 259.214844 14.269531 C 264.886719 16.621094 270.433594 19.242188 275.847656 22.136719 C 281.261719 25.03125 286.523438 28.183594 291.628906 31.59375 C 296.734375 35.007812 301.660156 38.660156 306.40625 42.554688 C 311.152344 46.449219 315.695312 50.566406 320.035156 54.910156 C 324.378906 59.25 328.496094 63.796875 332.390625 68.542969 C 336.285156 73.289062 339.941406 78.214844 343.351562 83.320312 C 346.761719 88.421875 349.914062 93.683594 352.808594 99.097656 C 355.703125 104.515625 358.324219 110.058594 360.675781 115.730469 C 363.023438 121.402344 365.089844 127.175781 366.875 133.050781 C 368.65625 138.929688 370.144531 144.875 371.34375 150.898438 C 372.542969 156.921875 373.441406 162.988281 374.042969 169.097656 C 374.644531 175.207031 374.945312 181.332031 374.945312 187.472656 C 374.945312 193.613281 374.644531 199.738281 374.042969 205.847656 C 373.441406 211.957031 372.542969 218.023438 371.34375 224.046875 C 370.144531 230.070312 368.65625 236.019531 366.875 241.894531 C 365.089844 247.769531 363.023438 253.542969 360.675781 259.214844 C 358.324219 264.886719 355.703125 270.433594 352.808594 275.847656 C 349.914062 281.261719 346.761719 286.523438 343.351562 291.628906 C 339.941406 296.734375 336.285156 301.660156 332.390625 306.40625 C 328.496094 311.152344 324.378906 315.695312 320.035156 320.035156 C 315.695312 324.378906 311.152344 328.496094 306.40625 332.390625 C 301.660156 336.285156 296.734375 339.941406 291.628906 343.351562 C 286.523438 346.761719 281.261719 349.914062 275.847656 352.808594 C 270.433594 355.703125 264.886719 358.324219 259.214844 360.675781 C 253.542969 363.023438 247.769531 365.089844 241.894531 366.875 C 236.019531 368.65625 230.070312 370.144531 224.046875 371.34375 C 218.023438 372.542969 211.957031 373.441406 205.847656 374.042969 C 199.738281 374.644531 193.613281 374.945312 187.472656 374.945312 C 181.332031 374.945312 175.207031 374.644531 169.097656 374.042969 C 162.988281 373.441406 156.921875 372.542969 150.898438 371.34375 C 144.875 370.144531 138.929688 368.65625 133.050781 366.875 C 127.175781 365.089844 121.402344 363.023438 115.730469 360.675781 C 110.058594 358.324219 104.515625 355.703125 99.097656 352.808594 C 93.683594 349.914062 88.421875 346.761719 83.320312 343.351562 C 78.214844 339.941406 73.289062 336.285156 68.542969 332.390625 C 63.796875 328.496094 59.25 324.378906 54.910156 320.035156 C 50.566406 315.695312 46.449219 311.152344 42.554688 306.40625 C 38.660156 301.660156 35.007812 296.734375 31.59375 291.628906 C 28.183594 286.523438 25.03125 281.261719 22.136719 275.847656 C 19.242188 270.433594 16.621094 264.886719 14.269531 259.214844 C 11.921875 253.542969 9.855469 247.769531 8.074219 241.894531 C 6.289062 236.019531 4.800781 230.070312 3.601562 224.046875 C 2.40625 218.023438 1.503906 211.957031 0.902344 205.847656 C 0.300781 199.738281 0 193.613281 0 187.472656 Z M 0 187.472656 " clip-rule="nonzero"/></clipPath><clipPath id="b25501c452"><path d="M 59 0 L 316 0 L 316 375 L 59 375 Z M 59 0 " clip-rule="nonzero"/></clipPath><clipPath id="41e56be882"><path d="M 0 187.472656 C 0 181.332031 0.300781 175.207031 0.902344 169.097656 C 1.503906 162.988281 2.40625 156.921875 3.601562 150.898438 C 4.800781 144.875 6.289062 138.929688 8.074219 133.050781 C 9.855469 127.175781 11.921875 121.402344 14.269531 115.730469 C 16.621094 110.058594 19.242188 104.515625 22.136719 99.097656 C 25.03125 93.683594 28.183594 88.421875 31.59375 83.320312 C 35.007812 78.214844 38.660156 73.289062 42.554688 68.542969 C 46.449219 63.796875 50.566406 59.25 54.910156 54.910156 C 59.25 50.566406 63.796875 46.449219 68.542969 42.554688 C 73.289062 38.660156 78.214844 35.007812 83.320312 31.59375 C 88.421875 28.183594 93.683594 25.03125 99.097656 22.136719 C 104.515625 19.242188 110.058594 16.621094 115.730469 14.269531 C 121.402344 11.921875 127.175781 9.855469 133.050781 8.074219 C 138.929688 6.289062 144.875 4.800781 150.898438 3.601562 C 156.921875 2.40625 162.988281 1.503906 169.097656 0.902344 C 175.207031 0.300781 181.332031 0 187.472656 0 C 193.613281 0 199.738281 0.300781 205.847656 0.902344 C 211.957031 1.503906 218.023438 2.40625 224.046875 3.601562 C 230.070312 4.800781 236.019531 6.289062 241.894531 8.074219 C 247.769531 9.855469 253.542969 11.921875 259.214844 14.269531 C 264.886719 16.621094 270.433594 19.242188 275.847656 22.136719 C 281.261719 25.03125 286.523438 28.183594 291.628906 31.59375 C 296.734375 35.007812 301.660156 38.660156 306.40625 42.554688 C 311.152344 46.449219 315.695312 50.566406 320.035156 54.910156 C 324.378906 59.25 328.496094 63.796875 332.390625 68.542969 C 336.285156 73.289062 339.941406 78.214844 343.351562 83.320312 C 346.761719 88.421875 349.914062 93.683594 352.808594 99.097656 C 355.703125 104.515625 358.324219 110.058594 360.675781 115.730469 C 363.023438 121.402344 365.089844 127.175781 366.875 133.050781 C 368.65625 138.929688 370.144531 144.875 371.34375 150.898438 C 372.542969 156.921875 373.441406 162.988281 374.042969 169.097656 C 374.644531 175.207031 374.945312 181.332031 374.945312 187.472656 C 374.945312 193.613281 374.644531 199.738281 374.042969 205.847656 C 373.441406 211.957031 372.542969 218.023438 371.34375 224.046875 C 370.144531 230.070312 368.65625 236.019531 366.875 241.894531 C 365.089844 247.769531 363.023438 253.542969 360.675781 259.214844 C 358.324219 264.886719 355.703125 270.433594 352.808594 275.847656 C 349.914062 281.261719 346.761719 286.523438 343.351562 291.628906 C 339.941406 296.734375 336.285156 301.660156 332.390625 306.40625 C 328.496094 311.152344 324.378906 315.695312 320.035156 320.035156 C 315.695312 324.378906 311.152344 328.496094 306.40625 332.390625 C 301.660156 336.285156 296.734375 339.941406 291.628906 343.351562 C 286.523438 346.761719 281.261719 349.914062 275.847656 352.808594 C 270.433594 355.703125 264.886719 358.324219 259.214844 360.675781 C 253.542969 363.023438 247.769531 365.089844 241.894531 366.875 C 236.019531 368.65625 230.070312 370.144531 224.046875 371.34375 C 218.023438 372.542969 211.957031 373.441406 205.847656 374.042969 C 199.738281 374.644531 193.613281 374.945312 187.472656 374.945312 C 181.332031 374.945312 175.207031 374.644531 169.097656 374.042969 C 162.988281 373.441406 156.921875 372.542969 150.898438 371.34375 C 144.875 370.144531 138.929688 368.65625 133.050781 366.875 C 127.175781 365.089844 121.402344 363.023438 115.730469 360.675781 C 110.058594 358.324219 104.515625 355.703125 99.097656 352.808594 C 93.683594 349.914062 88.421875 346.761719 83.320312 343.351562 C 78.214844 339.941406 73.289062 336.285156 68.542969 332.390625 C 63.796875 328.496094 59.25 324.378906 54.910156 320.035156 C 50.566406 315.695312 46.449219 311.152344 42.554688 306.40625 C 38.660156 301.660156 35.007812 296.734375 31.59375 291.628906 C 28.183594 286.523438 25.03125 281.261719 22.136719 275.847656 C 19.242188 270.433594 16.621094 264.886719 14.269531 259.214844 C 11.921875 253.542969 9.855469 247.769531 8.074219 241.894531 C 6.289062 236.019531 4.800781 230.070312 3.601562 224.046875 C 2.40625 218.023438 1.503906 211.957031 0.902344 205.847656 C 0.300781 199.738281 0 193.613281 0 187.472656 Z M 0 187.472656 " clip-rule="nonzero"/></clipPath></defs><g clip-path="url(#fb7abe0369)"><rect x="-37.5" width="450" fill="#ff0000" y="-37.499999" height="449.999989" fill-opacity="1"/></g><g clip-path="url(#b25501c452)"><g clip-path="url(#41e56be882)"><path fill="#ffffff" d="M 59.210938 -8.359375 L 315.738281 -8.359375 L 315.738281 383.304688 L 59.210938 383.304688 Z M 192.285156 295.960938 L 189.878906 249.839844 C 189.75 247.039062 191.914062 244.664062 194.714844 244.535156 C 195.082031 244.519531 195.449219 244.542969 195.8125 244.601562 L 241.71875 252.671875 L 235.519531 235.570312 C 235.003906 234.175781 235.433594 232.605469 236.585938 231.667969 L 286.878906 190.945312 L 275.550781 185.65625 C 273.964844 184.90625 273.1875 183.097656 273.730469 181.433594 L 283.671875 150.863281 L 254.707031 157.011719 C 253.085938 157.347656 251.457031 156.5 250.804688 154.980469 L 245.191406 141.777344 L 222.585938 166.042969 C 221.265625 167.433594 219.066406 167.492188 217.675781 166.171875 C 216.816406 165.355469 216.429688 164.160156 216.652344 162.996094 L 227.554688 106.773438 L 210.078125 116.875 C 208.425781 117.84375 206.296875 117.289062 205.324219 115.636719 C 205.289062 115.570312 205.25 115.5 205.214844 115.433594 L 187.472656 80.585938 L 169.730469 115.433594 C 168.871094 117.148438 166.785156 117.84375 165.070312 116.984375 C 165 116.949219 164.933594 116.914062 164.867188 116.875 L 147.390625 106.773438 L 158.292969 162.996094 C 158.65625 164.878906 157.421875 166.699219 155.539062 167.0625 C 154.375 167.289062 153.175781 166.902344 152.359375 166.039062 L 129.753906 141.777344 L 124.144531 154.980469 C 123.492188 156.5 121.859375 157.347656 120.242188 157.011719 L 91.273438 150.863281 L 101.214844 181.433594 C 101.761719 183.097656 100.984375 184.910156 99.398438 185.65625 L 88.070312 190.945312 L 138.359375 231.667969 C 139.515625 232.605469 139.945312 234.175781 139.429688 235.570312 L 133.230469 252.671875 L 179.136719 244.601562 C 181.898438 244.128906 184.523438 245.984375 185 248.746094 C 185.0625 249.109375 185.085938 249.476562 185.070312 249.839844 L 182.664062 295.960938 Z M 192.285156 295.960938 " fill-opacity="1" fill-rule="nonzero"/></g></g></svg>