<svg xmlns="http://www.w3.org/2000/svg" xmlns:xlink="http://www.w3.org/1999/xlink" width="500" zoomAndPan="magnify" viewBox="0 0 375 374.999991" height="500" preserveAspectRatio="xMidYMid meet" version="1.0"><defs><clipPath id="b72f04241b"><path d="M 19 15.414062 L 356 15.414062 L 356 359 L 19 359 Z M 19 15.414062 " clip-rule="nonzero"/></clipPath></defs><g clip-path="url(#b72f04241b)"><path fill="#e6c7ff" d="M 63.164062 177.851562 C 64.351562 193.089844 68.300781 208.148438 75.011719 222.222656 L 51.789062 235.628906 C 42.785156 217.394531 37.640625 197.726562 36.367188 177.851562 Z M 195.867188 71.8125 C 215.515625 71.8125 231.445312 87.742188 231.445312 107.390625 C 231.445312 127.042969 215.515625 142.96875 195.867188 142.96875 C 176.21875 142.96875 160.289062 127.042969 160.289062 107.390625 C 160.289062 87.742188 176.21875 71.8125 195.867188 71.8125 Z M 133.457031 212.902344 L 258.277344 212.902344 C 262.410156 212.902344 265.445312 209.117188 264.546875 205.082031 C 257.527344 173.621094 229.445312 150.105469 195.867188 150.105469 C 162.289062 150.105469 134.207031 173.621094 127.1875 205.085938 C 126.289062 209.117188 129.324219 212.902344 133.457031 212.902344 Z M 185.488281 277.027344 C 191.574219 277.769531 196.574219 275.9375 198.269531 269.617188 C 199.792969 263.929688 196.199219 258.597656 190.84375 256.722656 C 173.558594 253.554688 156.8125 247.5 143.644531 242.738281 C 124.746094 235.90625 119.8125 234.300781 101.171875 245.089844 L 67.644531 264.503906 L 95.488281 313.699219 L 97.6875 312.429688 C 99.042969 311.652344 100.585938 311.492188 101.984375 311.867188 L 177.585938 332.105469 C 188.558594 335.046875 195.214844 333.867188 204.476562 328.164062 L 308.296875 264.234375 C 311.53125 262.246094 313.117188 257.621094 312.648438 253.101562 C 312.265625 249.402344 310.46875 246.054688 307.066406 244.332031 C 301.667969 241.597656 292.285156 242.414062 277.78125 250.863281 L 220.351562 284.3125 C 215.734375 287 210.988281 288.707031 206.058594 289.535156 C 191.820312 291.925781 170.375 285.214844 157.621094 281.574219 C 153.523438 280.402344 149.363281 279.214844 145.300781 278.125 C 142.261719 277.3125 140.453125 274.1875 141.265625 271.148438 C 142.078125 268.105469 145.203125 266.300781 148.242188 267.113281 C 160.636719 270.433594 172.925781 274.425781 185.488281 277.027344 Z M 50.351562 257.117188 L 95.738281 337.316406 C 97.929688 341.191406 96.554688 346.160156 92.675781 348.355469 L 77.238281 357.09375 C 73.359375 359.285156 68.394531 357.910156 66.199219 354.03125 L 20.8125 273.835938 C 18.617188 269.957031 19.992188 264.992188 23.871094 262.796875 L 39.308594 254.058594 C 43.1875 251.863281 48.15625 253.242188 50.351562 257.117188 Z M 39.941406 269.140625 C 36.929688 269.582031 34.84375 272.378906 35.285156 275.390625 C 35.726562 278.402344 38.527344 280.488281 41.539062 280.046875 C 44.550781 279.609375 46.632812 276.808594 46.195312 273.796875 C 45.753906 270.785156 42.953125 268.699219 39.941406 269.140625 Z M 36.367188 158.152344 C 37.691406 137.527344 43.113281 118.007812 51.832031 100.398438 L 75.191406 113.886719 C 68.769531 127.460938 64.636719 142.386719 63.269531 158.152344 Z M 61.691406 83.347656 C 72.859375 66.628906 87.238281 52.234375 103.957031 41.054688 L 117.304688 64.175781 C 104.621094 72.941406 93.667969 84.007812 84.972656 96.785156 Z M 121.007812 31.191406 C 138.601562 22.472656 158.117188 17.039062 178.773438 15.722656 L 178.773438 42.511719 C 162.878906 43.71875 147.914062 47.832031 134.351562 54.300781 Z M 198.472656 15.71875 L 198.472656 42.515625 C 263.398438 47.523438 314.519531 101.792969 314.519531 168.003906 C 314.519531 173.300781 314.191406 178.527344 313.554688 183.652344 L 304.757812 183.652344 C 302.183594 183.652344 300.746094 186.613281 302.339844 188.632812 L 326.101562 218.816406 C 327.335938 220.382812 329.707031 220.382812 330.9375 218.816406 L 354.703125 188.632812 C 356.292969 186.613281 354.859375 183.65625 352.285156 183.652344 L 340.46875 183.652344 C 340.992188 178.507812 341.261719 173.285156 341.261719 168.003906 C 341.261719 87.019531 278.179688 20.78125 198.472656 15.71875 Z M 198.472656 15.71875 " fill-opacity="1" fill-rule="evenodd"/></g></svg>