<svg xmlns="http://www.w3.org/2000/svg" xmlns:xlink="http://www.w3.org/1999/xlink" width="500" zoomAndPan="magnify" viewBox="0 0 375 374.999991" height="500" preserveAspectRatio="xMidYMid meet" version="1.0"><defs><clipPath id="b9d7758ea0"><path d="M 180 12.34375 L 195 12.34375 L 195 27 L 180 27 Z M 180 12.34375 " clip-rule="nonzero"/></clipPath><clipPath id="44aa03cfb9"><path d="M 57.496094 16 L 317.488281 16 L 317.488281 362.59375 L 57.496094 362.59375 Z M 57.496094 16 " clip-rule="nonzero"/></clipPath></defs><path fill="#ffa3bf" d="M 84.863281 142.339844 C 84.863281 198.933594 130.902344 244.972656 187.492188 244.972656 C 244.082031 244.972656 290.121094 198.933594 290.121094 142.339844 C 290.121094 85.75 244.082031 39.710938 187.492188 39.710938 C 130.902344 39.710938 84.863281 85.75 84.863281 142.339844 Z M 187.492188 53.394531 C 236.539062 53.394531 276.4375 93.296875 276.4375 142.339844 C 276.4375 191.386719 236.539062 231.285156 187.492188 231.285156 C 138.449219 231.285156 98.546875 191.386719 98.546875 142.339844 C 98.546875 93.296875 138.449219 53.394531 187.492188 53.394531 " fill-opacity="1" fill-rule="nonzero"/><path fill="#ffa3bf" d="M 124.128906 130.144531 L 150.652344 156.273438 L 144.546875 193 C 144.125 195.558594 145.179688 198.132812 147.277344 199.65625 C 149.371094 201.179688 152.152344 201.386719 154.453125 200.195312 L 187.492188 183.035156 L 220.53125 200.195312 C 222.8125 201.375 225.59375 201.191406 227.703125 199.65625 C 229.804688 198.132812 230.859375 195.554688 230.433594 193 L 224.332031 156.273438 L 250.851562 130.144531 C 252.699219 128.328125 253.359375 125.621094 252.558594 123.152344 C 251.753906 120.691406 249.632812 118.894531 247.066406 118.503906 L 210.261719 112.960938 L 193.609375 79.65625 C 192.457031 77.34375 190.082031 75.878906 187.492188 75.878906 C 184.902344 75.878906 182.535156 77.34375 181.375 79.65625 L 164.71875 112.960938 L 127.917969 118.503906 C 125.351562 118.886719 123.226562 120.691406 122.425781 123.152344 C 121.621094 125.621094 122.285156 128.328125 124.128906 130.144531 Z M 170.269531 125.96875 C 172.472656 125.636719 174.375 124.253906 175.371094 122.261719 L 187.492188 98.019531 L 199.613281 122.261719 C 200.609375 124.253906 202.511719 125.636719 204.714844 125.96875 L 231.503906 130 L 212.199219 149.011719 C 210.613281 150.578125 209.886719 152.816406 210.25 155.011719 L 214.691406 181.738281 L 190.644531 169.253906 C 189.65625 168.742188 188.574219 168.484375 187.492188 168.484375 C 186.410156 168.484375 185.324219 168.742188 184.335938 169.253906 L 160.289062 181.738281 L 164.730469 155.011719 C 165.097656 152.816406 164.371094 150.578125 162.78125 149.011719 L 143.480469 130 L 170.269531 125.96875 " fill-opacity="1" fill-rule="nonzero"/><g clip-path="url(#b9d7758ea0)"><path fill="#ffa3bf" d="M 194.335938 19.1875 C 194.335938 22.964844 191.273438 26.027344 187.492188 26.027344 C 183.714844 26.027344 180.652344 22.964844 180.652344 19.1875 C 180.652344 15.40625 183.714844 12.34375 187.492188 12.34375 C 191.273438 12.34375 194.335938 15.40625 194.335938 19.1875 " fill-opacity="1" fill-rule="nonzero"/></g><g clip-path="url(#44aa03cfb9)"><path fill="#ffa3bf" d="M 155.25 16.378906 C 97.691406 31.070312 57.496094 82.867188 57.496094 142.339844 C 57.496094 179.28125 73.027344 214.085938 100.292969 238.738281 L 59.070312 311.382812 C 57.746094 313.71875 57.910156 316.617188 59.492188 318.789062 C 61.074219 320.957031 63.78125 322.003906 66.414062 321.457031 L 113.222656 311.738281 L 129.675781 358.097656 C 130.566406 360.621094 132.851562 362.386719 135.519531 362.625 C 138.1875 362.863281 140.746094 361.519531 142.066406 359.191406 L 187.492188 279.332031 L 232.914062 359.191406 C 234.140625 361.339844 236.417969 362.648438 238.855469 362.648438 C 239.058594 362.648438 239.261719 362.640625 239.460938 362.625 C 242.128906 362.386719 244.414062 360.621094 245.3125 358.097656 L 261.761719 311.738281 L 308.570312 321.457031 C 311.203125 322 313.910156 320.957031 315.488281 318.789062 C 317.074219 316.617188 317.238281 313.71875 315.914062 311.382812 L 274.691406 238.738281 C 301.957031 214.085938 317.488281 179.28125 317.488281 142.339844 C 317.488281 82.867188 277.289062 31.070312 219.738281 16.378906 C 216.074219 15.441406 212.351562 17.652344 211.414062 21.3125 C 210.480469 24.972656 212.691406 28.703125 216.351562 29.636719 C 267.84375 42.78125 303.808594 89.128906 303.808594 142.339844 C 303.808594 207.105469 251.207031 258.65625 187.492188 258.65625 C 123.734375 258.65625 71.179688 207.0625 71.179688 142.339844 C 71.179688 89.128906 107.140625 42.78125 158.632812 29.636719 C 162.292969 28.703125 164.503906 24.972656 163.570312 21.3125 C 162.636719 17.652344 158.914062 15.441406 155.25 16.378906 Z M 137.570312 339.429688 L 124.125 301.539062 C 122.980469 298.3125 119.632812 296.429688 116.285156 297.125 L 78.433594 304.984375 L 111.054688 247.492188 C 130.074219 261.316406 152.597656 269.746094 176.019531 271.828125 Z M 258.695312 297.125 C 255.351562 296.429688 252.003906 298.3125 250.859375 301.539062 L 237.414062 339.429688 L 198.964844 271.828125 C 222.386719 269.746094 244.90625 261.320312 263.933594 247.492188 L 296.554688 304.984375 L 258.695312 297.125 " fill-opacity="1" fill-rule="nonzero"/></g></svg>