<svg xmlns="http://www.w3.org/2000/svg" xmlns:xlink="http://www.w3.org/1999/xlink" width="500" zoomAndPan="magnify" viewBox="0 0 375 374.999991" height="500" preserveAspectRatio="xMidYMid meet" version="1.0"><defs><clipPath id="5883ff63f9"><path d="M 3.972656 3.972656 L 370.722656 3.972656 L 370.722656 370.722656 L 3.972656 370.722656 Z M 3.972656 3.972656 " clip-rule="nonzero"/></clipPath></defs><g clip-path="url(#5883ff63f9)"><path fill="#000000" d="M 352.386719 144.5625 L 297.375 144.5625 L 297.375 132.335938 L 340.160156 132.335938 C 341.164062 132.335938 342.160156 132.285156 343.15625 132.1875 C 344.152344 132.089844 345.140625 131.941406 346.121094 131.746094 C 347.105469 131.550781 348.074219 131.308594 349.03125 131.015625 C 349.988281 130.726562 350.929688 130.390625 351.851562 130.007812 C 352.777344 129.621094 353.679688 129.195312 354.5625 128.722656 C 355.445312 128.25 356.300781 127.738281 357.132812 127.179688 C 357.964844 126.625 358.769531 126.027344 359.542969 125.394531 C 360.316406 124.757812 361.054688 124.085938 361.761719 123.378906 C 362.46875 122.671875 363.140625 121.933594 363.777344 121.15625 C 364.410156 120.382812 365.007812 119.582031 365.5625 118.75 C 366.117188 117.917969 366.632812 117.058594 367.101562 116.175781 C 367.574219 115.292969 368 114.390625 368.382812 113.464844 C 368.765625 112.542969 369.105469 111.601562 369.394531 110.644531 C 369.683594 109.6875 369.925781 108.714844 370.121094 107.734375 C 370.316406 106.753906 370.464844 105.765625 370.5625 104.769531 C 370.660156 103.773438 370.710938 102.773438 370.710938 101.773438 C 370.710938 100.773438 370.660156 99.777344 370.5625 98.78125 C 370.464844 97.785156 370.316406 96.796875 370.121094 95.8125 C 369.925781 94.832031 369.683594 93.863281 369.394531 92.90625 C 369.105469 91.949219 368.765625 91.007812 368.382812 90.082031 C 368 89.15625 367.574219 88.253906 367.101562 87.371094 C 366.632812 86.488281 366.117188 85.632812 365.5625 84.800781 C 365.007812 83.96875 364.410156 83.164062 363.777344 82.390625 C 363.140625 81.617188 362.46875 80.875 361.761719 80.167969 C 361.054688 79.460938 360.316406 78.789062 359.542969 78.15625 C 358.769531 77.519531 357.964844 76.925781 357.132812 76.367188 C 356.300781 75.8125 355.445312 75.296875 354.5625 74.824219 C 353.679688 74.355469 352.777344 73.925781 351.851562 73.542969 C 350.929688 73.160156 349.988281 72.824219 349.03125 72.53125 C 348.074219 72.242188 347.105469 71.996094 346.121094 71.800781 C 345.140625 71.605469 344.152344 71.460938 343.15625 71.359375 C 342.160156 71.261719 341.164062 71.210938 340.160156 71.210938 L 297.375 71.210938 L 297.375 10.085938 C 297.375 9.6875 297.335938 9.289062 297.257812 8.894531 C 297.179688 8.5 297.0625 8.117188 296.910156 7.746094 C 296.753906 7.378906 296.566406 7.023438 296.34375 6.691406 C 296.121094 6.355469 295.867188 6.046875 295.585938 5.765625 C 295.300781 5.480469 294.992188 5.226562 294.65625 5.003906 C 294.324219 4.78125 293.972656 4.59375 293.601562 4.441406 C 293.230469 4.285156 292.847656 4.171875 292.453125 4.09375 C 292.0625 4.011719 291.664062 3.972656 291.261719 3.972656 L 10.085938 3.972656 C 9.6875 3.972656 9.289062 4.011719 8.894531 4.09375 C 8.5 4.171875 8.117188 4.285156 7.746094 4.441406 C 7.378906 4.59375 7.023438 4.78125 6.691406 5.003906 C 6.355469 5.226562 6.046875 5.480469 5.765625 5.765625 C 5.480469 6.046875 5.226562 6.355469 5.003906 6.691406 C 4.78125 7.023438 4.59375 7.378906 4.441406 7.746094 C 4.285156 8.117188 4.171875 8.5 4.09375 8.894531 C 4.011719 9.289062 3.972656 9.6875 3.972656 10.085938 L 3.972656 285.148438 C 3.976562 286.011719 4.152344 286.835938 4.503906 287.625 C 4.855469 288.414062 5.351562 289.09375 5.992188 289.671875 L 67.117188 344.683594 C 67.671875 345.203125 68.304688 345.597656 69.011719 345.871094 C 69.71875 346.148438 70.453125 346.28125 71.210938 346.273438 L 187.347656 346.273438 L 187.347656 352.386719 C 187.351562 352.988281 187.382812 353.585938 187.441406 354.183594 C 187.503906 354.78125 187.59375 355.371094 187.710938 355.960938 C 187.828125 356.550781 187.976562 357.128906 188.152344 357.703125 C 188.328125 358.277344 188.53125 358.84375 188.761719 359.394531 C 188.992188 359.949219 189.246094 360.492188 189.53125 361.019531 C 189.8125 361.550781 190.121094 362.0625 190.457031 362.5625 C 190.789062 363.058594 191.148438 363.542969 191.527344 364.003906 C 191.910156 364.46875 192.3125 364.914062 192.738281 365.335938 C 193.160156 365.761719 193.605469 366.164062 194.070312 366.546875 C 194.53125 366.925781 195.011719 367.285156 195.511719 367.617188 C 196.011719 367.949219 196.523438 368.257812 197.054688 368.542969 C 197.582031 368.828125 198.125 369.082031 198.679688 369.3125 C 199.230469 369.542969 199.796875 369.746094 200.371094 369.921875 C 200.945312 370.097656 201.523438 370.246094 202.113281 370.363281 C 202.703125 370.480469 203.292969 370.570312 203.890625 370.632812 C 204.488281 370.691406 205.085938 370.722656 205.6875 370.722656 L 352.386719 370.722656 C 352.988281 370.722656 353.585938 370.691406 354.183594 370.632812 C 354.78125 370.570312 355.371094 370.480469 355.960938 370.363281 C 356.550781 370.246094 357.128906 370.097656 357.703125 369.921875 C 358.277344 369.746094 358.84375 369.542969 359.394531 369.3125 C 359.949219 369.082031 360.492188 368.828125 361.019531 368.542969 C 361.550781 368.257812 362.0625 367.949219 362.5625 367.617188 C 363.058594 367.285156 363.542969 366.925781 364.003906 366.546875 C 364.46875 366.164062 364.914062 365.761719 365.335938 365.335938 C 365.761719 364.914062 366.164062 364.46875 366.546875 364.003906 C 366.925781 363.542969 367.285156 363.058594 367.617188 362.5625 C 367.949219 362.0625 368.257812 361.550781 368.542969 361.019531 C 368.828125 360.492188 369.082031 359.949219 369.3125 359.394531 C 369.542969 358.84375 369.746094 358.277344 369.921875 357.703125 C 370.097656 357.128906 370.246094 356.550781 370.363281 355.960938 C 370.480469 355.371094 370.570312 354.78125 370.632812 354.183594 C 370.691406 353.585938 370.722656 352.988281 370.722656 352.386719 L 370.722656 162.898438 C 370.722656 162.300781 370.691406 161.699219 370.632812 161.105469 C 370.570312 160.507812 370.480469 159.914062 370.363281 159.324219 C 370.246094 158.738281 370.097656 158.15625 369.921875 157.582031 C 369.746094 157.007812 369.542969 156.445312 369.3125 155.890625 C 369.082031 155.335938 368.828125 154.796875 368.542969 154.265625 C 368.257812 153.738281 367.949219 153.222656 367.617188 152.726562 C 367.285156 152.226562 366.925781 151.746094 366.546875 151.28125 C 366.164062 150.816406 365.761719 150.375 365.335938 149.949219 C 364.914062 149.523438 364.46875 149.121094 364.003906 148.742188 C 363.542969 148.359375 363.058594 148.003906 362.5625 147.667969 C 362.0625 147.335938 361.550781 147.027344 361.019531 146.742188 C 360.492188 146.460938 359.949219 146.203125 359.394531 145.972656 C 358.84375 145.742188 358.277344 145.539062 357.703125 145.363281 C 357.128906 145.1875 356.550781 145.042969 355.960938 144.921875 C 355.371094 144.804688 354.78125 144.714844 354.183594 144.65625 C 353.585938 144.59375 352.988281 144.5625 352.386719 144.5625 Z M 334.050781 83.4375 L 340.160156 83.4375 C 340.761719 83.4375 341.363281 83.464844 341.960938 83.523438 C 342.558594 83.585938 343.148438 83.671875 343.738281 83.789062 C 344.328125 83.90625 344.910156 84.050781 345.484375 84.226562 C 346.058594 84.402344 346.625 84.601562 347.179688 84.832031 C 347.734375 85.0625 348.277344 85.320312 348.804688 85.601562 C 349.335938 85.886719 349.851562 86.195312 350.351562 86.527344 C 350.847656 86.859375 351.332031 87.21875 351.796875 87.597656 C 352.257812 87.980469 352.703125 88.382812 353.128906 88.808594 C 353.554688 89.234375 353.957031 89.675781 354.335938 90.140625 C 354.71875 90.605469 355.074219 91.085938 355.410156 91.585938 C 355.742188 92.085938 356.050781 92.601562 356.335938 93.128906 C 356.617188 93.660156 356.875 94.203125 357.105469 94.757812 C 357.332031 95.3125 357.535156 95.875 357.710938 96.453125 C 357.882812 97.027344 358.03125 97.609375 358.148438 98.195312 C 358.265625 98.785156 358.351562 99.378906 358.410156 99.976562 C 358.46875 100.574219 358.5 101.175781 358.5 101.773438 C 358.5 102.375 358.46875 102.972656 358.410156 103.570312 C 358.351562 104.167969 358.265625 104.761719 358.148438 105.351562 C 358.03125 105.941406 357.882812 106.523438 357.710938 107.097656 C 357.535156 107.671875 357.332031 108.238281 357.105469 108.792969 C 356.875 109.347656 356.617188 109.890625 356.335938 110.417969 C 356.050781 110.949219 355.742188 111.460938 355.410156 111.960938 C 355.074219 112.460938 354.71875 112.945312 354.335938 113.40625 C 353.957031 113.871094 353.554688 114.316406 353.128906 114.742188 C 352.703125 115.164062 352.257812 115.570312 351.796875 115.949219 C 351.332031 116.332031 350.847656 116.6875 350.351562 117.023438 C 349.851562 117.355469 349.335938 117.664062 348.804688 117.945312 C 348.277344 118.230469 347.734375 118.484375 347.179688 118.714844 C 346.625 118.945312 346.058594 119.148438 345.484375 119.324219 C 344.910156 119.496094 344.328125 119.640625 343.738281 119.757812 C 343.148438 119.875 342.558594 119.964844 341.960938 120.023438 C 341.363281 120.082031 340.761719 120.113281 340.160156 120.113281 L 334.050781 120.113281 Z M 321.824219 120.113281 L 114 120.113281 L 114 107.886719 L 321.824219 107.886719 Z M 321.824219 83.4375 L 321.824219 95.660156 L 114 95.660156 L 114 83.4375 Z M 65.097656 326.410156 L 26.039062 291.261719 L 65.097656 291.261719 Z M 187.347656 162.898438 L 187.347656 334.050781 L 77.324219 334.050781 L 77.324219 285.148438 C 77.324219 284.75 77.285156 284.351562 77.207031 283.957031 C 77.128906 283.5625 77.011719 283.179688 76.859375 282.808594 C 76.707031 282.441406 76.515625 282.085938 76.292969 281.753906 C 76.070312 281.417969 75.816406 281.109375 75.535156 280.828125 C 75.25 280.542969 74.941406 280.289062 74.609375 280.066406 C 74.273438 279.84375 73.921875 279.65625 73.550781 279.503906 C 73.179688 279.347656 72.796875 279.234375 72.40625 279.15625 C 72.011719 279.074219 71.613281 279.035156 71.210938 279.035156 L 16.199219 279.035156 L 16.199219 16.199219 L 285.148438 16.199219 L 285.148438 71.210938 L 107.886719 71.210938 C 107.171875 71.210938 106.480469 71.332031 105.808594 71.578125 L 38.570312 96.027344 C 37.980469 96.242188 37.4375 96.539062 36.9375 96.921875 C 36.441406 97.304688 36.011719 97.753906 35.652344 98.265625 C 35.289062 98.78125 35.015625 99.335938 34.828125 99.933594 C 34.636719 100.535156 34.542969 101.148438 34.542969 101.773438 C 34.542969 102.402344 34.636719 103.015625 34.828125 103.613281 C 35.015625 104.210938 35.289062 104.769531 35.652344 105.28125 C 36.011719 105.796875 36.441406 106.246094 36.9375 106.625 C 37.4375 107.007812 37.980469 107.304688 38.570312 107.519531 L 105.808594 131.96875 C 106.480469 132.21875 107.171875 132.339844 107.886719 132.335938 L 285.148438 132.335938 L 285.148438 144.5625 L 205.6875 144.5625 C 205.085938 144.5625 204.488281 144.59375 203.890625 144.65625 C 203.292969 144.714844 202.703125 144.804688 202.113281 144.921875 C 201.523438 145.042969 200.945312 145.1875 200.371094 145.363281 C 199.796875 145.539062 199.230469 145.742188 198.679688 145.972656 C 198.125 146.203125 197.582031 146.460938 197.054688 146.742188 C 196.523438 147.027344 196.011719 147.335938 195.511719 147.667969 C 195.011719 148.003906 194.53125 148.359375 194.070312 148.742188 C 193.605469 149.121094 193.160156 149.523438 192.738281 149.949219 C 192.3125 150.375 191.910156 150.816406 191.527344 151.28125 C 191.148438 151.746094 190.789062 152.226562 190.457031 152.722656 C 190.121094 153.222656 189.8125 153.738281 189.53125 154.265625 C 189.246094 154.796875 188.992188 155.335938 188.761719 155.890625 C 188.53125 156.445312 188.328125 157.007812 188.152344 157.582031 C 187.976562 158.15625 187.828125 158.738281 187.710938 159.324219 C 187.59375 159.914062 187.503906 160.507812 187.441406 161.105469 C 187.382812 161.699219 187.351562 162.300781 187.347656 162.898438 Z M 101.773438 86.066406 L 101.773438 117.484375 L 58.558594 101.773438 Z M 358.5 352.386719 C 358.5 352.789062 358.460938 353.1875 358.382812 353.578125 C 358.304688 353.972656 358.1875 354.355469 358.035156 354.726562 C 357.878906 355.097656 357.691406 355.449219 357.46875 355.78125 C 357.246094 356.117188 356.992188 356.425781 356.710938 356.710938 C 356.425781 356.992188 356.117188 357.246094 355.78125 357.46875 C 355.449219 357.691406 355.097656 357.878906 354.726562 358.035156 C 354.355469 358.1875 353.972656 358.304688 353.578125 358.382812 C 353.1875 358.460938 352.789062 358.5 352.386719 358.5 L 205.6875 358.5 C 205.285156 358.5 204.886719 358.460938 204.496094 358.382812 C 204.101562 358.304688 203.71875 358.1875 203.347656 358.035156 C 202.976562 357.878906 202.625 357.691406 202.292969 357.46875 C 201.957031 357.246094 201.648438 356.992188 201.363281 356.710938 C 201.082031 356.425781 200.828125 356.117188 200.605469 355.78125 C 200.382812 355.449219 200.191406 355.097656 200.039062 354.726562 C 199.886719 354.355469 199.769531 353.972656 199.691406 353.578125 C 199.613281 353.1875 199.574219 352.789062 199.574219 352.386719 L 199.574219 162.898438 C 199.574219 162.5 199.613281 162.101562 199.691406 161.707031 C 199.769531 161.3125 199.886719 160.929688 200.039062 160.558594 C 200.191406 160.191406 200.382812 159.835938 200.605469 159.503906 C 200.828125 159.167969 201.082031 158.859375 201.363281 158.578125 C 201.648438 158.292969 201.957031 158.039062 202.292969 157.816406 C 202.625 157.59375 202.976562 157.40625 203.347656 157.253906 C 203.71875 157.097656 204.101562 156.984375 204.496094 156.90625 C 204.886719 156.824219 205.285156 156.785156 205.6875 156.785156 L 352.386719 156.785156 C 352.789062 156.785156 353.1875 156.824219 353.578125 156.90625 C 353.972656 156.984375 354.355469 157.097656 354.726562 157.253906 C 355.097656 157.40625 355.449219 157.59375 355.78125 157.816406 C 356.117188 158.039062 356.425781 158.292969 356.710938 158.578125 C 356.992188 158.859375 357.246094 159.167969 357.46875 159.503906 C 357.691406 159.835938 357.878906 160.191406 358.035156 160.558594 C 358.1875 160.929688 358.304688 161.3125 358.382812 161.707031 C 358.460938 162.101562 358.5 162.5 358.5 162.898438 Z M 358.5 352.386719 " fill-opacity="1" fill-rule="nonzero"/></g><path fill="#000000" d="M 340.160156 169.011719 L 217.910156 169.011719 C 217.511719 169.011719 217.113281 169.050781 216.71875 169.128906 C 216.324219 169.207031 215.945312 169.324219 215.574219 169.476562 C 215.203125 169.628906 214.851562 169.820312 214.515625 170.042969 C 214.183594 170.265625 213.875 170.519531 213.589844 170.800781 C 213.304688 171.085938 213.050781 171.394531 212.828125 171.730469 C 212.605469 172.0625 212.417969 172.414062 212.265625 172.785156 C 212.109375 173.15625 211.996094 173.539062 211.917969 173.933594 C 211.839844 174.324219 211.800781 174.722656 211.800781 175.125 L 211.800781 205.6875 C 211.800781 206.089844 211.839844 206.484375 211.917969 206.878906 C 211.996094 207.273438 212.109375 207.65625 212.265625 208.027344 C 212.417969 208.398438 212.605469 208.75 212.828125 209.082031 C 213.050781 209.417969 213.304688 209.726562 213.589844 210.007812 C 213.875 210.292969 214.183594 210.546875 214.515625 210.769531 C 214.851562 210.992188 215.203125 211.179688 215.574219 211.335938 C 215.945312 211.488281 216.324219 211.605469 216.71875 211.683594 C 217.113281 211.761719 217.511719 211.800781 217.910156 211.800781 L 340.160156 211.800781 C 340.5625 211.800781 340.960938 211.761719 341.355469 211.683594 C 341.746094 211.605469 342.128906 211.488281 342.5 211.335938 C 342.871094 211.179688 343.222656 210.992188 343.558594 210.769531 C 343.890625 210.546875 344.199219 210.292969 344.484375 210.007812 C 344.769531 209.726562 345.019531 209.417969 345.246094 209.082031 C 345.46875 208.75 345.65625 208.398438 345.808594 208.027344 C 345.960938 207.65625 346.078125 207.273438 346.15625 206.878906 C 346.234375 206.484375 346.273438 206.089844 346.273438 205.6875 L 346.273438 175.125 C 346.273438 174.722656 346.234375 174.324219 346.15625 173.933594 C 346.078125 173.539062 345.960938 173.15625 345.808594 172.785156 C 345.65625 172.414062 345.46875 172.0625 345.246094 171.726562 C 345.019531 171.394531 344.769531 171.085938 344.484375 170.800781 C 344.199219 170.519531 343.890625 170.265625 343.558594 170.042969 C 343.222656 169.820312 342.871094 169.628906 342.5 169.476562 C 342.128906 169.324219 341.746094 169.207031 341.355469 169.128906 C 340.960938 169.050781 340.5625 169.011719 340.160156 169.011719 Z M 334.050781 199.574219 L 224.023438 199.574219 L 224.023438 181.238281 L 334.050781 181.238281 Z M 334.050781 199.574219 " fill-opacity="1" fill-rule="nonzero"/><path fill="#000000" d="M 242.363281 224.023438 L 217.910156 224.023438 C 217.511719 224.023438 217.113281 224.0625 216.71875 224.140625 C 216.324219 224.21875 215.945312 224.335938 215.574219 224.488281 C 215.203125 224.644531 214.851562 224.832031 214.515625 225.054688 C 214.183594 225.277344 213.875 225.53125 213.589844 225.816406 C 213.304688 226.097656 213.050781 226.40625 212.828125 226.742188 C 212.605469 227.074219 212.417969 227.425781 212.265625 227.796875 C 212.109375 228.167969 211.996094 228.550781 211.917969 228.945312 C 211.839844 229.339844 211.800781 229.734375 211.800781 230.136719 L 211.800781 254.585938 C 211.800781 254.988281 211.839844 255.386719 211.917969 255.78125 C 211.996094 256.171875 212.109375 256.554688 212.265625 256.925781 C 212.417969 257.296875 212.605469 257.648438 212.828125 257.984375 C 213.050781 258.316406 213.304688 258.625 213.589844 258.910156 C 213.875 259.191406 214.183594 259.445312 214.515625 259.667969 C 214.851562 259.890625 215.203125 260.082031 215.574219 260.234375 C 215.945312 260.386719 216.324219 260.503906 216.71875 260.582031 C 217.113281 260.660156 217.511719 260.699219 217.910156 260.699219 L 242.363281 260.699219 C 242.761719 260.699219 243.160156 260.660156 243.554688 260.582031 C 243.949219 260.503906 244.332031 260.386719 244.699219 260.234375 C 245.070312 260.082031 245.425781 259.890625 245.757812 259.667969 C 246.089844 259.445312 246.398438 259.191406 246.683594 258.910156 C 246.96875 258.625 247.222656 258.316406 247.445312 257.984375 C 247.667969 257.648438 247.855469 257.296875 248.007812 256.925781 C 248.164062 256.554688 248.277344 256.171875 248.355469 255.78125 C 248.433594 255.386719 248.472656 254.988281 248.472656 254.585938 L 248.472656 230.136719 C 248.472656 229.734375 248.433594 229.339844 248.355469 228.945312 C 248.277344 228.550781 248.164062 228.167969 248.007812 227.796875 C 247.855469 227.425781 247.667969 227.074219 247.445312 226.742188 C 247.222656 226.40625 246.96875 226.097656 246.683594 225.816406 C 246.398438 225.53125 246.089844 225.277344 245.757812 225.054688 C 245.425781 224.832031 245.070312 224.644531 244.699219 224.488281 C 244.332031 224.335938 243.949219 224.21875 243.554688 224.140625 C 243.160156 224.0625 242.761719 224.023438 242.363281 224.023438 Z M 236.25 248.472656 L 224.023438 248.472656 L 224.023438 236.25 L 236.25 236.25 Z M 236.25 248.472656 " fill-opacity="1" fill-rule="nonzero"/><path fill="#000000" d="M 242.363281 266.8125 L 217.910156 266.8125 C 217.511719 266.8125 217.113281 266.851562 216.71875 266.929688 C 216.324219 267.007812 215.945312 267.125 215.574219 267.277344 C 215.203125 267.429688 214.851562 267.617188 214.515625 267.84375 C 214.183594 268.066406 213.875 268.320312 213.589844 268.601562 C 213.304688 268.886719 213.050781 269.195312 212.828125 269.527344 C 212.605469 269.863281 212.417969 270.214844 212.265625 270.585938 C 212.109375 270.957031 211.996094 271.339844 211.917969 271.730469 C 211.839844 272.125 211.800781 272.523438 211.800781 272.925781 L 211.800781 297.375 C 211.800781 297.777344 211.839844 298.171875 211.917969 298.566406 C 211.996094 298.960938 212.109375 299.34375 212.265625 299.714844 C 212.417969 300.085938 212.605469 300.4375 212.828125 300.769531 C 213.050781 301.105469 213.304688 301.414062 213.589844 301.695312 C 213.875 301.980469 214.183594 302.234375 214.515625 302.457031 C 214.851562 302.679688 215.203125 302.867188 215.574219 303.023438 C 215.945312 303.175781 216.324219 303.292969 216.71875 303.371094 C 217.113281 303.449219 217.511719 303.488281 217.910156 303.488281 L 242.363281 303.488281 C 242.761719 303.488281 243.160156 303.449219 243.554688 303.371094 C 243.949219 303.292969 244.332031 303.175781 244.699219 303.023438 C 245.070312 302.867188 245.425781 302.679688 245.757812 302.457031 C 246.089844 302.234375 246.398438 301.980469 246.683594 301.695312 C 246.96875 301.414062 247.222656 301.105469 247.445312 300.769531 C 247.667969 300.4375 247.855469 300.085938 248.007812 299.714844 C 248.164062 299.34375 248.277344 298.960938 248.355469 298.566406 C 248.433594 298.171875 248.472656 297.777344 248.472656 297.375 L 248.472656 272.925781 C 248.472656 272.523438 248.433594 272.125 248.355469 271.730469 C 248.277344 271.339844 248.164062 270.957031 248.007812 270.585938 C 247.855469 270.214844 247.667969 269.863281 247.445312 269.527344 C 247.222656 269.195312 246.96875 268.886719 246.683594 268.601562 C 246.398438 268.320312 246.089844 268.066406 245.757812 267.84375 C 245.425781 267.617188 245.070312 267.429688 244.699219 267.277344 C 244.332031 267.125 243.949219 267.007812 243.554688 266.929688 C 243.160156 266.851562 242.761719 266.8125 242.363281 266.8125 Z M 236.25 291.261719 L 224.023438 291.261719 L 224.023438 279.035156 L 236.25 279.035156 Z M 236.25 291.261719 " fill-opacity="1" fill-rule="nonzero"/><path fill="#000000" d="M 242.363281 309.597656 L 217.910156 309.597656 C 217.511719 309.597656 217.113281 309.636719 216.71875 309.71875 C 216.324219 309.796875 215.945312 309.910156 215.574219 310.066406 C 215.203125 310.21875 214.851562 310.40625 214.515625 310.628906 C 214.183594 310.851562 213.875 311.105469 213.589844 311.390625 C 213.304688 311.671875 213.050781 311.980469 212.828125 312.316406 C 212.605469 312.648438 212.417969 313.003906 212.265625 313.371094 C 212.109375 313.742188 211.996094 314.125 211.917969 314.519531 C 211.839844 314.914062 211.800781 315.3125 211.800781 315.710938 L 211.800781 340.160156 C 211.800781 340.5625 211.839844 340.960938 211.917969 341.355469 C 211.996094 341.746094 212.109375 342.128906 212.265625 342.5 C 212.417969 342.871094 212.605469 343.222656 212.828125 343.558594 C 213.050781 343.890625 213.304688 344.199219 213.589844 344.484375 C 213.875 344.769531 214.183594 345.019531 214.515625 345.246094 C 214.851562 345.46875 215.203125 345.65625 215.574219 345.808594 C 215.945312 345.960938 216.324219 346.078125 216.71875 346.15625 C 217.113281 346.234375 217.511719 346.273438 217.910156 346.273438 L 242.363281 346.273438 C 242.761719 346.273438 243.160156 346.234375 243.554688 346.15625 C 243.949219 346.078125 244.332031 345.960938 244.699219 345.808594 C 245.070312 345.65625 245.425781 345.46875 245.757812 345.246094 C 246.089844 345.019531 246.398438 344.769531 246.683594 344.484375 C 246.96875 344.199219 247.222656 343.890625 247.445312 343.558594 C 247.667969 343.222656 247.855469 342.871094 248.007812 342.5 C 248.164062 342.128906 248.277344 341.746094 248.355469 341.355469 C 248.433594 340.960938 248.472656 340.5625 248.472656 340.160156 L 248.472656 315.710938 C 248.472656 315.3125 248.433594 314.914062 248.355469 314.519531 C 248.277344 314.125 248.164062 313.742188 248.007812 313.371094 C 247.855469 313 247.667969 312.648438 247.445312 312.316406 C 247.222656 311.980469 246.96875 311.671875 246.683594 311.390625 C 246.398438 311.105469 246.089844 310.851562 245.757812 310.628906 C 245.425781 310.40625 245.070312 310.21875 244.699219 310.066406 C 244.332031 309.910156 243.949219 309.796875 243.554688 309.71875 C 243.160156 309.636719 242.761719 309.597656 242.363281 309.597656 Z M 236.25 334.050781 L 224.023438 334.050781 L 224.023438 321.824219 L 236.25 321.824219 Z M 236.25 334.050781 " fill-opacity="1" fill-rule="nonzero"/><path fill="#000000" d="M 291.261719 224.023438 L 266.8125 224.023438 C 266.410156 224.023438 266.011719 224.0625 265.621094 224.140625 C 265.226562 224.21875 264.84375 224.335938 264.472656 224.488281 C 264.101562 224.644531 263.75 224.832031 263.417969 225.054688 C 263.082031 225.277344 262.773438 225.53125 262.488281 225.816406 C 262.207031 226.097656 261.953125 226.40625 261.730469 226.742188 C 261.507812 227.074219 261.316406 227.425781 261.164062 227.796875 C 261.011719 228.167969 260.894531 228.550781 260.816406 228.945312 C 260.738281 229.339844 260.699219 229.734375 260.699219 230.136719 L 260.699219 254.585938 C 260.699219 254.988281 260.738281 255.386719 260.816406 255.78125 C 260.894531 256.171875 261.011719 256.554688 261.164062 256.925781 C 261.316406 257.296875 261.507812 257.648438 261.730469 257.984375 C 261.953125 258.316406 262.207031 258.625 262.488281 258.910156 C 262.773438 259.191406 263.082031 259.445312 263.414062 259.667969 C 263.75 259.890625 264.101562 260.082031 264.472656 260.234375 C 264.84375 260.386719 265.226562 260.503906 265.621094 260.582031 C 266.011719 260.660156 266.410156 260.699219 266.8125 260.699219 L 291.261719 260.699219 C 291.664062 260.699219 292.0625 260.660156 292.453125 260.582031 C 292.847656 260.503906 293.230469 260.386719 293.601562 260.234375 C 293.972656 260.082031 294.324219 259.890625 294.65625 259.667969 C 294.992188 259.445312 295.300781 259.191406 295.585938 258.910156 C 295.867188 258.625 296.121094 258.316406 296.34375 257.984375 C 296.566406 257.648438 296.753906 257.296875 296.910156 256.925781 C 297.0625 256.554688 297.179688 256.171875 297.257812 255.78125 C 297.335938 255.386719 297.375 254.988281 297.375 254.585938 L 297.375 230.136719 C 297.375 229.734375 297.335938 229.339844 297.257812 228.945312 C 297.179688 228.550781 297.0625 228.167969 296.910156 227.796875 C 296.753906 227.425781 296.566406 227.074219 296.34375 226.742188 C 296.121094 226.40625 295.867188 226.097656 295.585938 225.816406 C 295.300781 225.53125 294.992188 225.277344 294.65625 225.054688 C 294.324219 224.832031 293.972656 224.644531 293.601562 224.488281 C 293.230469 224.335938 292.847656 224.21875 292.453125 224.140625 C 292.0625 224.0625 291.664062 224.023438 291.261719 224.023438 Z M 285.148438 248.472656 L 272.925781 248.472656 L 272.925781 236.25 L 285.148438 236.25 Z M 285.148438 248.472656 " fill-opacity="1" fill-rule="nonzero"/><path fill="#000000" d="M 291.261719 266.8125 L 266.8125 266.8125 C 266.410156 266.8125 266.011719 266.851562 265.621094 266.929688 C 265.226562 267.007812 264.84375 267.125 264.472656 267.277344 C 264.101562 267.429688 263.75 267.617188 263.417969 267.84375 C 263.082031 268.066406 262.773438 268.320312 262.488281 268.601562 C 262.207031 268.886719 261.953125 269.195312 261.730469 269.527344 C 261.507812 269.863281 261.316406 270.214844 261.164062 270.585938 C 261.011719 270.957031 260.894531 271.339844 260.816406 271.730469 C 260.738281 272.125 260.699219 272.523438 260.699219 272.925781 L 260.699219 297.375 C 260.699219 297.777344 260.738281 298.171875 260.816406 298.566406 C 260.894531 298.960938 261.011719 299.34375 261.164062 299.714844 C 261.316406 300.085938 261.507812 300.4375 261.730469 300.769531 C 261.953125 301.105469 262.207031 301.414062 262.488281 301.695312 C 262.773438 301.980469 263.082031 302.234375 263.414062 302.457031 C 263.75 302.679688 264.101562 302.867188 264.472656 303.023438 C 264.84375 303.175781 265.226562 303.292969 265.621094 303.371094 C 266.011719 303.449219 266.410156 303.488281 266.8125 303.488281 L 291.261719 303.488281 C 291.664062 303.488281 292.0625 303.449219 292.453125 303.371094 C 292.847656 303.292969 293.230469 303.175781 293.601562 303.023438 C 293.972656 302.867188 294.324219 302.679688 294.65625 302.457031 C 294.992188 302.234375 295.300781 301.980469 295.585938 301.695312 C 295.867188 301.414062 296.121094 301.105469 296.34375 300.769531 C 296.566406 300.4375 296.753906 300.085938 296.910156 299.714844 C 297.0625 299.34375 297.179688 298.960938 297.257812 298.566406 C 297.335938 298.171875 297.375 297.777344 297.375 297.375 L 297.375 272.925781 C 297.375 272.523438 297.335938 272.125 297.257812 271.730469 C 297.179688 271.339844 297.0625 270.957031 296.910156 270.585938 C 296.753906 270.214844 296.566406 269.863281 296.34375 269.527344 C 296.121094 269.195312 295.867188 268.886719 295.585938 268.601562 C 295.300781 268.320312 294.992188 268.066406 294.65625 267.84375 C 294.324219 267.617188 293.972656 267.429688 293.601562 267.277344 C 293.230469 267.125 292.847656 267.007812 292.453125 266.929688 C 292.0625 266.851562 291.664062 266.8125 291.261719 266.8125 Z M 285.148438 291.261719 L 272.925781 291.261719 L 272.925781 279.035156 L 285.148438 279.035156 Z M 285.148438 291.261719 " fill-opacity="1" fill-rule="nonzero"/><path fill="#000000" d="M 291.261719 309.597656 L 266.8125 309.597656 C 266.410156 309.597656 266.011719 309.636719 265.621094 309.71875 C 265.226562 309.796875 264.84375 309.910156 264.472656 310.066406 C 264.101562 310.21875 263.75 310.40625 263.417969 310.628906 C 263.082031 310.851562 262.773438 311.105469 262.488281 311.390625 C 262.207031 311.671875 261.953125 311.980469 261.730469 312.316406 C 261.507812 312.648438 261.316406 313.003906 261.164062 313.371094 C 261.011719 313.742188 260.894531 314.125 260.816406 314.519531 C 260.738281 314.914062 260.699219 315.3125 260.699219 315.710938 L 260.699219 340.160156 C 260.699219 340.5625 260.738281 340.960938 260.816406 341.355469 C 260.894531 341.746094 261.011719 342.128906 261.164062 342.5 C 261.316406 342.871094 261.507812 343.222656 261.730469 343.558594 C 261.953125 343.890625 262.207031 344.199219 262.488281 344.484375 C 262.773438 344.769531 263.082031 345.019531 263.414062 345.246094 C 263.75 345.46875 264.101562 345.65625 264.472656 345.808594 C 264.84375 345.960938 265.226562 346.078125 265.621094 346.15625 C 266.011719 346.234375 266.410156 346.273438 266.8125 346.273438 L 291.261719 346.273438 C 291.664062 346.273438 292.0625 346.234375 292.453125 346.15625 C 292.847656 346.078125 293.230469 345.960938 293.601562 345.808594 C 293.972656 345.65625 294.324219 345.46875 294.65625 345.246094 C 294.992188 345.019531 295.300781 344.769531 295.585938 344.484375 C 295.867188 344.199219 296.121094 343.890625 296.34375 343.558594 C 296.566406 343.222656 296.753906 342.871094 296.910156 342.5 C 297.0625 342.128906 297.179688 341.746094 297.257812 341.355469 C 297.335938 340.960938 297.375 340.5625 297.375 340.160156 L 297.375 315.710938 C 297.375 315.3125 297.335938 314.914062 297.257812 314.519531 C 297.179688 314.125 297.0625 313.742188 296.910156 313.371094 C 296.753906 313 296.566406 312.648438 296.34375 312.316406 C 296.121094 311.980469 295.867188 311.671875 295.585938 311.390625 C 295.300781 311.105469 294.992188 310.851562 294.65625 310.628906 C 294.324219 310.40625 293.972656 310.21875 293.601562 310.066406 C 293.230469 309.910156 292.847656 309.796875 292.453125 309.71875 C 292.0625 309.636719 291.664062 309.597656 291.261719 309.597656 Z M 285.148438 334.050781 L 272.925781 334.050781 L 272.925781 321.824219 L 285.148438 321.824219 Z M 285.148438 334.050781 " fill-opacity="1" fill-rule="nonzero"/><path fill="#000000" d="M 340.160156 224.023438 L 315.710938 224.023438 C 315.3125 224.023438 314.914062 224.0625 314.519531 224.140625 C 314.125 224.21875 313.742188 224.335938 313.371094 224.488281 C 313.003906 224.644531 312.648438 224.832031 312.316406 225.054688 C 311.980469 225.277344 311.671875 225.53125 311.390625 225.816406 C 311.105469 226.097656 310.851562 226.40625 310.628906 226.742188 C 310.40625 227.074219 310.21875 227.425781 310.066406 227.796875 C 309.910156 228.167969 309.796875 228.550781 309.71875 228.945312 C 309.636719 229.339844 309.597656 229.734375 309.597656 230.136719 L 309.597656 254.585938 C 309.597656 254.988281 309.636719 255.386719 309.71875 255.78125 C 309.796875 256.171875 309.910156 256.554688 310.066406 256.925781 C 310.21875 257.296875 310.40625 257.648438 310.628906 257.984375 C 310.851562 258.316406 311.105469 258.625 311.390625 258.910156 C 311.671875 259.191406 311.980469 259.445312 312.316406 259.667969 C 312.648438 259.890625 313 260.082031 313.371094 260.234375 C 313.742188 260.386719 314.125 260.503906 314.519531 260.582031 C 314.914062 260.660156 315.3125 260.699219 315.710938 260.699219 L 340.160156 260.699219 C 340.5625 260.699219 340.960938 260.660156 341.355469 260.582031 C 341.746094 260.503906 342.128906 260.386719 342.5 260.234375 C 342.871094 260.082031 343.222656 259.890625 343.558594 259.667969 C 343.890625 259.445312 344.199219 259.191406 344.484375 258.910156 C 344.769531 258.625 345.019531 258.316406 345.246094 257.984375 C 345.46875 257.648438 345.65625 257.296875 345.808594 256.925781 C 345.960938 256.554688 346.078125 256.171875 346.15625 255.78125 C 346.234375 255.386719 346.273438 254.988281 346.273438 254.585938 L 346.273438 230.136719 C 346.273438 229.734375 346.234375 229.339844 346.15625 228.945312 C 346.078125 228.550781 345.960938 228.167969 345.808594 227.796875 C 345.65625 227.425781 345.46875 227.074219 345.246094 226.742188 C 345.019531 226.40625 344.769531 226.097656 344.484375 225.816406 C 344.199219 225.53125 343.890625 225.277344 343.558594 225.054688 C 343.222656 224.832031 342.871094 224.644531 342.5 224.488281 C 342.128906 224.335938 341.746094 224.21875 341.355469 224.140625 C 340.960938 224.0625 340.5625 224.023438 340.160156 224.023438 Z M 334.050781 248.472656 L 321.824219 248.472656 L 321.824219 236.25 L 334.050781 236.25 Z M 334.050781 248.472656 " fill-opacity="1" fill-rule="nonzero"/><path fill="#000000" d="M 340.160156 266.8125 L 315.710938 266.8125 C 315.3125 266.8125 314.914062 266.851562 314.519531 266.929688 C 314.125 267.007812 313.742188 267.125 313.371094 267.277344 C 313.003906 267.429688 312.648438 267.617188 312.316406 267.84375 C 311.980469 268.066406 311.671875 268.320312 311.390625 268.601562 C 311.105469 268.886719 310.851562 269.195312 310.628906 269.527344 C 310.40625 269.863281 310.21875 270.214844 310.066406 270.585938 C 309.910156 270.957031 309.796875 271.339844 309.71875 271.730469 C 309.636719 272.125 309.597656 272.523438 309.597656 272.925781 L 309.597656 340.160156 C 309.597656 340.5625 309.636719 340.960938 309.71875 341.355469 C 309.796875 341.746094 309.910156 342.128906 310.066406 342.5 C 310.21875 342.871094 310.40625 343.222656 310.628906 343.558594 C 310.851562 343.890625 311.105469 344.199219 311.390625 344.484375 C 311.671875 344.769531 311.980469 345.019531 312.316406 345.246094 C 312.648438 345.46875 313 345.65625 313.371094 345.808594 C 313.742188 345.960938 314.125 346.078125 314.519531 346.15625 C 314.914062 346.234375 315.3125 346.273438 315.710938 346.273438 L 340.160156 346.273438 C 340.5625 346.273438 340.960938 346.234375 341.355469 346.15625 C 341.746094 346.078125 342.128906 345.960938 342.5 345.808594 C 342.871094 345.65625 343.222656 345.46875 343.558594 345.246094 C 343.890625 345.019531 344.199219 344.769531 344.484375 344.484375 C 344.769531 344.199219 345.019531 343.890625 345.246094 343.558594 C 345.46875 343.222656 345.65625 342.871094 345.808594 342.5 C 345.960938 342.128906 346.078125 341.746094 346.15625 341.355469 C 346.234375 340.960938 346.273438 340.5625 346.273438 340.160156 L 346.273438 272.925781 C 346.273438 272.523438 346.234375 272.125 346.15625 271.730469 C 346.078125 271.339844 345.960938 270.957031 345.808594 270.585938 C 345.65625 270.214844 345.46875 269.863281 345.246094 269.527344 C 345.019531 269.195312 344.769531 268.886719 344.484375 268.601562 C 344.199219 268.320312 343.890625 268.066406 343.558594 267.84375 C 343.222656 267.617188 342.871094 267.429688 342.5 267.277344 C 342.128906 267.125 341.746094 267.007812 341.355469 266.929688 C 340.960938 266.851562 340.5625 266.8125 340.160156 266.8125 Z M 334.050781 334.050781 L 321.824219 334.050781 L 321.824219 279.035156 L 334.050781 279.035156 Z M 334.050781 334.050781 " fill-opacity="1" fill-rule="nonzero"/></svg>