<svg xmlns="http://www.w3.org/2000/svg" xmlns:xlink="http://www.w3.org/1999/xlink" width="500" zoomAndPan="magnify" viewBox="0 0 375 374.999991" height="500" preserveAspectRatio="xMidYMid meet" version="1.0"><defs><clipPath id="0b212f5b3c"><path d="M 0 2.34375 L 375 2.34375 L 375 372.84375 L 0 372.84375 Z M 0 2.34375 " clip-rule="nonzero"/></clipPath><clipPath id="5bc99b0d72"><path d="M 10 2.34375 L 365 2.34375 L 365 126 L 10 126 Z M 10 2.34375 " clip-rule="nonzero"/></clipPath><clipPath id="89a9e97956"><path d="M 11 250 L 364 250 L 364 372.84375 L 11 372.84375 Z M 11 250 " clip-rule="nonzero"/></clipPath></defs><g clip-path="url(#0b212f5b3c)"><path fill="#ffffff" d="M 374.824219 187.699219 C 374.824219 290.070312 290.929688 373.050781 187.441406 373.050781 C 83.9375 373.050781 0.0390625 290.070312 0.0390625 187.699219 C 0.0390625 85.328125 83.9375 2.34375 187.441406 2.34375 C 290.929688 2.34375 374.824219 85.328125 374.824219 187.699219 Z M 374.824219 187.699219 " fill-opacity="1" fill-rule="nonzero"/></g><g clip-path="url(#5bc99b0d72)"><path fill="#ff6600" d="M 187.441406 2.34375 C 108.117188 2.398438 37.410156 51.847656 10.925781 125.8125 L 364.066406 125.8125 C 337.566406 51.808594 266.804688 2.34375 187.441406 2.34375 Z M 187.441406 2.34375 " fill-opacity="1" fill-rule="nonzero"/></g><path fill="#0000ff" d="M 178.375 246.757812 C 164.324219 244.078125 154.894531 239.46875 146.007812 230.882812 C 138.34375 223.484375 133.414062 215.3125 130.101562 204.546875 C 128.539062 199.398438 128.394531 198.121094 128.394531 188.671875 C 128.394531 179.238281 128.539062 177.960938 130.101562 172.8125 C 136.507812 151.964844 151.460938 137.367188 171.933594 131.96875 C 179.851562 129.878906 193.039062 129.878906 201.082031 131.96875 C 221.105469 137.167969 236.558594 152.289062 242.820312 172.8125 C 244.386719 177.960938 244.53125 179.253906 244.53125 188.671875 C 244.53125 198.085938 244.386719 199.398438 242.820312 204.546875 C 236.558594 225.140625 221.429688 239.992188 201.3125 245.28125 C 196.222656 246.632812 182.351562 247.515625 178.375 246.757812 Z M 190.464844 239.144531 C 191.976562 236.226562 195.070312 235.6875 197.445312 237.921875 C 198.632812 239.035156 199.191406 239.164062 200.863281 238.675781 C 202.394531 238.246094 202.988281 237.632812 203.382812 236.101562 C 203.671875 235.003906 204.640625 233.617188 205.523438 233.042969 C 207.035156 232.035156 207.25 232.035156 208.976562 233.042969 C 211.300781 234.375 211.695312 234.355469 213.78125 232.878906 C 215.132812 231.90625 215.417969 231.296875 215.203125 229.820312 C 214.789062 226.902344 216.949219 225.140625 220.347656 225.660156 C 222.722656 226.023438 223.15625 225.878906 224.289062 224.4375 C 225.296875 223.140625 225.441406 222.476562 224.972656 221.25 C 224.109375 218.984375 224.253906 218.066406 225.640625 216.679688 C 226.394531 215.90625 227.707031 215.417969 229.039062 215.417969 C 230.820312 215.417969 231.378906 215.09375 232.1875 213.511719 C 233.085938 211.785156 233.085938 211.460938 232.1875 210.109375 C 230.226562 207.121094 231.179688 204.78125 235.046875 203.144531 C 236.128906 202.675781 236.828125 201.773438 237.117188 200.496094 C 237.476562 198.914062 237.261719 198.300781 235.929688 197.078125 C 233.285156 194.628906 233.734375 192.683594 237.691406 189.425781 C 239.332031 188.09375 238.808594 186.132812 236.183594 183.703125 C 233.265625 181 233.140625 180.101562 235.300781 177.527344 C 236.777344 175.800781 236.847656 175.421875 236.183594 173.441406 C 235.625 171.75 235.136719 171.261719 233.96875 171.261719 C 232.0625 171.261719 229.976562 169.210938 229.976562 167.355469 C 229.976562 166.566406 230.425781 165.289062 230.980469 164.496094 C 231.917969 163.144531 231.898438 162.945312 230.765625 161.398438 C 230.101562 160.5 228.878906 159.671875 228.050781 159.582031 C 224.703125 159.183594 223.875 158.753906 223.15625 157.007812 C 222.617188 155.710938 222.597656 154.847656 223.066406 153.964844 C 223.585938 152.972656 223.460938 152.378906 222.417969 151.046875 C 221.230469 149.535156 220.816406 149.410156 218.386719 149.769531 C 216.03125 150.128906 215.492188 149.988281 214.089844 148.582031 C 213.027344 147.519531 212.613281 146.585938 212.863281 145.808594 C 213.117188 145 212.722656 144.226562 211.570312 143.324219 C 209.570312 141.742188 208.65625 141.707031 206.605469 143.039062 C 204.515625 144.425781 202.25 143.378906 201.042969 140.480469 C 200.324219 138.773438 199.695312 138.25 197.929688 137.925781 C 196.152344 137.601562 195.429688 137.78125 194.296875 138.824219 C 192.316406 140.699219 190.085938 140.5 188.109375 138.285156 C 185.75 135.65625 183.375 135.746094 181.21875 138.59375 C 179.273438 141.128906 177.457031 141.382812 175.027344 139.472656 C 173.605469 138.359375 173.121094 138.285156 171.25 138.898438 C 169.953125 139.328125 168.929688 140.140625 168.695312 140.96875 C 167.722656 144.136719 164.988281 145.378906 162.234375 143.902344 C 160.472656 142.964844 156.984375 145.558594 156.800781 147.953125 C 156.605469 150.453125 154.445312 152.148438 152.105469 151.625 C 149.316406 151.011719 147.25 153.246094 147.375 156.71875 C 147.5 159.921875 146.621094 161.128906 143.742188 161.667969 C 140.898438 162.210938 139.132812 165.414062 140.410156 167.769531 C 141.5625 169.949219 140.773438 172.179688 138.324219 173.621094 C 135.519531 175.277344 134.835938 178.050781 136.652344 180.355469 C 138.414062 182.585938 138.289062 183.898438 136.09375 186.402344 C 135.070312 187.570312 134.222656 189.121094 134.222656 189.859375 C 134.222656 190.578125 135.070312 192.054688 136.09375 193.132812 C 138.164062 195.292969 138.488281 197.597656 136.992188 199.722656 C 135.480469 201.882812 136.5625 204.90625 139.332031 206.238281 C 142.050781 207.515625 142.660156 209.082031 141.597656 212 C 140.898438 213.941406 140.953125 214.355469 142.085938 215.886719 C 142.929688 217.023438 144.171875 217.742188 145.703125 217.976562 C 148.507812 218.445312 149.121094 219.289062 149.136719 222.691406 C 149.136719 226.128906 151.1875 227.894531 154.589844 227.445312 C 157.324219 227.066406 158.871094 228.34375 159.195312 231.261719 C 159.339844 232.539062 159.988281 233.4375 161.355469 234.230469 C 163.207031 235.308594 163.386719 235.308594 165.167969 234.285156 C 167.617188 232.878906 169.992188 233.851562 171.230469 236.804688 C 172.457031 239.738281 175.28125 240.296875 177.871094 238.117188 C 180.316406 236.066406 181.289062 236.15625 183.59375 238.710938 C 186.164062 241.574219 189.097656 241.753906 190.445312 239.144531 Z M 186.253906 223.824219 C 185.464844 219.398438 185.464844 203.125 186.253906 202.332031 C 186.777344 201.8125 187.082031 201.828125 187.460938 202.441406 C 188.054688 203.414062 187.839844 220.316406 187.171875 223.824219 L 186.703125 226.308594 Z M 177.152344 223.683594 C 177.097656 218.625 181.992188 201.125 183.464844 201.125 C 184.347656 201.125 183.375 206.023438 180.75 214.808594 C 177.996094 223.953125 177.1875 225.96875 177.152344 223.683594 Z M 193.164062 216.050781 C 190.25 206.886719 189.0625 201.125 190.035156 201.125 C 190.339844 201.125 191.039062 202.097656 191.617188 203.285156 C 192.910156 205.988281 196.601562 222.441406 196.257812 223.953125 C 196.113281 224.5625 194.730469 221.019531 193.164062 216.050781 Z M 199.984375 213.492188 C 195.214844 206.09375 192.210938 200.136719 192.894531 199.453125 C 193.9375 198.410156 206.191406 219.363281 205.597656 221.144531 C 205.453125 221.523438 202.933594 218.082031 199.984375 213.492188 Z M 168.046875 220.046875 C 169.289062 216.734375 177.421875 202.296875 178.734375 201.074219 C 182.1875 197.832031 179.5625 204.257812 173.839844 213.0625 C 169.414062 219.902344 167.003906 222.800781 168.046875 220.046875 Z M 159.789062 215.617188 C 159.933594 215.203125 162.722656 211.835938 165.996094 208.148438 C 171.609375 201.8125 176.71875 197.382812 177.511719 198.175781 C 178.195312 198.875 175.675781 201.757812 169.164062 207.75 C 160.832031 215.417969 159.484375 216.554688 159.789062 215.617188 Z M 205.6875 208.902344 C 198.957031 202.691406 194.835938 198.121094 195.449219 197.527344 C 195.59375 197.363281 196.707031 197.851562 197.894531 198.589844 C 201.152344 200.605469 213.800781 214.410156 213.082031 215.132812 C 212.902344 215.3125 209.570312 212.503906 205.6875 208.902344 Z M 153.816406 207.480469 C 155.398438 205.898438 169.59375 197.148438 172.347656 196.070312 C 179.527344 193.242188 174.453125 197.542969 164.304688 202.910156 C 156.390625 207.101562 152.519531 208.777344 153.816406 207.480469 Z M 210.058594 203.144531 C 202.214844 199.09375 197.660156 196.050781 197.660156 194.863281 C 197.660156 193.746094 203.058594 196.429688 211.171875 201.59375 C 215.707031 204.476562 219.414062 206.941406 219.414062 207.085938 C 219.414062 207.785156 217.542969 206.996094 210.058594 203.144531 Z M 150.398438 198.335938 C 150.398438 197.832031 168.082031 192.433594 171.105469 192.019531 C 174.613281 191.53125 174.921875 192.378906 171.789062 193.871094 C 168.011719 195.671875 150.398438 199.363281 150.398438 198.335938 Z M 212.578125 196.464844 C 203.652344 194.414062 198.902344 192.71875 198.902344 191.605469 C 198.902344 191.261719 200.144531 191.207031 201.855469 191.441406 C 205.433594 191.945312 222.398438 197.3125 222.886719 198.085938 C 223.390625 198.894531 222.472656 198.75 212.578125 196.464844 Z M 182.585938 195.167969 C 177.835938 192.59375 177.90625 184.636719 182.730469 182.152344 C 186.453125 180.226562 191.238281 181.523438 192.984375 184.925781 C 196.527344 191.785156 189.367188 198.839844 182.601562 195.167969 Z M 152.269531 189.335938 L 150.089844 188.921875 L 152.574219 188.488281 C 153.941406 188.238281 158.566406 187.984375 162.828125 187.914062 C 170.78125 187.789062 174.363281 188.308594 172.707031 189.355469 C 171.71875 189.984375 155.542969 189.964844 152.269531 189.335938 Z M 203.5625 189.5 C 199.210938 188.632812 199.15625 188.617188 200.324219 187.96875 C 201.601562 187.25 216.644531 187.265625 220.347656 187.984375 L 222.832031 188.472656 L 220.042969 188.851562 C 216.320312 189.371094 205.128906 189.804688 203.5625 189.5 Z M 169.992188 185.753906 C 167.128906 185.359375 150.398438 179.886719 150.398438 179.347656 C 150.398438 178.480469 167.398438 182.171875 171.699219 183.972656 C 172.976562 184.511719 174.019531 185.230469 174.019531 185.574219 C 174.019531 186.1875 173.425781 186.222656 169.992188 185.753906 Z M 198.902344 185.140625 C 198.902344 184.027344 203.417969 182.40625 211.785156 180.535156 C 223.570312 177.90625 224.523438 178.535156 213.980469 181.992188 C 204.984375 184.945312 198.902344 186.222656 198.902344 185.140625 Z M 172.472656 182.027344 C 169.253906 180.730469 153.347656 170.578125 153.816406 170.113281 C 154.464844 169.480469 170.996094 178.320312 173.644531 180.714844 C 176.449219 183.253906 176.214844 183.523438 172.472656 182.027344 Z M 199.300781 180.101562 C 201.835938 177.832031 218.566406 168.960938 219.160156 169.554688 C 219.648438 170.039062 202.878906 180.550781 200.035156 181.558594 C 196.457031 182.820312 196.402344 182.695312 199.300781 180.101562 Z M 173.914062 177.921875 C 171.015625 175.710938 158.960938 162.480469 159.410156 162.027344 C 160.078125 161.363281 175.765625 176.050781 177.078125 178.570312 C 178.085938 180.535156 177.078125 180.316406 173.914062 177.921875 Z M 195.160156 178.589844 C 195.160156 178.175781 198.183594 174.917969 201.855469 171.371094 C 208.90625 164.550781 213.546875 160.589844 213.132812 161.742188 C 212.613281 163.179688 202.175781 174.664062 199.316406 176.953125 C 196.152344 179.453125 195.160156 179.851562 195.160156 178.589844 Z M 177.582031 175.65625 C 176.179688 173.980469 168.53125 160.011719 167.597656 157.386719 C 166.714844 154.902344 168.765625 157.421875 173.265625 164.332031 C 177.835938 171.351562 180.820312 177.472656 179.671875 177.472656 C 179.363281 177.472656 178.429688 176.664062 177.582031 175.65625 Z M 192.714844 177.09375 C 192.714844 176.699219 193.09375 175.222656 193.59375 173.800781 C 194.691406 170.6875 204.679688 155.332031 205.003906 156.269531 C 205.324219 157.292969 196.976562 172.9375 194.730469 175.511719 C 193.632812 176.773438 192.714844 177.472656 192.714844 177.09375 Z M 181.234375 173.910156 C 180.082031 171.496094 176.503906 156.070312 176.539062 153.660156 C 176.558594 151.390625 177.402344 153.40625 180.121094 162.300781 C 182.820312 171.046875 183.84375 176.230469 182.910156 176.230469 C 182.601562 176.230469 181.847656 175.1875 181.234375 173.910156 Z M 189.441406 175.90625 C 188.792969 174.828125 190.015625 169.210938 192.75 160.644531 C 195.898438 150.816406 196.546875 151.695312 194.242188 162.640625 C 192.640625 170.21875 190.160156 177.078125 189.441406 175.90625 Z M 185.5 174.9375 C 184.921875 174 185.011719 159.417969 185.605469 154.46875 C 186.003906 151.28125 186.074219 151.175781 186.542969 152.902344 C 187.386719 155.980469 187.496094 174.199219 186.6875 175.007812 C 186.148438 175.546875 185.859375 175.53125 185.480469 174.9375 Z M 185.5 174.9375 " fill-opacity="1" fill-rule="nonzero"/><g clip-path="url(#89a9e97956)"><path fill="#00aa00" d="M 11.394531 250.898438 C 38.253906 324.179688 108.621094 373.015625 187.441406 373.070312 C 266.246094 373.015625 336.613281 324.179688 363.472656 250.898438 Z M 11.394531 250.898438 " fill-opacity="1" fill-rule="nonzero"/></g></svg>