<svg xmlns="http://www.w3.org/2000/svg" xmlns:xlink="http://www.w3.org/1999/xlink" width="500" zoomAndPan="magnify" viewBox="0 0 375 374.999991" height="500" preserveAspectRatio="xMidYMid meet" version="1.0"><defs><clipPath id="b4a95486ec"><path d="M 139 292 L 226 292 L 226 338.632812 L 139 338.632812 Z M 139 292 " clip-rule="nonzero"/></clipPath><clipPath id="19db24bcee"><path d="M 132 36.382812 L 243 36.382812 L 243 151 L 132 151 Z M 132 36.382812 " clip-rule="nonzero"/></clipPath></defs><path fill="#85f8a5" d="M 270.714844 268.019531 C 268.378906 268.019531 266.4375 266.167969 266.351562 263.808594 C 266.261719 261.398438 268.152344 259.371094 270.554688 259.289062 C 270.738281 259.28125 289.210938 258.46875 304.90625 248.980469 C 306.96875 247.726562 309.652344 248.394531 310.90625 250.457031 C 312.15625 252.523438 311.488281 255.207031 309.425781 256.460938 C 291.734375 267.15625 271.714844 267.988281 270.875 268.019531 C 270.820312 268.019531 270.769531 268.019531 270.714844 268.019531 Z M 270.714844 268.019531 " fill-opacity="1" fill-rule="nonzero"/><path fill="#85f8a5" d="M 80.65625 263.136719 C 79.539062 263.136719 78.417969 262.710938 77.566406 261.851562 L 66.621094 250.90625 C 64.914062 249.199219 64.914062 246.429688 66.621094 244.722656 C 68.328125 243.015625 71.097656 243.015625 72.804688 244.722656 L 83.75 255.671875 C 85.457031 257.378906 85.457031 260.144531 83.75 261.851562 C 82.894531 262.710938 81.769531 263.136719 80.65625 263.136719 Z M 80.65625 263.136719 " fill-opacity="1" fill-rule="nonzero"/><g clip-path="url(#b4a95486ec)"><path fill="#85f8a5" d="M 163.335938 338.652344 C 157.796875 338.652344 152.257812 336.542969 148.042969 332.328125 L 140.859375 325.144531 C 139.152344 323.4375 139.152344 320.667969 140.859375 318.960938 C 142.566406 317.253906 145.332031 317.253906 147.039062 318.960938 L 154.222656 326.144531 C 159.246094 331.175781 167.425781 331.167969 172.453125 326.144531 C 174.886719 323.71875 176.230469 320.484375 176.230469 317.035156 C 176.230469 315.355469 175.914062 313.726562 175.28125 312.179688 C 174.644531 310.585938 173.691406 309.152344 172.453125 307.914062 C 170.746094 306.207031 170.746094 303.441406 172.453125 301.734375 C 174.160156 300.027344 176.929688 300.027344 178.636719 301.734375 L 194.636719 317.722656 C 197.070312 320.160156 200.308594 321.5 203.746094 321.5 C 207.183594 321.5 210.421875 320.160156 212.855469 317.722656 C 215.292969 315.289062 216.632812 312.050781 216.632812 308.605469 C 216.632812 305.160156 215.292969 301.921875 212.863281 299.496094 C 211.15625 297.789062 211.15625 295.019531 212.863281 293.3125 C 214.570312 291.605469 217.339844 291.605469 219.046875 293.3125 C 223.128906 297.394531 225.375 302.824219 225.375 308.605469 C 225.375 314.386719 223.121094 319.816406 219.039062 323.90625 C 214.949219 327.988281 209.527344 330.242188 203.746094 330.242188 C 197.964844 330.242188 192.542969 327.988281 188.453125 323.90625 L 184.742188 320.195312 C 184.074219 324.785156 181.964844 329.011719 178.628906 332.335938 C 174.410156 336.550781 168.871094 338.652344 163.335938 338.652344 Z M 163.335938 338.652344 " fill-opacity="1" fill-rule="nonzero"/></g><path fill="#85f8a5" d="M 235.175781 312.847656 C 229.636719 312.847656 224.097656 310.738281 219.882812 306.519531 L 180.585938 267.222656 C 178.878906 265.515625 178.878906 262.75 180.585938 261.042969 C 182.292969 259.335938 185.0625 259.335938 186.769531 261.042969 L 226.0625 300.335938 C 231.085938 305.367188 239.261719 305.367188 244.292969 300.335938 C 249.324219 295.316406 249.324219 287.136719 244.292969 282.109375 L 204.996094 242.8125 C 203.289062 241.105469 203.289062 238.335938 204.996094 236.628906 C 206.703125 234.921875 209.472656 234.921875 211.179688 236.628906 L 250.476562 275.925781 C 258.910156 284.359375 258.910156 298.082031 250.476562 306.511719 C 246.25 310.738281 240.710938 312.847656 235.175781 312.847656 Z M 235.175781 312.847656 " fill-opacity="1" fill-rule="nonzero"/><path fill="#85f8a5" d="M 253.683594 282.546875 C 248.148438 282.546875 242.609375 280.4375 238.398438 276.230469 C 236.691406 274.523438 236.691406 271.753906 238.398438 270.046875 C 240.105469 268.339844 242.875 268.339844 244.582031 270.046875 C 249.609375 275.066406 257.78125 275.066406 262.804688 270.046875 C 264.730469 268.113281 265.980469 265.660156 266.40625 262.976562 C 266.414062 262.945312 266.414062 262.921875 266.421875 262.890625 C 266.527344 262.292969 266.582031 261.632812 266.582031 260.925781 C 266.582031 257.492188 265.238281 254.25 262.804688 251.808594 L 200.40625 189.414062 C 195.910156 184.910156 189.308594 183.1875 183.179688 184.910156 C 180.03125 185.796875 177.203125 187.53125 175.003906 189.929688 L 155.550781 211.050781 C 155.515625 211.09375 155.46875 211.132812 155.429688 211.179688 C 150.96875 215.640625 145.039062 218.097656 138.734375 218.097656 C 132.429688 218.097656 126.488281 215.640625 122.027344 211.179688 C 114.632812 203.78125 112.957031 192.617188 117.863281 183.40625 C 124.117188 171.65625 134.925781 155.527344 150.945312 145.4375 C 151.007812 145.398438 151.0625 145.371094 151.121094 145.332031 C 164.296875 137.085938 178.734375 134.308594 194.027344 137.085938 C 196.347656 137.425781 228.050781 142.296875 252.957031 159.34375 L 278.476562 148.304688 C 280.691406 147.351562 283.261719 148.367188 284.21875 150.582031 C 285.175781 152.796875 284.15625 155.367188 281.941406 156.324219 L 254.175781 168.332031 C 252.765625 168.945312 251.128906 168.765625 249.882812 167.863281 C 226.046875 150.628906 193.042969 145.773438 192.707031 145.726562 C 192.648438 145.71875 192.59375 145.710938 192.542969 145.695312 C 179.371094 143.292969 166.953125 145.6875 155.621094 152.828125 C 155.566406 152.855469 155.515625 152.894531 155.460938 152.925781 C 141.144531 162.007812 131.320312 176.738281 125.585938 187.511719 C 122.5 193.3125 123.554688 200.339844 128.210938 204.996094 C 131.019531 207.804688 134.757812 209.351562 138.734375 209.351562 C 142.679688 209.351562 146.394531 207.824219 149.195312 205.050781 L 168.578125 184.003906 C 171.871094 180.417969 176.101562 177.824219 180.8125 176.496094 C 189.984375 173.910156 199.863281 176.496094 206.589844 183.230469 L 268.984375 245.625 C 273.074219 249.722656 275.320312 255.15625 275.320312 260.925781 C 275.320312 262.125 275.222656 263.285156 275.03125 264.378906 C 274.3125 268.878906 272.222656 272.972656 268.984375 276.222656 C 264.769531 280.4375 259.222656 282.546875 253.683594 282.546875 Z M 253.683594 282.546875 " fill-opacity="1" fill-rule="nonzero"/><path fill="#85f8a5" d="M 94.628906 158.84375 C 92.632812 158.84375 90.835938 157.46875 90.371094 155.445312 C 89.835938 153.09375 91.304688 150.75 93.664062 150.210938 C 121.050781 143.964844 151.949219 144.71875 153.382812 144.761719 C 155.75 144.816406 157.652344 146.75 157.652344 149.132812 C 157.652344 151.582031 155.621094 153.578125 153.164062 153.503906 C 151.894531 153.472656 121.992188 152.722656 95.605469 158.738281 C 95.28125 158.804688 94.953125 158.84375 94.628906 158.84375 Z M 94.628906 158.84375 " fill-opacity="1" fill-rule="nonzero"/><path fill="#85f8a5" d="M 90.449219 279.878906 C 86.449219 279.878906 82.453125 278.351562 79.410156 275.3125 C 76.460938 272.359375 74.835938 268.4375 74.835938 264.273438 C 74.835938 260.109375 76.460938 256.179688 79.410156 253.234375 L 92.710938 239.9375 C 95.660156 236.984375 99.574219 235.363281 103.746094 235.363281 C 107.917969 235.363281 111.839844 236.984375 114.785156 239.9375 C 120.867188 246.019531 120.867188 255.929688 114.785156 262.011719 C 113.078125 263.71875 110.308594 263.71875 108.601562 262.011719 C 106.894531 260.304688 106.894531 257.535156 108.601562 255.828125 C 111.28125 253.152344 111.28125 248.789062 108.601562 246.113281 C 107.304688 244.816406 105.574219 244.101562 103.738281 244.101562 C 101.902344 244.101562 100.179688 244.816406 98.875 246.113281 L 85.578125 259.410156 C 84.28125 260.707031 83.566406 262.429688 83.566406 264.265625 C 83.566406 266.101562 84.28125 267.832031 85.578125 269.128906 C 88.257812 271.804688 92.617188 271.804688 95.296875 269.128906 C 97.003906 267.421875 99.773438 267.421875 101.480469 269.128906 C 103.1875 270.835938 103.1875 273.605469 101.480469 275.3125 C 98.445312 278.351562 94.445312 279.878906 90.449219 279.878906 Z M 90.449219 279.878906 " fill-opacity="1" fill-rule="nonzero"/><path fill="#85f8a5" d="M 101.617188 300.503906 C 97.617188 300.503906 93.621094 298.980469 90.578125 295.9375 C 87.625 292.984375 86.003906 289.070312 86.003906 284.898438 C 86.003906 280.726562 87.625 276.804688 90.578125 273.863281 L 108.609375 255.828125 C 111.5625 252.878906 115.476562 251.253906 119.648438 251.253906 C 123.820312 251.253906 127.742188 252.878906 130.683594 255.828125 C 136.769531 261.914062 136.769531 271.820312 130.683594 277.90625 C 128.976562 279.613281 126.210938 279.613281 124.503906 277.90625 C 122.796875 276.199219 122.796875 273.429688 124.503906 271.722656 C 127.179688 269.042969 127.179688 264.683594 124.503906 262.003906 C 123.207031 260.707031 121.476562 259.996094 119.640625 259.996094 C 117.804688 259.996094 116.082031 260.707031 114.777344 262.003906 L 96.746094 280.035156 C 95.449219 281.332031 94.734375 283.0625 94.734375 284.898438 C 94.734375 286.734375 95.449219 288.457031 96.746094 289.761719 C 99.421875 292.441406 103.785156 292.441406 106.460938 289.761719 C 108.167969 288.054688 110.9375 288.054688 112.644531 289.761719 C 114.351562 291.46875 114.351562 294.238281 112.644531 295.945312 C 109.609375 298.988281 105.605469 300.503906 101.617188 300.503906 Z M 101.617188 300.503906 " fill-opacity="1" fill-rule="nonzero"/><path fill="#85f8a5" d="M 112.265625 321.636719 C 108.269531 321.636719 104.269531 320.113281 101.226562 317.070312 C 95.144531 310.988281 95.144531 301.082031 101.226562 294.996094 L 124.503906 271.730469 C 130.585938 265.644531 140.492188 265.644531 146.578125 271.730469 C 149.527344 274.679688 151.152344 278.59375 151.152344 282.769531 C 151.152344 286.941406 149.527344 290.863281 146.578125 293.804688 L 123.3125 317.070312 C 120.261719 320.113281 116.265625 321.636719 112.265625 321.636719 Z M 135.539062 275.894531 C 133.78125 275.894531 132.019531 276.5625 130.675781 277.90625 L 107.402344 301.171875 C 104.726562 303.847656 104.726562 308.210938 107.402344 310.890625 C 110.082031 313.566406 114.441406 313.566406 117.121094 310.890625 L 140.386719 287.621094 C 141.683594 286.324219 142.398438 284.597656 142.398438 282.761719 C 142.398438 280.925781 141.683594 279.195312 140.386719 277.898438 C 139.058594 276.5625 137.300781 275.894531 135.539062 275.894531 Z M 135.539062 275.894531 " fill-opacity="1" fill-rule="nonzero"/><path fill="#85f8a5" d="M 134.925781 330.789062 C 130.925781 330.789062 126.929688 329.261719 123.886719 326.21875 C 117.796875 320.128906 117.796875 310.222656 123.886719 304.136719 C 125.59375 302.429688 128.363281 302.429688 130.070312 304.136719 C 131.777344 305.84375 131.777344 308.613281 130.070312 310.320312 C 127.394531 312.996094 127.394531 317.359375 130.078125 320.046875 C 132.757812 322.722656 137.117188 322.722656 139.796875 320.046875 L 156.308594 303.53125 C 157.609375 302.234375 158.320312 300.503906 158.320312 298.667969 C 158.320312 296.832031 157.609375 295.109375 156.308594 293.8125 C 155.011719 292.515625 153.285156 291.796875 151.449219 291.796875 C 151.449219 291.796875 151.449219 291.796875 151.441406 291.796875 C 149.605469 291.796875 147.882812 292.507812 146.59375 293.804688 C 144.886719 295.511719 142.117188 295.511719 140.410156 293.804688 C 138.703125 292.097656 138.703125 289.328125 140.410156 287.621094 C 143.355469 284.679688 147.277344 283.054688 151.441406 283.054688 C 151.449219 283.054688 151.449219 283.054688 151.457031 283.054688 C 155.628906 283.054688 159.542969 284.6875 162.492188 287.628906 C 165.445312 290.582031 167.066406 294.496094 167.066406 298.667969 C 167.066406 302.839844 165.445312 306.761719 162.492188 309.707031 L 145.976562 326.21875 C 142.921875 329.261719 138.921875 330.789062 134.925781 330.789062 Z M 134.925781 330.789062 " fill-opacity="1" fill-rule="nonzero"/><path fill="#85f8a5" d="M 322.710938 266.0625 C 312.855469 266.0625 303.8125 259.480469 301.140625 249.519531 L 276.585938 157.871094 C 275.046875 152.128906 275.84375 146.121094 278.832031 140.949219 C 281.820312 135.773438 286.628906 132.070312 292.367188 130.539062 L 316.335938 124.113281 C 318.667969 123.492188 321.0625 124.871094 321.683594 127.203125 L 355.535156 253.53125 C 356.15625 255.859375 354.777344 258.257812 352.445312 258.878906 L 328.476562 265.304688 C 326.554688 265.820312 324.621094 266.0625 322.710938 266.0625 Z M 294.632812 138.976562 C 291.152344 139.90625 288.222656 142.160156 286.402344 145.316406 C 284.582031 148.472656 284.097656 152.128906 285.03125 155.609375 L 309.585938 247.257812 C 311.527344 254.496094 318.992188 258.804688 326.222656 256.863281 L 345.96875 251.566406 L 314.378906 133.679688 Z M 293.503906 134.757812 Z M 293.503906 134.757812 " fill-opacity="1" fill-rule="nonzero"/><path fill="#85f8a5" d="M 52.222656 266.023438 C 50.320312 266.023438 48.375 265.78125 46.449219 265.257812 L 22.476562 258.832031 C 20.148438 258.210938 18.761719 255.816406 19.390625 253.484375 L 53.238281 127.15625 C 53.542969 126.03125 54.269531 125.085938 55.273438 124.5 C 56.273438 123.925781 57.472656 123.765625 58.585938 124.0625 L 82.558594 130.484375 C 94.445312 133.671875 101.53125 145.9375 98.347656 157.824219 L 73.789062 249.472656 C 71.121094 259.433594 62.078125 266.023438 52.222656 266.023438 Z M 48.710938 256.816406 C 55.941406 258.75 63.40625 254.441406 65.347656 247.210938 L 89.902344 155.566406 C 91.84375 148.328125 87.535156 140.871094 80.296875 138.929688 L 60.542969 133.632812 L 28.957031 251.519531 Z M 48.710938 256.816406 " fill-opacity="1" fill-rule="nonzero"/><g clip-path="url(#19db24bcee)"><path fill="#85f8a5" d="M 214.359375 150.710938 C 213.28125 150.710938 212.203125 150.316406 211.363281 149.519531 C 209.601562 147.867188 209.527344 145.097656 211.179688 143.34375 C 225.539062 128.113281 233.453125 108.804688 233.453125 88.960938 C 233.453125 80.941406 232.191406 73.03125 229.710938 65.40625 C 213.207031 66.132812 197.433594 59.457031 187.472656 47.980469 C 177.511719 59.457031 161.773438 66.140625 145.234375 65.40625 C 142.746094 73.03125 141.488281 80.941406 141.488281 88.960938 C 141.488281 108.441406 149.140625 127.488281 163.046875 142.578125 C 164.679688 144.351562 164.570312 147.113281 162.796875 148.753906 C 161.019531 150.390625 158.261719 150.269531 156.621094 148.503906 C 141.230469 131.789062 132.75 110.640625 132.75 88.960938 C 132.75 78.808594 134.554688 68.828125 138.121094 59.277344 C 138.816406 57.410156 140.691406 56.257812 142.671875 56.460938 C 144.339844 56.636719 146.03125 56.726562 147.699219 56.726562 C 162.5625 56.726562 176.398438 49.695312 183.816406 38.371094 C 184.621094 37.132812 186.003906 36.398438 187.472656 36.398438 C 188.945312 36.398438 190.320312 37.140625 191.128906 38.371094 C 198.542969 49.695312 212.378906 56.726562 227.246094 56.726562 C 228.917969 56.726562 230.609375 56.636719 232.277344 56.460938 C 234.257812 56.257812 236.128906 57.410156 236.828125 59.277344 C 240.394531 68.820312 242.199219 78.808594 242.199219 88.960938 C 242.199219 111.035156 233.445312 132.480469 217.550781 149.335938 C 216.679688 150.246094 215.519531 150.710938 214.359375 150.710938 Z M 214.359375 150.710938 " fill-opacity="1" fill-rule="nonzero"/></g><path fill="#85f8a5" d="M 177.308594 125.898438 C 176.148438 125.898438 175.039062 125.433594 174.222656 124.613281 L 158.65625 109.046875 C 156.949219 107.339844 156.949219 104.574219 158.65625 102.867188 C 160.363281 101.160156 163.128906 101.160156 164.835938 102.867188 L 177.308594 115.335938 L 210.09375 82.550781 C 211.800781 80.84375 214.570312 80.84375 216.277344 82.550781 C 217.984375 84.257812 217.984375 87.027344 216.277344 88.734375 L 180.402344 124.605469 C 179.578125 125.433594 178.46875 125.898438 177.308594 125.898438 Z M 177.308594 125.898438 " fill-opacity="1" fill-rule="nonzero"/></svg>