<svg xmlns="http://www.w3.org/2000/svg" xmlns:xlink="http://www.w3.org/1999/xlink" width="500" zoomAndPan="magnify" viewBox="0 0 375 374.999991" height="500" preserveAspectRatio="xMidYMid meet" version="1.0"><defs><clipPath id="58a04e4025"><path d="M 79 6.359375 L 368.609375 6.359375 L 368.609375 298 L 79 298 Z M 79 6.359375 " clip-rule="nonzero"/></clipPath><clipPath id="6b4c0e5567"><path d="M 6.359375 76 L 292 76 L 292 368.609375 L 6.359375 368.609375 Z M 6.359375 76 " clip-rule="nonzero"/></clipPath></defs><path fill="#000000" d="M 108.242188 82.769531 L 102.582031 82.769531 C 99.46875 82.769531 96.921875 85.316406 96.921875 88.429688 C 96.921875 91.542969 99.46875 94.089844 102.582031 94.089844 L 108.242188 94.089844 C 111.355469 94.089844 113.902344 91.542969 113.902344 88.429688 C 113.902344 85.316406 111.355469 82.769531 108.242188 82.769531 Z M 108.242188 82.769531 " fill-opacity="1" fill-rule="nonzero"/><path fill="#000000" d="M 136.542969 82.769531 L 130.882812 82.769531 C 127.769531 82.769531 125.222656 85.316406 125.222656 88.429688 C 125.222656 91.542969 127.769531 94.089844 130.882812 94.089844 L 136.542969 94.089844 C 139.65625 94.089844 142.203125 91.542969 142.203125 88.429688 C 142.203125 85.316406 139.65625 82.769531 136.542969 82.769531 Z M 136.542969 82.769531 " fill-opacity="1" fill-rule="nonzero"/><path fill="#000000" d="M 108.242188 105.410156 L 102.582031 105.410156 C 99.46875 105.410156 96.921875 107.957031 96.921875 111.070312 C 96.921875 114.183594 99.46875 116.730469 102.582031 116.730469 L 108.242188 116.730469 C 111.355469 116.730469 113.902344 114.183594 113.902344 111.070312 C 113.902344 107.957031 111.355469 105.410156 108.242188 105.410156 Z M 108.242188 105.410156 " fill-opacity="1" fill-rule="nonzero"/><path fill="#000000" d="M 108.242188 128.050781 L 102.582031 128.050781 C 99.46875 128.050781 96.921875 130.597656 96.921875 133.710938 C 96.921875 136.824219 99.46875 139.371094 102.582031 139.371094 L 108.242188 139.371094 C 111.355469 139.371094 113.902344 136.824219 113.902344 133.710938 C 113.902344 130.597656 111.355469 128.050781 108.242188 128.050781 Z M 108.242188 128.050781 " fill-opacity="1" fill-rule="nonzero"/><path fill="#000000" d="M 108.242188 150.691406 L 102.582031 150.691406 C 99.46875 150.691406 96.921875 153.238281 96.921875 156.351562 C 96.921875 159.464844 99.46875 162.011719 102.582031 162.011719 L 108.242188 162.011719 C 111.355469 162.011719 113.902344 159.464844 113.902344 156.351562 C 113.902344 153.238281 111.355469 150.691406 108.242188 150.691406 Z M 108.242188 150.691406 " fill-opacity="1" fill-rule="nonzero"/><path fill="#000000" d="M 108.242188 173.332031 L 102.582031 173.332031 C 99.46875 173.332031 96.921875 175.878906 96.921875 178.992188 C 96.921875 182.105469 99.46875 184.652344 102.582031 184.652344 L 108.242188 184.652344 C 111.355469 184.652344 113.902344 182.105469 113.902344 178.992188 C 113.902344 175.878906 111.355469 173.332031 108.242188 173.332031 Z M 108.242188 173.332031 " fill-opacity="1" fill-rule="nonzero"/><path fill="#000000" d="M 141.355469 108.242188 C 140.503906 106.542969 138.523438 105.410156 136.542969 105.410156 L 130.882812 105.410156 C 127.769531 105.410156 125.222656 107.957031 125.222656 111.070312 C 125.222656 114.183594 127.769531 116.730469 130.882812 116.730469 L 134.5625 116.730469 C 135.976562 113.335938 138.242188 110.222656 141.355469 108.242188 Z M 141.355469 108.242188 " fill-opacity="1" fill-rule="nonzero"/><path fill="#000000" d="M 133.710938 128.050781 L 130.882812 128.050781 C 127.769531 128.050781 125.222656 130.597656 125.222656 133.710938 C 125.222656 136.824219 127.769531 139.371094 130.882812 139.371094 L 133.710938 139.371094 Z M 133.710938 128.050781 " fill-opacity="1" fill-rule="nonzero"/><path fill="#000000" d="M 133.710938 150.691406 L 130.882812 150.691406 C 127.769531 150.691406 125.222656 153.238281 125.222656 156.351562 C 125.222656 159.464844 127.769531 162.011719 130.882812 162.011719 L 133.710938 162.011719 Z M 133.710938 150.691406 " fill-opacity="1" fill-rule="nonzero"/><path fill="#000000" d="M 125.222656 178.992188 C 125.222656 182.105469 127.769531 184.652344 130.882812 184.652344 L 133.710938 184.652344 L 133.710938 173.332031 L 130.882812 173.332031 C 127.769531 173.332031 125.222656 175.878906 125.222656 178.992188 Z M 125.222656 178.992188 " fill-opacity="1" fill-rule="nonzero"/><path fill="#000000" d="M 178.992188 320.496094 C 239.839844 320.496094 290.5 274.933594 297.292969 214.652344 C 297.855469 210.40625 297.855469 205.878906 297.855469 201.632812 C 297.855469 198.519531 295.308594 195.972656 292.195312 195.972656 L 201.632812 195.972656 L 201.632812 122.390625 C 201.632812 119.277344 199.085938 116.730469 195.972656 116.730469 L 150.691406 116.730469 C 147.578125 116.730469 145.03125 119.277344 145.03125 122.390625 L 145.03125 195.972656 L 91.261719 195.972656 L 91.261719 65.789062 L 147.863281 65.789062 L 147.863281 105.695312 C 148.710938 105.410156 149.84375 105.410156 150.691406 105.410156 L 159.183594 105.410156 L 159.183594 65.789062 C 159.183594 59.566406 154.089844 54.46875 147.863281 54.46875 L 91.261719 54.46875 C 85.035156 54.46875 79.941406 59.566406 79.941406 65.789062 L 79.941406 195.972656 L 65.789062 195.972656 C 62.675781 195.972656 60.128906 198.519531 60.128906 201.632812 C 60.128906 267.292969 113.335938 320.496094 178.992188 320.496094 Z M 184.652344 308.328125 L 184.652344 262.199219 C 195.410156 262.765625 206.445312 265.3125 216.632812 269.273438 C 208.710938 290.214844 197.390625 304.933594 184.652344 308.328125 Z M 226.820312 274.085938 C 233.046875 277.480469 239.273438 281.726562 244.652344 286.535156 C 234.179688 294.742188 222.011719 300.96875 208.992188 304.648438 C 216.066406 297.007812 222.011719 286.535156 226.820312 274.085938 Z M 173.332031 308.328125 C 160.597656 304.933594 149.277344 290.214844 141.355469 268.992188 C 151.542969 265.027344 162.578125 262.765625 173.332031 262.199219 Z M 148.710938 304.933594 C 135.410156 300.96875 123.242188 294.742188 112.769531 286.253906 C 118.429688 281.441406 124.65625 277.199219 130.882812 273.800781 C 135.695312 286.253906 141.917969 297.007812 148.710938 304.933594 Z M 253.425781 279.179688 C 246.351562 272.667969 238.707031 267.574219 230.5 263.332031 C 235.59375 246.914062 238.425781 227.953125 238.992188 207.292969 L 286.253906 207.292969 C 286.253906 209.277344 285.972656 211.257812 285.6875 213.519531 C 283.140625 239.273438 271.253906 262.480469 253.425781 279.179688 Z M 227.671875 207.292969 C 227.105469 225.972656 224.558594 243.519531 220.03125 258.519531 C 208.710938 253.992188 196.539062 251.445312 184.652344 250.878906 L 184.652344 207.292969 Z M 156.351562 128.050781 L 190.3125 128.050781 L 190.3125 195.972656 L 156.351562 195.972656 Z M 150.691406 207.292969 L 173.332031 207.292969 L 173.332031 250.59375 C 161.164062 251.160156 149.277344 253.707031 137.675781 257.953125 C 133.429688 242.953125 130.597656 225.40625 130.316406 207.011719 L 150.691406 207.011719 Z M 118.996094 207.292969 C 119.5625 227.671875 122.390625 246.632812 127.203125 262.765625 C 118.996094 267.007812 111.355469 272.386719 103.996094 278.613281 C 85.035156 260.21875 72.867188 235.03125 71.449219 207.011719 L 118.996094 207.011719 Z M 118.996094 207.292969 " fill-opacity="1" fill-rule="nonzero"/><path fill="#000000" d="M 229.933594 190.3125 L 303.515625 190.3125 C 309.742188 190.3125 314.835938 185.21875 314.835938 178.992188 L 314.835938 128.050781 C 314.835938 121.828125 309.742188 116.730469 303.515625 116.730469 L 286.535156 116.730469 L 286.535156 111.070312 C 286.535156 104.847656 281.441406 99.75 275.214844 99.75 L 258.234375 99.75 C 252.011719 99.75 246.914062 104.847656 246.914062 111.070312 L 246.914062 116.730469 L 229.933594 116.730469 C 223.710938 116.730469 218.613281 121.828125 218.613281 128.050781 L 218.613281 178.992188 C 218.613281 185.21875 223.710938 190.3125 229.933594 190.3125 Z M 229.933594 178.992188 L 229.933594 134.277344 L 261.066406 156.351562 L 261.066406 159.183594 C 261.066406 162.296875 263.613281 164.84375 266.726562 164.84375 C 269.839844 164.84375 272.386719 162.296875 272.386719 159.183594 L 272.386719 156.351562 L 303.515625 133.996094 L 303.515625 178.710938 L 229.933594 178.710938 Z M 252.574219 128.050781 L 292.761719 128.050781 L 266.726562 146.449219 L 240.691406 128.050781 Z M 258.234375 111.070312 L 275.214844 111.070312 L 275.214844 116.730469 L 258.234375 116.730469 Z M 258.234375 111.070312 " fill-opacity="1" fill-rule="nonzero"/><g clip-path="url(#58a04e4025)"><path fill="#000000" d="M 88.996094 49.09375 C 117.863281 28.714844 151.824219 17.679688 187.484375 17.679688 C 281.160156 17.679688 357.289062 93.808594 357.289062 187.484375 C 357.289062 218.613281 349.082031 248.613281 333.234375 274.933594 L 332.101562 263.046875 C 331.816406 259.933594 328.988281 257.671875 325.875 257.953125 C 322.761719 258.234375 320.496094 261.066406 320.78125 264.179688 L 323.609375 292.480469 C 323.609375 293.046875 323.894531 293.613281 324.175781 294.179688 C 324.175781 294.179688 324.175781 294.179688 324.175781 294.460938 C 325.027344 296.726562 327.289062 297.855469 329.269531 297.855469 C 330.121094 297.855469 330.6875 297.574219 331.535156 297.292969 L 359.554688 285.40625 C 362.382812 284.273438 363.796875 280.875 362.382812 278.046875 C 361.25 275.214844 357.855469 273.800781 355.023438 275.214844 L 343.136719 280.3125 C 359.835938 252.292969 368.609375 220.597656 368.609375 187.765625 C 368.609375 87.867188 287.386719 6.640625 187.484375 6.640625 C 149.5625 6.359375 113.054688 17.960938 82.207031 40.035156 C 79.65625 41.734375 79.09375 45.414062 80.789062 47.960938 C 82.769531 50.507812 86.449219 51.074219 88.996094 49.09375 Z M 88.996094 49.09375 " fill-opacity="1" fill-rule="nonzero"/></g><g clip-path="url(#6b4c0e5567)"><path fill="#000000" d="M 187.484375 368.609375 C 223.710938 368.609375 258.800781 357.855469 288.800781 337.761719 C 291.347656 336.0625 292.195312 332.382812 290.214844 329.835938 C 288.519531 327.289062 284.839844 326.441406 282.292969 328.421875 C 254.273438 347.382812 221.445312 357.289062 187.484375 357.289062 C 93.808594 357.289062 17.679688 281.160156 17.679688 187.484375 C 17.679688 156.351562 26.167969 126.355469 42.019531 100.035156 L 43.148438 111.636719 C 43.433594 114.46875 45.980469 116.730469 48.808594 116.730469 C 49.09375 116.730469 49.09375 116.730469 49.375 116.730469 C 52.488281 116.449219 54.753906 113.617188 54.46875 110.507812 L 51.921875 84.753906 C 52.488281 82.769531 51.921875 80.789062 50.507812 79.09375 C 48.808594 77.109375 45.980469 76.261719 43.714844 77.109375 L 15.699219 88.996094 C 12.867188 90.128906 11.453125 93.527344 12.867188 96.355469 C 13.71875 98.621094 15.980469 99.75 17.960938 99.75 C 18.8125 99.75 19.378906 99.46875 20.226562 99.1875 L 32.113281 94.089844 C 15.132812 122.390625 6.359375 154.371094 6.359375 187.484375 C 6.359375 287.386719 87.582031 368.609375 187.484375 368.609375 Z M 187.484375 368.609375 " fill-opacity="1" fill-rule="nonzero"/></g><path fill="#000000" d="M 236.445312 105.410156 C 237.292969 102.015625 238.992188 98.902344 241.253906 96.074219 L 241.253906 77.109375 C 241.253906 73.996094 238.707031 71.449219 235.59375 71.449219 L 190.3125 71.449219 C 187.199219 71.449219 184.652344 73.996094 184.652344 77.109375 L 184.652344 105.410156 L 195.972656 105.410156 L 195.972656 82.769531 L 229.933594 82.769531 L 229.933594 105.410156 Z M 236.445312 105.410156 " fill-opacity="1" fill-rule="nonzero"/></svg>