<svg xmlns="http://www.w3.org/2000/svg" xmlns:xlink="http://www.w3.org/1999/xlink" width="500" zoomAndPan="magnify" viewBox="0 0 375 374.999991" height="500" preserveAspectRatio="xMidYMid meet" version="1.0"><defs><clipPath id="37e37e182d"><path d="M 49 7.292969 L 302 7.292969 L 302 104 L 49 104 Z M 49 7.292969 " clip-rule="nonzero"/></clipPath><clipPath id="d4e69aafd1"><path d="M 79 109 L 368.042969 109 L 368.042969 368.042969 L 79 368.042969 Z M 79 109 " clip-rule="nonzero"/></clipPath><clipPath id="f5b8bf88c5"><path d="M 7.292969 31 L 212 31 L 212 176 L 7.292969 176 Z M 7.292969 31 " clip-rule="nonzero"/></clipPath></defs><path fill="#231f20" d="M 325.957031 97.480469 L 325.957031 37.355469 C 325.957031 34.046875 323.253906 31.34375 319.945312 31.34375 L 295.894531 31.34375 L 295.894531 43.371094 L 313.933594 43.371094 L 313.933594 97.480469 L 325.957031 97.480469 " fill-opacity="1" fill-rule="nonzero"/><path fill="#231f20" d="M 49.382812 187.667969 L 49.382812 337.980469 C 49.382812 341.292969 52.082031 343.996094 55.394531 343.996094 L 295.894531 343.996094 C 299.207031 343.996094 301.90625 341.292969 301.90625 337.980469 L 301.90625 295.894531 L 289.882812 295.894531 L 289.882812 331.96875 L 61.40625 331.96875 L 61.40625 187.667969 L 49.382812 187.667969 " fill-opacity="1" fill-rule="nonzero"/><g clip-path="url(#37e37e182d)"><path fill="#231f20" d="M 281.378906 61.40625 L 247.792969 61.40625 L 247.792969 27.820312 Z M 244.269531 7.882812 C 244.082031 7.789062 243.894531 7.742188 243.707031 7.671875 C 243.191406 7.503906 242.699219 7.410156 242.15625 7.363281 C 242.015625 7.363281 241.921875 7.292969 241.78125 7.292969 L 55.394531 7.292969 C 52.082031 7.292969 49.382812 9.996094 49.382812 13.308594 L 49.382812 25.332031 L 61.40625 25.332031 L 61.40625 19.320312 L 235.769531 19.320312 L 235.769531 67.417969 C 235.769531 70.730469 238.46875 73.433594 241.78125 73.433594 L 289.882812 73.433594 L 289.882812 103.496094 L 301.90625 103.496094 L 301.90625 67.417969 C 301.90625 67.277344 301.835938 67.183594 301.835938 67.042969 C 301.789062 66.503906 301.695312 66.011719 301.53125 65.492188 C 301.460938 65.304688 301.414062 65.117188 301.320312 64.929688 C 301.039062 64.296875 300.660156 63.683594 300.144531 63.167969 L 246.03125 9.054688 C 245.515625 8.539062 244.90625 8.164062 244.269531 7.882812 " fill-opacity="1" fill-rule="nonzero"/></g><path fill="#231f20" d="M 145.582031 259.820312 L 145.582031 307.917969 C 145.582031 311.230469 148.28125 313.933594 151.59375 313.933594 L 229.757812 313.933594 L 229.757812 301.90625 L 157.605469 301.90625 L 157.605469 265.832031 L 187.667969 265.832031 L 187.667969 253.808594 L 151.59375 253.808594 C 148.28125 253.808594 145.582031 256.507812 145.582031 259.820312 " fill-opacity="1" fill-rule="nonzero"/><path fill="#231f20" d="M 169.632812 289.882812 L 205.707031 289.882812 L 205.707031 277.855469 L 169.632812 277.855469 L 169.632812 289.882812 " fill-opacity="1" fill-rule="nonzero"/><g clip-path="url(#d4e69aafd1)"><path fill="#231f20" d="M 325.957031 181.65625 L 322.949219 181.65625 C 321.398438 181.65625 319.921875 182.242188 318.816406 183.300781 L 265.949219 233.398438 L 244.152344 211.601562 L 294.25 158.734375 C 295.308594 157.628906 295.894531 156.152344 295.894531 154.601562 L 295.894531 151.59375 C 295.894531 135.011719 309.375 121.53125 325.957031 121.53125 C 342.539062 121.53125 356.019531 135.011719 356.019531 151.59375 C 356.019531 168.175781 342.539062 181.65625 325.957031 181.65625 Z M 305.429688 253.808594 L 277.855469 281.378906 L 202.183594 205.707031 L 229.757812 178.132812 L 244.929688 193.304688 L 231.402344 207.585938 C 229.167969 209.957031 229.214844 213.667969 231.519531 215.96875 L 261.582031 246.03125 C 262.753906 247.207031 264.28125 247.792969 265.832031 247.792969 C 267.3125 247.792969 268.816406 247.253906 269.964844 246.148438 L 284.246094 232.621094 Z M 259.820312 299.417969 L 184.144531 223.746094 L 193.683594 214.207031 L 269.355469 289.882812 Z M 325.957031 109.507812 C 302.753906 109.507812 283.871094 128.390625 283.871094 151.59375 L 283.871094 152.203125 L 253.195312 184.570312 L 234.007812 165.378906 C 231.660156 163.03125 227.855469 163.03125 225.503906 165.378906 L 171.394531 219.492188 C 169.042969 221.84375 169.042969 225.648438 171.394531 227.996094 L 255.566406 312.171875 C 256.742188 313.34375 258.269531 313.933594 259.820312 313.933594 C 261.371094 313.933594 262.894531 313.34375 264.070312 312.171875 L 313.933594 262.308594 L 313.933594 356.019531 L 79.445312 356.019531 L 79.445312 368.042969 L 319.945312 368.042969 C 323.253906 368.042969 325.957031 365.34375 325.957031 362.03125 L 325.957031 217.730469 L 313.933594 217.730469 L 313.933594 245.304688 L 292.980469 224.355469 L 325.347656 193.683594 L 325.957031 193.683594 C 349.160156 193.683594 368.042969 174.796875 368.042969 151.59375 C 368.042969 128.390625 349.160156 109.507812 325.957031 109.507812 " fill-opacity="1" fill-rule="nonzero"/></g><path fill="#231f20" d="M 181.65625 181.65625 L 121.53125 181.65625 L 121.53125 193.683594 L 181.65625 193.683594 L 181.65625 181.65625 " fill-opacity="1" fill-rule="nonzero"/><path fill="#231f20" d="M 85.457031 217.730469 L 157.605469 217.730469 L 157.605469 205.707031 L 85.457031 205.707031 L 85.457031 217.730469 " fill-opacity="1" fill-rule="nonzero"/><path fill="#231f20" d="M 211.71875 157.605469 L 139.570312 157.605469 L 139.570312 169.632812 L 211.71875 169.632812 L 211.71875 157.605469 " fill-opacity="1" fill-rule="nonzero"/><path fill="#231f20" d="M 85.457031 229.757812 L 85.457031 241.78125 L 121.53125 241.78125 L 121.53125 229.757812 L 85.457031 229.757812 " fill-opacity="1" fill-rule="nonzero"/><path fill="#231f20" d="M 85.457031 265.832031 L 133.558594 265.832031 L 133.558594 253.808594 L 85.457031 253.808594 L 85.457031 265.832031 " fill-opacity="1" fill-rule="nonzero"/><path fill="#231f20" d="M 85.457031 289.882812 L 133.558594 289.882812 L 133.558594 277.855469 L 85.457031 277.855469 L 85.457031 289.882812 " fill-opacity="1" fill-rule="nonzero"/><path fill="#231f20" d="M 85.457031 313.933594 L 133.558594 313.933594 L 133.558594 301.90625 L 85.457031 301.90625 L 85.457031 313.933594 " fill-opacity="1" fill-rule="nonzero"/><path fill="#231f20" d="M 85.457031 181.65625 L 85.457031 193.683594 L 109.507812 193.683594 L 109.507812 181.65625 L 85.457031 181.65625 " fill-opacity="1" fill-rule="nonzero"/><path fill="#231f20" d="M 157.605469 229.757812 L 133.558594 229.757812 L 133.558594 241.78125 L 157.605469 241.78125 L 157.605469 229.757812 " fill-opacity="1" fill-rule="nonzero"/><path fill="#231f20" d="M 217.730469 127.542969 L 157.605469 127.542969 L 157.605469 139.570312 L 217.730469 139.570312 L 217.730469 127.542969 " fill-opacity="1" fill-rule="nonzero"/><g clip-path="url(#f5b8bf88c5)"><path fill="#231f20" d="M 79.445312 43.371094 C 112.605469 43.371094 139.570312 70.332031 139.570312 103.496094 C 139.570312 136.65625 112.605469 163.621094 79.445312 163.621094 C 46.304688 163.621094 19.320312 136.65625 19.320312 103.496094 C 19.320312 70.332031 46.304688 43.371094 79.445312 43.371094 Z M 154.390625 75.476562 C 155.984375 74.910156 157.277344 73.691406 157.9375 72.117188 C 158.59375 70.542969 158.546875 68.757812 157.816406 67.230469 C 156.667969 64.8125 158.007812 63.074219 158.640625 62.441406 C 159.273438 61.804688 161.011719 60.46875 163.429688 61.617188 C 164.957031 62.347656 166.742188 62.394531 168.316406 61.734375 C 169.890625 61.078125 171.113281 59.785156 171.675781 58.1875 C 172.566406 55.652344 174.75 55.394531 175.644531 55.394531 C 176.535156 55.394531 178.722656 55.652344 179.613281 58.1875 C 180.175781 59.785156 181.398438 61.078125 182.972656 61.734375 C 184.546875 62.394531 186.332031 62.347656 187.855469 61.617188 C 190.277344 60.46875 192.015625 61.804688 192.648438 62.441406 C 193.28125 63.074219 194.621094 64.8125 193.46875 67.230469 C 192.742188 68.757812 192.695312 70.542969 193.351562 72.117188 C 194.011719 73.691406 195.300781 74.910156 196.898438 75.476562 C 199.4375 76.367188 199.695312 78.550781 199.695312 79.445312 C 199.695312 80.335938 199.4375 82.519531 196.898438 83.414062 C 195.300781 83.976562 194.011719 85.199219 193.351562 86.773438 C 192.695312 88.34375 192.742188 90.128906 193.46875 91.65625 C 194.621094 94.078125 193.28125 95.8125 192.648438 96.449219 C 192.015625 97.058594 190.253906 98.421875 187.855469 97.269531 C 186.332031 96.542969 184.546875 96.519531 182.972656 97.152344 C 181.398438 97.8125 180.175781 99.101562 179.613281 100.699219 C 178.722656 103.234375 176.535156 103.496094 175.644531 103.496094 C 174.75 103.496094 172.566406 103.234375 171.675781 100.699219 C 171.113281 99.101562 169.890625 97.8125 168.316406 97.152344 C 167.566406 96.847656 166.789062 96.683594 166.015625 96.683594 C 165.121094 96.683594 164.230469 96.894531 163.429688 97.269531 C 160.988281 98.421875 159.273438 97.058594 158.640625 96.449219 C 158.007812 95.8125 156.667969 94.078125 157.816406 91.65625 C 158.546875 90.128906 158.59375 88.34375 157.9375 86.773438 C 157.277344 85.199219 155.984375 83.976562 154.390625 83.414062 C 151.851562 82.519531 151.59375 80.335938 151.59375 79.445312 C 151.59375 78.550781 151.851562 76.367188 154.390625 75.476562 Z M 79.445312 175.644531 C 118.382812 175.644531 150.113281 144.640625 151.453125 106.007812 C 154.8125 108.753906 158.96875 110.09375 163.125 109.671875 C 166.132812 113.335938 170.640625 115.519531 175.644531 115.519531 C 180.648438 115.519531 185.15625 113.335938 188.164062 109.671875 C 192.859375 110.140625 197.628906 108.496094 201.152344 104.949219 C 204.695312 101.425781 206.316406 96.683594 205.871094 91.960938 C 209.535156 88.957031 211.71875 84.445312 211.71875 79.445312 C 211.71875 74.441406 209.535156 69.933594 205.871094 66.925781 C 206.316406 62.207031 204.695312 57.460938 201.152344 53.9375 C 197.628906 50.390625 192.859375 48.769531 188.164062 49.21875 C 185.15625 45.554688 180.648438 43.371094 175.644531 43.371094 C 170.640625 43.371094 166.132812 45.554688 163.125 49.21875 C 158.429688 48.769531 153.660156 50.390625 150.136719 53.9375 C 146.589844 57.460938 144.972656 62.207031 145.417969 66.925781 C 144.523438 67.652344 143.726562 68.5 143 69.414062 C 130.808594 46.773438 106.898438 31.34375 79.445312 31.34375 C 39.660156 31.34375 7.292969 63.707031 7.292969 103.496094 C 7.292969 143.28125 39.660156 175.644531 79.445312 175.644531 " fill-opacity="1" fill-rule="nonzero"/></g><path fill="#231f20" d="M 51.144531 137.808594 C 52.316406 138.980469 53.84375 139.570312 55.394531 139.570312 C 56.945312 139.570312 58.472656 138.980469 59.644531 137.808594 L 119.769531 77.683594 L 111.269531 69.179688 L 55.394531 125.054688 L 41.609375 111.269531 L 33.105469 119.769531 L 51.144531 137.808594 " fill-opacity="1" fill-rule="nonzero"/></svg>