<svg xmlns="http://www.w3.org/2000/svg" xmlns:xlink="http://www.w3.org/1999/xlink" width="500" zoomAndPan="magnify" viewBox="0 0 375 374.999991" height="500" preserveAspectRatio="xMidYMid meet" version="1.0"><defs><clipPath id="a9903441be"><path d="M 4.253906 71 L 371 71 L 371 304 L 4.253906 304 Z M 4.253906 71 " clip-rule="nonzero"/></clipPath></defs><g clip-path="url(#a9903441be)"><path fill="#000000" d="M 309.066406 80.675781 L 272.464844 102.414062 C 285.519531 114.3125 295.6875 127.925781 304.027344 142.671875 C 312.382812 157.457031 318.878906 173.328125 324.597656 189.742188 L 361.382812 167.894531 C 355.664062 151.289062 349.199219 135.289062 340.875 120.5625 C 332.550781 105.835938 322.328125 92.328125 309.066406 80.675781 Z M 67.871094 72.011719 L 111.9375 98.183594 C 113.910156 99.347656 114.566406 101.894531 113.398438 103.871094 C 113.097656 104.382812 112.703125 104.804688 112.25 105.128906 C 110.832031 106.328125 109.449219 107.542969 108.101562 108.78125 C 111 111.988281 114.152344 113.839844 118.230469 114.875 C 123.507812 116.21875 130.445312 116.367188 140.121094 116.257812 C 145.5 110.84375 149.699219 107.828125 158.40625 105.457031 C 163.355469 104.109375 169.664062 103.03125 176.246094 102.246094 C 183.546875 101.375 191.367188 100.847656 198.128906 100.699219 C 204.484375 100.5625 209.835938 100.769531 214.605469 101.214844 C 219.484375 101.667969 223.644531 102.335938 227.589844 103.113281 C 229.265625 103.445312 231.121094 103.84375 232.964844 104.242188 C 238.636719 105.460938 244.175781 106.652344 250.125 106.847656 C 254.03125 106.976562 258.269531 106.691406 262.105469 106.289062 C 262.777344 106.21875 263.445312 106.140625 264.101562 106.0625 C 263.742188 105.75 263.375 105.4375 263.011719 105.128906 C 262.558594 104.804688 262.160156 104.382812 261.859375 103.871094 C 260.691406 101.894531 261.347656 99.347656 263.324219 98.183594 L 307.386719 72.011719 L 307.394531 72.023438 C 308.867188 71.152344 310.785156 71.257812 312.167969 72.417969 C 327.351562 85.191406 338.847656 100.148438 348.09375 116.5 C 357.234375 132.671875 364.148438 150.140625 370.253906 168.199219 C 371.007812 170.070312 370.304688 172.261719 368.511719 173.320312 L 324.445312 199.496094 L 324.445312 199.488281 C 324.195312 199.632812 323.933594 199.757812 323.648438 199.851562 C 321.476562 200.578125 319.125 199.40625 318.398438 197.234375 L 317.875 195.6875 C 314.851562 199.027344 311.65625 202.007812 308.25 204.675781 C 304.585938 207.542969 300.699219 210.046875 296.535156 212.253906 C 299.859375 216.253906 301 221.066406 300.496094 225.714844 C 300.195312 228.503906 299.277344 231.230469 297.871094 233.664062 C 296.453125 236.121094 294.550781 238.277344 292.285156 239.917969 C 289.136719 242.199219 285.316406 243.535156 281.148438 243.367188 C 281.234375 244.132812 281.277344 244.910156 281.277344 245.695312 C 281.277344 251.335938 278.992188 256.441406 275.296875 260.136719 C 271.601562 263.832031 266.492188 266.121094 260.851562 266.121094 C 259.398438 266.121094 257.972656 265.960938 256.589844 265.664062 C 256.519531 269.023438 255.539062 272.289062 253.832031 275.132812 C 252.0625 278.082031 249.507812 280.566406 246.378906 282.207031 C 243.765625 283.582031 240.78125 284.375 237.539062 284.375 C 235.867188 284.375 234.238281 284.152344 232.679688 283.742188 C 232.277344 286.660156 231.164062 289.421875 229.496094 291.792969 C 227.367188 294.808594 224.320312 297.199219 220.667969 298.480469 C 218.777344 299.144531 216.75 299.507812 214.636719 299.507812 C 209.875 299.507812 200.902344 298.78125 190.945312 296.628906 C 184.960938 295.335938 178.59375 293.523438 172.53125 291.042969 L 168.597656 295.957031 L 168.601562 295.964844 C 165.140625 300.28125 160.230469 302.796875 155.105469 303.363281 C 149.992188 303.929688 144.65625 302.546875 140.324219 299.082031 L 140.316406 299.074219 L 140.308594 299.082031 C 136.441406 295.984375 134.019531 291.726562 133.148438 287.195312 C 130.96875 288.359375 128.59375 289.0625 126.140625 289.335938 C 121.082031 289.894531 115.710938 288.574219 111.109375 285.617188 C 110.609375 285.296875 110.152344 284.972656 109.738281 284.644531 C 105.582031 281.371094 103.523438 276.710938 103.15625 271.882812 C 103.121094 271.394531 103.105469 270.902344 103.101562 270.410156 C 101.785156 270.824219 100.433594 271.101562 99.070312 271.253906 C 93.773438 271.839844 88.242188 270.464844 84.136719 267.371094 C 84.027344 267.289062 84.125 267.355469 83.730469 267.039062 L 83.722656 267.046875 C 79.261719 263.496094 76.976562 258.53125 76.570312 253.460938 C 76.296875 250.101562 76.867188 246.675781 78.1875 243.589844 C 73.730469 243.621094 69.230469 242.1875 65.484375 239.1875 C 61.148438 235.71875 58.628906 230.8125 58.066406 225.699219 C 57.5 220.585938 58.882812 215.25 62.347656 210.921875 L 63.703125 209.230469 C 62.726562 206.898438 61.75 204.9375 60.367188 203.027344 C 59.324219 201.582031 58.007812 200.09375 56.242188 198.410156 C 55.199219 199.800781 53.347656 200.433594 51.609375 199.851562 C 51.328125 199.757812 51.0625 199.632812 50.816406 199.488281 L 50.8125 199.496094 L 6.746094 173.320312 C 4.957031 172.261719 4.25 170.070312 5.003906 168.199219 C 11.113281 150.140625 18.027344 132.671875 27.167969 116.5 C 36.414062 100.148438 47.910156 85.191406 63.089844 72.417969 C 64.476562 71.257812 66.394531 71.152344 67.863281 72.023438 Z M 102.140625 114.585938 C 92.703125 124.34375 84.992188 135.164062 78.449219 146.734375 C 70.800781 160.265625 64.726562 174.871094 59.351562 190.035156 C 62.867188 193.082031 65.257812 195.636719 67.097656 198.183594 C 68.027344 199.472656 68.800781 200.726562 69.484375 202.007812 L 74.867188 195.289062 L 74.859375 195.28125 C 78.320312 190.964844 83.230469 188.453125 88.347656 187.890625 C 93.457031 187.324219 98.796875 188.703125 103.125 192.164062 L 103.144531 192.183594 L 103.148438 192.171875 L 103.171875 192.191406 L 103.179688 192.1875 L 103.367188 192.347656 C 106.6875 195.082031 108.90625 198.683594 109.964844 202.566406 L 110.984375 201.285156 C 117.734375 192.816406 125.816406 190.621094 132.726562 192.277344 C 135.542969 192.953125 138.128906 194.269531 140.324219 196.0625 C 142.511719 197.847656 144.328125 200.101562 145.621094 202.671875 C 148.101562 207.605469 148.707031 213.683594 146.324219 219.761719 C 150.828125 219.65625 155.394531 221.046875 159.1875 224.007812 C 159.382812 224.144531 159.5625 224.296875 159.730469 224.464844 C 163.589844 228.320312 166.015625 233.230469 166.574219 238.261719 C 167.117188 243.171875 165.902344 248.164062 162.542969 252.425781 L 162.058594 253.039062 C 166.15625 253.226562 170.238281 254.667969 173.679688 257.421875 C 178.015625 260.890625 180.535156 265.800781 181.101562 270.910156 C 181.605469 275.453125 180.566406 280.179688 177.894531 284.214844 C 182.804688 286.0625 187.882812 287.460938 192.703125 288.503906 C 201.984375 290.511719 210.265625 291.1875 214.636719 291.1875 C 215.835938 291.1875 216.941406 290.996094 217.9375 290.648438 C 219.894531 289.960938 221.539062 288.664062 222.703125 287.015625 C 223.859375 285.371094 224.527344 283.378906 224.527344 281.296875 C 224.527344 280.890625 224.5 280.476562 224.449219 280.070312 C 215.570312 277.734375 206.753906 274.550781 197.992188 270.519531 C 188.460938 266.132812 178.992188 260.742188 169.589844 254.34375 C 167.699219 253.050781 167.210938 250.46875 168.5 248.574219 C 169.792969 246.679688 172.378906 246.195312 174.273438 247.488281 C 183.285156 253.621094 192.351562 258.785156 201.472656 262.980469 C 210.558594 267.160156 219.699219 270.382812 228.882812 272.632812 C 229.566406 272.800781 230.167969 273.132812 230.660156 273.570312 C 231.585938 274.347656 232.65625 274.972656 233.832031 275.402344 C 234.976562 275.824219 236.226562 276.054688 237.539062 276.054688 C 239.398438 276.054688 241.078125 275.617188 242.511719 274.867188 C 244.277344 273.9375 245.714844 272.539062 246.714844 270.875 C 247.710938 269.210938 248.269531 267.277344 248.269531 265.28125 C 248.269531 264.125 248.082031 262.957031 247.683594 261.816406 C 226.9375 255.046875 203.929688 243.632812 178.660156 227.570312 C 176.71875 226.339844 176.144531 223.773438 177.375 221.832031 C 178.605469 219.894531 181.175781 219.320312 183.113281 220.550781 C 208.5 236.6875 231.453125 247.992188 251.976562 254.460938 C 252.546875 254.640625 253.046875 254.929688 253.46875 255.300781 C 254.488281 256.085938 255.632812 256.710938 256.851562 257.136719 C 258.078125 257.566406 259.421875 257.800781 260.851562 257.800781 C 264.191406 257.800781 267.21875 256.445312 269.410156 254.253906 C 271.601562 252.066406 272.957031 249.039062 272.957031 245.695312 C 272.957031 244.589844 272.8125 243.523438 272.535156 242.515625 C 272.378906 241.933594 272.183594 241.378906 271.957031 240.847656 C 266.070312 238.753906 257.210938 234.617188 245.382812 228.441406 C 232.460938 221.699219 216.058594 212.574219 196.171875 201.066406 C 194.191406 199.917969 193.511719 197.378906 194.660156 195.398438 C 195.808594 193.414062 198.351562 192.738281 200.335938 193.886719 C 220.304688 205.441406 236.597656 214.515625 249.21875 221.097656 C 261.671875 227.597656 270.609375 231.722656 276.027344 233.476562 C 276.273438 233.546875 276.515625 233.640625 276.75 233.757812 C 280.851562 235.820312 284.640625 235.195312 287.410156 233.191406 C 288.746094 232.222656 289.863281 230.960938 290.6875 229.539062 C 291.519531 228.097656 292.0625 226.484375 292.238281 224.839844 C 292.613281 221.378906 291.277344 217.726562 287.472656 215.207031 L 287.460938 215.203125 L 287.4375 215.1875 L 287.421875 215.171875 L 287.40625 215.164062 L 287.335938 215.113281 C 287.28125 215.074219 287.226562 215.03125 287.171875 214.988281 L 287.164062 214.984375 L 287.082031 214.914062 L 287.078125 214.910156 L 287.066406 214.902344 L 287.058594 214.894531 L 287.035156 214.878906 L 286.613281 214.519531 C 286.507812 214.4375 286.40625 214.355469 286.3125 214.265625 C 279.46875 208.492188 272.613281 202.722656 265.394531 196.957031 C 257.910156 190.976562 250.066406 185.03125 241.519531 179.148438 C 224.703125 167.574219 204.808594 156.015625 184.855469 144.453125 C 182.863281 144.804688 180.859375 145.214844 178.804688 145.921875 C 176.308594 146.777344 173.667969 148.09375 170.726562 150.320312 C 167.566406 152.71875 163.859375 156.320312 160.035156 160.035156 C 156.160156 163.800781 152.167969 167.679688 148.242188 170.796875 C 144.03125 174.136719 139.886719 176.621094 135.84375 177.988281 C 131.417969 179.488281 127.125 179.675781 123.003906 178.246094 L 122.992188 178.238281 L 122.988281 178.246094 C 118.53125 176.695312 114.398438 173.214844 112.199219 168.308594 C 110.371094 164.234375 109.882812 159.21875 111.671875 153.59375 C 114.714844 144.039062 124.539062 132.859375 132.261719 124.554688 C 125.785156 124.460938 120.613281 124.0625 116.179688 122.933594 C 110.480469 121.484375 106.109375 118.949219 102.140625 114.585938 Z M 102.792969 102.414062 L 66.191406 80.675781 C 52.929688 92.328125 42.710938 105.835938 34.382812 120.5625 C 26.058594 135.289062 19.597656 151.289062 13.875 167.894531 L 49.972656 189.332031 C 50.121094 188.945312 50.335938 188.578125 50.609375 188.238281 C 50.863281 187.921875 51.15625 187.652344 51.472656 187.429688 C 56.996094 171.839844 63.269531 156.761719 71.234375 142.671875 C 79.570312 127.925781 89.742188 114.3125 102.792969 102.414062 Z M 87.292969 230.867188 C 87.46875 230.652344 87.660156 230.457031 87.867188 230.285156 L 99.433594 215.777344 C 99.542969 215.585938 99.671875 215.398438 99.816406 215.21875 L 99.820312 215.214844 L 99.835938 215.226562 C 101.835938 212.703125 102.628906 209.578125 102.296875 206.566406 C 101.96875 203.625 100.554688 200.800781 98.121094 198.78125 L 97.914062 198.621094 L 97.921875 198.609375 L 97.90625 198.597656 L 97.910156 198.59375 C 95.390625 196.597656 92.269531 195.808594 89.257812 196.140625 C 86.246094 196.472656 83.355469 197.945312 81.328125 200.480469 L 81.324219 200.476562 L 81.289062 200.519531 L 81.285156 200.515625 L 71.898438 212.238281 C 71.769531 212.429688 71.625 212.605469 71.46875 212.773438 L 68.816406 216.085938 C 66.789062 218.617188 65.984375 221.761719 66.320312 224.789062 C 66.65625 227.8125 68.125 230.703125 70.652344 232.722656 C 73.179688 234.746094 76.328125 235.550781 79.355469 235.214844 C 82.375 234.882812 85.261719 233.40625 87.292969 230.867188 Z M 144.84375 261.464844 C 144.984375 261.140625 145.171875 260.832031 145.402344 260.542969 C 145.847656 259.988281 146.320312 259.460938 146.8125 258.960938 L 156.007812 247.289062 C 157.933594 244.851562 158.628906 241.988281 158.316406 239.171875 C 157.972656 236.078125 156.441406 233 153.988281 230.488281 C 151.480469 228.574219 148.410156 227.808594 145.464844 228.128906 C 142.730469 228.429688 140.117188 229.660156 138.167969 231.769531 L 114.75 261.144531 C 114.605469 261.527344 114.398438 261.898438 114.128906 262.238281 C 113.894531 262.539062 113.683594 262.835938 113.496094 263.125 C 111.992188 265.460938 111.234375 268.417969 111.449219 271.265625 C 111.648438 273.910156 112.722656 276.417969 114.875 278.113281 C 115.121094 278.304688 115.359375 278.480469 115.59375 278.628906 C 118.605469 280.5625 122.046875 281.433594 125.226562 281.082031 C 128.03125 280.769531 130.648438 279.476562 132.542969 277.070312 L 135.414062 273.429688 C 135.925781 272.523438 136.519531 271.652344 137.1875 270.8125 C 137.476562 270.457031 137.8125 270.160156 138.175781 269.921875 Z M 142.296875 278.117188 C 141.285156 280.175781 140.917969 282.457031 141.160156 284.679688 C 141.496094 287.695312 142.972656 290.585938 145.507812 292.617188 L 145.503906 292.625 C 148.03125 294.640625 151.171875 295.445312 154.195312 295.109375 C 157.214844 294.777344 160.105469 293.300781 162.136719 290.765625 L 162.144531 290.769531 L 167.789062 283.722656 C 167.945312 283.476562 168.128906 283.253906 168.328125 283.050781 L 170.351562 280.523438 C 172.375 277.992188 173.179688 274.847656 172.84375 271.820312 C 172.507812 268.796875 171.039062 265.910156 168.511719 263.886719 C 165.984375 261.863281 162.835938 261.058594 159.808594 261.394531 C 157.335938 261.667969 154.945312 262.710938 153.046875 264.476562 Z M 130.855469 227.617188 C 130.925781 227.511719 131 227.410156 131.078125 227.308594 L 131.15625 227.210938 C 131.234375 227.109375 131.320312 227.015625 131.40625 226.921875 L 131.417969 226.914062 L 135.929688 221.25 C 140.089844 216.03125 140.269531 210.503906 138.207031 206.40625 C 137.4375 204.875 136.367188 203.539062 135.089844 202.496094 C 133.824219 201.460938 132.363281 200.710938 130.808594 200.335938 C 126.800781 199.375 121.90625 200.90625 117.484375 206.453125 L 87.402344 244.191406 L 87.21875 244.433594 C 85.464844 246.761719 84.617188 249.8125 84.859375 252.8125 C 85.09375 255.71875 86.382812 258.550781 88.890625 260.550781 L 88.882812 260.558594 L 88.890625 260.566406 C 89.074219 260.714844 88.804688 260.488281 89.144531 260.742188 C 91.554688 262.558594 94.898438 263.359375 98.15625 263 C 101.117188 262.671875 103.949219 261.371094 105.847656 258.988281 Z M 271.925781 113.363281 C 269.664062 113.707031 266.59375 114.15625 262.949219 114.539062 C 258.835938 114.972656 254.234375 115.277344 249.863281 115.132812 C 243.082031 114.910156 237.230469 113.652344 231.242188 112.363281 C 229.582031 112.007812 227.910156 111.648438 225.996094 111.269531 C 222.160156 110.511719 218.226562 109.871094 213.855469 109.464844 C 209.378906 109.050781 204.324219 108.851562 198.292969 108.984375 C 191.9375 109.125 184.417969 109.640625 177.222656 110.5 C 170.914062 111.25 165.003906 112.246094 160.582031 113.449219 C 151.828125 115.835938 148.535156 119.339844 141.472656 126.859375 L 141.175781 127.175781 C 133.734375 135.097656 122.421875 147.140625 119.570312 156.09375 C 118.464844 159.578125 118.714844 162.574219 119.773438 164.929688 C 120.988281 167.640625 123.265625 169.5625 125.71875 170.414062 L 125.71875 170.417969 C 127.972656 171.199219 130.480469 171.042969 133.179688 170.125 C 136.269531 169.078125 139.589844 167.0625 143.070312 164.300781 C 146.730469 161.394531 150.546875 157.6875 154.25 154.089844 C 158.210938 150.238281 162.054688 146.507812 165.722656 143.726562 C 169.515625 140.847656 172.914062 139.15625 176.105469 138.058594 C 179.234375 136.980469 182.09375 136.496094 184.953125 136.011719 C 185.871094 135.863281 186.847656 136.015625 187.714844 136.519531 L 187.875 136.609375 C 208.316406 148.453125 228.753906 160.296875 246.230469 172.324219 C 255.039062 178.386719 263.011719 184.425781 270.5625 190.457031 C 277.183594 195.746094 283.507812 201.042969 289.796875 206.347656 C 294.671875 204.015625 299.089844 201.320312 303.144531 198.144531 C 307.316406 194.878906 311.132812 191.089844 314.695312 186.65625 C 309.617188 172.703125 303.886719 159.257812 296.808594 146.734375 C 289.992188 134.679688 281.910156 123.4375 271.925781 113.363281 Z M 271.925781 113.363281 " fill-opacity="1" fill-rule="nonzero"/></g></svg>