<svg xmlns="http://www.w3.org/2000/svg" xmlns:xlink="http://www.w3.org/1999/xlink" width="500" zoomAndPan="magnify" viewBox="0 0 375 374.999991" height="500" preserveAspectRatio="xMidYMid meet" version="1.0"><defs><clipPath id="045fdf1f77"><path d="M 51 36.476562 L 322 36.476562 L 322 176 L 51 176 Z M 51 36.476562 " clip-rule="nonzero"/></clipPath><clipPath id="175ae9f86c"><path d="M 168 308 L 222 308 L 222 338.726562 L 168 338.726562 Z M 168 308 " clip-rule="nonzero"/></clipPath></defs><g clip-path="url(#045fdf1f77)"><path fill="#000000" d="M 81.085938 175.253906 C 81.035156 173.964844 81 172.675781 81 171.367188 C 81 112.984375 128.257812 65.660156 186.578125 65.660156 C 244.878906 65.660156 292.140625 112.984375 292.140625 171.367188 C 292.140625 172.675781 292.101562 173.964844 292.050781 175.253906 L 321.28125 175.253906 C 321.316406 173.964844 321.351562 172.675781 321.351562 171.367188 C 321.351562 96.839844 261.003906 36.40625 186.578125 36.40625 C 112.132812 36.40625 51.785156 96.839844 51.785156 171.367188 C 51.785156 172.675781 51.820312 173.964844 51.855469 175.253906 L 81.085938 175.253906 " fill-opacity="1" fill-rule="nonzero"/></g><path fill="#000000" d="M 293.355469 285.855469 L 296.777344 287.445312 L 293.390625 285.800781 L 293.355469 285.855469 L 296.777344 287.445312 L 293.390625 285.800781 L 293.375 285.820312 C 293.214844 286.15625 289.226562 294.015625 277.957031 301.808594 C 266.648438 309.578125 248 317.457031 217.695312 317.492188 C 211.839844 317.492188 205.539062 317.195312 198.785156 316.539062 L 197.585938 328.835938 C 204.710938 329.542969 211.414062 329.859375 217.695312 329.859375 C 251.175781 329.878906 272.945312 320.671875 286.210938 311.082031 C 299.496094 301.523438 304.222656 291.792969 304.539062 291.101562 L 293.355469 285.855469 " fill-opacity="1" fill-rule="nonzero"/><g clip-path="url(#175ae9f86c)"><path fill="#000000" d="M 221.542969 332.757812 C 221.542969 336.007812 218.929688 338.621094 215.703125 338.621094 L 174.476562 338.621094 C 171.246094 338.621094 168.636719 336.007812 168.636719 332.757812 L 168.636719 314.5625 C 168.636719 311.347656 171.246094 308.714844 174.476562 308.714844 L 215.703125 308.714844 C 218.929688 308.714844 221.542969 311.347656 221.542969 314.5625 L 221.542969 332.757812 " fill-opacity="1" fill-rule="nonzero"/></g><path fill="#000000" d="M 291.945312 153.648438 L 291.945312 299.898438 C 332.289062 299.898438 364.976562 267.164062 364.976562 226.765625 C 364.976562 186.382812 332.289062 153.648438 291.945312 153.648438 " fill-opacity="1" fill-rule="nonzero"/><path fill="#000000" d="M 82.621094 153.648438 L 82.621094 299.898438 C 42.277344 299.898438 9.589844 267.164062 9.589844 226.765625 C 9.589844 186.382812 42.277344 153.648438 82.621094 153.648438 " fill-opacity="1" fill-rule="nonzero"/></svg>