<svg xmlns="http://www.w3.org/2000/svg" xmlns:xlink="http://www.w3.org/1999/xlink" width="500" zoomAndPan="magnify" viewBox="0 0 375 374.999991" height="500" preserveAspectRatio="xMidYMid meet" version="1.0"><defs><clipPath id="ef7cc76fe6"><path d="M 277 2.804688 L 360 2.804688 L 360 67 L 277 67 Z M 277 2.804688 " clip-rule="nonzero"/></clipPath><clipPath id="4d92944c4d"><path d="M 14 2.804688 L 324 2.804688 L 324 372.554688 L 14 372.554688 Z M 14 2.804688 " clip-rule="nonzero"/></clipPath></defs><g clip-path="url(#ef7cc76fe6)"><path fill="#000000" d="M 354.242188 66.097656 L 283.167969 66.097656 C 282.820312 66.097656 282.480469 66.066406 282.140625 66 C 281.800781 65.929688 281.472656 65.832031 281.152344 65.699219 C 280.832031 65.566406 280.53125 65.402344 280.242188 65.210938 C 279.953125 65.019531 279.6875 64.800781 279.445312 64.554688 C 279.199219 64.308594 278.980469 64.042969 278.789062 63.753906 C 278.597656 63.46875 278.433594 63.164062 278.304688 62.84375 C 278.171875 62.523438 278.070312 62.195312 278.003906 61.855469 C 277.9375 61.515625 277.902344 61.171875 277.902344 60.824219 L 277.902344 43.683594 C 277.902344 42.34375 277.96875 41.007812 278.097656 39.675781 C 278.230469 38.34375 278.425781 37.019531 278.6875 35.707031 C 278.945312 34.394531 279.269531 33.097656 279.660156 31.816406 C 280.046875 30.535156 280.496094 29.277344 281.007812 28.039062 C 281.519531 26.800781 282.089844 25.59375 282.71875 24.414062 C 283.351562 23.230469 284.035156 22.085938 284.777344 20.972656 C 285.519531 19.859375 286.316406 18.785156 287.164062 17.75 C 288.011719 16.714844 288.90625 15.722656 289.851562 14.777344 C 290.796875 13.832031 291.785156 12.933594 292.820312 12.082031 C 293.851562 11.234375 294.925781 10.4375 296.035156 9.695312 C 297.148438 8.949219 298.292969 8.261719 299.46875 7.632812 C 300.648438 7 301.855469 6.429688 303.089844 5.914062 C 304.324219 5.402344 305.582031 4.953125 306.859375 4.5625 C 308.140625 4.175781 309.433594 3.851562 310.746094 3.589844 C 312.054688 3.328125 313.375 3.132812 314.707031 3 C 316.035156 2.871094 317.367188 2.804688 318.703125 2.804688 C 320.039062 2.804688 321.375 2.871094 322.703125 3 C 324.035156 3.132812 325.355469 3.328125 326.664062 3.589844 C 327.976562 3.851562 329.269531 4.175781 330.546875 4.5625 C 331.828125 4.953125 333.085938 5.402344 334.320312 5.914062 C 335.554688 6.429688 336.761719 7 337.9375 7.632812 C 339.117188 8.261719 340.261719 8.949219 341.371094 9.695312 C 342.484375 10.4375 343.554688 11.234375 344.589844 12.082031 C 345.621094 12.933594 346.609375 13.832031 347.554688 14.777344 C 348.5 15.722656 349.398438 16.714844 350.246094 17.75 C 351.09375 18.785156 351.886719 19.859375 352.628906 20.972656 C 353.371094 22.085938 354.058594 23.230469 354.6875 24.414062 C 355.320312 25.59375 355.890625 26.800781 356.402344 28.039062 C 356.914062 29.277344 357.363281 30.535156 357.75 31.816406 C 358.136719 33.097656 358.460938 34.394531 358.722656 35.707031 C 358.984375 37.019531 359.179688 38.34375 359.308594 39.675781 C 359.441406 41.007812 359.507812 42.34375 359.507812 43.683594 L 359.507812 60.824219 C 359.507812 61.171875 359.472656 61.515625 359.40625 61.855469 C 359.339844 62.195312 359.238281 62.523438 359.105469 62.84375 C 358.972656 63.164062 358.8125 63.46875 358.621094 63.753906 C 358.425781 64.042969 358.210938 64.308594 357.964844 64.554688 C 357.71875 64.800781 357.453125 65.019531 357.167969 65.210938 C 356.878906 65.402344 356.574219 65.566406 356.257812 65.699219 C 355.9375 65.832031 355.609375 65.929688 355.269531 66 C 354.929688 66.066406 354.585938 66.097656 354.242188 66.097656 Z M 288.433594 55.550781 L 348.976562 55.550781 L 348.976562 43.683594 C 348.976562 42.6875 348.929688 41.699219 348.832031 40.710938 C 348.734375 39.722656 348.589844 38.738281 348.394531 37.765625 C 348.203125 36.792969 347.960938 35.828125 347.671875 34.878906 C 347.386719 33.929688 347.050781 32.992188 346.671875 32.074219 C 346.292969 31.160156 345.871094 30.261719 345.402344 29.386719 C 344.933594 28.507812 344.425781 27.660156 343.875 26.832031 C 343.324219 26.007812 342.734375 25.210938 342.105469 24.441406 C 341.476562 23.675781 340.8125 22.9375 340.109375 22.238281 C 339.410156 21.535156 338.675781 20.867188 337.910156 20.238281 C 337.144531 19.609375 336.347656 19.015625 335.523438 18.464844 C 334.699219 17.914062 333.847656 17.402344 332.976562 16.933594 C 332.101562 16.464844 331.207031 16.042969 330.289062 15.664062 C 329.375 15.28125 328.441406 14.949219 327.492188 14.660156 C 326.542969 14.371094 325.582031 14.128906 324.609375 13.9375 C 323.636719 13.742188 322.660156 13.597656 321.671875 13.5 C 320.683594 13.402344 319.695312 13.351562 318.703125 13.351562 C 317.714844 13.351562 316.722656 13.402344 315.738281 13.5 C 314.75 13.597656 313.769531 13.742188 312.796875 13.9375 C 311.824219 14.128906 310.867188 14.371094 309.917969 14.660156 C 308.96875 14.949219 308.035156 15.28125 307.121094 15.664062 C 306.203125 16.042969 305.308594 16.464844 304.433594 16.933594 C 303.558594 17.402344 302.710938 17.914062 301.886719 18.464844 C 301.0625 19.015625 300.265625 19.609375 299.5 20.238281 C 298.734375 20.867188 298 21.535156 297.296875 22.238281 C 296.597656 22.9375 295.933594 23.675781 295.304688 24.441406 C 294.675781 25.210938 294.085938 26.007812 293.535156 26.832031 C 292.984375 27.660156 292.472656 28.507812 292.007812 29.386719 C 291.539062 30.261719 291.117188 31.160156 290.734375 32.074219 C 290.355469 32.992188 290.023438 33.929688 289.734375 34.878906 C 289.449219 35.828125 289.207031 36.792969 289.011719 37.765625 C 288.820312 38.738281 288.675781 39.722656 288.578125 40.710938 C 288.480469 41.699219 288.433594 42.6875 288.433594 43.683594 Z M 288.433594 55.550781 " fill-opacity="1" fill-rule="nonzero"/></g><g clip-path="url(#4d92944c4d)"><path fill="#000000" d="M 85.792969 372.027344 C 84.765625 372.027344 83.820312 371.75 82.957031 371.195312 L 52.863281 351.914062 L 22.765625 371.195312 C 21.953125 371.710938 21.066406 371.988281 20.105469 372.023438 C 19.144531 372.054688 18.242188 371.839844 17.398438 371.378906 C 16.554688 370.914062 15.886719 370.269531 15.398438 369.441406 C 14.90625 368.613281 14.660156 367.714844 14.660156 366.753906 L 14.660156 45 C 14.664062 43.621094 14.730469 42.242188 14.867188 40.867188 C 15.003906 39.492188 15.207031 38.128906 15.476562 36.773438 C 15.75 35.417969 16.085938 34.078125 16.484375 32.757812 C 16.886719 31.433594 17.351562 30.136719 17.878906 28.859375 C 18.410156 27.585938 18.996094 26.335938 19.648438 25.117188 C 20.300781 23.902344 21.007812 22.71875 21.773438 21.570312 C 22.539062 20.421875 23.363281 19.3125 24.234375 18.246094 C 25.109375 17.175781 26.035156 16.152344 27.011719 15.175781 C 27.988281 14.199219 29.007812 13.273438 30.074219 12.398438 C 31.140625 11.519531 32.246094 10.699219 33.390625 9.929688 C 34.539062 9.164062 35.71875 8.453125 36.933594 7.800781 C 38.152344 7.148438 39.394531 6.558594 40.667969 6.027344 C 41.941406 5.5 43.238281 5.035156 44.558594 4.632812 C 45.878906 4.230469 47.214844 3.894531 48.566406 3.621094 C 49.917969 3.351562 51.28125 3.148438 52.652344 3.011719 C 54.023438 2.875 55.402344 2.804688 56.78125 2.804688 L 318.703125 2.804688 C 319.050781 2.804688 319.390625 2.839844 319.730469 2.90625 C 320.070312 2.972656 320.398438 3.074219 320.71875 3.207031 C 321.039062 3.339844 321.34375 3.5 321.628906 3.691406 C 321.917969 3.886719 322.183594 4.105469 322.425781 4.347656 C 322.671875 4.59375 322.890625 4.859375 323.082031 5.148438 C 323.273438 5.4375 323.4375 5.742188 323.570312 6.058594 C 323.699219 6.378906 323.800781 6.710938 323.867188 7.050781 C 323.933594 7.390625 323.96875 7.734375 323.96875 8.078125 C 323.96875 8.425781 323.933594 8.769531 323.867188 9.109375 C 323.800781 9.449219 323.699219 9.777344 323.570312 10.097656 C 323.4375 10.417969 323.273438 10.722656 323.082031 11.007812 C 322.890625 11.296875 322.671875 11.5625 322.425781 11.808594 C 322.183594 12.054688 321.917969 12.273438 321.628906 12.464844 C 321.34375 12.65625 321.039062 12.820312 320.71875 12.953125 C 320.398438 13.085938 320.070312 13.183594 319.730469 13.253906 C 319.390625 13.320312 319.050781 13.351562 318.703125 13.351562 L 56.78125 13.351562 C 55.746094 13.355469 54.714844 13.40625 53.683594 13.507812 C 52.65625 13.609375 51.632812 13.765625 50.621094 13.964844 C 49.605469 14.167969 48.601562 14.421875 47.613281 14.722656 C 46.625 15.023438 45.652344 15.375 44.695312 15.769531 C 43.742188 16.167969 42.808594 16.609375 41.894531 17.101562 C 40.984375 17.589844 40.097656 18.121094 39.238281 18.695312 C 38.378906 19.273438 37.546875 19.890625 36.75 20.546875 C 35.949219 21.203125 35.183594 21.898438 34.453125 22.632812 C 33.722656 23.363281 33.027344 24.132812 32.371094 24.933594 C 31.714844 25.734375 31.097656 26.566406 30.523438 27.425781 C 29.949219 28.289062 29.417969 29.175781 28.929688 30.089844 C 28.441406 31.003906 28 31.9375 27.605469 32.894531 C 27.207031 33.851562 26.859375 34.828125 26.558594 35.816406 C 26.257812 36.808594 26.003906 37.8125 25.804688 38.828125 C 25.601562 39.84375 25.449219 40.867188 25.347656 41.898438 C 25.242188 42.929688 25.191406 43.964844 25.191406 45 L 25.191406 357.121094 L 50.023438 341.210938 C 50.449219 340.941406 50.902344 340.734375 51.382812 340.59375 C 51.867188 340.453125 52.359375 340.378906 52.863281 340.378906 C 53.367188 340.378906 53.859375 340.453125 54.339844 340.59375 C 54.824219 340.734375 55.277344 340.941406 55.699219 341.210938 L 85.792969 360.492188 L 115.871094 341.210938 C 116.296875 340.941406 116.75 340.734375 117.230469 340.59375 C 117.714844 340.453125 118.207031 340.378906 118.710938 340.378906 C 119.210938 340.378906 119.707031 340.453125 120.1875 340.59375 C 120.671875 340.734375 121.125 340.941406 121.546875 341.210938 L 151.589844 360.484375 L 181.65625 341.210938 C 182.078125 340.941406 182.53125 340.734375 183.015625 340.59375 C 183.5 340.453125 183.992188 340.378906 184.492188 340.378906 C 184.996094 340.378906 185.488281 340.453125 185.972656 340.59375 C 186.453125 340.734375 186.90625 340.941406 187.332031 341.210938 L 217.382812 360.484375 L 247.441406 341.210938 C 247.863281 340.941406 248.316406 340.734375 248.800781 340.59375 C 249.28125 340.453125 249.773438 340.378906 250.277344 340.378906 C 250.78125 340.378906 251.273438 340.453125 251.757812 340.59375 C 252.238281 340.734375 252.691406 340.941406 253.117188 341.210938 L 277.902344 357.109375 L 277.902344 60.824219 C 277.902344 60.480469 277.9375 60.136719 278.003906 59.796875 C 278.070312 59.457031 278.171875 59.125 278.304688 58.804688 C 278.433594 58.488281 278.597656 58.183594 278.789062 57.894531 C 278.980469 57.605469 279.199219 57.339844 279.445312 57.09375 C 279.6875 56.851562 279.953125 56.632812 280.242188 56.4375 C 280.53125 56.246094 280.832031 56.085938 281.152344 55.953125 C 281.472656 55.820312 281.800781 55.71875 282.140625 55.652344 C 282.480469 55.585938 282.820312 55.550781 283.167969 55.550781 C 283.511719 55.550781 283.855469 55.585938 284.195312 55.652344 C 284.53125 55.71875 284.863281 55.820312 285.183594 55.953125 C 285.5 56.085938 285.804688 56.246094 286.09375 56.4375 C 286.378906 56.632812 286.644531 56.851562 286.890625 57.09375 C 287.132812 57.339844 287.351562 57.605469 287.542969 57.894531 C 287.738281 58.183594 287.898438 58.488281 288.03125 58.804688 C 288.164062 59.125 288.261719 59.457031 288.332031 59.796875 C 288.398438 60.136719 288.433594 60.480469 288.433594 60.824219 L 288.433594 366.753906 C 288.429688 367.714844 288.1875 368.613281 287.695312 369.441406 C 287.203125 370.269531 286.539062 370.914062 285.695312 371.378906 C 284.851562 371.839844 283.949219 372.054688 282.984375 372.023438 C 282.023438 371.988281 281.140625 371.710938 280.328125 371.195312 L 250.261719 351.921875 L 220.203125 371.195312 C 219.78125 371.464844 219.328125 371.671875 218.84375 371.8125 C 218.363281 371.953125 217.871094 372.023438 217.367188 372.023438 C 216.863281 372.023438 216.371094 371.953125 215.890625 371.8125 C 215.40625 371.671875 214.953125 371.464844 214.53125 371.195312 L 184.476562 351.921875 L 154.441406 371.195312 C 154.019531 371.464844 153.566406 371.671875 153.082031 371.8125 C 152.601562 371.953125 152.105469 372.023438 151.605469 372.023438 C 151.101562 372.023438 150.609375 371.953125 150.125 371.8125 C 149.644531 371.671875 149.191406 371.464844 148.765625 371.195312 L 118.726562 351.921875 L 88.632812 371.195312 C 87.765625 371.75 86.820312 372.027344 85.792969 372.027344 Z M 85.792969 372.027344 " fill-opacity="1" fill-rule="nonzero"/></g><path fill="#000000" d="M 108.546875 95.109375 L 62.480469 95.109375 C 62.136719 95.109375 61.792969 95.074219 61.453125 95.007812 C 61.117188 94.941406 60.785156 94.839844 60.46875 94.707031 C 60.148438 94.574219 59.84375 94.414062 59.558594 94.222656 C 59.269531 94.027344 59.003906 93.808594 58.757812 93.566406 C 58.515625 93.320312 58.296875 93.054688 58.105469 92.765625 C 57.910156 92.476562 57.75 92.171875 57.617188 91.855469 C 57.484375 91.535156 57.386719 91.203125 57.316406 90.863281 C 57.25 90.523438 57.21875 90.179688 57.21875 89.835938 C 57.21875 89.488281 57.25 89.144531 57.316406 88.804688 C 57.386719 88.464844 57.484375 88.136719 57.617188 87.816406 C 57.75 87.496094 57.910156 87.191406 58.105469 86.90625 C 58.296875 86.617188 58.515625 86.351562 58.757812 86.105469 C 59.003906 85.859375 59.269531 85.640625 59.558594 85.449219 C 59.84375 85.257812 60.148438 85.09375 60.46875 84.960938 C 60.785156 84.828125 61.117188 84.730469 61.453125 84.660156 C 61.792969 84.59375 62.136719 84.5625 62.480469 84.5625 L 108.546875 84.5625 C 108.894531 84.5625 109.238281 84.59375 109.574219 84.660156 C 109.914062 84.730469 110.246094 84.828125 110.5625 84.960938 C 110.882812 85.09375 111.1875 85.257812 111.472656 85.449219 C 111.761719 85.640625 112.027344 85.859375 112.273438 86.105469 C 112.515625 86.351562 112.734375 86.617188 112.925781 86.90625 C 113.117188 87.191406 113.28125 87.496094 113.414062 87.816406 C 113.546875 88.136719 113.644531 88.464844 113.710938 88.804688 C 113.78125 89.144531 113.8125 89.488281 113.8125 89.835938 C 113.8125 90.179688 113.78125 90.523438 113.710938 90.863281 C 113.644531 91.203125 113.546875 91.535156 113.414062 91.855469 C 113.28125 92.171875 113.117188 92.476562 112.925781 92.765625 C 112.734375 93.054688 112.515625 93.320312 112.273438 93.566406 C 112.027344 93.808594 111.761719 94.027344 111.472656 94.222656 C 111.1875 94.414062 110.882812 94.574219 110.5625 94.707031 C 110.246094 94.839844 109.914062 94.941406 109.574219 95.007812 C 109.238281 95.074219 108.894531 95.109375 108.546875 95.109375 Z M 108.546875 95.109375 " fill-opacity="1" fill-rule="nonzero"/><path fill="#000000" d="M 238.417969 142.46875 L 59.414062 142.46875 C 59.066406 142.46875 58.722656 142.4375 58.386719 142.371094 C 58.046875 142.300781 57.71875 142.203125 57.398438 142.070312 C 57.078125 141.9375 56.773438 141.773438 56.488281 141.582031 C 56.199219 141.390625 55.933594 141.171875 55.691406 140.925781 C 55.445312 140.679688 55.226562 140.414062 55.035156 140.125 C 54.84375 139.839844 54.679688 139.535156 54.546875 139.214844 C 54.414062 138.894531 54.316406 138.566406 54.25 138.226562 C 54.179688 137.886719 54.148438 137.542969 54.148438 137.195312 C 54.148438 136.851562 54.179688 136.507812 54.25 136.167969 C 54.316406 135.828125 54.414062 135.496094 54.546875 135.175781 C 54.679688 134.859375 54.84375 134.554688 55.035156 134.265625 C 55.226562 133.976562 55.445312 133.710938 55.691406 133.464844 C 55.933594 133.222656 56.199219 133.003906 56.488281 132.808594 C 56.773438 132.617188 57.078125 132.457031 57.398438 132.324219 C 57.71875 132.191406 58.046875 132.089844 58.386719 132.023438 C 58.722656 131.957031 59.066406 131.921875 59.414062 131.921875 L 238.417969 131.921875 C 238.761719 131.921875 239.105469 131.957031 239.441406 132.023438 C 239.78125 132.089844 240.113281 132.191406 240.429688 132.324219 C 240.75 132.457031 241.054688 132.617188 241.339844 132.808594 C 241.628906 133.003906 241.894531 133.222656 242.140625 133.464844 C 242.382812 133.710938 242.601562 133.976562 242.792969 134.265625 C 242.984375 134.554688 243.148438 134.859375 243.28125 135.175781 C 243.414062 135.496094 243.511719 135.828125 243.578125 136.167969 C 243.648438 136.507812 243.679688 136.851562 243.679688 137.195312 C 243.679688 137.542969 243.648438 137.886719 243.578125 138.226562 C 243.511719 138.566406 243.414062 138.894531 243.28125 139.214844 C 243.148438 139.535156 242.984375 139.839844 242.792969 140.125 C 242.601562 140.414062 242.382812 140.679688 242.140625 140.925781 C 241.894531 141.171875 241.628906 141.390625 241.339844 141.582031 C 241.054688 141.773438 240.75 141.9375 240.429688 142.070312 C 240.113281 142.203125 239.78125 142.300781 239.441406 142.371094 C 239.105469 142.4375 238.761719 142.46875 238.417969 142.46875 Z M 238.417969 142.46875 " fill-opacity="1" fill-rule="nonzero"/><path fill="#000000" d="M 238.417969 189.832031 L 59.414062 189.832031 C 59.066406 189.832031 58.722656 189.796875 58.386719 189.730469 C 58.046875 189.664062 57.71875 189.5625 57.398438 189.429688 C 57.078125 189.296875 56.773438 189.132812 56.488281 188.941406 C 56.199219 188.75 55.933594 188.53125 55.691406 188.285156 C 55.445312 188.042969 55.226562 187.773438 55.035156 187.488281 C 54.84375 187.199219 54.679688 186.894531 54.546875 186.574219 C 54.414062 186.253906 54.316406 185.925781 54.25 185.585938 C 54.179688 185.246094 54.148438 184.902344 54.148438 184.558594 C 54.148438 184.210938 54.179688 183.867188 54.25 183.527344 C 54.316406 183.1875 54.414062 182.859375 54.546875 182.539062 C 54.679688 182.21875 54.84375 181.914062 55.035156 181.625 C 55.226562 181.339844 55.445312 181.070312 55.691406 180.828125 C 55.933594 180.582031 56.199219 180.363281 56.488281 180.171875 C 56.773438 179.980469 57.078125 179.816406 57.398438 179.683594 C 57.71875 179.550781 58.046875 179.449219 58.386719 179.382812 C 58.722656 179.316406 59.066406 179.28125 59.414062 179.28125 L 238.417969 179.28125 C 238.761719 179.28125 239.105469 179.316406 239.441406 179.382812 C 239.78125 179.449219 240.113281 179.550781 240.429688 179.683594 C 240.75 179.816406 241.054688 179.980469 241.339844 180.171875 C 241.628906 180.363281 241.894531 180.582031 242.140625 180.828125 C 242.382812 181.070312 242.601562 181.339844 242.792969 181.625 C 242.984375 181.914062 243.148438 182.21875 243.28125 182.539062 C 243.414062 182.859375 243.511719 183.1875 243.578125 183.527344 C 243.648438 183.867188 243.679688 184.210938 243.679688 184.558594 C 243.679688 184.902344 243.648438 185.246094 243.578125 185.585938 C 243.511719 185.925781 243.414062 186.253906 243.28125 186.574219 C 243.148438 186.894531 242.984375 187.199219 242.792969 187.488281 C 242.601562 187.773438 242.382812 188.042969 242.140625 188.285156 C 241.894531 188.53125 241.628906 188.75 241.339844 188.941406 C 241.054688 189.132812 240.75 189.296875 240.429688 189.429688 C 240.113281 189.5625 239.78125 189.664062 239.441406 189.730469 C 239.105469 189.796875 238.761719 189.832031 238.417969 189.832031 Z M 238.417969 189.832031 " fill-opacity="1" fill-rule="nonzero"/><path fill="#000000" d="M 238.417969 237.191406 L 59.414062 237.191406 C 59.066406 237.191406 58.722656 237.15625 58.386719 237.089844 C 58.046875 237.023438 57.71875 236.921875 57.398438 236.789062 C 57.078125 236.65625 56.773438 236.496094 56.488281 236.304688 C 56.199219 236.109375 55.933594 235.890625 55.691406 235.648438 C 55.445312 235.402344 55.226562 235.136719 55.035156 234.847656 C 54.84375 234.558594 54.679688 234.253906 54.546875 233.9375 C 54.414062 233.617188 54.316406 233.285156 54.25 232.945312 C 54.179688 232.605469 54.148438 232.265625 54.148438 231.917969 C 54.148438 231.570312 54.179688 231.226562 54.25 230.886719 C 54.316406 230.546875 54.414062 230.21875 54.546875 229.898438 C 54.679688 229.578125 54.84375 229.273438 55.035156 228.988281 C 55.226562 228.699219 55.445312 228.433594 55.691406 228.1875 C 55.933594 227.941406 56.199219 227.722656 56.488281 227.53125 C 56.773438 227.339844 57.078125 227.175781 57.398438 227.042969 C 57.71875 226.910156 58.046875 226.8125 58.386719 226.742188 C 58.722656 226.675781 59.066406 226.644531 59.414062 226.644531 L 238.417969 226.644531 C 238.761719 226.644531 239.105469 226.675781 239.441406 226.742188 C 239.78125 226.8125 240.113281 226.910156 240.429688 227.042969 C 240.75 227.175781 241.054688 227.339844 241.339844 227.53125 C 241.628906 227.722656 241.894531 227.941406 242.140625 228.1875 C 242.382812 228.433594 242.601562 228.699219 242.792969 228.988281 C 242.984375 229.273438 243.148438 229.578125 243.28125 229.898438 C 243.414062 230.21875 243.511719 230.546875 243.578125 230.886719 C 243.648438 231.226562 243.679688 231.570312 243.679688 231.917969 C 243.679688 232.265625 243.648438 232.605469 243.578125 232.945312 C 243.511719 233.285156 243.414062 233.617188 243.28125 233.9375 C 243.148438 234.253906 242.984375 234.558594 242.792969 234.847656 C 242.601562 235.136719 242.382812 235.402344 242.140625 235.648438 C 241.894531 235.890625 241.628906 236.109375 241.339844 236.304688 C 241.054688 236.496094 240.75 236.65625 240.429688 236.789062 C 240.113281 236.921875 239.78125 237.023438 239.441406 237.089844 C 239.105469 237.15625 238.761719 237.191406 238.417969 237.191406 Z M 238.417969 237.191406 " fill-opacity="1" fill-rule="nonzero"/><path fill="#000000" d="M 238.417969 292.90625 L 169.316406 292.90625 C 168.96875 292.90625 168.628906 292.875 168.289062 292.804688 C 167.949219 292.738281 167.621094 292.636719 167.300781 292.507812 C 166.980469 292.375 166.679688 292.210938 166.390625 292.019531 C 166.101562 291.828125 165.835938 291.609375 165.59375 291.363281 C 165.347656 291.117188 165.128906 290.851562 164.9375 290.5625 C 164.746094 290.277344 164.582031 289.972656 164.453125 289.652344 C 164.320312 289.332031 164.21875 289 164.152344 288.660156 C 164.085938 288.324219 164.050781 287.980469 164.050781 287.632812 C 164.050781 287.285156 164.085938 286.945312 164.152344 286.605469 C 164.21875 286.265625 164.320312 285.933594 164.453125 285.613281 C 164.582031 285.292969 164.746094 284.992188 164.9375 284.703125 C 165.128906 284.414062 165.347656 284.148438 165.59375 283.902344 C 165.835938 283.660156 166.101562 283.441406 166.390625 283.246094 C 166.679688 283.054688 166.980469 282.890625 167.300781 282.761719 C 167.621094 282.628906 167.949219 282.527344 168.289062 282.460938 C 168.628906 282.390625 168.96875 282.359375 169.316406 282.359375 L 238.417969 282.359375 C 238.761719 282.359375 239.105469 282.390625 239.441406 282.460938 C 239.78125 282.527344 240.113281 282.628906 240.429688 282.761719 C 240.75 282.890625 241.054688 283.054688 241.339844 283.246094 C 241.628906 283.441406 241.894531 283.660156 242.140625 283.902344 C 242.382812 284.148438 242.601562 284.414062 242.792969 284.703125 C 242.984375 284.992188 243.148438 285.292969 243.28125 285.613281 C 243.414062 285.933594 243.511719 286.265625 243.578125 286.605469 C 243.648438 286.945312 243.679688 287.285156 243.679688 287.632812 C 243.679688 287.980469 243.648438 288.324219 243.578125 288.660156 C 243.511719 289 243.414062 289.332031 243.28125 289.652344 C 243.148438 289.972656 242.984375 290.277344 242.792969 290.5625 C 242.601562 290.851562 242.382812 291.117188 242.140625 291.363281 C 241.894531 291.609375 241.628906 291.828125 241.339844 292.019531 C 241.054688 292.210938 240.75 292.375 240.429688 292.507812 C 240.113281 292.636719 239.78125 292.738281 239.441406 292.804688 C 239.105469 292.875 238.761719 292.90625 238.417969 292.90625 Z M 238.417969 292.90625 " fill-opacity="1" fill-rule="nonzero"/></svg>