<svg xmlns="http://www.w3.org/2000/svg" xmlns:xlink="http://www.w3.org/1999/xlink" width="500" zoomAndPan="magnify" viewBox="0 0 375 374.999991" height="500" preserveAspectRatio="xMidYMid meet" version="1.0"><defs><clipPath id="98b8f3ddf8"><path d="M 202 17.875 L 254 17.875 L 254 70 L 202 70 Z M 202 17.875 " clip-rule="nonzero"/></clipPath><clipPath id="7baa31ee8f"><path d="M 319 133 L 371.460938 133 L 371.460938 185 L 319 185 Z M 319 133 " clip-rule="nonzero"/></clipPath><clipPath id="c2467176d1"><path d="M 3.210938 82 L 316 82 L 316 356.875 L 3.210938 356.875 Z M 3.210938 82 " clip-rule="nonzero"/></clipPath></defs><path fill="#000000" d="M 259.378906 69.21875 L 247.851562 73.308594 C 247.851562 80.75 247.851562 80.769531 247.839844 88.222656 L 259.355469 92.332031 C 261.144531 96.664062 262.050781 98.859375 263.847656 103.191406 L 258.589844 114.230469 C 263.847656 119.5 263.871094 119.511719 269.128906 124.78125 L 280.175781 119.53125 C 284.507812 121.332031 286.691406 122.234375 291.023438 124.035156 L 295.109375 135.5625 C 302.550781 135.5625 302.570312 135.5625 310.023438 135.574219 L 314.128906 124.054688 C 318.460938 122.269531 320.65625 121.363281 324.988281 119.5625 L 336.023438 124.824219 C 341.292969 119.5625 341.304688 119.542969 346.574219 114.285156 L 341.324219 103.234375 C 343.125 98.902344 344.027344 96.71875 345.828125 92.386719 L 357.355469 88.296875 C 357.355469 80.855469 357.355469 80.835938 357.367188 73.382812 L 345.847656 69.285156 C 344.0625 64.953125 343.15625 62.757812 341.359375 58.425781 L 346.617188 47.386719 C 341.359375 42.117188 341.335938 42.105469 336.078125 36.835938 L 325.03125 42.085938 C 320.699219 40.285156 318.515625 39.378906 314.183594 37.582031 L 310.097656 26.050781 C 302.65625 26.050781 302.636719 26.050781 295.183594 26.042969 L 291.074219 37.558594 C 286.742188 39.347656 284.550781 40.253906 280.21875 42.054688 L 269.179688 36.792969 C 263.914062 42.054688 263.902344 42.074219 258.632812 47.332031 L 263.878906 58.382812 C 262.082031 62.707031 261.167969 64.886719 259.378906 69.21875 Z M 302.613281 57.839844 C 315.289062 57.851562 325.5625 68.132812 325.550781 80.8125 C 325.539062 93.492188 315.257812 103.765625 302.582031 103.753906 C 289.90625 103.746094 279.632812 93.472656 279.644531 80.792969 C 279.65625 68.113281 289.9375 57.828125 302.613281 57.839844 Z M 302.613281 57.839844 " fill-opacity="1" fill-rule="nonzero"/><path fill="#000000" d="M 207.351562 141.570312 C 207.351562 145.773438 207.351562 145.785156 207.339844 149.988281 L 213.84375 152.308594 C 214.855469 154.757812 215.367188 155.992188 216.378906 158.441406 L 213.40625 164.679688 C 216.378906 167.648438 216.386719 167.660156 219.355469 170.640625 L 225.59375 167.683594 C 228.042969 168.695312 229.277344 169.214844 231.726562 170.226562 L 234.035156 176.730469 C 238.238281 176.730469 238.25 176.730469 242.453125 176.742188 L 244.773438 170.238281 C 247.222656 169.226562 248.457031 168.714844 250.90625 167.703125 L 257.144531 170.671875 C 260.113281 167.703125 260.125 167.691406 263.105469 164.722656 L 260.144531 158.484375 C 261.15625 156.035156 261.675781 154.800781 262.6875 152.351562 L 269.191406 150.042969 C 269.191406 145.835938 269.191406 145.828125 269.203125 141.621094 L 262.699219 139.300781 C 261.6875 136.851562 261.175781 135.617188 260.167969 133.167969 L 263.136719 126.929688 C 260.167969 123.960938 260.15625 123.949219 257.1875 120.96875 L 250.949219 123.929688 C 248.5 122.917969 247.265625 122.394531 244.816406 121.382812 L 242.507812 114.878906 C 238.304688 114.878906 238.292969 114.878906 234.089844 114.867188 L 231.769531 121.375 C 229.320312 122.386719 228.085938 122.894531 225.636719 123.90625 L 219.398438 120.9375 C 216.429688 123.90625 216.417969 123.917969 213.4375 126.886719 L 216.398438 133.125 C 215.386719 135.574219 214.867188 136.808594 213.855469 139.257812 Z M 238.273438 132.828125 C 245.433594 132.828125 251.234375 138.640625 251.226562 145.804688 C 251.226562 152.96875 245.414062 158.773438 238.25 158.761719 C 231.085938 158.761719 225.285156 152.949219 225.296875 145.785156 C 225.308594 138.621094 231.117188 132.828125 238.273438 132.828125 Z M 238.273438 132.828125 " fill-opacity="1" fill-rule="nonzero"/><path fill="#000000" d="M 171.84375 173.847656 C 171.84375 176.667969 171.84375 176.675781 171.84375 179.507812 L 176.21875 181.0625 C 176.898438 182.714844 177.238281 183.542969 177.921875 185.183594 L 175.929688 189.378906 C 177.929688 191.378906 177.929688 191.378906 179.933594 193.378906 L 184.125 191.390625 C 185.765625 192.070312 186.59375 192.410156 188.246094 193.105469 L 189.800781 197.480469 C 192.621094 197.480469 192.628906 197.480469 195.460938 197.480469 L 197.015625 193.105469 C 198.664062 192.421875 199.496094 192.082031 201.136719 191.402344 L 205.328125 193.390625 C 207.328125 191.390625 207.328125 191.390625 209.332031 189.386719 L 207.339844 185.195312 C 208.023438 183.554688 208.363281 182.722656 209.054688 181.074219 L 213.429688 179.519531 C 213.429688 176.699219 213.429688 176.6875 213.429688 173.855469 L 209.054688 172.300781 C 208.371094 170.652344 208.03125 169.820312 207.351562 168.183594 L 209.339844 163.988281 C 207.339844 161.988281 207.339844 161.988281 205.339844 159.984375 L 201.144531 161.976562 C 199.507812 161.292969 198.675781 160.953125 197.027344 160.261719 L 195.472656 155.886719 C 192.652344 155.886719 192.640625 155.886719 189.808594 155.886719 L 188.257812 160.261719 C 186.605469 160.945312 185.777344 161.285156 184.136719 161.964844 L 179.941406 159.976562 C 177.941406 161.976562 177.941406 161.976562 175.941406 163.976562 L 177.929688 168.171875 C 177.25 169.8125 176.910156 170.640625 176.21875 172.292969 Z M 192.628906 167.980469 C 197.441406 167.980469 201.335938 171.886719 201.335938 176.699219 C 201.335938 181.511719 197.429688 185.40625 192.621094 185.40625 C 187.808594 185.40625 183.914062 181.5 183.914062 176.6875 C 183.914062 171.867188 187.820312 167.96875 192.628906 167.980469 Z M 192.628906 167.980469 " fill-opacity="1" fill-rule="nonzero"/><path fill="#000000" d="M 311.746094 165.414062 C 311.746094 162.59375 311.746094 162.582031 311.746094 159.75 L 307.371094 158.195312 C 306.691406 156.546875 306.351562 155.714844 305.667969 154.078125 L 307.660156 149.882812 C 305.65625 147.882812 305.65625 147.882812 303.65625 145.878906 L 299.464844 147.871094 C 297.824219 147.1875 296.992188 146.847656 295.34375 146.15625 L 293.789062 141.78125 C 290.96875 141.78125 290.957031 141.78125 288.128906 141.78125 L 286.574219 146.15625 C 284.921875 146.839844 284.09375 147.179688 282.453125 147.859375 L 278.261719 145.871094 C 276.257812 147.871094 276.257812 147.871094 274.257812 149.871094 L 276.25 154.066406 C 275.566406 155.707031 275.226562 156.535156 274.535156 158.1875 L 270.160156 159.742188 C 270.160156 162.5625 270.160156 162.570312 270.160156 165.402344 L 274.535156 166.957031 C 275.214844 168.609375 275.558594 169.4375 276.238281 171.078125 L 274.246094 175.273438 C 276.25 177.273438 276.25 177.273438 278.25 179.273438 L 282.445312 177.285156 C 284.082031 177.964844 284.914062 178.304688 286.5625 179 L 288.117188 183.375 C 290.9375 183.375 290.949219 183.375 293.78125 183.375 L 295.332031 179 C 296.984375 178.316406 297.8125 177.976562 299.453125 177.296875 L 303.644531 179.285156 C 305.648438 177.285156 305.648438 177.285156 307.648438 175.28125 L 305.65625 171.089844 C 306.339844 169.449219 306.679688 168.617188 307.371094 166.96875 Z M 290.957031 171.28125 C 286.148438 171.28125 282.253906 167.375 282.253906 162.5625 C 282.253906 157.75 286.160156 153.851562 290.96875 153.851562 C 295.78125 153.851562 299.675781 157.761719 299.675781 162.570312 C 299.675781 167.382812 295.769531 171.28125 290.957031 171.28125 Z M 290.957031 171.28125 " fill-opacity="1" fill-rule="nonzero"/><path fill="#000000" d="M 202.710938 104.9375 L 200.71875 109.132812 C 202.722656 111.132812 202.722656 111.132812 204.722656 113.132812 L 208.914062 111.144531 C 210.554688 111.824219 211.386719 112.164062 213.035156 112.855469 L 214.589844 117.234375 C 217.410156 117.234375 217.421875 117.234375 220.25 117.234375 L 221.804688 112.855469 C 223.457031 112.175781 224.285156 111.835938 225.925781 111.152344 L 230.117188 113.144531 C 232.121094 111.144531 232.121094 111.144531 234.121094 109.140625 L 232.128906 104.949219 C 232.8125 103.308594 233.152344 102.476562 233.84375 100.828125 L 238.21875 99.273438 C 238.21875 96.453125 238.21875 96.441406 238.21875 93.609375 L 233.84375 92.054688 C 233.164062 90.40625 232.820312 89.574219 232.140625 87.9375 L 234.132812 83.742188 C 232.128906 81.738281 232.128906 81.738281 230.128906 79.738281 L 225.933594 81.730469 C 224.296875 81.046875 223.464844 80.707031 221.816406 80.015625 L 220.261719 75.640625 C 217.441406 75.640625 217.429688 75.640625 214.597656 75.640625 L 213.046875 80.015625 C 211.394531 80.695312 210.566406 81.039062 208.925781 81.71875 L 204.734375 79.726562 C 202.730469 81.730469 202.730469 81.730469 200.730469 83.730469 L 202.722656 87.925781 C 202.039062 89.5625 201.699219 90.394531 201.007812 92.042969 L 196.632812 93.597656 C 196.632812 96.421875 196.632812 96.429688 196.632812 99.261719 L 201.007812 100.816406 C 201.6875 102.46875 202.027344 103.296875 202.710938 104.9375 Z M 217.429688 87.734375 C 222.242188 87.734375 226.136719 91.640625 226.136719 96.453125 C 226.136719 101.265625 222.230469 105.160156 217.421875 105.160156 C 212.609375 105.160156 208.714844 101.253906 208.714844 96.441406 C 208.714844 91.628906 212.621094 87.722656 217.429688 87.734375 Z M 217.429688 87.734375 " fill-opacity="1" fill-rule="nonzero"/><g clip-path="url(#98b8f3ddf8)"><path fill="#000000" d="M 209.808594 54.296875 L 207.328125 59.511719 C 209.808594 62.003906 209.820312 62.003906 212.300781 64.492188 L 217.515625 62.023438 C 219.558594 62.875 220.59375 63.300781 222.636719 64.152344 L 224.5625 69.59375 C 228.074219 69.59375 228.085938 69.59375 231.597656 69.59375 L 233.535156 64.152344 C 235.578125 63.3125 236.609375 62.875 238.65625 62.035156 L 243.871094 64.515625 C 246.359375 62.035156 246.359375 62.023438 248.851562 59.542969 L 246.382812 54.328125 C 247.234375 52.285156 247.660156 51.25 248.511719 49.207031 L 253.949219 47.28125 C 253.949219 43.765625 253.949219 43.757812 253.949219 40.242188 L 248.511719 38.304688 C 247.671875 36.261719 247.234375 35.230469 246.394531 33.183594 L 248.871094 27.96875 C 246.394531 25.476562 246.382812 25.476562 243.902344 22.988281 L 238.6875 25.457031 C 236.644531 24.605469 235.609375 24.179688 233.566406 23.328125 L 231.640625 17.875 C 228.128906 17.875 228.117188 17.875 224.605469 17.875 L 222.667969 23.316406 C 220.625 24.15625 219.589844 24.59375 217.546875 25.433594 L 212.332031 22.953125 C 209.839844 25.433594 209.839844 25.445312 207.351562 27.925781 L 209.820312 33.140625 C 208.96875 35.1875 208.542969 36.21875 207.691406 38.261719 L 202.253906 40.191406 C 202.253906 43.703125 202.253906 43.714844 202.253906 47.226562 L 207.691406 49.175781 C 208.542969 51.21875 208.96875 52.25 209.808594 54.296875 Z M 228.117188 32.898438 C 234.097656 32.898438 238.953125 37.761719 238.953125 43.746094 C 238.953125 49.726562 234.089844 54.582031 228.105469 54.582031 C 222.125 54.582031 217.269531 49.71875 217.269531 43.734375 C 217.269531 37.742188 222.125 32.886719 228.117188 32.898438 Z M 228.117188 32.898438 " fill-opacity="1" fill-rule="nonzero"/></g><g clip-path="url(#7baa31ee8f)"><path fill="#000000" d="M 371.457031 162.421875 C 371.457031 158.910156 371.457031 158.898438 371.457031 155.386719 L 366.019531 153.449219 C 365.179688 151.40625 364.742188 150.371094 363.902344 148.328125 L 366.382812 143.113281 C 363.902344 140.621094 363.890625 140.621094 361.410156 138.128906 L 356.195312 140.601562 C 354.152344 139.746094 353.117188 139.320312 351.074219 138.46875 L 349.148438 133.03125 C 345.636719 133.03125 345.625 133.03125 342.113281 133.03125 L 340.175781 138.46875 C 338.132812 139.3125 337.101562 139.746094 335.054688 140.589844 L 329.839844 138.109375 C 327.351562 140.589844 327.351562 140.601562 324.859375 143.078125 L 327.339844 148.296875 C 326.488281 150.339844 326.0625 151.371094 325.210938 153.417969 L 319.773438 155.34375 C 319.773438 158.855469 319.773438 158.867188 319.773438 162.378906 L 325.210938 164.316406 C 326.050781 166.363281 326.488281 167.394531 327.328125 169.4375 L 324.847656 174.65625 C 327.328125 177.144531 327.339844 177.144531 329.820312 179.636719 L 335.035156 177.167969 C 337.078125 178.019531 338.109375 178.445312 340.15625 179.296875 L 342.082031 184.738281 C 345.59375 184.738281 345.605469 184.738281 349.117188 184.738281 L 351.054688 179.296875 C 353.097656 178.457031 354.128906 178.019531 356.175781 177.179688 L 361.390625 179.660156 C 363.878906 177.179688 363.878906 177.167969 366.371094 174.6875 L 363.890625 169.46875 C 364.742188 167.425781 365.167969 166.394531 366.019531 164.351562 Z M 345.605469 169.726562 C 339.621094 169.726562 334.769531 164.859375 334.769531 158.878906 C 334.769531 152.894531 339.632812 148.039062 345.613281 148.039062 C 351.597656 148.039062 356.449219 152.90625 356.449219 158.890625 C 356.449219 164.871094 351.597656 169.738281 345.605469 169.726562 Z M 345.605469 169.726562 " fill-opacity="1" fill-rule="nonzero"/></g><path fill="#000000" d="M 170.554688 188.75 L 168.054688 189.941406 C 167.074219 189.539062 166.574219 189.324219 165.59375 188.921875 L 164.667969 186.300781 C 162.976562 186.300781 162.976562 186.300781 161.285156 186.300781 L 160.359375 188.910156 C 159.378906 189.3125 158.878906 189.515625 157.898438 189.929688 L 155.398438 188.738281 C 154.207031 189.929688 154.195312 189.929688 153.003906 191.132812 L 154.195312 193.636719 C 153.789062 194.617188 153.578125 195.117188 153.171875 196.09375 L 150.554688 197.023438 C 150.554688 198.714844 150.554688 198.714844 150.554688 200.40625 L 153.164062 201.332031 C 153.566406 202.3125 153.769531 202.8125 154.183594 203.792969 L 152.980469 206.304688 C 154.175781 207.496094 154.175781 207.507812 155.375 208.699219 L 157.878906 207.507812 C 158.859375 207.910156 159.359375 208.125 160.335938 208.53125 L 161.261719 211.148438 C 162.957031 211.148438 162.957031 211.148438 164.648438 211.148438 L 165.574219 208.539062 C 166.554688 208.136719 167.054688 207.933594 168.03125 207.519531 L 170.535156 208.710938 C 171.726562 207.519531 171.738281 207.519531 172.929688 206.316406 L 171.738281 203.8125 C 172.140625 202.835938 172.355469 202.332031 172.757812 201.355469 L 175.375 200.429688 C 175.375 198.734375 175.375 198.734375 175.375 197.042969 L 172.769531 196.117188 C 172.363281 195.136719 172.164062 194.636719 171.746094 193.65625 L 172.9375 191.15625 C 171.746094 189.941406 171.746094 189.941406 170.554688 188.75 Z M 162.957031 203.929688 C 160.082031 203.929688 157.75 201.597656 157.75 198.714844 C 157.75 195.828125 160.082031 193.507812 162.964844 193.507812 C 165.839844 193.507812 168.171875 195.839844 168.171875 198.726562 C 168.171875 201.597656 165.828125 203.929688 162.957031 203.929688 Z M 162.957031 203.929688 " fill-opacity="1" fill-rule="nonzero"/><path fill="#000000" d="M 240.261719 196.414062 C 240.261719 194.722656 240.261719 194.722656 240.261719 193.03125 L 237.652344 192.101562 C 237.25 191.125 237.046875 190.625 236.632812 189.644531 L 237.824219 187.140625 C 236.632812 185.949219 236.632812 185.9375 235.429688 184.746094 L 232.929688 185.9375 C 231.949219 185.535156 231.449219 185.320312 230.46875 184.917969 L 229.542969 182.296875 C 227.851562 182.296875 227.851562 182.296875 226.160156 182.296875 L 225.234375 184.90625 C 224.253906 185.3125 223.753906 185.511719 222.773438 185.929688 L 220.273438 184.738281 C 219.082031 185.929688 219.070312 185.929688 217.878906 187.132812 L 219.070312 189.632812 C 218.664062 190.613281 218.453125 191.113281 218.046875 192.09375 L 215.429688 193.019531 C 215.429688 194.710938 215.429688 194.710938 215.429688 196.402344 L 218.039062 197.332031 C 218.441406 198.308594 218.644531 198.808594 219.058594 199.789062 L 217.867188 202.292969 C 219.058594 203.484375 219.058594 203.492188 220.261719 204.6875 L 222.761719 203.492188 C 223.742188 203.898438 224.242188 204.113281 225.222656 204.515625 L 226.148438 207.136719 C 227.839844 207.136719 227.839844 207.136719 229.53125 207.136719 L 230.457031 204.527344 C 231.4375 204.121094 231.9375 203.921875 232.917969 203.503906 L 235.417969 204.695312 C 236.609375 203.503906 236.621094 203.503906 237.8125 202.300781 L 236.621094 199.800781 C 237.027344 198.820312 237.238281 198.320312 237.644531 197.339844 Z M 227.839844 199.917969 C 224.964844 199.917969 222.636719 197.585938 222.636719 194.699219 C 222.636719 191.816406 224.964844 189.496094 227.851562 189.496094 C 230.726562 189.496094 233.054688 191.828125 233.054688 194.710938 C 233.054688 197.597656 230.714844 199.917969 227.839844 199.917969 Z M 227.839844 199.917969 " fill-opacity="1" fill-rule="nonzero"/><path fill="#000000" d="M 185.222656 129.613281 C 184.242188 130.019531 183.742188 130.21875 182.761719 130.636719 L 180.261719 129.441406 C 179.070312 130.636719 179.058594 130.636719 177.867188 131.839844 L 179.058594 134.339844 C 178.65625 135.320312 178.441406 135.820312 178.039062 136.800781 L 175.417969 137.726562 C 175.417969 139.417969 175.417969 139.417969 175.417969 141.109375 L 178.027344 142.035156 C 178.429688 143.015625 178.632812 143.515625 179.050781 144.496094 L 177.855469 146.996094 C 179.050781 148.191406 179.050781 148.199219 180.25 149.394531 L 182.753906 148.199219 C 183.730469 148.605469 184.234375 148.816406 185.210938 149.222656 L 186.136719 151.839844 C 187.832031 151.839844 187.832031 151.839844 189.523438 151.839844 L 190.449219 149.234375 C 191.425781 148.828125 191.929688 148.625 192.90625 148.210938 L 195.410156 149.402344 C 196.601562 148.210938 196.609375 148.210938 197.804688 147.007812 L 196.609375 144.507812 C 197.015625 143.527344 197.230469 143.027344 197.632812 142.046875 L 200.25 141.121094 C 200.25 139.429688 200.25 139.429688 200.25 137.734375 L 197.644531 136.808594 C 197.238281 135.832031 197.035156 135.328125 196.621094 134.351562 L 197.8125 131.847656 C 196.621094 130.65625 196.621094 130.644531 195.417969 129.453125 L 192.917969 130.644531 C 191.9375 130.242188 191.4375 130.027344 190.460938 129.625 L 189.53125 127.003906 C 187.839844 127.003906 187.839844 127.003906 186.148438 127.003906 Z M 193.046875 139.429688 C 193.046875 142.304688 190.714844 144.632812 187.832031 144.632812 C 184.957031 144.632812 182.625 142.304688 182.625 139.417969 C 182.625 136.53125 184.957031 134.210938 187.839844 134.210938 C 190.714844 134.222656 193.046875 136.554688 193.046875 139.429688 Z M 193.046875 139.429688 " fill-opacity="1" fill-rule="nonzero"/><path fill="#000000" d="M 157.921875 120.394531 L 45.703125 120.320312 C 43.648438 120.320312 41.976562 121.980469 41.976562 124.046875 L 41.882812 252.804688 C 41.882812 254.859375 43.542969 256.53125 45.605469 256.53125 L 281.261719 256.699219 C 283.316406 256.699219 284.988281 255.039062 284.988281 252.976562 L 285.03125 190.390625 L 277.578125 190.390625 L 277.570312 191.964844 L 277.527344 249.25 L 49.320312 249.089844 L 49.386719 154.429688 L 142.847656 154.492188 L 142.847656 154.511719 L 165.148438 154.523438 L 165.148438 147.070312 L 156.460938 147.0625 C 156.460938 147.050781 156.472656 147.039062 156.472656 147.039062 L 49.417969 146.976562 L 49.425781 127.78125 L 164.742188 127.867188 C 164.742188 127.855469 164.753906 127.847656 164.753906 127.847656 L 171.121094 127.847656 L 171.121094 120.394531 Z M 157.921875 120.394531 " fill-opacity="1" fill-rule="nonzero"/><g clip-path="url(#c2467176d1)"><path fill="#000000" d="M 304.371094 184.566406 L 304.304688 268.570312 L 13.878906 268.367188 L 13.992188 104.5625 C 13.992188 98.167969 19.199219 92.972656 25.597656 92.980469 L 181.261719 93.089844 L 181.261719 93.152344 L 188.875 93.164062 L 188.882812 82.453125 L 25.605469 82.335938 C 13.34375 82.324219 3.359375 92.300781 3.351562 104.5625 L 3.222656 296.304688 C 3.210938 308.566406 13.183594 318.550781 25.445312 318.5625 L 117.835938 318.625 L 108.234375 346.144531 L 82.359375 346.125 C 79.421875 346.125 77.039062 348.507812 77.039062 351.449219 C 77.039062 354.386719 79.421875 356.769531 82.359375 356.769531 L 228.585938 356.875 C 231.523438 356.875 233.90625 354.492188 233.90625 351.554688 C 233.90625 348.617188 231.523438 346.230469 228.585938 346.230469 L 199.953125 346.210938 L 190.382812 318.679688 L 292.683594 318.753906 C 304.945312 318.765625 314.929688 308.789062 314.941406 296.527344 L 315.015625 183.574219 L 304.414062 183.566406 Z M 188.523438 345.773438 L 119.644531 345.71875 L 129.074219 318.691406 L 179.125 318.722656 Z M 304.285156 296.515625 C 304.285156 302.914062 299.078125 308.109375 292.683594 308.097656 L 25.445312 307.90625 C 19.050781 307.90625 13.855469 302.699219 13.867188 296.304688 L 13.878906 279.003906 L 304.304688 279.207031 Z M 304.285156 296.515625 " fill-opacity="1" fill-rule="nonzero"/></g><path fill="#000000" d="M 66.191406 175.632812 L 140.902344 175.632812 L 140.902344 179.894531 L 66.191406 179.894531 Z M 66.191406 175.632812 " fill-opacity="1" fill-rule="nonzero"/><path fill="#000000" d="M 66.179688 200.109375 L 140.890625 200.109375 L 140.890625 204.367188 L 66.179688 204.367188 Z M 66.179688 200.109375 " fill-opacity="1" fill-rule="nonzero"/><path fill="#000000" d="M 66.160156 226.722656 L 140.871094 226.722656 L 140.871094 230.980469 L 66.160156 230.980469 Z M 66.160156 226.722656 " fill-opacity="1" fill-rule="nonzero"/><path fill="#000000" d="M 160.519531 293.746094 C 160.519531 294.253906 160.46875 294.757812 160.371094 295.253906 C 160.269531 295.75 160.125 296.234375 159.929688 296.703125 C 159.738281 297.167969 159.5 297.613281 159.21875 298.035156 C 158.9375 298.457031 158.617188 298.847656 158.257812 299.207031 C 157.898438 299.5625 157.507812 299.882812 157.089844 300.164062 C 156.667969 300.445312 156.222656 300.683594 155.753906 300.878906 C 155.285156 301.074219 154.804688 301.21875 154.304688 301.316406 C 153.808594 301.417969 153.308594 301.464844 152.800781 301.464844 C 152.292969 301.464844 151.792969 301.417969 151.296875 301.316406 C 150.796875 301.21875 150.316406 301.074219 149.847656 300.878906 C 149.378906 300.683594 148.933594 300.445312 148.515625 300.164062 C 148.09375 299.882812 147.703125 299.5625 147.34375 299.207031 C 146.984375 298.847656 146.667969 298.457031 146.382812 298.035156 C 146.101562 297.613281 145.867188 297.167969 145.671875 296.703125 C 145.476562 296.234375 145.332031 295.75 145.234375 295.253906 C 145.132812 294.757812 145.085938 294.253906 145.085938 293.746094 C 145.085938 293.242188 145.132812 292.738281 145.234375 292.242188 C 145.332031 291.746094 145.476562 291.261719 145.671875 290.792969 C 145.867188 290.324219 146.101562 289.882812 146.382812 289.460938 C 146.667969 289.039062 146.984375 288.648438 147.34375 288.289062 C 147.703125 287.933594 148.09375 287.613281 148.515625 287.332031 C 148.933594 287.050781 149.378906 286.8125 149.847656 286.617188 C 150.316406 286.421875 150.796875 286.277344 151.296875 286.179688 C 151.792969 286.078125 152.292969 286.03125 152.800781 286.03125 C 153.308594 286.03125 153.808594 286.078125 154.304688 286.179688 C 154.804688 286.277344 155.285156 286.421875 155.753906 286.617188 C 156.222656 286.8125 156.667969 287.050781 157.089844 287.332031 C 157.507812 287.613281 157.898438 287.933594 158.257812 288.289062 C 158.617188 288.648438 158.9375 289.039062 159.21875 289.460938 C 159.5 289.882812 159.738281 290.324219 159.929688 290.792969 C 160.125 291.261719 160.269531 291.746094 160.371094 292.242188 C 160.46875 292.738281 160.519531 293.242188 160.519531 293.746094 Z M 160.519531 293.746094 " fill-opacity="1" fill-rule="nonzero"/></svg>