<svg width="66" height="52" viewBox="0 0 66 52" fill="none" xmlns="http://www.w3.org/2000/svg">
<g filter="url(#filter0_d_354_62)">
<path d="M56.1429 0H9.85714C8.83417 0 7.85309 0.400606 7.12973 1.11369C6.40638 1.82677 6 2.79392 6 3.80238V11.621V34.1976C6 35.2061 6.40638 36.1732 7.12973 36.8863C7.85309 37.5994 8.83417 38 9.85714 38H56.1429C57.1658 38 58.1469 37.5994 58.8703 36.8863C59.5936 36.1732 60 35.2061 60 34.1976V3.80238C60 2.79392 59.5936 1.82677 58.8703 1.11369C58.1469 0.400606 57.1658 0 56.1429 0ZM34.9286 30.419H31.0714C30.5599 30.419 30.0694 30.2187 29.7077 29.8622C29.346 29.5056 29.1429 29.0221 29.1429 28.5178C29.1429 28.0136 29.346 27.53 29.7077 27.1735C30.0694 26.8169 30.5599 26.6166 31.0714 26.6166H34.9286C35.4401 26.6166 35.9306 26.8169 36.2923 27.1735C36.654 27.53 36.8571 28.0136 36.8571 28.5178C36.8571 29.0221 36.654 29.5056 36.2923 29.8622C35.9306 30.2187 35.4401 30.419 34.9286 30.419ZM50.3571 30.419H42.6429C42.1314 30.419 41.6408 30.2187 41.2792 29.8622C40.9175 29.5056 40.7143 29.0221 40.7143 28.5178C40.7143 28.0136 40.9175 27.53 41.2792 27.1735C41.6408 26.8169 42.1314 26.6166 42.6429 26.6166H50.3571C50.8686 26.6166 51.3592 26.8169 51.7209 27.1735C52.0825 27.53 52.2857 28.0136 52.2857 28.5178C52.2857 29.0221 52.0825 29.5056 51.7209 29.8622C51.3592 30.2187 50.8686 30.419 50.3571 30.419ZM9.85714 9.71983V3.80238H56.1429V9.71983H9.85714Z" fill="#E6C7FF"/>
<path d="M9.35714 9.71983V10.2198H9.85714H56.1429H56.6429V9.71983V3.80238V3.30238H56.1429H9.85714H9.35714V3.80238V9.71983ZM9.85714 0.5H56.1429C57.0355 0.5 57.8902 0.849639 58.5193 1.46976C59.1481 2.08965 59.5 2.92886 59.5 3.80238V34.1976C59.5 35.0711 59.1481 35.9104 58.5193 36.5302C57.8902 37.1504 57.0355 37.5 56.1429 37.5H9.85714C8.96448 37.5 8.1098 37.1504 7.48075 36.5302C6.85193 35.9104 6.5 35.0711 6.5 34.1976V11.621V3.80238C6.5 2.92886 6.85193 2.08965 7.48075 1.46976C8.1098 0.849639 8.96448 0.5 9.85714 0.5ZM31.0714 30.919H34.9286C35.5704 30.919 36.1873 30.6677 36.6433 30.2182C37.0995 29.7685 37.3571 29.157 37.3571 28.5178C37.3571 27.8787 37.0995 27.2672 36.6433 26.8174C36.1873 26.3679 35.5704 26.1166 34.9286 26.1166H31.0714C30.4296 26.1166 29.8127 26.3679 29.3567 26.8174C28.9005 27.2672 28.6429 27.8787 28.6429 28.5178C28.6429 29.157 28.9005 29.7685 29.3567 30.2182C29.8127 30.6677 30.4296 30.919 31.0714 30.919ZM42.6429 30.919H50.3571C50.999 30.919 51.6159 30.6677 52.0719 30.2182C52.5281 29.7685 52.7857 29.157 52.7857 28.5178C52.7857 27.8787 52.5281 27.2672 52.0719 26.8174C51.6159 26.3679 50.999 26.1166 50.3571 26.1166H42.6429C42.0011 26.1166 41.3841 26.3679 40.9281 26.8174C40.4719 27.2672 40.2143 27.8787 40.2143 28.5178C40.2143 29.157 40.4719 29.7685 40.9281 30.2182C41.3841 30.6677 42.0011 30.919 42.6429 30.919Z" stroke="white"/>
</g>
<defs>
<filter id="filter0_d_354_62" x="0" y="0" width="66" height="52" filterUnits="userSpaceOnUse" color-interpolation-filters="sRGB">
<feFlood flood-opacity="0" result="BackgroundImageFix"/>
<feColorMatrix in="SourceAlpha" type="matrix" values="0 0 0 0 0 0 0 0 0 0 0 0 0 0 0 0 0 0 127 0" result="hardAlpha"/>
<feOffset dy="8"/>
<feGaussianBlur stdDeviation="3"/>
<feComposite in2="hardAlpha" operator="out"/>
<feColorMatrix type="matrix" values="0 0 0 0 0.630833 0 0 0 0 0.413333 0 0 0 0 0.8 0 0 0 1 0"/>
<feBlend mode="normal" in2="BackgroundImageFix" result="effect1_dropShadow_354_62"/>
<feBlend mode="normal" in="SourceGraphic" in2="effect1_dropShadow_354_62" result="shape"/>
</filter>
</defs>
</svg>
