<svg width="54" height="39" viewBox="0 0 54 39" fill="none" xmlns="http://www.w3.org/2000/svg">
<path d="M3.35714 9.72373V10.2237H3.85714H50.1429H50.6429V9.72373V3.80628V3.30628H50.1429H3.85714H3.35714V3.80628V9.72373ZM3.85714 0.503906H50.1429C51.0355 0.503906 51.8902 0.853546 52.5193 1.47367C53.1481 2.09355 53.5 2.93276 53.5 3.80628V34.2015C53.5 35.0751 53.1481 35.9143 52.5193 36.5341C51.8902 37.1543 51.0355 37.5039 50.1429 37.5039H3.85714C2.96448 37.5039 2.1098 37.1543 1.48075 36.5341C0.851935 35.9143 0.5 35.0751 0.5 34.2015V11.6249V3.80628C0.5 2.93276 0.851935 2.09355 1.48075 1.47367C2.1098 0.853546 2.96448 0.503906 3.85714 0.503906ZM25.0714 30.9229H28.9286C29.5704 30.9229 30.1873 30.6717 30.6433 30.2221C31.0995 29.7724 31.3571 29.1609 31.3571 28.5217C31.3571 27.8826 31.0995 27.2711 30.6433 26.8213C30.1873 26.3718 29.5704 26.1205 28.9286 26.1205H25.0714C24.4296 26.1205 23.8127 26.3718 23.3567 26.8213C22.9005 27.2711 22.6429 27.8826 22.6429 28.5217C22.6429 29.1609 22.9005 29.7724 23.3567 30.2221C23.8127 30.6717 24.4296 30.9229 25.0714 30.9229ZM36.6429 30.9229H44.3571C44.999 30.9229 45.6159 30.6717 46.0719 30.2221C46.5281 29.7724 46.7857 29.1609 46.7857 28.5217C46.7857 27.8826 46.5281 27.2711 46.0719 26.8213C45.6159 26.3718 44.999 26.1205 44.3571 26.1205H36.6429C36.001 26.1205 35.3841 26.3718 34.9281 26.8213C34.4719 27.2711 34.2143 27.8826 34.2143 28.5217C34.2143 29.1609 34.4719 29.7724 34.9281 30.2221C35.3841 30.6717 36.001 30.9229 36.6429 30.9229Z" fill="white" stroke="white"/>
</svg>
