<svg width="24" height="22" viewBox="0 0 24 22" fill="none" xmlns="http://www.w3.org/2000/svg">
<path d="M11.1056 0.788013C11.4742 0.0511518 12.5258 0.0511516 12.8944 0.788013L15.619 6.23522C15.7646 6.5262 16.0426 6.72818 16.3643 6.77669L22.3869 7.68472C23.2016 7.80755 23.5265 8.80765 22.9396 9.38589L18.601 13.6605C18.3692 13.8888 18.263 14.2156 18.3163 14.5366L19.3138 20.545C19.4487 21.3578 18.598 21.9759 17.8667 21.5964L12.4606 18.791C12.1718 18.6412 11.8282 18.6412 11.5394 18.791L6.13331 21.5964C5.40201 21.9759 4.55128 21.3578 4.68621 20.545L5.68369 14.5366C5.73698 14.2156 5.63079 13.8888 5.39902 13.6605L1.0604 9.38589C0.473495 8.80765 0.798446 7.80755 1.61314 7.68472L7.6357 6.77669C7.95742 6.72818 8.23543 6.5262 8.38097 6.23522L11.1056 0.788013Z" fill="#FFB546"/>
</svg>
