<svg width="152" height="40" viewBox="0 0 152 40" fill="none" xmlns="http://www.w3.org/2000/svg">
<circle cx="20" cy="20" r="20" fill="#0068FC"/>
<mask id="mask0_783_291" style="mask-type:alpha" maskUnits="userSpaceOnUse" x="0" y="0" width="40" height="40">
<circle cx="20" cy="20" r="20" fill="#E24329"/>
</mask>
<g mask="url(#mask0_783_291)">
<ellipse cx="2.59295" cy="8.8886" rx="17.4074" ry="17.037" fill="#09CD3F"/>
<circle cx="34.8154" cy="29.6298" r="18.5185" fill="#45A6FF"/>
</g>
<path d="M61.2339 30L57.6245 18.2388H57.5322C57.5459 18.519 57.5664 18.9429 57.5938 19.5103C57.6279 20.0708 57.6587 20.6689 57.686 21.3047C57.7134 21.9404 57.7271 22.5146 57.7271 23.0273V30H54.8867V15.0088H59.2139L62.7617 26.4727H62.8232L66.5864 15.0088H70.9136V30H67.9502V22.9043C67.9502 22.4326 67.957 21.8892 67.9707 21.2739C67.9912 20.6587 68.0151 20.0742 68.0425 19.5205C68.0698 18.96 68.0903 18.5396 68.104 18.2593H68.0117L64.146 30H61.2339ZM84.9717 18.5361V30H82.5723L82.1519 28.5337H81.9878C81.7417 28.9233 81.4341 29.2412 81.0649 29.4873C80.6958 29.7334 80.2891 29.9146 79.8447 30.0308C79.4004 30.147 78.939 30.2051 78.4604 30.2051C77.6401 30.2051 76.9258 30.0615 76.3174 29.7744C75.709 29.4805 75.2339 29.0259 74.8921 28.4106C74.5571 27.7954 74.3896 26.9956 74.3896 26.0112V18.5361H77.5171V25.2319C77.5171 26.0522 77.6641 26.6709 77.958 27.0879C78.252 27.5049 78.7202 27.7134 79.3628 27.7134C79.9985 27.7134 80.4976 27.5698 80.8599 27.2827C81.2222 26.9888 81.4751 26.5615 81.6187 26.001C81.769 25.4336 81.8442 24.7432 81.8442 23.9297V18.5361H84.9717ZM91.3804 30H88.2529V14.0449H91.3804V30ZM99.5015 27.7134C99.8433 27.7134 100.175 27.6792 100.496 27.6108C100.824 27.5425 101.149 27.457 101.47 27.3545V29.6821C101.135 29.8325 100.718 29.9556 100.219 30.0513C99.7271 30.1538 99.187 30.2051 98.5991 30.2051C97.9155 30.2051 97.3003 30.0957 96.7534 29.877C96.2134 29.6514 95.7861 29.2651 95.4717 28.7183C95.1641 28.1646 95.0103 27.3955 95.0103 26.4111V20.8843H93.5132V19.5615L95.2358 18.5156L96.1382 16.0957H98.1377V18.5361H101.347V20.8843H98.1377V26.4111C98.1377 26.8486 98.2607 27.1768 98.5068 27.3955C98.7598 27.6074 99.0913 27.7134 99.5015 27.7134ZM106.925 18.5361V30H103.798V18.5361H106.925ZM105.367 14.0449C105.832 14.0449 106.231 14.1543 106.566 14.373C106.901 14.585 107.069 14.9849 107.069 15.5728C107.069 16.1538 106.901 16.5571 106.566 16.7827C106.231 17.0015 105.832 17.1108 105.367 17.1108C104.895 17.1108 104.492 17.0015 104.157 16.7827C103.829 16.5571 103.665 16.1538 103.665 15.5728C103.665 14.9849 103.829 14.585 104.157 14.373C104.492 14.1543 104.895 14.0449 105.367 14.0449ZM119.64 30L118.758 25.9907C118.71 25.7515 118.632 25.3994 118.522 24.9346C118.413 24.4629 118.293 23.9604 118.164 23.4272C118.041 22.8872 117.924 22.3882 117.815 21.9302C117.712 21.4722 117.637 21.1372 117.589 20.9253H117.497C117.449 21.1372 117.374 21.4722 117.271 21.9302C117.169 22.3882 117.053 22.8872 116.923 23.4272C116.8 23.9673 116.684 24.4766 116.574 24.9551C116.465 25.4268 116.383 25.7856 116.328 26.0317L115.405 30H112.042L108.781 18.5361H111.898L113.221 23.6118C113.31 23.9673 113.396 24.3911 113.478 24.8833C113.56 25.3687 113.631 25.8403 113.693 26.2983C113.761 26.7495 113.812 27.1084 113.847 27.375H113.929C113.942 27.1768 113.97 26.9136 114.011 26.5854C114.059 26.2573 114.11 25.9189 114.165 25.5703C114.226 25.2148 114.281 24.897 114.329 24.6167C114.383 24.3296 114.424 24.1348 114.452 24.0322L115.867 18.5361H119.312L120.655 24.0322C120.703 24.2305 120.765 24.5449 120.84 24.9756C120.922 25.4062 120.994 25.8506 121.055 26.3086C121.117 26.7598 121.151 27.1152 121.158 27.375H121.24C121.267 27.1426 121.315 26.7974 121.383 26.3394C121.452 25.8813 121.53 25.4028 121.619 24.9038C121.715 24.3979 121.811 23.9673 121.906 23.6118L123.28 18.5361H126.346L123.044 30H119.64ZM132.898 18.3003C134.437 18.3003 135.616 18.6353 136.436 19.3052C137.256 19.9751 137.667 20.9937 137.667 22.3608V30H135.482L134.877 28.4414H134.795C134.467 28.8516 134.132 29.1865 133.791 29.4463C133.449 29.7061 133.056 29.8975 132.611 30.0205C132.167 30.1436 131.627 30.2051 130.991 30.2051C130.314 30.2051 129.706 30.0752 129.166 29.8154C128.633 29.5557 128.212 29.1592 127.905 28.626C127.597 28.0859 127.443 27.4023 127.443 26.5752C127.443 25.3584 127.871 24.4629 128.725 23.8887C129.58 23.3076 130.861 22.9863 132.57 22.9248L134.56 22.8633V22.3608C134.56 21.7593 134.402 21.3184 134.088 21.0381C133.773 20.7578 133.336 20.6177 132.775 20.6177C132.222 20.6177 131.678 20.6963 131.145 20.8535C130.612 21.0107 130.079 21.209 129.545 21.4482L128.51 19.3359C129.118 19.0146 129.798 18.7617 130.55 18.5771C131.309 18.3926 132.092 18.3003 132.898 18.3003ZM134.56 24.6885L133.35 24.7295C132.338 24.7568 131.634 24.938 131.237 25.2729C130.848 25.6079 130.653 26.0488 130.653 26.5957C130.653 27.0742 130.793 27.416 131.073 27.6211C131.354 27.8193 131.719 27.9185 132.17 27.9185C132.84 27.9185 133.404 27.7202 133.862 27.3237C134.327 26.9272 134.56 26.3633 134.56 25.6318V24.6885ZM139.256 18.5361H142.681L144.844 24.9858C144.913 25.1909 144.971 25.3994 145.019 25.6113C145.066 25.8232 145.107 26.042 145.142 26.2676C145.176 26.4932 145.203 26.729 145.224 26.9751H145.285C145.326 26.606 145.381 26.2607 145.449 25.9395C145.524 25.6182 145.617 25.3003 145.726 24.9858L147.849 18.5361H151.202L146.352 31.4663C146.058 32.2593 145.675 32.9189 145.203 33.4453C144.731 33.9785 144.188 34.3784 143.573 34.645C142.964 34.9116 142.294 35.0449 141.563 35.0449C141.208 35.0449 140.9 35.0244 140.64 34.9834C140.38 34.9492 140.158 34.9116 139.974 34.8706V32.3892C140.117 32.4233 140.298 32.4541 140.517 32.4814C140.736 32.5088 140.965 32.5225 141.204 32.5225C141.642 32.5225 142.018 32.4302 142.332 32.2456C142.646 32.061 142.91 31.8115 143.122 31.4971C143.333 31.1895 143.501 30.8511 143.624 30.4819L143.809 29.918L139.256 18.5361Z" fill="#303030"/>
</svg>
