<svg width="45" height="40" viewBox="0 0 45 40" fill="none" xmlns="http://www.w3.org/2000/svg">
<path d="M41.4 7.27273H5.4C4.92261 7.27273 4.46477 7.08117 4.12721 6.74019C3.78964 6.39922 3.6 5.93676 3.6 5.45455C3.6 4.97233 3.78964 4.50987 4.12721 4.1689C4.46477 3.82792 4.92261 3.63636 5.4 3.63636H36C36.4774 3.63636 36.9352 3.44481 37.2728 3.10383C37.6104 2.76286 37.8 2.30039 37.8 1.81818C37.8 1.33597 37.6104 0.873509 37.2728 0.532533C36.9352 0.191558 36.4774 0 36 0H5.4C3.96965 0.00598266 2.59958 0.582578 1.58817 1.60421C0.576752 2.62584 0.00592283 4.00975 0 5.45455V34.5455C0.00592283 35.9902 0.576752 37.3742 1.58817 38.3958C2.59958 39.4174 3.96965 39.994 5.4 40H41.4C42.3548 40 43.2705 39.6169 43.9456 38.9349C44.6207 38.253 45 37.3281 45 36.3636V10.9091C45 9.94467 44.6207 9.01974 43.9456 8.33779C43.2705 7.65584 42.3548 7.27273 41.4 7.27273ZM33.3 26.3636C32.766 26.3636 32.244 26.2037 31.8 25.904C31.3559 25.6043 31.0099 25.1784 30.8055 24.68C30.6012 24.1817 30.5477 23.6333 30.6519 23.1043C30.7561 22.5753 31.0132 22.0893 31.3908 21.7079C31.7684 21.3265 32.2495 21.0667 32.7733 20.9615C33.297 20.8563 33.8399 20.9103 34.3332 21.1167C34.8266 21.3231 35.2483 21.6727 35.545 22.1212C35.8416 22.5697 36 23.097 36 23.6364C36 24.3597 35.7155 25.0534 35.2092 25.5648C34.7028 26.0763 34.0161 26.3636 33.3 26.3636Z" fill="white"/>
</svg>
