<svg width="60" height="66" viewBox="0 0 60 66" fill="none" xmlns="http://www.w3.org/2000/svg">
<path d="M22.9651 61.4404L38.8909 61.4404" stroke="#E2B406" stroke-width="4" stroke-linecap="round" stroke-linejoin="round"/>
<g filter="url(#filter0_d_354_83)">
<path d="M15.8575 42.1309C13.0529 39.9502 10.7814 37.1597 9.21512 33.971C7.64881 30.7823 6.82878 27.2789 6.81715 23.7262C6.75825 10.946 17.0354 0.315499 29.8156 0.0210239C34.7618 -0.0962289 39.6194 1.34676 43.6994 4.14534C47.7794 6.94391 50.8748 10.956 52.5464 15.6126C54.2181 20.2692 54.3813 25.334 53.0128 30.0885C51.6443 34.8431 48.8136 39.0461 44.9222 42.1015C44.0626 42.7659 43.3663 43.6182 42.8865 44.593C42.4067 45.5678 42.1562 46.6394 42.1541 47.7259V49.4928C42.1541 50.1176 41.9059 50.7168 41.4641 51.1586C41.0223 51.6004 40.4231 51.8486 39.7983 51.8486H20.9519C20.3271 51.8486 19.7279 51.6004 19.2861 51.1586C18.8443 50.7168 18.5961 50.1176 18.5961 49.4928V47.7259C18.5888 46.6476 18.3388 45.5848 17.8647 44.6162C17.3906 43.6477 16.7046 42.7982 15.8575 42.1309Z" fill="#FFEFB0"/>
<path d="M16.1669 41.7381L16.1644 41.7362C13.4197 39.602 11.1968 36.8712 9.6639 33.7506C8.13104 30.6299 7.32853 27.2014 7.31714 23.7246L7.31714 23.7239C7.25949 11.2145 17.3211 0.809048 29.8271 0.520891L29.8275 0.520883C34.6687 0.406119 39.4232 1.81848 43.4166 4.55766C47.41 7.29684 50.4396 11.2238 52.0759 15.7816C53.7121 20.3393 53.8718 25.2966 52.5323 29.9502C51.193 34.6033 48.4229 38.7167 44.6147 41.7072C43.6955 42.4181 42.951 43.3296 42.4379 44.3722C41.9245 45.4154 41.6564 46.5622 41.6541 47.725V47.7259V49.4928C41.6541 49.985 41.4586 50.457 41.1106 50.805C40.7625 51.1531 40.2905 51.3486 39.7983 51.3486H20.9519C20.4597 51.3486 19.9877 51.1531 19.6397 50.805C19.2917 50.457 19.0961 49.985 19.0961 49.4928L19.0961 47.7259L19.0961 47.7225C19.0882 46.5691 18.8208 45.4323 18.3138 44.3964C17.8067 43.3604 17.073 42.4519 16.1669 41.7381Z" stroke="white"/>
</g>
<path d="M32.7603 9.67969C35.6396 10.1678 38.2964 11.5375 40.364 13.5999C42.4317 15.6623 43.8082 18.3156 44.3037 21.1937" stroke="#E2B406" stroke-width="4" stroke-linecap="round" stroke-linejoin="round"/>
<defs>
<filter id="filter0_d_354_83" x="0.816895" y="0.0144043" width="59.115" height="65.8342" filterUnits="userSpaceOnUse" color-interpolation-filters="sRGB">
<feFlood flood-opacity="0" result="BackgroundImageFix"/>
<feColorMatrix in="SourceAlpha" type="matrix" values="0 0 0 0 0 0 0 0 0 0 0 0 0 0 0 0 0 0 127 0" result="hardAlpha"/>
<feOffset dy="8"/>
<feGaussianBlur stdDeviation="3"/>
<feComposite in2="hardAlpha" operator="out"/>
<feColorMatrix type="matrix" values="0 0 0 0 0.8875 0 0 0 0 0.706229 0 0 0 0 0.0221875 0 0 0 1 0"/>
<feBlend mode="normal" in2="BackgroundImageFix" result="effect1_dropShadow_354_83"/>
<feBlend mode="normal" in="SourceGraphic" in2="effect1_dropShadow_354_83" result="shape"/>
</filter>
</defs>
</svg>
