<svg width="65" height="53" viewBox="0 0 65 53" fill="none" xmlns="http://www.w3.org/2000/svg">
<g filter="url(#filter0_d_354_92)">
<path d="M33.74 27.1041C36.3546 25.3673 38.3405 22.8348 39.404 19.8814C40.4674 16.9281 40.5518 13.7109 39.6447 10.7059C38.7375 7.70089 36.887 5.06777 34.3671 3.19621C31.8471 1.32464 28.7915 0.314087 25.6526 0.314087C22.5136 0.314087 19.4581 1.32464 16.9381 3.19621C14.4181 5.06777 12.5677 7.70089 11.6605 10.7059C10.7534 13.7109 10.8377 16.9281 11.9012 19.8814C12.9646 22.8348 14.9506 25.3673 17.5652 27.1041C13.1049 28.7443 9.25393 31.7112 6.53033 35.6056C6.31759 35.8945 6.19097 36.2376 6.1651 36.5954C6.13924 36.9532 6.21519 37.311 6.38418 37.6275C6.55117 37.9418 6.80009 38.2052 7.10457 38.3896C7.40905 38.574 7.75774 38.6726 8.1137 38.6749H43.1915C43.5474 38.6726 43.8961 38.574 44.2006 38.3896C44.5051 38.2052 44.754 37.9418 44.921 37.6275C45.09 37.311 45.1659 36.9532 45.1401 36.5954C45.1142 36.2376 44.9876 35.8945 44.7748 35.6056C42.0512 31.7112 38.2003 28.7443 33.74 27.1041Z" fill="#85F8A5"/>
<path d="M33.4633 26.6877L32.6421 27.2332L33.5674 27.5734C37.9318 29.1783 41.7 32.0814 44.3651 35.8922L44.365 35.8923L44.3722 35.9021C44.529 36.115 44.6223 36.3678 44.6414 36.6315C44.6604 36.8951 44.6045 37.1588 44.4799 37.3919L44.4794 37.3929C44.3547 37.6276 44.1689 37.8242 43.9416 37.9619C43.7147 38.0993 43.455 38.1729 43.1898 38.1749H8.1154C7.85019 38.1729 7.59045 38.0993 7.36359 37.9619L7.10582 38.3875L7.36359 37.9619C7.13626 37.8242 6.95042 37.6276 6.82575 37.3929L6.82523 37.3919C6.70071 37.1588 6.64474 36.8951 6.6638 36.6315C6.68286 36.3678 6.77616 36.115 6.93292 35.9021L6.93304 35.9022L6.94007 35.8922C9.60513 32.0814 13.3733 29.1783 17.7378 27.5734L18.6631 27.2332L17.8419 26.6877C15.3167 25.0102 13.3987 22.5643 12.3716 19.712C11.3446 16.8598 11.2631 13.7526 12.1392 10.8504C13.0153 7.94819 14.8025 5.40515 17.2362 3.59761C19.67 1.79007 22.621 0.814087 25.6526 0.814087C28.6841 0.814087 31.6352 1.79007 34.0689 3.59761C36.5027 5.40515 38.2899 7.94819 39.166 10.8504C40.0421 13.7526 39.9606 16.8598 38.9336 19.712C37.9065 22.5643 35.9885 25.0102 33.4633 26.6877Z" stroke="white"/>
</g>
<path d="M64.6523 35.6056C61.9132 31.7159 58.0562 28.751 53.593 27.1041C56.2159 25.3738 58.2102 22.8431 59.2792 19.8883C60.3482 16.9335 60.4348 13.7126 59.5261 10.7046C58.6174 7.6967 56.762 5.06243 54.2359 3.19372C51.7097 1.325 48.6478 0.321671 45.5056 0.33298C44.1646 0.340093 42.83 0.520217 41.535 0.868891C41.2309 0.96025 40.9529 1.12282 40.7241 1.34312C40.4953 1.56341 40.3224 1.83508 40.2196 2.13559C40.1216 2.43363 40.097 2.75094 40.1479 3.06053C40.1988 3.37012 40.3237 3.66285 40.5119 3.91383C42.715 6.87394 43.9807 10.4262 44.1457 14.1125C44.3107 17.7988 43.3675 21.45 41.4376 24.5951C41.1901 25.013 41.1055 25.5075 41.1999 25.9839C41.2942 26.4603 41.561 26.8852 41.9491 27.1772C42.6799 27.7456 43.3864 28.3302 44.0684 28.9311L44.1902 29.0529C46.7904 31.459 48.8998 34.346 50.4019 37.5544C50.5561 37.8897 50.8033 38.1735 51.1143 38.3722C51.4253 38.5709 51.7868 38.676 52.1558 38.6749H63.0445C63.4005 38.6726 63.7492 38.574 64.0537 38.3896C64.3581 38.2052 64.6071 37.9418 64.774 37.6275C64.941 37.3117 65.0179 36.956 64.9965 36.5995C64.975 36.2429 64.8559 35.8991 64.6523 35.6056Z" fill="#85F8A5"/>
<defs>
<filter id="filter0_d_354_92" x="0.160156" y="0.314087" width="50.9849" height="52.3608" filterUnits="userSpaceOnUse" color-interpolation-filters="sRGB">
<feFlood flood-opacity="0" result="BackgroundImageFix"/>
<feColorMatrix in="SourceAlpha" type="matrix" values="0 0 0 0 0 0 0 0 0 0 0 0 0 0 0 0 0 0 127 0" result="hardAlpha"/>
<feOffset dy="8"/>
<feGaussianBlur stdDeviation="3"/>
<feComposite in2="hardAlpha" operator="out"/>
<feColorMatrix type="matrix" values="0 0 0 0 0.0623437 0 0 0 0 0.554167 0 0 0 0 0.197846 0 0 0 1 0"/>
<feBlend mode="normal" in2="BackgroundImageFix" result="effect1_dropShadow_354_92"/>
<feBlend mode="normal" in="SourceGraphic" in2="effect1_dropShadow_354_92" result="shape"/>
</filter>
</defs>
</svg>
