<svg xmlns="http://www.w3.org/2000/svg" xmlns:xlink="http://www.w3.org/1999/xlink" width="500" zoomAndPan="magnify" viewBox="0 0 375 374.999991" height="500" preserveAspectRatio="xMidYMid meet" version="1.0"><defs><clipPath id="788d7044ff"><path d="M 74.984375 18.617188 L 299.984375 18.617188 L 299.984375 356.117188 L 74.984375 356.117188 Z M 74.984375 18.617188 " clip-rule="nonzero"/></clipPath></defs><g clip-path="url(#788d7044ff)"><path fill="#ffffff" d="M 218.621094 93.738281 C 208.121094 71.609375 185.621094 56.234375 159.367188 56.234375 L 74.984375 56.234375 L 74.984375 18.730469 L 300.007812 18.730469 L 300.007812 56.234375 L 238.875 56.234375 C 247.875 67.109375 254.625 79.863281 258.566406 93.738281 L 300.007812 93.738281 L 300.007812 131.242188 L 262.128906 131.242188 C 257.4375 183.746094 213.183594 225 159.367188 225 L 145.675781 225 L 271.878906 356.265625 L 219.933594 356.265625 L 93.734375 225 L 93.734375 187.496094 L 159.367188 187.496094 C 192.371094 187.496094 219.746094 163.121094 224.25 131.242188 L 74.984375 131.242188 L 74.984375 93.738281 Z M 218.621094 93.738281 " fill-opacity="1" fill-rule="nonzero"/></g></svg>