<svg xmlns="http://www.w3.org/2000/svg" xmlns:xlink="http://www.w3.org/1999/xlink" width="297" zoomAndPan="magnify" viewBox="0 0 222.75 97.5" height="130" preserveAspectRatio="xMidYMid meet" version="1.0"><defs><g/><clipPath id="ae2ed72735"><path d="M 0.445312 61 L 11 61 L 11 67 L 0.445312 67 Z M 0.445312 61 " clip-rule="nonzero"/></clipPath><clipPath id="3609e20f28"><path d="M 0.445312 56 L 13 56 L 13 67 L 0.445312 67 Z M 0.445312 56 " clip-rule="nonzero"/></clipPath><clipPath id="612365bf81"><path d="M 10 41 L 41.484375 41 L 41.484375 76.574219 L 10 76.574219 Z M 10 41 " clip-rule="nonzero"/></clipPath><clipPath id="bdd3f9840d"><path d="M 29 36.28125 L 38 36.28125 L 38 45 L 29 45 Z M 29 36.28125 " clip-rule="nonzero"/></clipPath></defs><g fill="#191f23" fill-opacity="1"><g transform="translate(136.642727, 84.774654)"><g><path d="M 4.78125 -3.953125 C 5.390625 -4.25 5.71875 -4.84375 5.71875 -5.5625 C 5.71875 -6.75 4.828125 -7.578125 3.484375 -7.578125 L 1.1875 -7.578125 L 1.1875 0 L 4.140625 0 C 5.4375 0 6.28125 -0.84375 6.28125 -2.046875 C 6.28125 -3.09375 5.671875 -3.734375 4.78125 -3.953125 Z M 4.8125 -5.515625 C 4.8125 -4.8125 4.34375 -4.25 3.65625 -4.25 L 2.125 -4.25 L 2.125 -6.734375 L 3.484375 -6.734375 C 4.3125 -6.734375 4.8125 -6.203125 4.8125 -5.515625 Z M 3.96875 -0.859375 L 2.125 -0.859375 L 2.125 -3.453125 L 3.90625 -3.453125 C 4.8125 -3.453125 5.34375 -2.890625 5.34375 -2.15625 C 5.34375 -1.453125 4.84375 -0.859375 3.96875 -0.859375 Z M 3.96875 -0.859375 "/></g></g></g><g fill="#191f23" fill-opacity="1"><g transform="translate(144.317008, 84.774654)"><g><path d="M 2.734375 0 L 3.703125 0 L 3.703125 -3.609375 L 6.203125 -7.578125 L 5.109375 -7.578125 L 3.21875 -4.484375 L 1.34375 -7.578125 L 0.234375 -7.578125 L 2.734375 -3.609375 Z M 2.734375 0 "/></g></g></g><g fill="#191f23" fill-opacity="1"><g transform="translate(151.550149, 84.774654)"><g/></g></g><g fill="#191f23" fill-opacity="1"><g transform="translate(155.205754, 84.774654)"><g><path d="M 5.28125 -6.703125 L 5.28125 -7.578125 L 1.1875 -7.578125 L 1.1875 0 L 2.171875 0 L 2.171875 -3.34375 L 4.890625 -3.34375 L 4.890625 -4.21875 L 2.171875 -4.21875 L 2.171875 -6.703125 Z M 5.28125 -6.703125 "/></g></g></g><g fill="#191f23" fill-opacity="1"><g transform="translate(161.718009, 84.774654)"><g><path d="M 1.1875 0 L 2.15625 0 L 2.15625 -7.578125 L 1.1875 -7.578125 Z M 1.1875 0 "/></g></g></g><g fill="#191f23" fill-opacity="1"><g transform="translate(165.852417, 84.774654)"><g><path d="M 6.28125 -7.578125 L 6.28125 -1.46875 L 2.1875 -7.578125 L 1.1875 -7.578125 L 1.1875 0 L 2.140625 0 L 2.140625 -6.125 L 6.21875 0 L 7.234375 0 L 7.234375 -7.578125 Z M 6.28125 -7.578125 "/></g></g></g><g fill="#191f23" fill-opacity="1"><g transform="translate(175.070679, 84.774654)"><g><path d="M 5.4375 -7.125 C 4.984375 -7.421875 4.375 -7.578125 3.515625 -7.578125 L 1.1875 -7.578125 L 1.1875 0 L 2.15625 0 L 2.15625 -2.9375 L 3.515625 -2.9375 C 4.390625 -2.9375 5.03125 -3.125 5.46875 -3.5 C 5.984375 -3.90625 6.25 -4.5625 6.25 -5.375 C 6.25 -6.1875 5.96875 -6.765625 5.4375 -7.125 Z M 4.875 -4.203125 C 4.5625 -3.890625 4.078125 -3.78125 3.390625 -3.78125 L 2.15625 -3.78125 L 2.15625 -6.734375 L 3.390625 -6.734375 C 4.0625 -6.734375 4.53125 -6.671875 4.859375 -6.40625 C 5.109375 -6.203125 5.265625 -5.859375 5.265625 -5.328125 C 5.265625 -4.796875 5.125 -4.4375 4.875 -4.203125 Z M 4.875 -4.203125 "/></g></g></g><g fill="#191f23" fill-opacity="1"><g transform="translate(182.626605, 84.774654)"><g><path d="M 1.1875 0 L 2.15625 0 L 2.15625 -7.578125 L 1.1875 -7.578125 Z M 1.1875 0 "/></g></g></g><g fill="#191f23" fill-opacity="1"><g transform="translate(186.761013, 84.774654)"><g><path d="M 6.40625 0 L 4.53125 -3.046875 C 4.90625 -3.140625 5.21875 -3.296875 5.46875 -3.5 C 5.984375 -3.90625 6.25 -4.5625 6.25 -5.375 C 6.25 -6.1875 5.96875 -6.765625 5.4375 -7.125 C 4.984375 -7.421875 4.375 -7.578125 3.515625 -7.578125 L 1.1875 -7.578125 L 1.1875 0 L 2.15625 0 L 2.15625 -2.9375 L 3.578125 -2.9375 L 5.28125 0 Z M 2.15625 -6.734375 L 3.390625 -6.734375 C 4.0625 -6.734375 4.53125 -6.671875 4.859375 -6.40625 C 5.109375 -6.203125 5.265625 -5.859375 5.265625 -5.328125 C 5.265625 -4.796875 5.125 -4.4375 4.875 -4.203125 C 4.5625 -3.890625 4.078125 -3.78125 3.390625 -3.78125 L 2.15625 -3.78125 Z M 2.15625 -6.734375 "/></g></g></g><g fill="#191f23" fill-opacity="1"><g transform="translate(194.56441, 84.774654)"><g><path d="M 5.25 -6.703125 L 5.25 -7.578125 L 1.1875 -7.578125 L 1.1875 0 L 5.25 0 L 5.25 -0.875 L 2.171875 -0.875 L 2.171875 -3.34375 L 4.890625 -3.34375 L 4.890625 -4.21875 L 2.171875 -4.21875 L 2.171875 -6.703125 Z M 5.25 -6.703125 "/></g></g></g><g clip-path="url(#ae2ed72735)"><path fill="#191f23" d="M 2.691406 61.484375 L 0.460938 65.117188 C 4.617188 64.457031 7.996094 65.019531 10.597656 66.804688 C 8.707031 64.296875 6.070312 62.523438 2.6875 61.484375 Z M 2.691406 61.484375 " fill-opacity="1" fill-rule="evenodd"/></g><g clip-path="url(#3609e20f28)"><path fill="#00abe4" d="M 0.855469 59.582031 C 5.6875 60.230469 9.4375 62.605469 12.105469 66.703125 C 11.441406 62.566406 9.34375 59.273438 5.816406 56.8125 Z M 0.855469 59.582031 " fill-opacity="1" fill-rule="evenodd"/></g><path fill="#191f23" d="M 3.300781 52.785156 C 9.890625 57.035156 13.460938 62.886719 14.011719 70.328125 C 15.113281 64.457031 13.472656 59.199219 9.089844 54.546875 C 12.761719 53.492188 15.589844 51 17.574219 47.070312 C 24.117188 58.46875 22.03125 67.574219 11.320312 74.394531 C 24.886719 69.691406 26.925781 55.359375 17.433594 42.609375 C 15.316406 49.695312 10.609375 53.085938 3.304688 52.785156 Z M 3.300781 52.785156 " fill-opacity="1" fill-rule="evenodd"/><g clip-path="url(#612365bf81)"><path fill="#00abe4" d="M 19.554688 41.03125 C 30.855469 55.335938 27.261719 71.539062 10.925781 76.914062 C 28.054688 75.921875 38.324219 64.980469 41.738281 44.085938 C 37.230469 50.195312 29.835938 49.179688 19.554688 41.03125 Z M 19.554688 41.03125 " fill-opacity="1" fill-rule="evenodd"/></g><g clip-path="url(#bdd3f9840d)"><path fill="#00abe4" d="M 33.683594 44.550781 C 35.960938 44.550781 37.816406 42.695312 37.816406 40.414062 C 37.816406 38.136719 35.960938 36.277344 33.683594 36.277344 C 31.40625 36.277344 29.546875 38.132812 29.546875 40.414062 C 29.546875 42.691406 31.40625 44.550781 33.683594 44.550781 Z M 33.683594 44.550781 " fill-opacity="1" fill-rule="evenodd"/></g><path fill="#191f23" d="M 17.699219 57.933594 C 17.835938 58.167969 17.765625 58.398438 17.480469 58.625 L 16.953125 57.707031 C 17.167969 57.667969 17.335938 57.667969 17.441406 57.703125 C 17.550781 57.738281 17.636719 57.8125 17.703125 57.929688 Z M 15.675781 56.925781 C 15.457031 56.960938 15.300781 56.960938 15.195312 56.925781 C 15.089844 56.882812 15.011719 56.816406 14.953125 56.714844 C 14.890625 56.613281 14.875 56.5 14.90625 56.386719 C 14.9375 56.269531 15.019531 56.15625 15.167969 56.042969 L 15.679688 56.929688 Z M 18.628906 57.328125 C 18.417969 56.960938 18.136719 56.734375 17.78125 56.640625 C 17.429688 56.550781 16.964844 56.582031 16.386719 56.734375 L 15.816406 55.742188 C 15.972656 55.695312 16.140625 55.667969 16.316406 55.660156 C 16.492188 55.648438 16.671875 55.648438 16.851562 55.660156 L 16.847656 54.640625 C 16.597656 54.617188 16.347656 54.625 16.101562 54.65625 C 15.855469 54.691406 15.605469 54.757812 15.347656 54.859375 L 15.121094 54.464844 L 14.4375 54.859375 L 14.65625 55.242188 C 14.464844 55.382812 14.304688 55.535156 14.171875 55.703125 C 14.039062 55.867188 13.945312 56.042969 13.890625 56.222656 C 13.835938 56.40625 13.816406 56.589844 13.839844 56.777344 C 13.859375 56.960938 13.921875 57.148438 14.027344 57.332031 C 14.136719 57.523438 14.265625 57.675781 14.40625 57.789062 C 14.550781 57.902344 14.714844 57.980469 14.890625 58.023438 C 15.070312 58.066406 15.273438 58.078125 15.496094 58.054688 C 15.71875 58.03125 15.964844 57.984375 16.242188 57.914062 L 16.84375 58.960938 C 16.625 59.03125 16.40625 59.074219 16.183594 59.082031 C 15.964844 59.085938 15.726562 59.078125 15.46875 59.042969 L 15.386719 60.085938 C 15.699219 60.128906 16.023438 60.125 16.347656 60.078125 C 16.675781 60.03125 16.992188 59.945312 17.292969 59.816406 L 17.675781 60.476562 L 18.359375 60.082031 L 17.988281 59.433594 C 18.1875 59.292969 18.347656 59.132812 18.480469 58.964844 C 18.609375 58.796875 18.703125 58.621094 18.757812 58.441406 C 18.816406 58.257812 18.832031 58.078125 18.816406 57.886719 C 18.800781 57.699219 18.734375 57.515625 18.628906 57.332031 Z M 18.628906 57.328125 " fill-opacity="1" fill-rule="evenodd"/><g fill="#00abe4" fill-opacity="1"><g transform="translate(46.991423, 68.62393)"><g><path d="M 11.953125 -27.71875 L 11.953125 -2.40625 C 11.953125 -1.75 12.171875 -1.140625 12.609375 -0.703125 C 13.046875 -0.21875 13.640625 0 14.296875 0 C 14.953125 0 15.5 -0.21875 15.984375 -0.703125 C 16.421875 -1.140625 16.703125 -1.75 16.703125 -2.40625 L 16.703125 -27.71875 L 24.21875 -27.71875 C 24.828125 -27.71875 25.375 -27.9375 25.8125 -28.375 C 26.25 -28.8125 26.46875 -29.296875 26.46875 -29.953125 C 26.46875 -30.5625 26.25 -31.09375 25.8125 -31.53125 C 25.375 -31.96875 24.828125 -32.1875 24.21875 -32.1875 L 4.421875 -32.1875 C 3.765625 -32.1875 3.28125 -31.96875 2.84375 -31.53125 C 2.40625 -31.09375 2.1875 -30.5625 2.1875 -29.953125 C 2.1875 -29.296875 2.40625 -28.8125 2.84375 -28.375 C 3.28125 -27.9375 3.765625 -27.71875 4.421875 -27.71875 Z M 11.953125 -27.71875 "/></g></g></g><g fill="#00abe4" fill-opacity="1"><g transform="translate(75.631375, 68.62393)"><g><path d="M 17.671875 -2.34375 C 17.671875 -1.6875 17.890625 -1.09375 18.328125 -0.65625 C 18.765625 -0.21875 19.375 0 20.03125 0 C 20.671875 0 21.21875 -0.21875 21.71875 -0.65625 C 22.15625 -1.09375 22.421875 -1.6875 22.421875 -2.34375 L 22.421875 -13.375 C 22.421875 -16.265625 21.4375 -18.5 19.59375 -20.078125 C 17.734375 -21.609375 15.109375 -22.421875 11.734375 -22.421875 C 9.328125 -22.421875 7.359375 -22.203125 5.890625 -21.765625 C 4.859375 -21.5 4.359375 -20.78125 4.359375 -19.703125 C 4.359375 -19.046875 4.53125 -18.546875 4.96875 -18.171875 C 5.34375 -17.78125 5.84375 -17.625 6.4375 -17.625 C 7.640625 -17.84375 8.671875 -17.953125 9.65625 -17.953125 C 12.71875 -17.953125 14.78125 -17.515625 15.9375 -16.703125 C 17.078125 -15.875 17.671875 -14.734375 17.671875 -13.203125 L 17.671875 -11.40625 C 15.328125 -12.875 12.609375 -13.640625 9.4375 -13.640625 C 7.03125 -13.640625 5.234375 -12.984375 4.03125 -11.734375 C 2.78125 -10.46875 2.1875 -8.890625 2.1875 -6.984375 C 2.1875 -5.671875 2.40625 -4.578125 2.84375 -3.65625 C 3.28125 -2.671875 3.765625 -1.96875 4.359375 -1.46875 C 4.90625 -0.984375 5.5625 -0.59375 6.328125 -0.328125 C 7.03125 0 7.640625 0.15625 8.078125 0.21875 C 8.515625 0.328125 8.953125 0.328125 9.28125 0.328125 L 9.9375 0.328125 C 13.265625 0.328125 15.828125 -0.546875 17.671875 -2.34375 Z M 17.671875 -7.53125 L 17.671875 -6.21875 L 17.234375 -5.671875 C 16.921875 -5.34375 16.265625 -4.96875 15.28125 -4.640625 C 14.296875 -4.3125 13.09375 -4.140625 11.78125 -4.140625 C 8.515625 -4.140625 6.921875 -5.015625 6.921875 -6.828125 C 6.921875 -7.6875 7.25 -8.34375 7.90625 -8.78125 C 8.5625 -9.21875 9.828125 -9.4375 11.78125 -9.4375 C 14.34375 -9.4375 16.3125 -8.78125 17.671875 -7.53125 Z M 17.671875 -7.53125 "/></g></g></g><g fill="#00abe4" fill-opacity="1"><g transform="translate(101.325504, 68.62393)"><g><path d="M 16.09375 -20.953125 L 11.296875 -14.5625 L 6.5 -20.953125 C 6 -21.71875 5.296875 -22.09375 4.421875 -22.09375 C 3.765625 -22.09375 3.171875 -21.828125 2.734375 -21.390625 C 2.234375 -20.890625 2.015625 -20.359375 2.015625 -19.703125 C 2.015625 -19.265625 2.125 -18.875 2.40625 -18.4375 L 8.125 -11.078125 L 2.296875 -3.65625 C 2.015625 -3.21875 1.90625 -2.78125 1.90625 -2.40625 C 1.90625 -1.75 2.125 -1.140625 2.5625 -0.703125 C 3 -0.21875 3.59375 0 4.25 0 C 5.125 0 5.78125 -0.375 6.28125 -1.140625 L 11.296875 -7.46875 L 16.3125 -1.140625 C 16.75 -0.375 17.453125 0 18.328125 0 C 18.984375 0 19.53125 -0.21875 19.96875 -0.703125 C 20.40625 -1.140625 20.671875 -1.75 20.671875 -2.40625 C 20.671875 -2.78125 20.515625 -3.21875 20.296875 -3.65625 L 14.453125 -11.078125 L 20.1875 -18.4375 C 20.40625 -18.875 20.5625 -19.265625 20.5625 -19.703125 C 20.5625 -20.359375 20.296875 -20.890625 19.859375 -21.390625 C 19.375 -21.828125 18.828125 -22.09375 18.171875 -22.09375 C 17.234375 -22.09375 16.53125 -21.71875 16.09375 -20.953125 Z M 16.09375 -20.953125 "/></g></g></g><g fill="#191f23" fill-opacity="1"><g transform="translate(123.917245, 68.62393)"><g><path d="M 3.28125 -19.703125 L 3.28125 8.234375 C 3.28125 8.890625 3.484375 9.5 3.921875 9.9375 C 4.359375 10.421875 4.96875 10.640625 5.625 10.640625 C 6.28125 10.640625 6.828125 10.421875 7.3125 9.9375 C 7.75 9.5 8.015625 8.890625 8.015625 8.234375 L 8.015625 -2.453125 C 9.65625 -0.59375 12.0625 0.328125 15.109375 0.328125 C 17.625 0.328125 19.859375 -0.59375 21.828125 -2.453125 C 23.796875 -4.3125 24.765625 -7.25 24.765625 -11.40625 C 24.765625 -15 23.734375 -17.734375 21.765625 -19.59375 C 19.8125 -21.4375 17.40625 -22.421875 14.671875 -22.421875 C 11.734375 -22.421875 9.546875 -21.5 8.015625 -19.640625 C 7.6875 -21.28125 6.875 -22.09375 5.625 -22.09375 C 4.96875 -22.09375 4.359375 -21.828125 3.921875 -21.390625 C 3.484375 -20.890625 3.28125 -20.359375 3.28125 -19.703125 Z M 8.125 -8.515625 L 8.125 -13.59375 L 8.625 -14.671875 C 8.953125 -15.390625 9.546875 -16.09375 10.53125 -16.859375 C 11.453125 -17.5625 12.546875 -17.953125 13.859375 -17.953125 C 14.40625 -17.953125 15 -17.84375 15.609375 -17.734375 C 16.15625 -17.625 16.8125 -17.34375 17.5625 -16.96875 C 18.28125 -16.53125 18.875 -15.875 19.3125 -14.890625 C 19.75 -13.90625 20.03125 -12.765625 20.03125 -11.40625 C 20.03125 -9.984375 19.8125 -8.84375 19.484375 -7.859375 C 19.15625 -6.875 18.765625 -6.109375 18.390625 -5.671875 C 17.953125 -5.234375 17.40625 -4.859375 16.75 -4.640625 C 16.046875 -4.359375 15.5 -4.203125 15.171875 -4.203125 C 14.84375 -4.140625 14.40625 -4.140625 13.859375 -4.140625 C 13.046875 -4.140625 12.28125 -4.25 11.625 -4.578125 C 10.90625 -4.90625 10.359375 -5.234375 9.984375 -5.625 C 9.546875 -6 9.21875 -6.4375 8.890625 -6.984375 C 8.5625 -7.46875 8.40625 -7.796875 8.296875 -8.015625 C 8.1875 -8.234375 8.125 -8.40625 8.125 -8.515625 Z M 8.125 -8.515625 "/></g></g></g><g fill="#191f23" fill-opacity="1"><g transform="translate(151.138835, 68.62393)"><g><path d="M 3.65625 -27.875 C 3.65625 -27.234375 3.875 -26.734375 4.3125 -26.296875 C 4.75 -25.859375 5.234375 -25.640625 5.890625 -25.640625 C 6.5 -25.640625 7.03125 -25.859375 7.46875 -26.296875 C 7.90625 -26.734375 8.1875 -27.234375 8.1875 -27.875 C 8.1875 -28.484375 7.90625 -29.03125 7.46875 -29.46875 C 7.03125 -29.90625 6.5 -30.171875 5.890625 -30.171875 C 5.234375 -30.171875 4.75 -29.90625 4.3125 -29.46875 C 3.875 -29.03125 3.65625 -28.484375 3.65625 -27.875 Z M 3.546875 -19.703125 L 3.546875 -2.40625 C 3.546875 -1.75 3.765625 -1.140625 4.203125 -0.703125 C 4.640625 -0.21875 5.234375 0 5.890625 0 C 6.546875 0 7.09375 -0.21875 7.578125 -0.703125 C 8.015625 -1.140625 8.296875 -1.75 8.296875 -2.40625 L 8.296875 -19.703125 C 8.296875 -20.359375 8.015625 -20.890625 7.578125 -21.390625 C 7.09375 -21.828125 6.546875 -22.09375 5.890625 -22.09375 C 5.234375 -22.09375 4.640625 -21.828125 4.203125 -21.390625 C 3.765625 -20.890625 3.546875 -20.359375 3.546875 -19.703125 Z M 3.546875 -19.703125 "/></g></g></g><g fill="#191f23" fill-opacity="1"><g transform="translate(162.976677, 68.62393)"><g><path d="M 14.953125 -17.953125 L 15.828125 -17.953125 C 16.375 -17.953125 16.8125 -18.109375 17.125 -18.546875 C 17.453125 -18.984375 17.625 -19.484375 17.625 -20.140625 C 17.625 -21.65625 17.03125 -22.421875 15.828125 -22.421875 L 15.21875 -22.421875 C 11.734375 -22.421875 9.390625 -21.390625 8.125 -19.421875 C 7.96875 -20.140625 7.640625 -20.734375 7.203125 -21.28125 C 6.765625 -21.828125 6.21875 -22.09375 5.625 -22.09375 C 4.96875 -22.09375 4.359375 -21.828125 3.921875 -21.390625 C 3.484375 -20.890625 3.28125 -20.359375 3.28125 -19.703125 L 3.28125 -2.40625 C 3.28125 -1.75 3.484375 -1.140625 3.921875 -0.703125 C 4.359375 -0.21875 4.96875 0 5.625 0 C 6.28125 0 6.828125 -0.21875 7.3125 -0.703125 C 7.75 -1.140625 8.015625 -1.75 8.015625 -2.40625 L 8.015625 -12.546875 L 8.078125 -13.09375 C 8.078125 -13.421875 8.234375 -13.90625 8.515625 -14.453125 C 8.78125 -15 9.171875 -15.5 9.609375 -16.046875 C 10.046875 -16.59375 10.75 -17.03125 11.671875 -17.40625 C 12.609375 -17.734375 13.6875 -17.953125 14.953125 -17.953125 Z M 14.953125 -17.953125 "/></g></g></g><g fill="#191f23" fill-opacity="1"><g transform="translate(180.597067, 68.62393)"><g><path d="M 19.09375 -4.53125 C 17.1875 -4.25 15.875 -4.140625 15.109375 -4.140625 C 12.328125 -4.140625 10.421875 -4.46875 9.390625 -5.234375 C 8.296875 -6 7.578125 -7.25 7.203125 -9.109375 L 19.265625 -9.109375 C 20.1875 -9.109375 21 -9.4375 21.71875 -10.09375 C 22.375 -10.75 22.75 -11.515625 22.75 -12.4375 C 22.75 -15.390625 21.875 -17.78125 20.140625 -19.640625 C 18.390625 -21.5 15.9375 -22.421875 12.65625 -22.421875 C 9.390625 -22.421875 6.828125 -21.328125 5.078125 -19.203125 C 3.328125 -17.078125 2.453125 -14.34375 2.453125 -11.078125 C 2.453125 -7.6875 3.390625 -4.96875 5.234375 -2.84375 C 7.09375 -0.703125 9.828125 0.328125 13.484375 0.328125 C 15.65625 0.328125 17.671875 0.15625 19.484375 -0.265625 C 19.96875 -0.328125 20.40625 -0.546875 20.734375 -0.921875 C 21.0625 -1.3125 21.21875 -1.796875 21.21875 -2.34375 C 21.21875 -2.890625 21 -3.4375 20.5625 -3.875 C 20.140625 -4.3125 19.640625 -4.53125 19.09375 -4.53125 Z M 18.0625 -13.203125 L 7.203125 -13.203125 C 7.53125 -14.84375 8.078125 -16.046875 8.953125 -16.8125 C 9.765625 -17.5625 10.96875 -17.953125 12.609375 -17.953125 C 14.125 -17.953125 15.390625 -17.5625 16.265625 -16.921875 C 17.125 -16.203125 17.734375 -14.953125 18.0625 -13.203125 Z M 18.0625 -13.203125 "/></g></g></g></svg>