<svg xmlns="http://www.w3.org/2000/svg" xmlns:xlink="http://www.w3.org/1999/xlink" width="500" zoomAndPan="magnify" viewBox="0 0 375 374.999991" height="500" preserveAspectRatio="xMidYMid meet" version="1.0"><defs><clipPath id="4c6c582eac"><path d="M 70.617188 214 L 129 214 L 129 246 L 70.617188 246 Z M 70.617188 214 " clip-rule="nonzero"/></clipPath><clipPath id="1b597312b5"><path d="M 129 99 L 304.0625 99 L 304.0625 302.402344 L 129 302.402344 Z M 129 99 " clip-rule="nonzero"/></clipPath><clipPath id="8587ab88ae"><path d="M 235 72.496094 L 282 72.496094 L 282 120 L 235 120 Z M 235 72.496094 " clip-rule="nonzero"/></clipPath></defs><g clip-path="url(#4c6c582eac)"><path fill="#ffffff" d="M 83.316406 214.964844 L 70.710938 235.488281 C 94.207031 231.777344 113.320312 234.957031 128.019531 245.046875 C 117.339844 230.863281 102.429688 220.828125 83.296875 214.964844 Z M 83.316406 214.964844 " fill-opacity="1" fill-rule="evenodd"/></g><path fill="#00abe4" d="M 72.941406 204.207031 C 100.261719 207.882812 121.46875 221.304688 136.550781 244.457031 C 132.78125 221.078125 120.9375 202.457031 100.984375 188.558594 Z M 72.941406 204.207031 " fill-opacity="1" fill-rule="evenodd"/><path fill="#ffffff" d="M 86.761719 165.789062 C 124.023438 189.816406 144.203125 222.886719 147.324219 264.960938 C 153.550781 231.777344 144.261719 202.039062 119.492188 175.746094 C 140.242188 169.785156 156.234375 155.695312 167.449219 133.476562 C 204.441406 197.90625 192.65625 249.386719 132.09375 287.941406 C 208.800781 261.363281 220.320312 180.332031 166.648438 108.269531 C 154.695312 148.308594 128.078125 167.480469 86.78125 165.789062 Z M 86.761719 165.789062 " fill-opacity="1" fill-rule="evenodd"/><g clip-path="url(#1b597312b5)"><path fill="#00abe4" d="M 178.644531 99.339844 C 242.539062 180.199219 222.226562 271.796875 129.867188 302.183594 C 226.699219 296.585938 284.75 234.726562 304.054688 116.609375 C 278.578125 151.144531 236.769531 145.398438 178.644531 99.339844 Z M 178.644531 99.339844 " fill-opacity="1" fill-rule="evenodd"/></g><g clip-path="url(#8587ab88ae)"><path fill="#00abe4" d="M 258.511719 119.238281 C 271.382812 119.238281 281.894531 108.746094 281.894531 95.855469 C 281.894531 82.988281 271.402344 72.476562 258.511719 72.476562 C 245.644531 72.476562 235.132812 82.96875 235.132812 95.855469 C 235.132812 108.726562 245.644531 119.238281 258.511719 119.238281 Z M 258.511719 119.238281 " fill-opacity="1" fill-rule="evenodd"/></g><path fill="#ffffff" d="M 168.171875 194.878906 C 168.933594 196.210938 168.535156 197.523438 166.933594 198.800781 L 163.945312 193.601562 C 165.164062 193.394531 166.097656 193.394531 166.707031 193.585938 C 167.316406 193.792969 167.8125 194.210938 168.191406 194.859375 Z M 156.730469 189.1875 C 155.492188 189.394531 154.597656 189.394531 154.007812 189.1875 C 153.417969 188.957031 152.960938 188.578125 152.636719 188.003906 C 152.292969 187.414062 152.199219 186.789062 152.371094 186.140625 C 152.542969 185.492188 153.019531 184.84375 153.855469 184.199219 L 156.75 189.207031 Z M 173.429688 191.472656 C 172.226562 189.394531 170.628906 188.101562 168.628906 187.585938 C 166.628906 187.074219 164.003906 187.246094 160.746094 188.101562 L 157.511719 182.503906 C 158.40625 182.238281 159.359375 182.085938 160.347656 182.027344 C 161.339844 181.96875 162.347656 181.96875 163.375 182.046875 L 163.355469 176.277344 C 161.929688 176.144531 160.519531 176.183594 159.128906 176.371094 C 157.738281 176.5625 156.332031 176.945312 154.863281 177.515625 L 153.589844 175.289062 L 149.722656 177.515625 L 150.960938 179.667969 C 149.875 180.464844 148.960938 181.324219 148.21875 182.273438 C 147.476562 183.207031 146.945312 184.199219 146.640625 185.226562 C 146.316406 186.253906 146.222656 187.28125 146.335938 188.347656 C 146.449219 189.394531 146.8125 190.441406 147.402344 191.488281 C 148.03125 192.574219 148.753906 193.433594 149.554688 194.078125 C 150.371094 194.707031 151.285156 195.144531 152.292969 195.394531 C 153.304688 195.640625 154.445312 195.699219 155.703125 195.5625 C 156.960938 195.449219 158.367188 195.183594 159.929688 194.785156 L 163.335938 200.6875 C 162.097656 201.105469 160.863281 201.332031 159.605469 201.371094 C 158.367188 201.410156 157.015625 201.351562 155.550781 201.160156 L 155.09375 207.0625 C 156.863281 207.292969 158.691406 207.273438 160.519531 207.007812 C 162.367188 206.738281 164.15625 206.265625 165.871094 205.523438 L 168.039062 209.273438 L 171.90625 207.042969 L 169.792969 203.371094 C 170.914062 202.570312 171.828125 201.675781 172.570312 200.722656 C 173.3125 199.773438 173.828125 198.78125 174.152344 197.753906 C 174.476562 196.726562 174.570312 195.699219 174.476562 194.632812 C 174.378906 193.566406 174.019531 192.519531 173.429688 191.488281 Z M 173.429688 191.472656 " fill-opacity="1" fill-rule="evenodd"/></svg>