<svg xmlns="http://www.w3.org/2000/svg" xmlns:xlink="http://www.w3.org/1999/xlink" width="500" zoomAndPan="magnify" viewBox="0 0 375 374.999991" height="500" preserveAspectRatio="xMidYMid meet" version="1.0"><defs><clipPath id="0b7e6d7d20"><path d="M 10.820312 16.921875 L 364.070312 16.921875 L 364.070312 358.171875 L 10.820312 358.171875 Z M 10.820312 16.921875 " clip-rule="nonzero"/></clipPath></defs><g clip-path="url(#0b7e6d7d20)"><path fill="#000000" d="M 358.335938 346.792969 L 342.507812 346.792969 L 342.507812 123.644531 C 342.507812 120.507812 339.964844 117.964844 336.828125 117.964844 L 193.121094 117.964844 L 193.121094 22.601562 C 193.121094 19.464844 190.578125 16.921875 187.445312 16.921875 L 38.046875 16.921875 C 34.914062 16.921875 32.371094 19.464844 32.371094 22.601562 L 32.371094 346.792969 L 16.550781 346.792969 C 13.417969 346.792969 10.875 349.339844 10.875 352.472656 C 10.875 355.609375 13.417969 358.15625 16.550781 358.15625 L 358.34375 358.15625 C 361.480469 358.15625 364.019531 355.609375 364.019531 352.472656 C 364.011719 349.339844 361.46875 346.792969 358.335938 346.792969 Z M 43.726562 28.28125 L 181.765625 28.28125 L 181.765625 346.804688 L 43.726562 346.804688 Z M 193.121094 346.792969 L 193.121094 129.324219 L 331.160156 129.324219 L 331.160156 346.792969 Z M 98.851562 284.152344 L 71.730469 284.152344 C 68.59375 284.152344 66.050781 286.699219 66.050781 289.832031 L 66.050781 319.066406 C 66.050781 322.199219 68.59375 324.746094 71.730469 324.746094 L 98.851562 324.746094 C 101.984375 324.746094 104.527344 322.199219 104.527344 319.066406 L 104.527344 289.832031 C 104.527344 286.699219 101.984375 284.152344 98.851562 284.152344 Z M 93.171875 313.386719 L 77.40625 313.386719 L 77.40625 295.515625 L 93.171875 295.515625 Z M 98.851562 50.332031 L 71.730469 50.332031 C 68.59375 50.332031 66.050781 52.875 66.050781 56.011719 L 66.050781 85.242188 C 66.050781 88.378906 68.59375 90.921875 71.730469 90.921875 L 98.851562 90.921875 C 101.984375 90.921875 104.527344 88.378906 104.527344 85.242188 L 104.527344 56.011719 C 104.527344 52.875 101.984375 50.332031 98.851562 50.332031 Z M 93.171875 79.5625 L 77.40625 79.5625 L 77.40625 61.691406 L 93.171875 61.691406 Z M 153.773438 167.246094 L 126.652344 167.246094 C 123.515625 167.246094 120.972656 169.792969 120.972656 172.925781 L 120.972656 202.160156 C 120.972656 205.292969 123.515625 207.839844 126.652344 207.839844 L 153.773438 207.839844 C 156.90625 207.839844 159.449219 205.292969 159.449219 202.160156 L 159.449219 172.925781 C 159.449219 169.792969 156.90625 167.246094 153.773438 167.246094 Z M 148.09375 196.46875 L 132.328125 196.46875 L 132.328125 178.597656 L 148.09375 178.597656 Z M 98.851562 108.785156 L 71.730469 108.785156 C 68.59375 108.785156 66.050781 111.328125 66.050781 114.464844 L 66.050781 143.695312 C 66.050781 146.832031 68.59375 149.375 71.730469 149.375 L 98.851562 149.375 C 101.984375 149.375 104.527344 146.832031 104.527344 143.695312 L 104.527344 114.464844 C 104.527344 111.328125 101.984375 108.785156 98.851562 108.785156 Z M 93.171875 138.015625 L 77.40625 138.015625 L 77.40625 120.144531 L 93.171875 120.144531 Z M 98.851562 225.699219 L 71.730469 225.699219 C 68.59375 225.699219 66.050781 228.246094 66.050781 231.378906 L 66.050781 260.613281 C 66.050781 263.746094 68.59375 266.292969 71.730469 266.292969 L 98.851562 266.292969 C 101.984375 266.292969 104.527344 263.746094 104.527344 260.613281 L 104.527344 231.378906 C 104.527344 228.246094 101.984375 225.699219 98.851562 225.699219 Z M 93.171875 254.929688 L 77.40625 254.929688 L 77.40625 237.0625 L 93.171875 237.0625 Z M 98.851562 167.246094 L 71.730469 167.246094 C 68.59375 167.246094 66.050781 169.792969 66.050781 172.925781 L 66.050781 202.160156 C 66.050781 205.292969 68.59375 207.839844 71.730469 207.839844 L 98.851562 207.839844 C 101.984375 207.839844 104.527344 205.292969 104.527344 202.160156 L 104.527344 172.925781 C 104.527344 169.792969 101.984375 167.246094 98.851562 167.246094 Z M 93.171875 196.46875 L 77.40625 196.46875 L 77.40625 178.597656 L 93.171875 178.597656 Z M 153.773438 225.699219 L 126.652344 225.699219 C 123.515625 225.699219 120.972656 228.246094 120.972656 231.378906 L 120.972656 260.613281 C 120.972656 263.746094 123.515625 266.292969 126.652344 266.292969 L 153.773438 266.292969 C 156.90625 266.292969 159.449219 263.746094 159.449219 260.613281 L 159.449219 231.378906 C 159.449219 228.246094 156.90625 225.699219 153.773438 225.699219 Z M 148.09375 254.929688 L 132.328125 254.929688 L 132.328125 237.0625 L 148.09375 237.0625 Z M 153.773438 108.785156 L 126.652344 108.785156 C 123.515625 108.785156 120.972656 111.328125 120.972656 114.464844 L 120.972656 143.695312 C 120.972656 146.832031 123.515625 149.375 126.652344 149.375 L 153.773438 149.375 C 156.90625 149.375 159.449219 146.832031 159.449219 143.695312 L 159.449219 114.464844 C 159.449219 111.328125 156.90625 108.785156 153.773438 108.785156 Z M 148.09375 138.015625 L 132.328125 138.015625 L 132.328125 120.144531 L 148.09375 120.144531 Z M 153.773438 50.332031 L 126.652344 50.332031 C 123.515625 50.332031 120.972656 52.875 120.972656 56.011719 L 120.972656 85.242188 C 120.972656 88.378906 123.515625 90.921875 126.652344 90.921875 L 153.773438 90.921875 C 156.90625 90.921875 159.449219 88.378906 159.449219 85.242188 L 159.449219 56.011719 C 159.449219 52.875 156.90625 50.332031 153.773438 50.332031 Z M 148.09375 79.5625 L 132.328125 79.5625 L 132.328125 61.691406 L 148.09375 61.691406 Z M 153.773438 284.152344 L 126.652344 284.152344 C 123.515625 284.152344 120.972656 286.699219 120.972656 289.832031 L 120.972656 319.066406 C 120.972656 322.199219 123.515625 324.746094 126.652344 324.746094 L 153.773438 324.746094 C 156.90625 324.746094 159.449219 322.199219 159.449219 319.066406 L 159.449219 289.832031 C 159.449219 286.699219 156.90625 284.152344 153.773438 284.152344 Z M 148.09375 313.386719 L 132.328125 313.386719 L 132.328125 295.515625 L 148.09375 295.515625 Z M 303.15625 217.769531 L 276.035156 217.769531 C 272.902344 217.769531 270.359375 220.3125 270.359375 223.449219 L 270.359375 252.679688 C 270.359375 255.816406 272.902344 258.359375 276.035156 258.359375 L 303.15625 258.359375 C 306.292969 258.359375 308.835938 255.816406 308.835938 252.679688 L 308.835938 223.449219 C 308.835938 220.3125 306.292969 217.769531 303.15625 217.769531 Z M 297.480469 247 L 281.714844 247 L 281.714844 229.128906 L 297.480469 229.128906 Z M 303.15625 159.3125 L 276.035156 159.3125 C 272.902344 159.3125 270.359375 161.859375 270.359375 164.996094 L 270.359375 194.226562 C 270.359375 197.363281 272.902344 199.90625 276.035156 199.90625 L 303.15625 199.90625 C 306.292969 199.90625 308.835938 197.363281 308.835938 194.226562 L 308.835938 164.996094 C 308.835938 161.859375 306.292969 159.3125 303.15625 159.3125 Z M 297.480469 188.535156 L 281.714844 188.535156 L 281.714844 170.664062 L 297.480469 170.664062 Z M 303.15625 276.222656 L 276.035156 276.222656 C 272.902344 276.222656 270.359375 278.765625 270.359375 281.902344 L 270.359375 311.132812 C 270.359375 314.269531 272.902344 316.8125 276.035156 316.8125 L 303.15625 316.8125 C 306.292969 316.8125 308.835938 314.269531 308.835938 311.132812 L 308.835938 281.902344 C 308.835938 278.765625 306.292969 276.222656 303.15625 276.222656 Z M 297.480469 305.453125 L 281.714844 305.453125 L 281.714844 287.582031 L 297.480469 287.582031 Z M 248.246094 276.222656 L 221.125 276.222656 C 217.988281 276.222656 215.449219 278.765625 215.449219 281.902344 L 215.449219 311.132812 C 215.449219 314.269531 217.988281 316.8125 221.125 316.8125 L 248.246094 316.8125 C 251.378906 316.8125 253.921875 314.269531 253.921875 311.132812 L 253.921875 281.902344 C 253.921875 278.765625 251.378906 276.222656 248.246094 276.222656 Z M 242.570312 305.453125 L 226.800781 305.453125 L 226.800781 287.582031 L 242.570312 287.582031 Z M 248.246094 217.769531 L 221.125 217.769531 C 217.988281 217.769531 215.449219 220.3125 215.449219 223.449219 L 215.449219 252.679688 C 215.449219 255.816406 217.988281 258.359375 221.125 258.359375 L 248.246094 258.359375 C 251.378906 258.359375 253.921875 255.816406 253.921875 252.679688 L 253.921875 223.449219 C 253.921875 220.3125 251.378906 217.769531 248.246094 217.769531 Z M 242.570312 247 L 226.800781 247 L 226.800781 229.128906 L 242.570312 229.128906 Z M 248.246094 159.3125 L 221.125 159.3125 C 217.988281 159.3125 215.449219 161.859375 215.449219 164.996094 L 215.449219 194.226562 C 215.449219 197.363281 217.988281 199.90625 221.125 199.90625 L 248.246094 199.90625 C 251.378906 199.90625 253.921875 197.363281 253.921875 194.226562 L 253.921875 164.996094 C 253.921875 161.859375 251.378906 159.3125 248.246094 159.3125 Z M 242.570312 188.535156 L 226.800781 188.535156 L 226.800781 170.664062 L 242.570312 170.664062 Z M 242.570312 188.535156 " fill-opacity="1" fill-rule="nonzero"/></g></svg>