<svg xmlns="http://www.w3.org/2000/svg" xmlns:xlink="http://www.w3.org/1999/xlink" width="500" zoomAndPan="magnify" viewBox="0 0 375 374.999991" height="500" preserveAspectRatio="xMidYMid meet" version="1.0"><defs><clipPath id="759599c364"><path d="M 101 75.09375 L 259 75.09375 L 259 136 L 101 136 Z M 101 75.09375 " clip-rule="nonzero"/></clipPath><clipPath id="6b51a74e2c"><path d="M 75.09375 90 L 203 90 L 203 181 L 75.09375 181 Z M 75.09375 90 " clip-rule="nonzero"/></clipPath></defs><rect x="-37.5" width="450" fill="#ffffff" y="-37.499999" height="449.999989" fill-opacity="1"/><rect x="-37.5" width="450" fill="#e3e6fb" y="-37.499999" height="449.999989" fill-opacity="1"/><path fill="#525fe1" d="M 273.679688 131.296875 L 273.679688 93.828125 C 273.679688 91.765625 271.996094 90.082031 269.929688 90.082031 L 254.945312 90.082031 L 254.945312 97.574219 L 266.183594 97.574219 L 266.183594 131.296875 L 273.679688 131.296875 " fill-opacity="1" fill-rule="nonzero"/><path fill="#525fe1" d="M 101.320312 187.5 L 101.320312 281.171875 C 101.320312 283.234375 103.003906 284.917969 105.070312 284.917969 L 254.945312 284.917969 C 257.007812 284.917969 258.691406 283.234375 258.691406 281.171875 L 258.691406 254.945312 L 251.195312 254.945312 L 251.195312 277.425781 L 108.816406 277.425781 L 108.816406 187.5 L 101.320312 187.5 " fill-opacity="1" fill-rule="nonzero"/><g clip-path="url(#759599c364)"><path fill="#525fe1" d="M 245.898438 108.816406 L 224.96875 108.816406 L 224.96875 87.886719 Z M 222.773438 75.460938 C 222.65625 75.402344 222.539062 75.371094 222.421875 75.328125 C 222.101562 75.226562 221.792969 75.167969 221.457031 75.136719 C 221.367188 75.136719 221.308594 75.09375 221.222656 75.09375 L 105.070312 75.09375 C 103.003906 75.09375 101.320312 76.777344 101.320312 78.839844 L 101.320312 86.335938 L 108.816406 86.335938 L 108.816406 82.585938 L 217.476562 82.585938 L 217.476562 112.5625 C 217.476562 114.625 219.15625 116.308594 221.222656 116.308594 L 251.195312 116.308594 L 251.195312 135.042969 L 258.691406 135.042969 L 258.691406 112.5625 C 258.691406 112.472656 258.644531 112.414062 258.644531 112.328125 C 258.617188 111.992188 258.558594 111.683594 258.457031 111.363281 C 258.414062 111.246094 258.382812 111.128906 258.324219 111.011719 C 258.148438 110.617188 257.914062 110.234375 257.59375 109.914062 L 223.871094 76.191406 C 223.546875 75.871094 223.167969 75.636719 222.773438 75.460938 " fill-opacity="1" fill-rule="nonzero"/></g><path fill="#525fe1" d="M 161.273438 232.460938 L 161.273438 262.4375 C 161.273438 264.5 162.953125 266.183594 165.019531 266.183594 L 213.726562 266.183594 L 213.726562 258.691406 L 168.765625 258.691406 L 168.765625 236.210938 L 187.5 236.210938 L 187.5 228.714844 L 165.019531 228.714844 C 162.953125 228.714844 161.273438 230.398438 161.273438 232.460938 " fill-opacity="1" fill-rule="nonzero"/><path fill="#525fe1" d="M 176.257812 251.195312 L 198.742188 251.195312 L 198.742188 243.703125 L 176.257812 243.703125 L 176.257812 251.195312 " fill-opacity="1" fill-rule="nonzero"/><path fill="#525fe1" d="M 273.679688 183.753906 L 271.804688 183.753906 C 270.839844 183.753906 269.917969 184.117188 269.226562 184.777344 L 236.28125 215.996094 L 222.699219 202.414062 L 253.917969 169.46875 C 254.578125 168.78125 254.945312 167.859375 254.945312 166.890625 L 254.945312 165.019531 C 254.945312 154.683594 263.34375 146.285156 273.679688 146.285156 C 284.011719 146.285156 292.414062 154.683594 292.414062 165.019531 C 292.414062 175.351562 284.011719 183.753906 273.679688 183.753906 Z M 260.886719 228.714844 L 243.703125 245.898438 L 196.546875 198.742188 L 213.726562 181.558594 L 223.183594 191.011719 L 214.753906 199.910156 C 213.363281 201.390625 213.390625 203.703125 214.824219 205.136719 L 233.558594 223.871094 C 234.292969 224.601562 235.242188 224.96875 236.210938 224.96875 C 237.132812 224.96875 238.066406 224.632812 238.785156 223.945312 L 247.683594 215.511719 Z M 232.460938 257.140625 L 185.304688 209.980469 L 191.246094 204.039062 L 238.40625 251.195312 Z M 273.679688 138.789062 C 259.21875 138.789062 247.449219 150.558594 247.449219 165.019531 L 247.449219 165.398438 L 228.335938 185.566406 L 216.378906 173.609375 C 214.914062 172.144531 212.542969 172.144531 211.078125 173.609375 L 177.355469 207.332031 C 175.894531 208.796875 175.894531 211.167969 177.355469 212.628906 L 229.8125 265.085938 C 230.542969 265.816406 231.496094 266.183594 232.460938 266.183594 C 233.429688 266.183594 234.378906 265.816406 235.113281 265.085938 L 266.183594 234.015625 L 266.183594 292.414062 L 120.054688 292.414062 L 120.054688 299.90625 L 269.929688 299.90625 C 271.996094 299.90625 273.679688 298.222656 273.679688 296.160156 L 273.679688 206.234375 L 266.183594 206.234375 L 266.183594 223.417969 L 253.128906 210.363281 L 273.296875 191.246094 L 273.679688 191.246094 C 288.136719 191.246094 299.90625 179.480469 299.90625 165.019531 C 299.90625 150.558594 288.136719 138.789062 273.679688 138.789062 " fill-opacity="1" fill-rule="nonzero"/><path fill="#525fe1" d="M 183.753906 183.753906 L 146.285156 183.753906 L 146.285156 191.246094 L 183.753906 191.246094 L 183.753906 183.753906 " fill-opacity="1" fill-rule="nonzero"/><path fill="#525fe1" d="M 123.804688 206.234375 L 168.765625 206.234375 L 168.765625 198.742188 L 123.804688 198.742188 L 123.804688 206.234375 " fill-opacity="1" fill-rule="nonzero"/><path fill="#525fe1" d="M 202.488281 168.765625 L 157.523438 168.765625 L 157.523438 176.257812 L 202.488281 176.257812 L 202.488281 168.765625 " fill-opacity="1" fill-rule="nonzero"/><path fill="#525fe1" d="M 123.804688 213.726562 L 123.804688 221.222656 L 146.285156 221.222656 L 146.285156 213.726562 L 123.804688 213.726562 " fill-opacity="1" fill-rule="nonzero"/><path fill="#525fe1" d="M 123.804688 236.210938 L 153.777344 236.210938 L 153.777344 228.714844 L 123.804688 228.714844 L 123.804688 236.210938 " fill-opacity="1" fill-rule="nonzero"/><path fill="#525fe1" d="M 123.804688 251.195312 L 153.777344 251.195312 L 153.777344 243.703125 L 123.804688 243.703125 L 123.804688 251.195312 " fill-opacity="1" fill-rule="nonzero"/><path fill="#525fe1" d="M 123.804688 266.183594 L 153.777344 266.183594 L 153.777344 258.691406 L 123.804688 258.691406 L 123.804688 266.183594 " fill-opacity="1" fill-rule="nonzero"/><path fill="#525fe1" d="M 123.804688 183.753906 L 123.804688 191.246094 L 138.789062 191.246094 L 138.789062 183.753906 L 123.804688 183.753906 " fill-opacity="1" fill-rule="nonzero"/><path fill="#525fe1" d="M 168.765625 213.726562 L 153.777344 213.726562 L 153.777344 221.222656 L 168.765625 221.222656 L 168.765625 213.726562 " fill-opacity="1" fill-rule="nonzero"/><path fill="#525fe1" d="M 206.234375 150.03125 L 168.765625 150.03125 L 168.765625 157.523438 L 206.234375 157.523438 L 206.234375 150.03125 " fill-opacity="1" fill-rule="nonzero"/><g clip-path="url(#6b51a74e2c)"><path fill="#525fe1" d="M 120.054688 97.574219 C 140.722656 97.574219 157.523438 114.378906 157.523438 135.042969 C 157.523438 155.710938 140.722656 172.511719 120.054688 172.511719 C 99.402344 172.511719 82.585938 155.710938 82.585938 135.042969 C 82.585938 114.378906 99.402344 97.574219 120.054688 97.574219 Z M 166.761719 117.582031 C 167.753906 117.230469 168.558594 116.46875 168.96875 115.488281 C 169.378906 114.507812 169.351562 113.398438 168.898438 112.445312 C 168.179688 110.9375 169.015625 109.855469 169.410156 109.460938 C 169.804688 109.0625 170.886719 108.230469 172.394531 108.945312 C 173.347656 109.402344 174.457031 109.429688 175.441406 109.019531 C 176.421875 108.609375 177.179688 107.804688 177.53125 106.808594 C 178.089844 105.230469 179.449219 105.070312 180.007812 105.070312 C 180.5625 105.070312 181.921875 105.230469 182.480469 106.808594 C 182.832031 107.804688 183.59375 108.609375 184.574219 109.019531 C 185.554688 109.429688 186.664062 109.402344 187.617188 108.945312 C 189.125 108.230469 190.207031 109.0625 190.601562 109.460938 C 190.996094 109.855469 191.832031 110.9375 191.113281 112.445312 C 190.660156 113.398438 190.632812 114.507812 191.042969 115.488281 C 191.453125 116.46875 192.257812 117.230469 193.25 117.582031 C 194.832031 118.136719 194.992188 119.5 194.992188 120.054688 C 194.992188 120.613281 194.832031 121.972656 193.25 122.53125 C 192.257812 122.878906 191.453125 123.640625 191.042969 124.621094 C 190.632812 125.601562 190.660156 126.714844 191.113281 127.667969 C 191.832031 129.175781 190.996094 130.257812 190.601562 130.652344 C 190.207031 131.03125 189.109375 131.882812 187.617188 131.164062 C 186.664062 130.710938 185.554688 130.695312 184.574219 131.089844 C 183.59375 131.5 182.832031 132.304688 182.480469 133.300781 C 181.921875 134.882812 180.5625 135.042969 180.007812 135.042969 C 179.449219 135.042969 178.089844 134.882812 177.53125 133.300781 C 177.179688 132.304688 176.421875 131.5 175.441406 131.089844 C 174.972656 130.902344 174.488281 130.800781 174.003906 130.800781 C 173.449219 130.800781 172.894531 130.929688 172.394531 131.164062 C 170.871094 131.882812 169.804688 131.03125 169.410156 130.652344 C 169.015625 130.257812 168.179688 129.175781 168.898438 127.667969 C 169.351562 126.714844 169.378906 125.601562 168.96875 124.621094 C 168.558594 123.640625 167.753906 122.878906 166.761719 122.53125 C 165.179688 121.972656 165.019531 120.613281 165.019531 120.054688 C 165.019531 119.5 165.179688 118.136719 166.761719 117.582031 Z M 120.054688 180.007812 C 144.324219 180.007812 164.097656 160.6875 164.929688 136.609375 C 167.023438 138.320312 169.613281 139.15625 172.203125 138.894531 C 174.078125 141.175781 176.886719 142.539062 180.007812 142.539062 C 183.125 142.539062 185.933594 141.175781 187.808594 138.894531 C 190.734375 139.1875 193.707031 138.160156 195.902344 135.949219 C 198.109375 133.753906 199.121094 130.800781 198.84375 127.855469 C 201.125 125.984375 202.488281 123.171875 202.488281 120.054688 C 202.488281 116.9375 201.125 114.128906 198.84375 112.253906 C 199.121094 109.3125 198.109375 106.355469 195.902344 104.160156 C 193.707031 101.949219 190.734375 100.941406 187.808594 101.21875 C 185.933594 98.9375 183.125 97.574219 180.007812 97.574219 C 176.886719 97.574219 174.078125 98.9375 172.203125 101.21875 C 169.277344 100.941406 166.304688 101.949219 164.109375 104.160156 C 161.902344 106.355469 160.890625 109.3125 161.167969 112.253906 C 160.613281 112.707031 160.117188 113.234375 159.660156 113.804688 C 152.066406 99.695312 137.164062 90.082031 120.054688 90.082031 C 95.261719 90.082031 75.09375 110.25 75.09375 135.042969 C 75.09375 159.835938 95.261719 180.007812 120.054688 180.007812 " fill-opacity="1" fill-rule="nonzero"/></g><path fill="#525fe1" d="M 102.417969 156.425781 C 103.152344 157.160156 104.101562 157.523438 105.070312 157.523438 C 106.035156 157.523438 106.984375 157.160156 107.71875 156.425781 L 145.1875 118.957031 L 139.886719 113.660156 L 105.070312 148.480469 L 96.476562 139.886719 L 91.179688 145.1875 L 102.417969 156.425781 " fill-opacity="1" fill-rule="nonzero"/></svg>