<svg xmlns="http://www.w3.org/2000/svg" xmlns:xlink="http://www.w3.org/1999/xlink" width="500" zoomAndPan="magnify" viewBox="0 0 375 374.999991" height="500" preserveAspectRatio="xMidYMid meet" version="1.0"><defs><clipPath id="6364aaf7c8"><path d="M 74.605469 68.820312 L 300.355469 68.820312 L 300.355469 305.820312 L 74.605469 305.820312 Z M 74.605469 68.820312 " clip-rule="nonzero"/></clipPath></defs><rect x="-37.5" width="450" fill="#ffffff" y="-37.499999" height="449.999989" fill-opacity="1"/><rect x="-37.5" width="450" fill="#e0e1fe" y="-37.499999" height="449.999989" fill-opacity="1"/><path fill="#050c9c" d="M 117.085938 134.304688 L 117.085938 168.363281 C 117.085938 170.660156 118.617188 172.1875 120.910156 172.1875 C 123.207031 172.1875 124.738281 170.660156 124.738281 168.363281 L 124.738281 134.304688 L 136.984375 134.304688 C 139.28125 134.304688 140.8125 132.773438 140.8125 130.476562 C 140.8125 128.179688 139.28125 126.648438 136.984375 126.648438 L 104.457031 126.648438 C 102.160156 126.648438 100.628906 128.179688 100.628906 130.476562 C 100.628906 132.773438 102.160156 134.304688 104.457031 134.304688 Z M 117.085938 134.304688 " fill-opacity="1" fill-rule="nonzero"/><path fill="#050c9c" d="M 145.019531 172.1875 C 146.933594 172.953125 149.230469 172.1875 149.996094 169.894531 L 153.441406 161.089844 L 169.894531 161.089844 L 173.339844 169.894531 C 175.253906 174.484375 182.140625 171.808594 180.609375 166.832031 L 165.304688 128.945312 C 164.15625 125.882812 159.5625 125.882812 158.03125 128.945312 L 142.726562 166.832031 C 141.960938 169.128906 143.109375 171.042969 145.019531 172.1875 Z M 156.5 153.4375 L 161.859375 140.425781 L 167.21875 153.4375 Z M 156.5 153.4375 " fill-opacity="1" fill-rule="nonzero"/><path fill="#050c9c" d="M 195.152344 171.425781 C 196.683594 172.570312 199.363281 172.1875 200.511719 170.660156 L 210.84375 156.117188 L 221.175781 170.660156 C 223.855469 174.484375 230.359375 170.277344 227.296875 166.066406 L 215.433594 149.226562 L 227.296875 132.390625 C 228.445312 130.859375 228.0625 128.179688 226.535156 127.03125 C 225.003906 125.882812 222.324219 126.265625 221.175781 127.796875 L 210.84375 142.339844 L 200.511719 127.796875 C 199.363281 126.265625 197.066406 125.5 195.152344 127.03125 C 193.621094 128.179688 192.855469 130.476562 194.386719 132.390625 L 206.25 149.226562 L 194.386719 166.066406 C 193.238281 167.980469 193.621094 170.277344 195.152344 171.425781 Z M 195.152344 171.425781 " fill-opacity="1" fill-rule="nonzero"/><path fill="#050c9c" d="M 205.867188 194.769531 L 106.753906 194.769531 C 104.457031 194.769531 102.925781 196.296875 102.925781 198.59375 C 102.925781 200.890625 104.457031 202.421875 106.753906 202.421875 L 205.867188 202.421875 C 208.164062 202.421875 209.695312 200.890625 209.695312 198.59375 C 209.695312 196.296875 208.164062 194.769531 205.867188 194.769531 Z M 205.867188 194.769531 " fill-opacity="1" fill-rule="nonzero"/><path fill="#050c9c" d="M 187.882812 224.617188 L 106.753906 224.617188 C 104.457031 224.617188 102.925781 226.148438 102.925781 228.445312 C 102.925781 230.742188 104.457031 232.269531 106.753906 232.269531 L 187.882812 232.269531 C 190.179688 232.269531 191.707031 230.742188 191.707031 228.445312 C 191.707031 226.148438 189.796875 224.617188 187.882812 224.617188 Z M 187.882812 224.617188 " fill-opacity="1" fill-rule="nonzero"/><path fill="#050c9c" d="M 187.882812 254.46875 L 106.753906 254.46875 C 104.457031 254.46875 102.925781 255.996094 102.925781 258.292969 C 102.925781 260.589844 104.457031 262.121094 106.753906 262.121094 L 187.882812 262.121094 C 190.179688 262.121094 191.707031 260.589844 191.707031 258.292969 C 191.707031 255.996094 189.796875 254.46875 187.882812 254.46875 Z M 187.882812 254.46875 " fill-opacity="1" fill-rule="nonzero"/><path fill="#050c9c" d="M 253.703125 239.160156 C 247.582031 238.011719 247.582031 235.714844 247.582031 233.035156 C 247.964844 229.976562 251.789062 228.828125 254.085938 229.210938 C 255.234375 229.210938 258.296875 229.976562 258.296875 232.652344 C 258.296875 234.949219 259.828125 236.480469 262.125 236.480469 C 264.417969 236.480469 265.949219 234.566406 265.949219 232.652344 C 265.949219 227.296875 262.507812 223.085938 257.148438 221.9375 L 257.148438 219.640625 C 257.148438 217.347656 255.617188 215.816406 253.320312 215.816406 C 251.023438 215.816406 249.496094 217.347656 249.496094 219.640625 L 249.496094 222.320312 C 244.902344 223.46875 241.074219 226.914062 240.308594 232.269531 C 239.925781 236.863281 240.691406 244.898438 252.554688 246.8125 C 259.445312 247.578125 259.445312 251.023438 259.445312 252.554688 C 259.445312 253.703125 259.0625 254.46875 258.296875 255.234375 C 257.148438 256.378906 255.234375 256.761719 252.9375 256.761719 C 249.113281 256.761719 246.816406 254.851562 246.816406 251.023438 C 246.816406 248.726562 244.902344 247.195312 242.605469 247.578125 C 240.308594 247.578125 238.78125 249.492188 239.160156 251.789062 C 239.542969 257.910156 243.753906 262.503906 249.496094 264.035156 L 249.496094 266.714844 C 249.496094 269.007812 251.023438 270.539062 253.320312 270.539062 C 255.617188 270.539062 257.148438 269.007812 257.148438 266.714844 L 257.148438 264.035156 C 259.828125 263.269531 262.125 262.121094 264.035156 260.589844 C 266.332031 258.292969 267.480469 255.613281 267.480469 252.554688 C 266.714844 248.34375 265.183594 240.691406 253.703125 239.160156 Z M 253.703125 239.160156 " fill-opacity="1" fill-rule="nonzero"/><g clip-path="url(#6364aaf7c8)"><path fill="#050c9c" d="M 300.390625 242.988281 C 300.390625 220.789062 285.085938 202.039062 264.035156 197.0625 L 264.035156 115.550781 C 264.035156 114.402344 263.652344 113.636719 262.886719 112.871094 L 220.792969 70.011719 C 220.027344 69.246094 218.878906 68.863281 218.113281 68.863281 L 86.46875 68.863281 C 79.964844 68.863281 74.605469 74.222656 74.605469 80.726562 L 74.605469 294.265625 C 74.605469 300.773438 79.964844 306.128906 86.46875 306.128906 L 252.554688 306.128906 C 259.0625 306.128906 264.417969 300.773438 264.417969 294.265625 L 264.417969 288.910156 C 285.085938 283.933594 300.390625 265.566406 300.390625 242.988281 Z M 221.941406 81.875 L 251.40625 111.34375 L 226.152344 111.34375 C 223.855469 111.34375 221.941406 109.429688 221.941406 107.132812 Z M 256.765625 294.265625 C 256.765625 296.5625 254.851562 298.476562 252.554688 298.476562 L 86.46875 298.476562 C 84.175781 298.476562 82.261719 296.5625 82.261719 294.265625 L 82.261719 80.726562 C 82.261719 78.429688 84.175781 76.519531 86.46875 76.519531 L 214.289062 76.519531 L 214.289062 107.515625 C 214.289062 114.019531 219.644531 119.378906 226.152344 119.378906 L 256.765625 119.378906 L 256.765625 196.296875 C 255.617188 196.296875 254.46875 196.296875 253.320312 196.296875 C 227.296875 196.296875 205.867188 217.347656 205.867188 243.75 C 205.867188 269.773438 227.296875 291.203125 253.320312 291.203125 C 254.46875 291.203125 255.617188 291.203125 256.765625 291.203125 Z M 252.9375 282.785156 C 231.125 282.785156 213.140625 265.183594 213.140625 242.988281 C 213.140625 220.789062 231.125 203.1875 252.9375 203.1875 C 274.75 203.1875 292.738281 220.789062 292.738281 242.988281 C 292.738281 265.183594 275.132812 282.785156 252.9375 282.785156 Z M 252.9375 282.785156 " fill-opacity="1" fill-rule="nonzero"/></g></svg>