<svg xmlns="http://www.w3.org/2000/svg" xmlns:xlink="http://www.w3.org/1999/xlink" width="500" zoomAndPan="magnify" viewBox="0 0 375 374.999991" height="500" preserveAspectRatio="xMidYMid meet" version="1.0"><defs><clipPath id="c2cdd916ce"><path d="M 12.769531 25 L 349 25 L 349 361.953125 L 12.769531 361.953125 Z M 12.769531 25 " clip-rule="nonzero"/></clipPath><clipPath id="63efbcbe24"><path d="M 171 13.203125 L 362 13.203125 L 362 204 L 171 204 Z M 171 13.203125 " clip-rule="nonzero"/></clipPath></defs><path fill="#100f0d" d="M 180.605469 145.570312 C 185.804688 145.570312 190.027344 141.355469 190.027344 136.148438 C 190.027344 130.941406 185.804688 126.722656 180.605469 126.722656 C 143.632812 126.722656 113.558594 156.808594 113.558594 193.789062 C 113.558594 230.769531 143.632812 260.859375 180.605469 260.859375 C 217.578125 260.859375 247.648438 230.769531 247.648438 193.789062 C 247.648438 188.582031 243.429688 184.367188 238.230469 184.367188 C 233.03125 184.367188 228.808594 188.582031 228.808594 193.789062 C 228.808594 220.378906 207.179688 242.007812 180.605469 242.007812 C 154.03125 242.007812 132.402344 220.378906 132.402344 193.789062 C 132.402344 167.203125 154.03125 145.570312 180.605469 145.570312 " fill-opacity="1" fill-rule="nonzero"/><path fill="#100f0d" d="M 180.605469 78.363281 C 116.976562 78.363281 65.21875 130.140625 65.21875 193.789062 C 65.21875 257.4375 116.976562 309.21875 180.605469 309.21875 C 244.234375 309.21875 296.003906 257.4375 296.003906 193.789062 C 296.003906 188.582031 291.78125 184.367188 286.582031 184.367188 C 281.378906 184.367188 277.15625 188.582031 277.15625 193.789062 C 277.15625 247.042969 233.847656 290.371094 180.605469 290.371094 C 127.375 290.371094 84.0625 247.042969 84.0625 193.789062 C 84.0625 140.535156 127.375 97.210938 180.605469 97.210938 C 185.804688 97.210938 190.027344 92.992188 190.027344 87.785156 C 190.027344 82.578125 185.804688 78.363281 180.605469 78.363281 " fill-opacity="1" fill-rule="nonzero"/><g clip-path="url(#c2cdd916ce)"><path fill="#100f0d" d="M 339.0625 184.367188 C 333.863281 184.367188 329.640625 188.582031 329.640625 193.789062 C 329.640625 275.984375 262.777344 342.863281 180.605469 342.863281 C 98.433594 342.863281 31.582031 275.984375 31.582031 193.789062 C 31.582031 111.589844 98.433594 44.710938 180.605469 44.710938 C 185.804688 44.710938 190.027344 40.492188 190.027344 35.289062 C 190.027344 30.082031 185.804688 25.859375 180.605469 25.859375 C 88.042969 25.859375 12.738281 101.191406 12.738281 193.789062 C 12.738281 286.382812 88.042969 361.710938 180.605469 361.710938 C 273.179688 361.710938 348.484375 286.382812 348.484375 193.789062 C 348.484375 188.582031 344.261719 184.367188 339.0625 184.367188 " fill-opacity="1" fill-rule="nonzero"/></g><g clip-path="url(#63efbcbe24)"><path fill="#100f0d" d="M 303.144531 111.96875 L 282.074219 106.933594 L 312.601562 76.394531 L 333.675781 81.425781 Z M 263.699219 72.519531 L 294.242188 41.972656 L 299.027344 61.996094 L 268.484375 92.550781 Z M 361.320312 73.621094 C 360.402344 70.335938 357.769531 67.800781 354.441406 67.007812 L 317.492188 58.171875 L 308.65625 21.199219 C 307.863281 17.878906 305.332031 15.253906 302.054688 14.316406 C 298.765625 13.417969 295.242188 14.316406 292.824219 16.722656 L 246.652344 62.910156 C 244.324219 65.230469 243.382812 68.582031 244.140625 71.773438 L 252.847656 108.191406 L 173.945312 187.121094 C 170.265625 190.804688 170.265625 196.777344 173.945312 200.460938 C 175.785156 202.292969 178.1875 203.214844 180.605469 203.214844 C 183.019531 203.214844 185.425781 202.292969 187.269531 200.460938 L 265.375 122.324219 L 303.894531 131.539062 C 304.617188 131.710938 305.355469 131.792969 306.078125 131.792969 C 308.554688 131.792969 310.957031 130.820312 312.742188 129.035156 L 358.917969 82.851562 C 361.332031 80.433594 362.253906 76.90625 361.320312 73.621094 " fill-opacity="1" fill-rule="nonzero"/></g></svg>