<svg xmlns="http://www.w3.org/2000/svg" xmlns:xlink="http://www.w3.org/1999/xlink" width="500" zoomAndPan="magnify" viewBox="0 0 375 374.999991" height="500" preserveAspectRatio="xMidYMid meet" version="1.0"><defs><clipPath id="fdb211e36a"><path d="M 183 14.90625 L 192 14.90625 L 192 53 L 183 53 Z M 183 14.90625 " clip-rule="nonzero"/></clipPath><clipPath id="c17f159230"><path d="M 8.878906 61 L 365.878906 61 L 365.878906 359.90625 L 8.878906 359.90625 Z M 8.878906 61 " clip-rule="nonzero"/></clipPath></defs><g clip-path="url(#fdb211e36a)"><path fill="#100f0d" d="M 187.382812 52.359375 C 189.570312 52.359375 191.339844 50.589844 191.339844 48.402344 L 191.339844 18.878906 C 191.339844 16.6875 189.570312 14.914062 187.382812 14.914062 C 185.1875 14.914062 183.417969 16.6875 183.417969 18.878906 L 183.417969 48.402344 C 183.417969 50.589844 185.1875 52.359375 187.382812 52.359375 " fill-opacity="1" fill-rule="nonzero"/></g><path fill="#100f0d" d="M 141.804688 59.976562 C 142.578125 61.058594 143.792969 61.636719 145.03125 61.636719 C 145.832031 61.636719 146.632812 61.398438 147.328125 60.898438 C 149.109375 59.628906 149.523438 57.15625 148.253906 55.375 L 131.117188 31.339844 C 129.84375 29.558594 127.378906 29.140625 125.589844 30.414062 C 123.8125 31.683594 123.398438 34.160156 124.664062 35.9375 L 141.804688 59.976562 " fill-opacity="1" fill-rule="nonzero"/><path fill="#100f0d" d="M 92.082031 81.402344 L 118.453125 94.667969 C 119.027344 94.957031 119.632812 95.09375 120.226562 95.09375 C 121.679688 95.09375 123.074219 94.289062 123.769531 92.910156 C 124.753906 90.957031 123.964844 88.574219 122.011719 87.589844 L 95.640625 74.324219 C 93.675781 73.339844 91.304688 74.132812 90.324219 76.085938 C 89.339844 78.039062 90.128906 80.417969 92.082031 81.402344 " fill-opacity="1" fill-rule="nonzero"/><path fill="#100f0d" d="M 227.429688 60.898438 C 228.128906 61.398438 228.929688 61.636719 229.726562 61.636719 C 230.964844 61.636719 232.183594 61.058594 232.957031 59.976562 L 250.09375 35.9375 C 251.363281 34.160156 250.949219 31.683594 249.167969 30.414062 C 247.386719 29.144531 244.914062 29.558594 243.640625 31.339844 L 226.503906 55.375 C 225.238281 57.15625 225.648438 59.628906 227.429688 60.898438 " fill-opacity="1" fill-rule="nonzero"/><path fill="#100f0d" d="M 250.988281 92.910156 C 251.683594 94.289062 253.082031 95.09375 254.53125 95.09375 C 255.125 95.09375 255.738281 94.957031 256.304688 94.667969 L 282.679688 81.402344 C 284.628906 80.417969 285.417969 78.039062 284.4375 76.085938 C 283.453125 74.136719 281.074219 73.34375 279.121094 74.324219 L 252.75 87.589844 C 250.796875 88.574219 250.007812 90.957031 250.988281 92.910156 " fill-opacity="1" fill-rule="nonzero"/><path fill="#100f0d" d="M 77.269531 208.722656 C 77.734375 208.5625 123.9375 193.472656 156.007812 217.664062 C 156.726562 218.199219 157.558594 218.460938 158.390625 218.460938 C 159.59375 218.460938 160.777344 217.917969 161.558594 216.882812 C 162.875 215.140625 162.523438 212.65625 160.78125 211.335938 C 125.328125 184.597656 76.789062 200.527344 74.742188 201.214844 C 72.671875 201.914062 71.558594 204.160156 72.257812 206.234375 C 72.953125 208.304688 75.199219 209.425781 77.269531 208.722656 " fill-opacity="1" fill-rule="nonzero"/><path fill="#100f0d" d="M 156.007812 265.214844 C 156.726562 265.757812 157.5625 266.015625 158.390625 266.015625 C 159.59375 266.015625 160.777344 265.472656 161.558594 264.441406 C 162.875 262.691406 162.523438 260.207031 160.78125 258.890625 C 125.328125 232.160156 76.789062 248.082031 74.742188 248.769531 C 72.671875 249.472656 71.558594 251.714844 72.257812 253.789062 C 72.953125 255.859375 75.199219 256.992188 77.269531 256.28125 C 77.734375 256.125 123.9375 241.027344 156.007812 265.214844 " fill-opacity="1" fill-rule="nonzero"/><path fill="#100f0d" d="M 213.199219 216.882812 C 213.980469 217.917969 215.164062 218.460938 216.371094 218.460938 C 217.199219 218.460938 218.039062 218.199219 218.75 217.664062 C 250.820312 193.472656 297.023438 208.566406 297.484375 208.722656 C 299.566406 209.429688 301.804688 208.304688 302.5 206.234375 C 303.195312 204.160156 302.085938 201.914062 300.011719 201.214844 C 297.964844 200.527344 249.433594 184.59375 213.980469 211.335938 C 212.234375 212.65625 211.886719 215.140625 213.199219 216.882812 " fill-opacity="1" fill-rule="nonzero"/><path fill="#100f0d" d="M 300.011719 248.769531 C 297.960938 248.082031 249.421875 232.15625 213.980469 258.890625 C 212.234375 260.207031 211.886719 262.691406 213.199219 264.441406 C 213.980469 265.472656 215.164062 266.015625 216.371094 266.015625 C 217.199219 266.015625 218.039062 265.757812 218.75 265.214844 C 250.820312 241.03125 297.023438 256.125 297.484375 256.28125 C 299.566406 256.992188 301.804688 255.863281 302.5 253.789062 C 303.195312 251.714844 302.085938 249.472656 300.011719 248.769531 " fill-opacity="1" fill-rule="nonzero"/><g clip-path="url(#c17f159230)"><path fill="#100f0d" d="M 357.875 336.964844 C 334.035156 327.695312 241.613281 296.578125 198.464844 351.972656 L 176.289062 351.972656 C 133.15625 296.582031 40.722656 327.699219 16.882812 336.964844 L 16.882812 149.617188 C 20.101562 147.726562 27.5625 143.941406 36.179688 143.5 L 36.179688 309.410156 C 36.179688 310.671875 36.78125 311.855469 37.800781 312.605469 C 38.816406 313.351562 40.128906 313.574219 41.332031 313.1875 C 42.300781 312.882812 138.917969 283.207031 184.429688 333.917969 C 184.445312 333.929688 184.457031 333.941406 184.46875 333.953125 C 184.492188 333.976562 184.515625 334 184.535156 334.023438 C 184.644531 334.132812 184.753906 334.234375 184.871094 334.332031 C 184.902344 334.355469 184.933594 334.382812 184.964844 334.40625 C 185.261719 334.632812 185.578125 334.816406 185.914062 334.945312 C 185.929688 334.957031 185.945312 334.964844 185.964844 334.972656 C 185.980469 334.980469 186 334.980469 186.019531 334.988281 C 186.21875 335.0625 186.429688 335.121094 186.636719 335.160156 C 186.667969 335.167969 186.695312 335.171875 186.726562 335.171875 C 186.941406 335.210938 187.160156 335.230469 187.382812 335.230469 C 187.59375 335.230469 187.804688 335.210938 188.015625 335.175781 C 188.050781 335.171875 188.089844 335.167969 188.125 335.15625 C 188.324219 335.121094 188.519531 335.066406 188.710938 335 C 188.753906 334.984375 188.792969 334.96875 188.835938 334.949219 C 189.03125 334.875 189.214844 334.785156 189.394531 334.679688 C 189.421875 334.664062 189.449219 334.644531 189.472656 334.625 C 189.785156 334.433594 190.074219 334.199219 190.328125 333.917969 C 235.847656 283.207031 332.460938 312.882812 333.421875 313.1875 C 334.632812 313.578125 335.945312 313.351562 336.953125 312.605469 C 337.972656 311.855469 338.574219 310.671875 338.574219 309.410156 L 338.574219 143.355469 C 346.632812 143.078125 353.753906 143.191406 357.875 143.316406 Z M 44.101562 126.113281 C 55.769531 122.898438 102.125 111.621094 142.378906 122.714844 C 144.308594 128.953125 147.519531 134.769531 151.875 139.761719 C 156.871094 145.484375 159.617188 153.164062 159.625 161.394531 L 159.628906 174.144531 C 159.628906 176.332031 161.40625 178.101562 163.59375 178.101562 L 211.167969 178.101562 C 213.355469 178.101562 215.128906 176.332031 215.128906 174.140625 L 215.128906 160.734375 C 215.128906 153.121094 218.050781 145.484375 223.347656 139.226562 C 223.347656 139.226562 223.347656 139.226562 223.351562 139.222656 C 227.523438 134.296875 230.570312 128.695312 232.414062 122.707031 C 272.660156 111.628906 318.988281 122.898438 330.652344 126.113281 L 330.652344 304.148438 C 310.277344 298.675781 235.792969 282.320312 191.339844 321.753906 L 191.339844 196.359375 L 210.636719 196.359375 C 212.828125 196.359375 214.597656 194.585938 214.597656 192.394531 C 214.597656 190.210938 212.828125 188.4375 210.636719 188.4375 L 164.125 188.4375 C 161.933594 188.4375 160.160156 190.210938 160.160156 192.394531 C 160.160156 194.585938 161.933594 196.359375 164.125 196.359375 L 183.417969 196.359375 L 183.417969 321.769531 C 138.972656 282.324219 64.480469 298.671875 44.101562 304.148438 Z M 161.265625 79.558594 C 169.691406 72.023438 180.570312 68.578125 191.917969 69.839844 C 210.066406 71.875 224.558594 86.554688 226.371094 104.753906 C 226.828125 109.371094 226.496094 113.925781 225.417969 118.269531 C 225.359375 118.4375 225.316406 118.613281 225.285156 118.789062 C 223.820312 124.363281 221.132812 129.582031 217.300781 134.101562 C 210.789062 141.789062 207.203125 151.25 207.203125 160.734375 L 207.203125 170.179688 L 167.550781 170.179688 L 167.546875 161.386719 C 167.542969 151.246094 164.09375 141.714844 157.84375 134.550781 C 153.835938 129.964844 151 124.542969 149.476562 118.730469 C 149.453125 118.625 149.425781 118.511719 149.394531 118.402344 C 148.605469 115.28125 148.191406 112.054688 148.191406 108.789062 C 148.191406 97.644531 152.957031 86.992188 161.265625 79.558594 Z M 362.042969 135.546875 C 361.585938 135.519531 351.394531 135 338.574219 135.425781 L 338.574219 123.136719 C 338.574219 121.40625 337.453125 119.878906 335.804688 119.355469 C 333.53125 118.640625 281.667969 102.585938 234.199219 114.066406 C 234.5625 110.753906 234.589844 107.375 234.253906 103.964844 C 232.074219 82.074219 214.640625 64.414062 192.796875 61.96875 C 179.378906 60.445312 165.960938 64.722656 155.984375 73.652344 C 145.996094 82.589844 140.265625 95.394531 140.265625 108.789062 C 140.265625 110.5625 140.378906 112.324219 140.574219 114.070312 C 93.101562 102.589844 41.222656 118.636719 38.949219 119.355469 C 37.300781 119.878906 36.179688 121.40625 36.179688 123.136719 L 36.179688 135.546875 C 22.191406 136.078125 11.136719 143.835938 10.636719 144.1875 C 9.585938 144.929688 8.957031 146.136719 8.957031 147.421875 L 8.957031 342.859375 C 8.957031 344.195312 9.632812 345.4375 10.75 346.171875 C 11.867188 346.90625 13.28125 347.023438 14.5 346.488281 C 15.621094 346 126.855469 298.421875 171.140625 358.292969 C 171.886719 359.300781 173.066406 359.898438 174.324219 359.898438 L 200.433594 359.898438 C 201.691406 359.898438 202.867188 359.300781 203.617188 358.292969 C 247.898438 298.421875 359.132812 346 360.257812 346.488281 C 361.476562 347.019531 362.890625 346.90625 364.007812 346.171875 C 365.125 345.4375 365.796875 344.195312 365.796875 342.859375 L 365.796875 139.5 C 365.796875 137.394531 364.148438 135.65625 362.042969 135.546875 " fill-opacity="1" fill-rule="nonzero"/></g></svg>