<svg xmlns="http://www.w3.org/2000/svg" xmlns:xlink="http://www.w3.org/1999/xlink" width="500" zoomAndPan="magnify" viewBox="0 0 375 374.999991" height="500" preserveAspectRatio="xMidYMid meet" version="1.0"><defs><clipPath id="ebd51b4adc"><path d="M 45.261719 13.777344 L 329.511719 13.777344 L 329.511719 361.027344 L 45.261719 361.027344 Z M 45.261719 13.777344 " clip-rule="nonzero"/></clipPath></defs><g clip-path="url(#ebd51b4adc)"><path fill="#00abe4" d="M 296.910156 280.933594 C 279.917969 274.148438 256.878906 269.050781 231.25 266.351562 C 264.402344 221.632812 301.101562 164.625 301.101562 127.34375 C 301.101562 64.722656 250.15625 13.777344 187.535156 13.777344 C 124.910156 13.777344 73.964844 64.722656 73.964844 127.34375 C 73.964844 150.3125 88.410156 184.042969 116.898438 227.59375 C 125.632812 240.953125 134.945312 254.109375 143.96875 266.335938 C 118.300781 269.03125 95.222656 274.125 78.203125 280.917969 C 51.089844 291.738281 45.398438 304.15625 45.398438 312.667969 C 45.398438 344.199219 118.628906 361.214844 187.535156 361.214844 C 256.4375 361.214844 329.667969 344.199219 329.667969 312.667969 C 329.667969 304.164062 323.984375 291.75 296.910156 280.933594 Z M 84.824219 127.34375 C 84.824219 70.710938 130.898438 24.632812 187.535156 24.632812 C 244.167969 24.632812 290.246094 70.710938 290.246094 127.34375 C 290.246094 148.394531 276.585938 179.960938 249.648438 221.167969 C 228.300781 253.824219 203.507812 285.042969 187.535156 304.960938 C 155.683594 265.160156 84.824219 174.703125 84.824219 127.34375 Z M 183.300781 317.035156 C 184.328125 318.316406 185.886719 319.066406 187.535156 319.066406 C 189.179688 319.066406 190.738281 318.316406 191.769531 317.035156 L 193.371094 315.039062 C 196.84375 310.710938 200.824219 305.75 205.152344 300.289062 C 232.132812 302.582031 242.945312 309.179688 243.824219 311.429688 C 243.378906 312.503906 239.773438 315.84375 228.160156 318.867188 C 217.144531 321.730469 202.71875 323.3125 187.535156 323.3125 C 172.351562 323.3125 157.921875 321.730469 146.90625 318.867188 C 135.292969 315.84375 131.691406 312.503906 131.246094 311.429688 C 132.125 309.179688 142.941406 302.578125 169.945312 300.285156 C 175.023438 306.71875 179.5625 312.378906 183.300781 317.035156 Z M 282.566406 337.980469 C 257.261719 345.960938 223.511719 350.355469 187.535156 350.355469 C 151.558594 350.355469 117.808594 345.960938 92.5 337.980469 C 69.804688 330.820312 56.253906 321.359375 56.253906 312.667969 C 56.253906 298.832031 91.835938 281.707031 151.566406 276.511719 C 155.175781 281.289062 158.691406 285.871094 162.058594 290.210938 C 145.730469 292.25 120.367188 297.644531 120.367188 311.429688 C 120.367188 329.378906 162.585938 334.167969 187.535156 334.167969 C 212.480469 334.167969 254.703125 329.378906 254.703125 311.429688 C 254.703125 297.660156 229.390625 292.265625 213.074219 290.21875 C 216.46875 285.867188 220.003906 281.289062 223.621094 276.523438 C 283.277344 281.730469 318.8125 298.847656 318.8125 312.667969 C 318.8125 321.359375 305.261719 330.820312 282.566406 337.980469 Z M 245.355469 127.210938 C 245.355469 95.328125 219.417969 69.390625 187.535156 69.390625 C 155.648438 69.390625 129.710938 95.328125 129.710938 127.210938 C 129.710938 159.097656 155.648438 185.035156 187.535156 185.035156 C 219.417969 185.035156 245.355469 159.097656 245.355469 127.210938 Z M 187.535156 174.175781 C 161.636719 174.175781 140.570312 153.109375 140.570312 127.210938 C 140.570312 101.316406 161.636719 80.25 187.535156 80.25 C 213.429688 80.25 234.496094 101.316406 234.496094 127.210938 C 234.496094 153.109375 213.429688 174.175781 187.535156 174.175781 Z M 187.535156 174.175781 " fill-opacity="1" fill-rule="nonzero"/></g></svg>