<svg xmlns="http://www.w3.org/2000/svg" xmlns:xlink="http://www.w3.org/1999/xlink" width="500" zoomAndPan="magnify" viewBox="0 0 375 374.999991" height="500" preserveAspectRatio="xMidYMid meet" version="1.0"><defs><clipPath id="9ebc4124ed"><path d="M 18.75 18.75 L 356.25 18.75 L 356.25 356.25 L 18.75 356.25 Z M 18.75 18.75 " clip-rule="nonzero"/></clipPath></defs><g clip-path="url(#9ebc4124ed)"><path fill="#ffabf7" d="M 121.378906 192.816406 C 125.921875 188.269531 125.816406 182.480469 124.199219 178.578125 C 122.582031 174.675781 118.5625 170.503906 112.136719 170.503906 C 106.578125 170.503906 102.054688 165.984375 102.054688 160.425781 L 102.054688 144.292969 C 102.054688 138.734375 106.578125 134.210938 112.136719 134.210938 C 118.5625 134.210938 122.582031 130.042969 124.199219 126.140625 C 125.816406 122.238281 125.921875 116.445312 121.378906 111.902344 C 117.449219 107.972656 117.449219 101.578125 121.378906 97.644531 L 132.785156 86.238281 C 134.6875 84.335938 137.222656 83.285156 139.914062 83.285156 C 142.609375 83.285156 145.140625 84.335938 147.042969 86.238281 C 151.585938 90.78125 157.378906 90.675781 161.28125 89.058594 C 165.183594 87.441406 169.355469 83.425781 169.355469 76.996094 C 169.355469 71.4375 173.875 66.917969 179.433594 66.917969 L 195.566406 66.917969 C 201.125 66.917969 205.644531 71.4375 205.644531 76.996094 C 205.644531 83.425781 209.816406 87.441406 213.71875 89.058594 C 217.621094 90.671875 223.410156 90.78125 227.957031 86.238281 C 231.886719 82.308594 238.28125 82.308594 242.214844 86.238281 L 253.621094 97.644531 C 257.550781 101.578125 257.550781 107.972656 253.621094 111.902344 C 249.074219 116.445312 249.183594 122.238281 250.800781 126.140625 C 252.417969 130.042969 256.433594 134.210938 262.863281 134.210938 C 268.421875 134.210938 272.941406 138.734375 272.941406 144.292969 L 272.941406 160.425781 C 272.941406 165.984375 268.421875 170.503906 262.863281 170.503906 C 256.433594 170.503906 252.417969 174.675781 250.800781 178.578125 C 249.183594 182.480469 249.074219 188.269531 253.621094 192.816406 C 255.523438 194.71875 256.574219 197.25 256.574219 199.945312 C 256.574219 202.636719 255.523438 205.167969 253.621094 207.074219 L 242.214844 218.480469 C 238.28125 222.410156 231.886719 222.410156 227.957031 218.480469 C 224.828125 215.351562 220.582031 214.035156 216.304688 214.878906 C 213.714844 215.390625 211.199219 213.699219 210.6875 211.109375 C 210.179688 208.515625 211.867188 206.003906 214.460938 205.492188 C 221.914062 204.027344 229.296875 206.296875 234.71875 211.714844 C 234.921875 211.917969 235.25 211.917969 235.449219 211.714844 L 246.859375 200.308594 C 246.957031 200.210938 247.007812 200.085938 247.007812 199.945312 C 247.007812 199.804688 246.957031 199.679688 246.859375 199.582031 C 240.269531 192.988281 238.394531 183.539062 241.964844 174.917969 C 245.535156 166.296875 253.542969 160.941406 262.863281 160.941406 C 263.144531 160.941406 263.378906 160.710938 263.378906 160.425781 L 263.378906 144.292969 C 263.378906 144.007812 263.144531 143.777344 262.863281 143.777344 C 253.542969 143.777344 245.535156 138.421875 241.964844 129.800781 C 238.390625 121.179688 240.265625 111.726562 246.859375 105.136719 C 247.058594 104.9375 247.058594 104.609375 246.859375 104.40625 L 235.449219 93 C 235.25 92.800781 234.921875 92.800781 234.71875 93 C 228.128906 99.589844 218.679688 101.464844 210.058594 97.894531 C 201.4375 94.324219 196.082031 86.316406 196.082031 76.996094 C 196.082031 76.710938 195.851562 76.480469 195.566406 76.480469 L 179.433594 76.480469 C 179.148438 76.480469 178.917969 76.710938 178.917969 76.996094 C 178.917969 86.316406 173.5625 94.324219 164.941406 97.894531 C 156.320312 101.46875 146.867188 99.589844 140.28125 93 C 140.078125 92.800781 139.75 92.800781 139.550781 93 L 128.144531 104.40625 C 127.941406 104.609375 127.941406 104.9375 128.144531 105.136719 C 134.734375 111.726562 136.609375 121.179688 133.035156 129.800781 C 129.464844 138.421875 121.457031 143.777344 112.136719 143.777344 C 111.855469 143.777344 111.621094 144.007812 111.621094 144.292969 L 111.621094 160.425781 C 111.621094 160.710938 111.855469 160.941406 112.136719 160.941406 C 121.457031 160.941406 129.464844 166.296875 133.035156 174.917969 C 136.609375 183.539062 134.734375 192.988281 128.144531 199.578125 C 128.042969 199.679688 127.992188 199.804688 127.992188 199.945312 C 127.992188 200.085938 128.042969 200.210938 128.144531 200.308594 L 139.550781 211.714844 C 139.75 211.917969 140.082031 211.917969 140.28125 211.714844 C 145.773438 206.226562 153.242188 203.96875 160.773438 205.527344 C 163.359375 206.0625 165.023438 208.59375 164.488281 211.179688 C 163.953125 213.765625 161.421875 215.429688 158.835938 214.894531 C 154.515625 214 150.21875 215.304688 147.042969 218.480469 C 145.140625 220.382812 142.609375 221.433594 139.914062 221.433594 C 137.222656 221.433594 134.691406 220.382812 132.789062 218.480469 L 121.378906 207.074219 C 119.476562 205.167969 118.429688 202.636719 118.429688 199.945312 C 118.425781 197.25 119.476562 194.71875 121.378906 192.816406 Z M 145.039062 281.183594 C 145.039062 278.542969 142.898438 276.402344 140.257812 276.402344 L 23.53125 276.402344 C 20.890625 276.402344 18.75 278.542969 18.75 281.183594 C 18.75 283.824219 20.890625 285.964844 23.53125 285.964844 L 140.257812 285.964844 C 142.898438 285.964844 145.039062 283.824219 145.039062 281.183594 Z M 187.5 118.382812 C 206.234375 118.382812 221.472656 133.625 221.472656 152.359375 C 221.472656 161.195312 218.097656 169.5625 211.96875 175.925781 C 210.136719 177.828125 210.195312 180.855469 212.097656 182.6875 C 214 184.519531 217.027344 184.460938 218.859375 182.558594 C 226.710938 174.40625 231.039062 163.679688 231.039062 152.359375 C 231.039062 128.351562 211.507812 108.820312 187.5 108.820312 C 163.492188 108.820312 143.960938 128.351562 143.960938 152.359375 C 143.960938 163.8125 148.371094 174.625 156.382812 182.808594 C 157.316406 183.765625 158.558594 184.246094 159.800781 184.246094 C 161.007812 184.246094 162.214844 183.792969 163.144531 182.882812 C 165.03125 181.035156 165.066406 178.003906 163.21875 176.117188 C 156.96875 169.734375 153.527344 161.296875 153.527344 152.359375 C 153.527344 133.625 168.765625 118.382812 187.5 118.382812 Z M 354.847656 277.800781 L 334.621094 257.574219 C 332.753906 255.710938 329.726562 255.707031 327.859375 257.578125 C 325.992188 259.445312 325.992188 262.472656 327.859375 264.339844 L 339.921875 276.402344 L 300.484375 276.402344 C 297.84375 276.402344 295.703125 278.542969 295.703125 281.183594 C 295.703125 283.824219 297.84375 285.964844 300.484375 285.964844 L 339.921875 285.964844 L 327.859375 298.027344 C 325.992188 299.894531 325.992188 302.925781 327.859375 304.792969 C 328.792969 305.726562 330.019531 306.191406 331.242188 306.191406 C 332.464844 306.191406 333.691406 305.726562 334.625 304.792969 L 354.851562 284.566406 C 355.746094 283.667969 356.25 282.453125 356.25 281.183594 C 356.25 279.914062 355.746094 278.699219 354.847656 277.800781 Z M 317.261719 120.511719 L 328.320312 126.894531 C 330.609375 128.214844 333.53125 127.433594 334.851562 125.144531 C 336.171875 122.855469 335.390625 119.933594 333.101562 118.613281 L 313.222656 107.132812 C 294.648438 55.652344 245.304688 18.75 187.5 18.75 C 126.769531 18.75 75.382812 59.480469 59.199219 115.054688 L 52.8125 104 C 51.492188 101.710938 48.566406 100.929688 46.28125 102.25 C 43.996094 103.570312 43.210938 106.496094 44.53125 108.78125 L 56 128.648438 C 54.617188 136.34375 53.890625 144.269531 53.890625 152.359375 C 53.890625 202.484375 81.5625 247.96875 126.105469 271.054688 C 126.808594 271.417969 127.558594 271.59375 128.300781 271.59375 C 130.03125 271.59375 131.699219 270.652344 132.550781 269.007812 C 133.765625 266.664062 132.847656 263.777344 130.503906 262.5625 C 89.148438 241.125 63.457031 198.898438 63.457031 152.359375 C 63.457031 145.019531 64.101562 137.835938 65.328125 130.84375 L 84.835938 119.582031 C 87.125 118.261719 87.90625 115.335938 86.585938 113.050781 C 85.265625 110.761719 82.339844 109.980469 80.054688 111.296875 L 68.269531 118.101562 C 83.171875 66.3125 130.980469 28.316406 187.5 28.316406 C 240.992188 28.316406 286.683594 62.351562 304.058594 109.90625 L 292.796875 129.410156 C 291.476562 131.699219 292.261719 134.625 294.546875 135.945312 C 295.300781 136.378906 296.125 136.585938 296.933594 136.585938 C 298.589844 136.585938 300.195312 135.726562 301.082031 134.195312 L 307.882812 122.414062 C 310.269531 132.007812 311.542969 142.035156 311.542969 152.359375 C 311.542969 179.855469 302.734375 205.902344 286.0625 227.679688 C 284.457031 229.777344 284.859375 232.777344 286.957031 234.382812 C 289.054688 235.988281 292.054688 235.589844 293.660156 233.492188 C 311.617188 210.03125 321.109375 181.972656 321.109375 152.355469 C 321.109375 141.386719 319.769531 130.722656 317.261719 120.511719 Z M 291.375 252.253906 L 291.710938 294.742188 C 291.664062 311.816406 284.53125 328.273438 272.144531 339.9375 C 260.898438 350.527344 246.390625 356.25 230.96875 356.25 C 229.773438 356.25 228.578125 356.214844 227.371094 356.148438 C 196.621094 354.386719 187.132812 346.4375 171.40625 333.269531 C 166.015625 328.753906 159.902344 323.632812 151.78125 317.742188 C 142.300781 310.863281 139.882812 297.820312 146.273438 288.054688 C 152.183594 279.023438 160.730469 278.40625 168.691406 280.078125 L 168.679688 176.675781 C 168.683594 171.632812 170.660156 166.882812 174.246094 163.304688 C 177.828125 159.726562 182.574219 157.757812 187.609375 157.757812 C 187.613281 157.757812 187.617188 157.757812 187.621094 157.757812 C 192.660156 157.761719 197.40625 159.734375 200.988281 163.320312 C 204.570312 166.90625 206.539062 171.65625 206.535156 176.695312 L 206.472656 235.9375 C 209.332031 234.226562 212.5625 233.316406 215.894531 233.316406 C 215.902344 233.316406 215.90625 233.316406 215.910156 233.316406 C 220.949219 233.320312 225.695312 235.292969 229.277344 238.878906 C 229.539062 239.140625 229.792969 239.410156 230.039062 239.683594 C 230.289062 239.40625 230.546875 239.132812 230.8125 238.867188 C 234.394531 235.285156 239.140625 233.316406 244.175781 233.316406 C 244.179688 233.316406 244.183594 233.316406 244.1875 233.316406 C 249.230469 233.320312 253.984375 235.296875 257.566406 238.890625 C 257.824219 239.148438 258.074219 239.414062 258.3125 239.683594 C 258.558594 239.40625 258.816406 239.132812 259.082031 238.871094 C 262.660156 235.289062 267.40625 233.316406 272.445312 233.316406 C 272.449219 233.316406 272.453125 233.316406 272.460938 233.316406 C 277.496094 233.320312 282.246094 235.292969 285.828125 238.878906 C 289.40625 242.464844 291.378906 247.214844 291.375 252.253906 Z M 282.144531 294.769531 L 281.808594 252.285156 C 281.8125 249.761719 280.835938 247.414062 279.058594 245.636719 C 277.285156 243.859375 274.9375 242.878906 272.453125 242.878906 C 272.449219 242.878906 272.449219 242.878906 272.445312 242.878906 C 269.960938 242.878906 267.617188 243.855469 265.84375 245.628906 C 264.074219 247.398438 263.097656 249.730469 263.09375 252.207031 C 263.09375 252.21875 263.09375 252.234375 263.09375 252.25 C 263.085938 254.886719 260.949219 257.023438 258.3125 257.023438 C 258.308594 257.023438 258.308594 257.023438 258.308594 257.023438 C 255.667969 257.019531 253.53125 254.882812 253.527344 252.242188 C 253.527344 252.238281 253.527344 252.234375 253.527344 252.230469 C 253.527344 252.21875 253.527344 252.214844 253.527344 252.207031 C 253.527344 249.738281 252.554688 247.410156 250.792969 245.640625 C 249.015625 243.863281 246.667969 242.878906 244.179688 242.878906 C 244.179688 242.878906 244.175781 242.878906 244.175781 242.878906 C 241.691406 242.878906 239.347656 243.855469 237.574219 245.628906 C 235.796875 247.402344 234.816406 249.75 234.820312 252.238281 C 234.820312 252.242188 234.820312 252.246094 234.820312 252.25 C 234.8125 254.886719 232.675781 257.023438 230.035156 257.023438 C 230.035156 257.023438 230.035156 257.023438 230.03125 257.023438 C 227.394531 257.019531 225.253906 254.882812 225.253906 252.242188 C 225.253906 252.226562 225.253906 252.210938 225.253906 252.199219 C 225.25 249.734375 224.273438 247.402344 222.511719 245.636719 C 220.734375 243.859375 218.386719 242.878906 215.902344 242.878906 C 215.902344 242.878906 215.898438 242.878906 215.894531 242.878906 C 213.523438 242.878906 211.21875 243.878906 209.410156 245.695312 C 207.550781 247.5625 206.476562 250.0625 206.457031 252.570312 L 206.457031 252.71875 C 206.453125 255.355469 204.316406 257.488281 201.683594 257.496094 C 201.679688 257.496094 201.675781 257.496094 201.671875 257.496094 C 199.042969 257.496094 196.902344 255.371094 196.890625 252.738281 C 196.890625 252.667969 196.890625 252.601562 196.890625 252.535156 L 196.96875 176.6875 C 196.972656 174.203125 195.996094 171.855469 194.21875 170.078125 C 192.445312 168.300781 190.097656 167.320312 187.613281 167.320312 C 187.609375 167.320312 187.609375 167.320312 187.605469 167.320312 C 185.125 167.320312 182.78125 168.296875 181.003906 170.070312 C 179.226562 171.84375 178.246094 174.191406 178.246094 176.675781 L 178.257812 286.355469 C 178.257812 287.894531 177.519531 289.335938 176.273438 290.234375 C 175.027344 291.136719 173.425781 291.378906 171.964844 290.894531 C 167.726562 289.488281 164.578125 288.910156 162.183594 288.910156 C 157.667969 288.910156 155.808594 290.949219 154.277344 293.289062 C 150.683594 298.78125 152.054688 306.121094 157.398438 309.996094 C 165.789062 316.085938 172.035156 321.320312 177.546875 325.933594 C 192.71875 338.640625 200.332031 345.015625 227.921875 346.597656 C 242.023438 347.40625 255.402344 342.566406 265.589844 332.972656 C 276.070312 323.101562 282.105469 309.175781 282.144531 294.769531 Z M 282.144531 294.769531 " fill-opacity="1" fill-rule="nonzero"/></g></svg>