<svg xmlns="http://www.w3.org/2000/svg" xmlns:xlink="http://www.w3.org/1999/xlink" width="500" zoomAndPan="magnify" viewBox="0 0 375 374.999991" height="500" preserveAspectRatio="xMidYMid meet" version="1.0"><defs><clipPath id="56e2d3c722"><path d="M 9.140625 0 L 366.140625 0 L 366.140625 375 L 9.140625 375 Z M 9.140625 0 " clip-rule="nonzero"/></clipPath></defs><path fill="#000000" d="M 76.304688 103.460938 L 76.304688 157.269531 C 76.304688 160.898438 78.726562 163.316406 82.355469 163.316406 C 85.988281 163.316406 88.40625 160.898438 88.40625 157.269531 L 88.40625 103.460938 L 107.769531 103.460938 C 111.398438 103.460938 113.820312 101.042969 113.820312 97.414062 C 113.820312 93.785156 111.398438 91.367188 107.769531 91.367188 L 56.335938 91.367188 C 52.707031 91.367188 50.285156 93.785156 50.285156 97.414062 C 50.285156 101.042969 52.707031 103.460938 56.335938 103.460938 Z M 76.304688 103.460938 " fill-opacity="1" fill-rule="nonzero"/><path fill="#000000" d="M 120.476562 163.316406 C 123.5 164.523438 127.132812 163.316406 128.34375 159.6875 L 133.789062 145.78125 L 159.808594 145.78125 L 165.253906 159.6875 C 168.277344 166.941406 179.167969 162.710938 176.75 154.851562 L 152.546875 94.996094 C 150.730469 90.15625 143.46875 90.15625 141.050781 94.996094 L 116.84375 154.851562 C 115.636719 158.480469 117.449219 161.5 120.476562 163.316406 Z M 138.628906 133.691406 L 147.101562 113.132812 L 155.570312 133.691406 Z M 138.628906 133.691406 " fill-opacity="1" fill-rule="nonzero"/><path fill="#000000" d="M 199.742188 162.105469 C 202.164062 163.921875 206.398438 163.316406 208.214844 160.898438 L 224.550781 137.921875 L 240.886719 160.898438 C 245.125 166.941406 255.410156 160.292969 250.570312 153.640625 L 231.8125 127.039062 L 250.570312 100.4375 C 252.382812 98.019531 251.78125 93.785156 249.359375 91.972656 C 246.9375 90.15625 242.703125 90.761719 240.886719 93.179688 L 224.550781 116.15625 L 208.214844 93.179688 C 206.398438 90.761719 202.769531 89.554688 199.742188 91.972656 C 197.320312 93.785156 196.113281 97.414062 198.53125 100.4375 L 217.289062 127.039062 L 198.53125 153.640625 C 196.71875 156.664062 197.320312 160.292969 199.742188 162.105469 Z M 199.742188 162.105469 " fill-opacity="1" fill-rule="nonzero"/><path fill="#000000" d="M 216.683594 198.988281 L 59.96875 198.988281 C 56.335938 198.988281 53.917969 201.40625 53.917969 205.035156 C 53.917969 208.660156 56.335938 211.078125 59.96875 211.078125 L 216.683594 211.078125 C 220.316406 211.078125 222.734375 208.660156 222.734375 205.035156 C 222.734375 201.40625 220.316406 198.988281 216.683594 198.988281 Z M 216.683594 198.988281 " fill-opacity="1" fill-rule="nonzero"/><path fill="#000000" d="M 188.246094 246.148438 L 59.96875 246.148438 C 56.335938 246.148438 53.917969 248.566406 53.917969 252.191406 C 53.917969 255.820312 56.335938 258.238281 59.96875 258.238281 L 188.246094 258.238281 C 191.875 258.238281 194.296875 255.820312 194.296875 252.191406 C 194.296875 248.566406 191.269531 246.148438 188.246094 246.148438 Z M 188.246094 246.148438 " fill-opacity="1" fill-rule="nonzero"/><path fill="#000000" d="M 188.246094 293.304688 L 59.96875 293.304688 C 56.335938 293.304688 53.917969 295.726562 53.917969 299.351562 C 53.917969 302.980469 56.335938 305.398438 59.96875 305.398438 L 188.246094 305.398438 C 191.875 305.398438 194.296875 302.980469 194.296875 299.351562 C 194.296875 295.726562 191.269531 293.304688 188.246094 293.304688 Z M 188.246094 293.304688 " fill-opacity="1" fill-rule="nonzero"/><path fill="#000000" d="M 292.320312 269.121094 C 282.640625 267.308594 282.640625 263.679688 282.640625 259.449219 C 283.242188 254.613281 289.292969 252.796875 292.925781 253.402344 C 294.742188 253.402344 299.582031 254.613281 299.582031 258.84375 C 299.582031 262.472656 302 264.890625 305.632812 264.890625 C 309.261719 264.890625 311.683594 261.867188 311.683594 258.84375 C 311.683594 250.378906 306.238281 243.730469 297.765625 241.914062 L 297.765625 238.285156 C 297.765625 234.660156 295.34375 232.242188 291.714844 232.242188 C 288.085938 232.242188 285.664062 234.660156 285.664062 238.285156 L 285.664062 242.519531 C 278.402344 244.332031 272.351562 249.773438 271.140625 258.238281 C 270.539062 265.496094 271.746094 278.191406 290.503906 281.214844 C 301.398438 282.421875 301.398438 287.863281 301.398438 290.285156 C 301.398438 292.097656 300.792969 293.304688 299.582031 294.515625 C 297.765625 296.328125 294.742188 296.933594 291.109375 296.933594 C 285.058594 296.933594 281.429688 293.910156 281.429688 287.863281 C 281.429688 284.238281 278.402344 281.820312 274.773438 282.421875 C 271.140625 282.421875 268.722656 285.445312 269.328125 289.074219 C 269.933594 298.746094 276.589844 306.003906 285.664062 308.421875 L 285.664062 312.652344 C 285.664062 316.28125 288.085938 318.699219 291.714844 318.699219 C 295.34375 318.699219 297.765625 316.28125 297.765625 312.652344 L 297.765625 308.421875 C 302 307.210938 305.632812 305.398438 308.65625 302.980469 C 312.289062 299.351562 314.101562 295.121094 314.101562 290.285156 C 312.894531 283.632812 310.472656 271.539062 292.320312 269.121094 Z M 292.320312 269.121094 " fill-opacity="1" fill-rule="nonzero"/><g clip-path="url(#56e2d3c722)"><path fill="#000000" d="M 366.140625 275.167969 C 366.140625 240.101562 341.9375 210.476562 308.65625 202.613281 L 308.65625 73.832031 C 308.65625 72.019531 308.050781 70.8125 306.84375 69.601562 L 240.28125 1.886719 C 239.074219 0.675781 237.257812 0.0703125 236.046875 0.0703125 L 27.898438 0.0703125 C 17.613281 0.0703125 9.140625 8.535156 9.140625 18.8125 L 9.140625 356.1875 C 9.140625 366.464844 17.613281 374.929688 27.898438 374.929688 L 290.503906 374.929688 C 300.792969 374.929688 309.261719 366.464844 309.261719 356.1875 L 309.261719 347.722656 C 341.9375 339.859375 366.140625 310.839844 366.140625 275.167969 Z M 242.097656 20.628906 L 288.691406 67.183594 L 248.753906 67.183594 C 245.125 67.183594 242.097656 64.160156 242.097656 60.53125 Z M 297.160156 356.1875 C 297.160156 359.8125 294.136719 362.835938 290.503906 362.835938 L 27.898438 362.835938 C 24.269531 362.835938 21.242188 359.8125 21.242188 356.1875 L 21.242188 18.8125 C 21.242188 15.1875 24.269531 12.164062 27.898438 12.164062 L 229.996094 12.164062 L 229.996094 61.136719 C 229.996094 71.414062 238.46875 79.878906 248.753906 79.878906 L 297.160156 79.878906 L 297.160156 201.40625 C 295.34375 201.40625 293.53125 201.40625 291.714844 201.40625 C 250.570312 201.40625 216.683594 234.660156 216.683594 276.378906 C 216.683594 317.492188 250.570312 351.347656 291.714844 351.347656 C 293.53125 351.347656 295.34375 351.347656 297.160156 351.347656 Z M 291.109375 338.046875 C 256.621094 338.046875 228.179688 310.234375 228.179688 275.167969 C 228.179688 240.101562 256.621094 212.289062 291.109375 212.289062 C 325.601562 212.289062 354.039062 240.101562 354.039062 275.167969 C 354.039062 310.234375 326.203125 338.046875 291.109375 338.046875 Z M 291.109375 338.046875 " fill-opacity="1" fill-rule="nonzero"/></g></svg>